<?xml version="1.0" encoding="UTF-8"?>
<svg class="bp-svg" xmlns="http://www.w3.org/2000/svg" viewBox="0 0 278.02 56.11">
  
  <g id="TYPE">
    <g>
      <rect id="bpBg" fill="#3070c9" width="278.02" height="56.11"/>
      <g>
        <g>
          <path fill="#fff" d="M46.3,27.1c4.22,1.11,6.32,3.45,6.32,7.03,0,1.49-.23,2.65-.68,3.48-.45.83-.96,1.5-1.51,2.01-1.83,1.69-4.98,2.53-9.45,2.53h-11.56v-2.1c1.33,0,2.17-.12,2.5-.35.33-.23.53-.49.59-.75.06-.27.1-.59.1-.97v-20.23c0-.83-.14-1.34-.42-1.54-.51-.36-1.44-.53-2.78-.53v-2.1h10.61c5.14,0,8.52,1.22,10.12,3.66.63.97.95,2.09.95,3.37,0,3.02-1.59,5.19-4.78,6.5ZM39.48,26.49c3.56-.08,5.72-1.12,6.5-3.12.25-.66.38-1.4.38-2.21,0-1.71-.5-3.06-1.51-4.03-1.01-.97-2.74-1.46-5.19-1.46h-2.76v10.82h2.59ZM40.62,40.06c3.78,0,6.08-1.23,6.9-3.7.24-.72.36-1.51.36-2.36,0-1.75-.66-3.14-1.99-4.17-1.33-1.03-3.15-1.57-5.46-1.62h-3.54v11.85h3.73Z"/>
          <path fill="#fff" d="M69.52,39.75c5.04,0,7.56-3.13,7.56-9.39v-12.61c0-.83-.14-1.34-.42-1.54-.51-.36-1.44-.53-2.78-.53v-2.1h9.68v2.1c-1.21,0-1.99.12-2.36.35-.37.24-.6.49-.71.75-.1.27-.15.59-.15.97l.02,12.4c0,6.24-2.21,10.12-6.63,11.66-1.41.48-2.77.72-4.08.72s-2.4-.09-3.29-.28c-.88-.18-1.73-.48-2.54-.89-1.78-.89-3.19-2.24-4.25-4.04-1.05-1.8-1.58-4.13-1.58-6.99v-12.59c0-.81-.14-1.33-.42-1.54-.47-.36-1.33-.53-2.59-.53v-2.1h10.67v2.1c-1.28,0-2.12.12-2.51.35-.39.24-.64.49-.74.75-.11.27-.16.59-.16.97v12.99c0,3.06.69,5.33,2.08,6.8,1.38,1.47,3.12,2.21,5.2,2.21Z"/>
          <path fill="#fff" d="M91.89,40.06c1.44,0,2.38-.12,2.85-.35.46-.23.76-.49.9-.75.13-.27.2-.59.2-.97l-.02-5.41-7.96-14.82c-.43-.77-.87-1.28-1.31-1.51-.75-.38-1.7-.57-2.86-.57v-2.1h11.03v2.1c-1.22,0-1.93.15-2.14.46s-.12.84.28,1.62l5.66,11.62,5.94-11.62c.41-.77.49-1.27.25-1.49-.43-.39-1.48-.59-3.14-.59v-2.1h9.85v2.1c-.94,0-1.71.16-2.31.48-.6.32-1.11.85-1.51,1.6l-7.66,14.08v6.15c0,.8.25,1.35.76,1.64.51.29,1.56.44,3.16.44v2.1h-11.95v-2.1Z"/>
          <path fill="#fff" d="M126.44,40.06c1.33,0,2.17-.12,2.5-.35.33-.23.53-.49.59-.75.06-.27.1-.59.1-.97v-20.23c0-.83-.14-1.34-.42-1.54-.51-.36-1.44-.53-2.78-.53v-2.1h10.42c5.21,0,8.59,1.45,10.15,4.34.62,1.14.93,2.52.93,4.14s-.32,3.02-.97,4.2c-1.77,3.18-5.28,4.76-10.55,4.76-.24,0-.48,0-.72-.02h-1.77v6.02c0,.65.03,1.17.1,1.56.07.39.32.74.75,1.03.43.29,1.77.44,4,.44v2.1h-12.33v-2.1ZM136.03,29.1c2.36,0,4.17-.59,5.43-1.76,1.26-1.17,1.89-2.95,1.89-5.32,0-2.9-1.21-4.83-3.62-5.81-.86-.36-1.91-.53-3.14-.53h-2.67v13.43h2.11Z"/>
          <path fill="#fff" d="M173.75,39.79c.99,0,1.49-1.14,1.49-3.43h1.83c.14.46.21.86.21,1.2s0,.71-.02,1.11c-.01.4-.17.92-.46,1.57-.7,1.52-2.01,2.29-3.92,2.29s-3.27-.48-4.05-1.45c-.78-.97-1.34-1.95-1.67-2.94-.33-1-.6-1.87-.8-2.62-.58-2.04-1.05-3.38-1.41-4-.65-1.19-1.53-1.79-2.65-1.79h-4.19v7.3c0,.65.03,1.17.1,1.56.06.39.29.74.68,1.03.39.29,1.57.44,3.55.44v2.1h-11.79v-2.1c1.33,0,2.17-.12,2.5-.35.33-.23.53-.49.59-.75.06-.27.1-.59.1-.97v-20.23c0-.83-.14-1.34-.42-1.54-.51-.36-1.44-.53-2.78-.53v-2.1h11.7c6.25,0,9.72,1.93,10.42,5.79.11.64.17,1.38.17,2.23,0,1.83-.57,3.39-1.72,4.68-1.15,1.29-2.71,2.22-4.7,2.79,1.71.52,2.99,1.89,3.83,4.11.28.72.58,1.66.91,2.8.33,1.14.6,1.93.8,2.36.44.97,1.02,1.45,1.71,1.45ZM162.36,27.83c2.17,0,3.71-.52,4.61-1.57.9-1.05,1.35-2.56,1.35-4.53s-.53-3.48-1.58-4.51c-1.05-1.03-2.9-1.54-5.54-1.54h-3.09v12.15h4.25Z"/>
          <path fill="#fff" d="M178.89,40.06c1.21,0,1.99-.12,2.36-.35.37-.23.6-.49.7-.75.1-.27.15-.59.15-.97l-.02-20.23c0-.83-.15-1.34-.44-1.54-.5-.36-1.42-.53-2.76-.53v-2.1h10.71v2.1c-1.21,0-1.99.12-2.36.35-.37.24-.6.49-.71.75-.1.27-.15.59-.15.97l.02,20.23c0,.83.15,1.34.44,1.54.5.36,1.42.53,2.76.53v2.1h-10.71v-2.1Z"/>
          <path fill="#fff" d="M192.38,40.02c1.24,0,2.05-.12,2.42-.36.37-.24.61-.5.71-.77.11-.27.16-.6.16-.98v-20.08c0-.83-.15-1.35-.46-1.56-.51-.37-1.45-.55-2.84-.55v-2.13h6.57l16.35,20.75v-16.5c0-.84-.15-1.36-.44-1.56-.51-.37-1.45-.55-2.82-.55v-2.13h9.6v2.13c-1.24,0-2.05.12-2.42.36-.37.24-.61.5-.71.77-.11.27-.16.6-.16.98v24.33h-2.34l-17.28-21.93v17.68c0,.83.15,1.35.46,1.56.51.37,1.46.55,2.86.55v2.13h-9.66v-2.13Z"/>
          <path fill="#fff" d="M229.53,40.06c1.44,0,2.39-.12,2.86-.35.47-.23.77-.49.91-.75.14-.27.21-.59.21-.97V15.78h-3.91c-2.1,0-3.3,1.11-3.6,3.33l-.55,3.87-2.76-.02.84-9.39h24.25l.84,9.39-2.76.02-.55-3.87c-.14-1.03-.41-1.76-.82-2.19-.74-.76-1.66-1.14-2.78-1.14h-3.91v22.19c0,.8.26,1.35.79,1.64.53.29,1.59.44,3.19.44v2.1h-12.25v-2.1Z"/>
        </g>
        <g>
          <path fill="#fff" d="M123.95,25.61l-3.56,1.64c-.24.11-.5-.2-.6-.36-.1-.16-.24-.57-.04-.73l3.18-2.25c.17-.12.41-.08.58.01.84.44.83,1.52.45,1.69Z"/>
          <path fill="#fff" d="M118.35,25.36c-.19.41-1.13.46-1.23,0-.27-1.29-.23-2.59-.41-3.89-.03-.19.16-.39.3-.48.44-.28,1-.27,1.43.01.15.1.29.28.27.48l-.36,3.89Z"/>
          <path fill="#fff" d="M118.45,35.1c-.44.3-1,.3-1.44.02-.14-.09-.32-.29-.3-.48.16-1.31.16-2.59.4-3.9.08-.43,1.12-.43,1.2,0,.25,1.28.23,2.55.4,3.84.03.2-.1.4-.26.52Z"/>
          <path fill="#fff" d="M115.09,27.27l-3.57-1.64c-.19-.09-.28-.31-.29-.51-.02-.5.25-.96.68-1.2.16-.08.43-.15.59-.03,1.04.79,2.16,1.43,3.17,2.28.36.3-.11,1.07-.57,1.09Z"/>
          <path fill="#fff" d="M112.53,32.18c-.19.13-.42.11-.6.02-.45-.22-.74-.7-.72-1.21,0-.2.1-.42.29-.51l3.54-1.62c.25-.06.49.21.58.37.11.17.25.59.04.74l-3.13,2.22Z"/>
          <path fill="#fff" d="M124.2,30.96c.04.53-.24,1-.69,1.23-.17.09-.41.13-.58.02l-3.18-2.25c-.21-.15-.06-.57.04-.73s.36-.47.6-.36l3.52,1.61c.17.08.27.28.29.48Z"/>
        </g>
      </g>
    </g>
  </g>
</svg>