<svg xmlns="http://www.w3.org/2000/svg" viewBox="-6.22 -35.8 166 166">
  <style>
    path { fill: #000; }                                   /* modo claro: negro */
    @media (prefers-color-scheme: dark) { path { fill: #fff; } }  /* modo oscuro: blanco */
  </style>
  <path d="M149.89,46.55c-3.23-3.42-7.75-6.1-13.57-8.02-5.81-1.92-12.44-3.01-19.88-3.27-7.44-.26-15.24.38-23.38,1.92l-35.5,6.71V0h-21.14v54.16c-.03,2.03-.32,3.74-.89,5.11-.57,1.37-1.4,2.41-2.49,3.1-1.09.69-2.44,1.04-4.03,1.04s-2.9-.34-3.99-1.02c-1.09-.68-1.94-1.7-2.54-3.07-.6-1.36-.95-3.03-1.02-5.01H0c-.03,6.07,1.21,11,3.7,14.79,2.49,3.79,5.84,6.57,10.03,8.33,4.19,1.76,8.82,2.64,13.89,2.64,5.84,0,11-1.09,15.49-3.26,4.49-2.17,8.01-5.21,10.57-9.1,1.84-2.8,3.02-5.92,3.55-9.36l34.02,36.04,29.79-5.63-13.53-14.33,16.51-3.12c8.36-1.58,15.03-3.64,20.01-6.2,4.98-2.55,8.02-5.42,9.11-8.61,1.1-3.19.01-6.51-3.25-9.97ZM120.16,56.36c-.39,1.26-1.57,2.39-3.54,3.4-1.97,1.01-4.71,1.85-8.21,2.51l-10.5,1.99-12.55-13.29,10.5-1.99c3.5-.66,6.74-.96,9.72-.91,2.98.06,5.6.45,7.87,1.18,2.27.73,4.05,1.78,5.36,3.17,1.29,1.37,1.74,2.68,1.35,3.94Z"/>
</svg>
