<?xml version="1.0" encoding="UTF-8"?>
<svg id="Layer_2" data-name="Layer 2" xmlns="http://www.w3.org/2000/svg" viewBox="0 0 1089.21 956.28">
  <defs>
    <style>
      .cls-1 {
        fill: #fff;
      }

      .cls-2 {
        font-family: ArbutusSlab-Regular, 'Arbutus Slab';
        font-size: 42.79px;
      }

      .cls-3 {
        fill: #f5c64b;
      }

      .cls-4 {
        fill: #1c1c1b;
      }

      .cls-5 {
        fill: #3070c9;
      }
    </style>
  </defs>
  <g id="TYPE">
    <g>
      <g>
        <path class="cls-3" d="M768.39,26.66l-19.66,9.04c-1.33.61-2.79-1.13-3.34-1.99-.58-.9-1.33-3.15-.23-4.04l17.56-12.42c.92-.65,2.28-.42,3.19.06,4.64,2.41,4.57,8.38,2.47,9.34Z"/>
        <path class="cls-3" d="M737.43,25.32c-1.05,2.25-6.25,2.54-6.79-.03-1.48-7.1-1.29-14.31-2.26-21.47-.14-1.06.88-2.17,1.65-2.67,2.42-1.55,5.53-1.51,7.9.08.82.55,1.59,1.57,1.5,2.63l-1.99,21.46Z"/>
        <path class="cls-3" d="M737.99,79.1c-2.42,1.66-5.55,1.65-7.95.13-.8-.5-1.78-1.61-1.65-2.66.89-7.21.86-14.32,2.21-21.52.44-2.37,6.17-2.39,6.64-.02,1.4,7.07,1.24,14.09,2.21,21.2.15,1.09-.53,2.21-1.46,2.86Z"/>
        <path class="cls-3" d="M719.43,35.83l-19.73-9.03c-1.04-.48-1.57-1.72-1.63-2.82-.13-2.74,1.36-5.32,3.78-6.62.87-.47,2.35-.81,3.24-.14,5.76,4.35,11.96,7.89,17.51,12.58,1.96,1.66-.61,5.92-3.17,6.04Z"/>
        <path class="cls-3" d="M705.33,62.96c-1.05.74-2.3.63-3.31.14-2.5-1.23-4.09-3.89-3.96-6.69.05-1.11.57-2.35,1.63-2.83l19.56-8.96c1.38-.32,2.68,1.18,3.19,2.02.59.96,1.37,3.26.2,4.09l-17.31,12.23Z"/>
        <path class="cls-3" d="M769.75,56.23c.21,2.93-1.35,5.53-3.8,6.8-.92.48-2.29.73-3.2.09l-17.58-12.44c-1.15-.81-.33-3.13.23-4.02s1.99-2.59,3.32-1.98l19.43,8.88c.94.43,1.51,1.52,1.6,2.67Z"/>
      </g>
      <g>
        <path class="cls-5" d="M423.62,118.12c3.89,1.74,8.47,2.62,13.6,2.62,4.81,0,9.27-1.06,13.25-3.15,4-2.11,7.21-5.12,9.52-8.95,2.31-3.84,3.49-8.27,3.49-13.18v-49.8h-21.17v49.8c0,2.5-.48,4.45-1.43,5.8-.86,1.22-2.02,1.78-3.66,1.78-1.33,0-2.36-.18-3.08-.53-.58-.29-1.03-.84-1.36-1.69-.4-1.02-.6-2.56-.6-4.58v-1.5h-21.27v1.5c0,5.4,1.12,9.99,3.34,13.65,2.23,3.68,5.38,6.45,9.36,8.23Z"/>
        <path class="cls-5" d="M487.36,117.54c4.46,2.12,9.72,3.2,15.61,3.2s11.22-1.07,15.64-3.17c4.49-2.14,8-5.34,10.42-9.51,2.4-4.14,3.62-9.16,3.62-14.94v-47.46h-21.22v47.46c0,3.6-.69,6.2-2.06,7.71-1.32,1.47-3.48,2.21-6.41,2.21s-5.13-.75-6.52-2.24c-1.42-1.51-2.13-4.1-2.13-7.69v-47.46h-21.31v47.46c0,5.75,1.26,10.77,3.76,14.91,2.5,4.16,6.07,7.36,10.6,9.52Z"/>
        <path class="cls-5" d="M561.37,107.99h20.64l3.61,11.77h22.89l-27.18-74.11h-19.39l-27.03,74.11h22.84l3.61-11.77ZM566.79,90.24l4.86-15.86,4.9,15.86h-9.76Z"/>
        <polygon class="cls-5" points="634.12 82.52 655.49 119.76 675.98 119.76 675.98 45.65 654.81 45.65 654.81 82.84 633.49 45.65 612.91 45.65 612.91 119.76 634.12 119.76 634.12 82.52"/>
        <path class="cls-5" d="M302.44,131.03h0c-4.42-2.23-9.61-3.36-15.42-3.36h-30.17v74.11h21.22v-23.05h8.95c5.82,0,11.01-1.03,15.4-3.07,4.46-2.07,7.95-5.01,10.37-8.75,2.43-3.75,3.66-8.1,3.66-12.93s-1.22-9.57-3.64-13.55c-2.42-3.99-5.91-7.15-10.38-9.4ZM278.07,145.42h8.95c2.68,0,4.62.77,5.93,2.34,1.38,1.66,2.05,3.73,2.05,6.32,0,2.14-.62,3.77-1.89,5h0c-1.27,1.23-3.31,1.85-6.09,1.85h-8.95v-15.51Z"/>
        <rect class="cls-5" x="324.41" y="127.67" width="21.12" height="74.11"/>
        <polygon class="cls-5" points="356.31 201.78 408.83 201.78 408.83 184.08 377.53 184.08 377.53 172.42 403.95 172.42 403.95 155.26 377.53 155.26 377.53 145.42 409.03 145.42 409.03 127.67 356.31 127.67 356.31 201.78"/>
        <path class="cls-5" d="M470.16,164.4h0c2.22-3.38,3.35-8,3.35-13.74,0-4.88-1.21-9.11-3.61-12.58-2.39-3.45-5.79-6.09-10.12-7.84-4.23-1.71-9.27-2.58-14.97-2.58h-30.17v74.11h21.22v-24.03h6.02l11.96,24.03h21.96v-2.64l-13.99-27.23c3.58-2,6.38-4.51,8.35-7.5ZM435.85,145.42h8.95c2.48,0,4.31.61,5.59,1.87,1.27,1.25,1.89,3.02,1.89,5.42s-.61,4.27-1.82,5.45h0c-1.22,1.19-3.12,1.79-5.67,1.79h-8.95v-14.53Z"/>
        <path class="cls-5" d="M504.66,127.67l-27.03,74.11h22.84l3.61-11.77h20.64l3.61,11.77h22.89l-27.18-74.11h-19.39ZM519.26,172.26h-9.76l4.86-15.86,4.9,15.86Z"/>
        <polygon class="cls-5" points="611.54 138.86 611.54 127.67 552.42 127.67 552.42 145.42 584.06 145.42 552.76 190.28 552.76 201.78 611.68 201.78 611.68 184.08 580.55 184.08 611.54 138.86"/>
        <polygon class="cls-5" points="675.23 138.86 675.23 127.67 616.12 127.67 616.12 145.42 647.75 145.42 616.46 190.28 616.46 201.78 675.38 201.78 675.38 184.08 644.25 184.08 675.23 138.86"/>
        <path class="cls-5" d="M728.4,131.2c-4.98-2.99-10.72-4.51-17.06-4.51s-12.17,1.52-17.13,4.51c-4.98,3-8.91,7.34-11.68,12.9-2.75,5.51-4.14,12.02-4.14,19.35v2.59c0,7.33,1.39,13.84,4.14,19.35,2.77,5.56,6.71,9.89,11.71,12.88,4.98,2.98,10.77,4.49,17.2,4.49s12.07-1.51,17.03-4.49c4.98-2.98,8.92-7.31,11.7-12.87,2.76-5.51,4.16-12.02,4.16-19.35v-2.59c0-7.33-1.41-13.85-4.19-19.36-2.8-5.55-6.76-9.89-11.75-12.89ZM700,163.35c0-12.63,3.71-18.77,11.34-18.77,3.62,0,6.33,1.48,8.29,4.51,2.06,3.21,3.11,8,3.11,14.25v2.69c0,6.16-1.04,10.96-3.09,14.25-1.94,3.11-4.62,4.62-8.2,4.62-3.78,0-6.53-1.48-8.42-4.54-2.01-3.24-3.02-8.06-3.02-14.33v-2.69Z"/>
        <polygon class="cls-5" points="773.12 127.67 751.9 127.67 751.9 201.78 802.42 201.78 802.42 184.08 773.12 184.08 773.12 127.67"/>
        <rect class="cls-5" x="809.93" y="127.67" width="21.12" height="74.11"/>
      </g>
      <text class="cls-2" transform="translate(0 310.22)"><tspan x="0" y="0">DISEÑO VISUAL Y ACTIVOS DE AUTORÍA PROPIA.</tspan><tspan class="cls-3"><tspan x="273.5" y="42.79">WALMART INSPIRATION</tspan></tspan></text>
      <text class="cls-2" transform="translate(358.65 264.09)"><tspan x="0" y="0">SUPERMERCADO</tspan></text>
      <g>
        <rect class="cls-5" x="345.33" y="513.95" width="398.81" height="88.09" transform="translate(50.7 -45.35) rotate(5)"/>
        <g>
          <path class="cls-1" d="M391.74,559.76c4.92.43,8.22-1.56,9.92-5.98l3.37.3c-.11,1.22-.54,2.39-1.3,3.51s-1.77,2.09-3.04,2.91c-2.8,1.83-6.27,2.57-10.39,2.21-4.12-.36-7.53-2.04-10.23-5.05-3.13-3.47-4.42-8.25-3.89-14.36.43-4.87,2.1-8.86,5.01-11.98,2.07-2.23,4.69-3.67,7.86-4.34,1.63-.34,3.4-.43,5.31-.27,3.76.33,6.78,1.46,9.05,3.4s3.29,4.21,3.06,6.82c-.17,1.95-1.05,3.2-2.64,3.73-.47.16-.97.22-1.5.18-1.64-.14-2.68-.93-3.12-2.37-.13-.45-.17-.98-.12-1.58s.28-1.18.67-1.73.89-.96,1.48-1.23c-1.05-2.53-3.21-3.94-6.48-4.22s-6.03.72-8.29,3.02c-2.26,2.3-3.61,5.92-4.04,10.88-.43,4.96.27,8.83,2.12,11.61,1.85,2.78,4.24,4.3,7.18,4.56Z"/>
          <path class="cls-1" d="M411.11,546.35c.26-2.97.94-5.56,2.05-7.79,1.11-2.22,2.49-4.02,4.15-5.38,3.27-2.69,7.25-3.83,11.93-3.42s8.41,2.2,11.17,5.37c3.06,3.49,4.34,8.16,3.83,14s-2.44,10.19-5.78,13.05c-3.34,2.86-7.47,4.08-12.37,3.65-4.89-.43-8.73-2.36-11.53-5.8-2.8-3.44-3.95-8-3.45-13.68ZM426.43,562.79c2.73.24,5.12-.58,7.15-2.44,2.57-2.36,4.08-6.15,4.54-11.38s-.21-9.17-1.99-11.81c-1.78-2.64-4.19-4.1-7.22-4.36-3.01-.26-5.61.75-7.78,3.04-2.18,2.29-3.48,5.89-3.91,10.81-.62,7.07.91,11.9,4.59,14.49,1.35.95,2.89,1.5,4.62,1.65Z"/>
          <path class="cls-1" d="M446.32,564.49c1.53.13,2.54.07,3.01-.19.48-.26.8-.55.96-.87.16-.32.26-.72.3-1.19l2.16-24.69c.09-1.01-.04-1.67-.39-1.97-.58-.51-1.73-.84-3.43-.98l.23-2.62,8.08.71,17.86,27.27,1.77-20.28c.09-1.03-.03-1.69-.37-1.97-.59-.51-1.72-.83-3.41-.98l.23-2.62,11.8,1.03-.23,2.62c-1.53-.13-2.54-.07-3.01.18-.48.26-.8.55-.96.87s-.26.72-.3,1.19l-2.62,29.91-2.88-.25-18.89-28.82-1.9,21.74c-.09,1.01.04,1.67.39,1.97.58.51,1.74.84,3.45.99l-.23,2.62-11.88-1.04.23-2.62Z"/>
          <path class="cls-1" d="M491.99,568.53c1.76.15,2.95.11,3.55-.13s1-.51,1.21-.83c.2-.31.32-.7.36-1.17l2.39-27.29-4.8-.42c-2.58-.23-4.17,1.01-4.79,3.71l-1.1,4.69-3.39-.32,2.04-11.46,29.82,2.61.02,11.64-3.4-.27-.26-4.81c-.06-1.28-.32-2.21-.77-2.78-.82-1.02-1.92-1.58-3.3-1.7l-4.8-.42-2.39,27.29c-.09.98.18,1.68.8,2.1.62.42,1.91.71,3.88.88l-.23,2.58-15.06-1.32.23-2.58Z"/>
          <path class="cls-1" d="M515.39,570.58c1.3.11,2.29,0,2.99-.34.7-.34,1.27-.95,1.7-1.82l15.27-28.9,4,.35,8.95,31.02c.33,1.04.74,1.75,1.23,2.15.48.4,1.48.66,2.98.79l-.23,2.58-14.45-1.26.23-2.58c2.06.18,3.3.15,3.7-.1.41-.25.61-.54.62-.87,0-.33-.07-.74-.21-1.25l-1.59-6.06-13.61-1.19-2.93,5.67c-.44.91-.39,1.58.15,2.01.54.43,1.88.74,4,.93l-.23,2.58-12.81-1.12.23-2.58ZM539.89,561.63l-4.11-15.65-7.54,14.64,11.64,1.02Z"/>
          <path class="cls-1" d="M571.37,575.48c4.92.43,8.22-1.56,9.92-5.98l3.37.3c-.11,1.22-.54,2.39-1.3,3.51s-1.77,2.09-3.04,2.91c-2.8,1.83-6.27,2.57-10.39,2.21s-7.53-2.04-10.23-5.05c-3.13-3.47-4.42-8.25-3.89-14.36.43-4.87,2.1-8.86,5.01-11.98,2.07-2.23,4.69-3.67,7.86-4.34,1.64-.34,3.4-.43,5.31-.27,3.76.33,6.78,1.46,9.05,3.4s3.29,4.21,3.06,6.82c-.17,1.95-1.05,3.2-2.64,3.73-.47.16-.97.22-1.5.18-1.64-.14-2.68-.93-3.12-2.37-.13-.45-.17-.98-.12-1.58s.28-1.18.67-1.73c.39-.56.89-.96,1.48-1.23-1.05-2.53-3.21-3.94-6.47-4.22s-6.03.72-8.29,3.02c-2.26,2.3-3.61,5.92-4.04,10.88s.27,8.83,2.12,11.61c1.85,2.78,4.24,4.3,7.18,4.56Z"/>
          <path class="cls-1" d="M596.2,577.65c1.76.15,2.95.11,3.55-.12.6-.24,1-.51,1.21-.83.2-.31.32-.7.36-1.17l2.39-27.29-4.8-.42c-2.58-.23-4.17,1.01-4.79,3.71l-1.09,4.7-3.39-.32,2.04-11.46,29.82,2.61.02,11.64-3.4-.27-.26-4.81c-.06-1.28-.32-2.21-.77-2.78-.82-1.02-1.92-1.58-3.3-1.7l-4.8-.42-2.39,27.29c-.09.98.18,1.68.8,2.1.62.42,1.91.71,3.88.88l-.23,2.58-15.06-1.32.23-2.58Z"/>
          <path class="cls-1" d="M637.77,581.28c1.47.13,2.44.07,2.92-.18s.79-.53.95-.85c.15-.32.25-.71.29-1.18l2.18-24.87c.09-1.01-.03-1.66-.35-1.94-.59-.49-1.71-.81-3.36-.95l.23-2.58,11.05.97,8.01,28.01,12.33-26.23,10.94.96-.23,2.58c-1.48-.13-2.46-.07-2.94.18-.48.25-.79.53-.95.85-.15.32-.25.71-.29,1.18l-2.18,24.87c-.09,1,.04,1.65.37,1.94.59.49,1.71.81,3.36.95l-.23,2.58-13-1.14.23-2.58c1.47.13,2.43.07,2.88-.18.45-.25.75-.54.89-.85.14-.32.23-.71.27-1.18l2.19-24.99-13.5,29.17-2.6-.23-9.36-31.19-2.19,25.01c-.09,1.02.03,1.66.35,1.94.59.49,1.71.81,3.36.95l-.23,2.58-11.62-1.02.23-2.58Z"/>
          <path class="cls-1" d="M683.66,585.3c1.51.13,2.5.08,2.96-.17.46-.24.77-.52.92-.83.15-.31.25-.7.29-1.17l2.18-24.92c.08-.97-.15-1.66-.69-2.08s-1.55-.69-3.02-.82l.23-2.58,25.48,2.23.17,8.58-3.4-.27-.4-2.7c-.2-1.29-.45-2.12-.75-2.47-.53-.63-1.48-1-2.85-1.12l-9.27-.81-1.19,13.63,4.54.4c1.76.15,2.86.13,3.27-.07s.72-.51.91-.94c.19-.42.32-1.05.39-1.88l3.04.27-.79,9.06-3.04-.27c.13-1.45-.08-2.38-.62-2.78-.54-.4-1.67-.68-3.38-.83l-4.54-.4-1.2,13.72,9.95.87c1.81.16,3.07-.34,3.77-1.51.22-.36.44-.73.66-1.12l1.31-2.79,3.4.3-1.65,8.38-26.89-2.35.23-2.58Z"/>
        </g>
      </g>
      <g>
        <path d="M426.16,898.48c-3.24-3.43-7.76-6.11-13.58-8.03-5.82-1.93-12.45-3.01-19.91-3.28-7.45-.26-15.26.38-23.41,1.92l-35.55,6.72v-43.94h-21.17v54.23c-.03,2.03-.32,3.74-.89,5.12-.57,1.38-1.4,2.41-2.49,3.11-1.1.7-2.44,1.04-4.04,1.04s-2.9-.34-4-1.02c-1.09-.68-1.94-1.71-2.55-3.07-.61-1.36-.95-3.04-1.02-5.02h-21.48c-.03,6.08,1.21,11.02,3.71,14.81,2.5,3.8,5.84,6.58,10.04,8.34,4.2,1.76,8.83,2.65,13.91,2.65,5.84,0,11.02-1.09,15.51-3.26,4.49-2.18,8.02-5.21,10.58-9.12,1.84-2.8,3.03-5.93,3.56-9.38l34.06,36.09,29.83-5.64-13.54-14.35,16.53-3.12c8.37-1.58,15.05-3.65,20.03-6.2,4.99-2.56,8.03-5.43,9.12-8.62,1.1-3.19.01-6.52-3.26-9.98ZM396.39,908.31c-.39,1.26-1.57,2.4-3.55,3.41-1.97,1.01-4.71,1.85-8.22,2.51l-10.52,1.99-12.56-13.31,10.52-1.99c3.51-.66,6.75-.96,9.73-.91,2.98.06,5.61.45,7.88,1.18,2.27.73,4.06,1.78,5.36,3.17,1.29,1.37,1.74,2.68,1.35,3.95Z"/>
        <g>
          <path class="cls-4" d="M647.34,872.8c.6.38,1.29,1.04,2.06,1.99v-10.25h3.28v27.92h-3.07v-2.82c-.79,1.25-1.73,2.15-2.81,2.71-1.08.56-2.32.83-3.72.83-2.25,0-4.2-.95-5.85-2.85-1.65-1.9-2.47-4.43-2.47-7.59,0-2.96.75-5.52,2.25-7.68,1.5-2.17,3.65-3.25,6.44-3.25,1.55,0,2.84.33,3.89.99M639.73,888.01c.92,1.46,2.39,2.2,4.41,2.2,1.57,0,2.86-.68,3.87-2.04,1.01-1.36,1.52-3.31,1.52-5.84s-.52-4.46-1.56-5.69c-1.04-1.23-2.33-1.85-3.86-1.85-1.71,0-3.09.66-4.16,1.97-1.06,1.31-1.59,3.25-1.59,5.8,0,2.17.46,3.99,1.38,5.46"/>
          <path class="cls-4" d="M670.31,872.74c1.34.68,2.37,1.55,3.07,2.62.68,1.02,1.13,2.21,1.35,3.58.2.94.3,2.42.3,4.47h-14.76c.06,2.06.55,3.72,1.45,4.97.9,1.25,2.3,1.87,4.19,1.87,1.77,0,3.18-.59,4.23-1.77.59-.68,1.01-1.48,1.25-2.38h3.35c-.09.75-.38,1.58-.88,2.49-.5.92-1.06,1.66-1.67,2.25-1.03,1.01-2.3,1.69-3.82,2.05-.81.2-1.73.3-2.76.3-2.51,0-4.64-.92-6.38-2.76-1.74-1.84-2.62-4.41-2.62-7.72s.88-5.9,2.64-7.94c1.76-2.03,4.05-3.05,6.89-3.05,1.43,0,2.82.34,4.16,1.01M671.53,880.7c-.14-1.48-.46-2.66-.96-3.54-.93-1.64-2.47-2.46-4.64-2.46-1.55,0-2.85.57-3.91,1.7-1.05,1.13-1.61,2.57-1.67,4.31h11.18Z"/>
          <path class="cls-4" d="M679.07,872.27h3.33v2.69c.68-.92,1.43-1.63,2.24-2.14,1.15-.76,2.51-1.14,4.06-1.14,2.3,0,4.26.88,5.87,2.64,1.61,1.76,2.41,4.28,2.41,7.55,0,4.42-1.16,7.58-3.48,9.47-1.47,1.2-3.18,1.8-5.13,1.8-1.54,0-2.82-.33-3.86-1-.61-.38-1.29-1.03-2.03-1.95v10.36h-3.41v-28.28ZM691.89,888.18c1.06-1.33,1.59-3.32,1.59-5.98,0-1.62-.23-3.01-.7-4.17-.89-2.23-2.51-3.35-4.87-3.35s-3.99,1.18-4.87,3.54c-.47,1.26-.7,2.87-.7,4.81,0,1.57.23,2.9.7,4,.89,2.1,2.51,3.15,4.87,3.15,1.6,0,2.92-.67,3.98-2"/>
          <path class="cls-4" d="M711.8,880.19c.78-.1,1.31-.43,1.57-.98.15-.3.23-.74.23-1.31,0-1.17-.41-2.01-1.24-2.54-.82-.53-2.01-.79-3.54-.79-1.78,0-3.04.48-3.78,1.45-.42.53-.69,1.33-.81,2.38h-3.18c.06-2.51.87-4.25,2.43-5.23,1.56-.98,3.36-1.47,5.42-1.47,2.38,0,4.32.46,5.81,1.36,1.48.91,2.21,2.32,2.21,4.24v11.69c0,.35.07.64.22.85.15.21.45.32.92.32.15,0,.32,0,.51-.03.19-.02.39-.05.61-.09v2.52c-.53.15-.94.25-1.21.28-.28.04-.66.06-1.14.06-1.17,0-2.03-.42-2.56-1.25-.28-.44-.47-1.07-.59-1.87-.7.91-1.69,1.7-2.99,2.37-1.3.67-2.73,1-4.3,1-1.88,0-3.42-.57-4.61-1.71-1.19-1.14-1.79-2.57-1.79-4.28,0-1.88.59-3.34,1.76-4.37,1.17-1.03,2.72-1.67,4.62-1.91l5.44-.68ZM704.62,889.4c.72.57,1.57.85,2.56.85,1.2,0,2.36-.28,3.49-.83,1.89-.92,2.84-2.43,2.84-4.52v-2.74c-.42.27-.95.49-1.61.66-.65.18-1.3.3-1.93.38l-2.06.27c-1.24.16-2.16.42-2.79.77-1.06.59-1.58,1.54-1.58,2.84,0,.98.36,1.76,1.08,2.32"/>
          <path class="cls-4" d="M722.6,872.18h3.24v3.51c.27-.68.92-1.51,1.95-2.49,1.04-.98,2.23-1.47,3.58-1.47.06,0,.17,0,.32.02.15.01.41.04.78.08v3.6c-.2-.04-.39-.06-.56-.08-.17-.01-.36-.02-.56-.02-1.72,0-3.04.55-3.96,1.66-.92,1.11-1.38,2.38-1.38,3.82v11.67h-3.41v-20.29Z"/>
          <path class="cls-4" d="M736.1,866.51h3.45v5.66h3.24v2.79h-3.24v13.24c0,.71.24,1.18.72,1.42.26.14.71.21,1.32.21.16,0,.34,0,.53-.01.19,0,.41-.03.66-.06v2.71c-.39.11-.8.2-1.22.25-.42.05-.88.08-1.37.08-1.59,0-2.67-.41-3.24-1.22-.57-.81-.85-1.87-.85-3.17v-13.43h-2.75v-2.79h2.75v-5.66Z"/>
          <path class="cls-4" d="M757.07,880.19c.78-.1,1.31-.43,1.57-.98.15-.3.23-.74.23-1.31,0-1.17-.41-2.01-1.24-2.54-.82-.53-2.01-.79-3.54-.79-1.78,0-3.04.48-3.78,1.45-.42.53-.69,1.33-.81,2.38h-3.18c.06-2.51.87-4.25,2.43-5.23,1.56-.98,3.36-1.47,5.42-1.47,2.38,0,4.32.46,5.81,1.36,1.48.91,2.21,2.32,2.21,4.24v11.69c0,.35.07.64.22.85.15.21.45.32.92.32.15,0,.32,0,.51-.03.19-.02.39-.05.61-.09v2.52c-.53.15-.94.25-1.21.28-.28.04-.66.06-1.14.06-1.17,0-2.03-.42-2.56-1.25-.28-.44-.47-1.07-.59-1.87-.7.91-1.69,1.7-2.99,2.37-1.3.67-2.73,1-4.3,1-1.88,0-3.42-.57-4.61-1.71-1.19-1.14-1.79-2.57-1.79-4.28,0-1.88.59-3.34,1.76-4.37,1.17-1.03,2.72-1.67,4.62-1.91l5.44-.68ZM749.89,889.4c.72.57,1.57.85,2.56.85,1.2,0,2.36-.28,3.49-.83,1.89-.92,2.84-2.43,2.84-4.52v-2.74c-.42.27-.95.49-1.61.66-.65.18-1.3.3-1.93.38l-2.06.27c-1.24.16-2.16.42-2.79.77-1.06.59-1.58,1.54-1.58,2.84,0,.98.36,1.76,1.08,2.32"/>
          <path class="cls-4" d="M767.78,872.18h3.37v2.88c.81-1,1.54-1.72,2.2-2.18,1.12-.77,2.4-1.16,3.83-1.16,1.62,0,2.92.4,3.9,1.2.56.45,1.06,1.12,1.52,2.01.76-1.09,1.65-1.89,2.67-2.42,1.02-.52,2.17-.79,3.45-.79,2.73,0,4.58.99,5.57,2.96.53,1.06.8,2.49.8,4.28v13.51h-3.54v-14.09c0-1.35-.34-2.28-1.01-2.79-.68-.51-1.5-.76-2.47-.76-1.34,0-2.49.45-3.46,1.35-.97.9-1.45,2.39-1.45,4.49v11.8h-3.47v-13.24c0-1.38-.16-2.38-.49-3.01-.52-.95-1.48-1.42-2.9-1.42-1.29,0-2.46.5-3.51,1.5-1.05,1-1.58,2.8-1.58,5.42v10.76h-3.41v-20.29Z"/>
          <path class="cls-4" d="M812.62,872.74c1.34.68,2.37,1.55,3.07,2.62.68,1.02,1.13,2.21,1.35,3.58.2.94.3,2.42.3,4.47h-14.76c.06,2.06.55,3.72,1.45,4.97.9,1.25,2.3,1.87,4.19,1.87,1.77,0,3.18-.59,4.23-1.77.59-.68,1.01-1.48,1.25-2.38h3.35c-.09.75-.38,1.58-.88,2.49-.5.92-1.06,1.66-1.67,2.25-1.03,1.01-2.3,1.69-3.82,2.05-.81.2-1.73.3-2.76.3-2.51,0-4.64-.92-6.38-2.76-1.74-1.84-2.62-4.41-2.62-7.72s.88-5.9,2.64-7.94c1.76-2.03,4.05-3.05,6.89-3.05,1.43,0,2.82.34,4.16,1.01M813.84,880.7c-.14-1.48-.46-2.66-.96-3.54-.93-1.64-2.47-2.46-4.64-2.46-1.55,0-2.85.57-3.91,1.7-1.05,1.13-1.61,2.57-1.67,4.31h11.18Z"/>
          <path class="cls-4" d="M821.67,872.18h3.24v2.88c.96-1.19,1.98-2.04,3.05-2.56,1.07-.52,2.27-.78,3.58-.78,2.88,0,4.82,1.01,5.84,3.01.55,1.1.83,2.67.83,4.72v13.01h-3.47v-12.79c0-1.24-.18-2.23-.55-2.99-.61-1.26-1.7-1.89-3.3-1.89-.81,0-1.47.08-1.99.25-.93.28-1.76.83-2.46,1.67-.57.67-.94,1.36-1.11,2.08-.17.71-.25,1.73-.25,3.06v10.63h-3.41v-20.29Z"/>
          <path class="cls-4" d="M843.92,866.51h3.45v5.66h3.24v2.79h-3.24v13.24c0,.71.24,1.18.72,1.42.26.14.71.21,1.32.21.16,0,.34,0,.53-.01.19,0,.41-.03.66-.06v2.71c-.39.11-.8.2-1.22.25-.42.05-.88.08-1.37.08-1.59,0-2.67-.41-3.24-1.22-.57-.81-.85-1.87-.85-3.17v-13.43h-2.75v-2.79h2.75v-5.66Z"/>
          <path class="cls-4" d="M868.72,874.2c1.79,1.74,2.69,4.3,2.69,7.68s-.79,5.97-2.37,8.1c-1.58,2.13-4.03,3.2-7.35,3.2-2.77,0-4.97-.94-6.6-2.83-1.63-1.89-2.45-4.42-2.45-7.6,0-3.41.86-6.12,2.58-8.14,1.72-2.02,4.03-3.03,6.92-3.03,2.59,0,4.79.87,6.58,2.61M866.6,887.69c.83-1.71,1.25-3.61,1.25-5.7,0-1.89-.3-3.43-.9-4.62-.95-1.87-2.58-2.8-4.91-2.8-2.06,0-3.56.79-4.5,2.38-.94,1.59-1.4,3.51-1.4,5.75s.47,3.96,1.4,5.39c.94,1.44,2.42,2.16,4.46,2.16,2.23,0,3.77-.85,4.6-2.56"/>
          <path class="cls-4" d="M637.55,914.51v-2.61c2.46-.24,4.18-.64,5.15-1.2.97-.56,1.7-1.89,2.18-3.99h2.69v27.01h-3.64v-19.21h-6.38Z"/>
          <path class="cls-4" d="M656.27,914.51v-2.61c2.46-.24,4.18-.64,5.15-1.2.97-.56,1.7-1.89,2.18-3.99h2.69v27.01h-3.64v-19.21h-6.38Z"/>
          <path class="cls-4" d="M676.79,927.62c.84-1.73,2.48-3.3,4.92-4.72l3.64-2.1c1.63-.95,2.77-1.76,3.43-2.43,1.04-1.05,1.55-2.25,1.55-3.61,0-1.58-.47-2.84-1.42-3.77-.95-.93-2.21-1.4-3.79-1.4-2.34,0-3.95.89-4.85,2.66-.48.95-.74,2.27-.8,3.95h-3.47c.04-2.36.47-4.29,1.31-5.78,1.48-2.63,4.09-3.94,7.82-3.94,3.11,0,5.38.84,6.81,2.52,1.43,1.68,2.15,3.55,2.15,5.61,0,2.17-.77,4.03-2.29,5.57-.88.9-2.47,1.98-4.75,3.26l-2.6,1.44c-1.24.68-2.21,1.33-2.92,1.95-1.26,1.1-2.06,2.32-2.39,3.66h14.81v3.22h-18.62c.13-2.34.61-4.37,1.45-6.1"/>
          <polygon class="cls-4" points="723.48 906.76 726.79 916.96 737.51 916.96 728.84 923.26 732.15 933.46 723.48 927.16 714.8 933.46 718.12 923.26 709.44 916.96 720.17 916.96 723.48 906.76"/>
          <polygon class="cls-4" points="753.8 906.76 757.11 916.96 767.83 916.96 759.16 923.26 762.47 933.46 753.8 927.16 745.12 933.46 748.43 923.26 739.76 916.96 750.48 916.96 753.8 906.76"/>
          <polygon class="cls-4" points="784.11 906.76 787.42 916.96 798.15 916.96 789.47 923.26 792.79 933.46 784.11 927.16 775.44 933.46 778.75 923.26 770.08 916.96 780.8 916.96 784.11 906.76"/>
        </g>
        <g>
          <path d="M566.78,872.91c.16.4.23.82.37,1.26l.43,1.39c.09.3.23.75.56.78.18-.1.55-.35.78-.11.24.25.09.65-.19,1.01,1.94.29.65,1.88,1.53,3.52.1.13.34.2.53.28-.02.92.46,1.67,1.09,2.28.41.4.21.94.06,1.39-.12.35.35.67.51.92.92,1.4,1.22,2.97,1.34,4.61.02.29.17.48,0,.82-.12.24-.14.85.01,1.08.36.56,1.56.5,1.57,1.1,0,.17-.18.36-.38.52.31.38.9.69.92,1.25.03.82-1.26,1.73-1.23,2.75l.47,1.27c-.09,2.5-1.92,3.91.26,5.57-.04.69-.14,1.61-.62,2.12-.54.58-.7,1.2-1.08,1.85l-.92,1.55c-.25.42-.61.98-.25,1.52.14.2.74.51.43.87l-1.05,1.2c-.07.12-.04.19.09.23.51.16.77.61,1.15.98.17-.18.37-.27.5-.19.16.09.37.39.23.53-.54.55-1.57.43-2.43,1.16.46.75.26,1.56-.31,2.14l-1.37,1.39-.18.99c-.05.24-.82.17-1-.02-.31-.31-.57-.51-.91-.56-.31-.05-.84.12-.96.43.28.38.26.88.47,1.25l.62,1.07.87.82c-.28,1.01-1,1.68-1.79,2.3-.51.4-.89.89-1.53,1.08-.57.17-1.18.55-1.66.96l-2.38,2.04c-.5.26-1.12.4-1.68.5-.33.06-.65-.27-.77-.49-.14-.25-.14-.83.07-1.04l.57-.13c-.07-1.24-1.19-.8-1.57-1.55-.11-.21-.12-.72.12-.8.8-.27.83.92,1.28,1.11.19.08.7.03.68-.14-.08-.58-.15-1.1-.42-1.59-.18-.32-.8-.58-.76-1.09.07-.71.72-1.33,1.32-1.67.52-.3.82-.6,1.27-1.02.28-.26.9-.67.76-1.15-.21-.74-.03-1.3.46-1.92.49-.61.86-1.51.45-2.23-.23-.4-.19-.45-.03-.89.16-.42.19-1.27,0-1.75-.7-1.78-2.64-2.81-3.56-4.03-.41-.54-.99-1.33-.57-2.03.2-.34.95.74.94.95,0,.21-.09.37-.26.63.21.15.82.11.94-.15.29-.61-.02-1.25-.52-1.71l.6-.28c.08-.04-.1-.22-.13-.36l-.54-2.62c-.16-.77-.43-1.62-.18-2.36.5-1.5,1.12-2.87,2.08-4.09.44-.56.86-1.02,1.32-1.57l.59-.72c.31-.38.33-1.03.24-1.52-.17-.94-.76-1.74-1.42-2.41-.48-.48-.59-1.2-.99-1.66-2.95-3.37-4.9-7.33-5.82-11.74l-.41-1.96c-.39-1.88-.34-3.37-.53-5.24l-.26-2.55c-.21-2.01-1.19-2.81-3.1-3.52l-2.65-.98c.16.82-.07,1.5-.74,1.75-.5-.72-.94-1.42-1.59-1.84-2.28-1.49-4-1.12-6.39-1.37l-.9-.1-1.98-.24c.15.38.53.48.77.71.5.48.93.99,1.54,1.3l1-1.04c.23.54.65.42.98.54.45.16.76.21,1.24.11l1.21,1.11,1.52.85c.45.25.94-.02,1.4-.17,1.03-.35,1.59,1.43,3.41,1.62.16.02.37.22.39.34.03.15-.03.33-.17.48l-1.7,1.83c-.54.59-1.06,1.04-1.76,1.4l-1.63.84c-.38.82.61,1.22.59,1.57-.03.56-.9.74-1.74.79-.2.01-.37.26-.38.39-.02.35.38.47.54.81l-1.21,1.15c-.43.41-1.05.33-1.54-.13-.82,2.58-2.78.38-5.19,1.02.84.44,1.53.82,2.31,1.31.29.18.93.13,1,.64.07.53-1.32,1-.94,1.48.35.45.5.94.16,1.46l-.71,1.1c-.33.51-.17,1.08.06,1.59.07.2-.49.51-.73.2-.29-.38-1.12-.98-1.57-.63-1.02,1.34-.48,2.78-1.34,3.37-.31.21-1.06.58-1.42.17-.92-1.04-.74-3.37-2.49-4.31.97-.47,1.49-1.63.89-1.89-.27-.12-.48-.03-.73.23-.41.42-1.22.29-1.62-.16-.36-.4-.88-.74-1.27-1.09-.97-2.15-2.61-3.86-4.39-5.42-.26-.23-.56-.37-.85-.6l-1.17-.93c-.29-1.11-.88-2.07-1.74-2.87l-1.55-1.43c-.41-.38-.87-.67-1.18-1.09-1.07.26-2.02-.44-2.62-1.27l-.62-.44c-.4-.28-.78-.56-1.29-.54-.48,2.58,2.23,2.06,4.26,3.22.51.29.78.97.8,1.53l-.66.75c.32.61.09,1.15-.48,1.43-.69.35-1.23.84-1.83,1.31-.65.52-1.74.18-2.08-.53.91-.46,1.39-1.37.95-1.93-.22-.28-1.06-.2-1.19.07-.23.5.18,1.38-.28,1.78-.83.19-1.57-.61-2.28-.89l-1.06-.41c.32-1.3-1.03-1.36-1.65-2.17l-.02-.63c-.16-.27-.54-.16-.66.07-.11.21.13.46.29.64-.35,1.08-.78,2.48-.13,3.04.65.56,3-.14,3.52,1.28,1.09.33,2.21.52,3.26.92,1.19.46,2.25.25,3.2-.55,1.79-.6,2.81-.52,4.58.23.94.4,1.67,1.1,2.47,1.73.75.59.89,1.75.55,2.62-.36.34-.92.36-1.16.82-.19.36-.43,1.08-1,.89l-1.28-.43c-.68-.23-1.3-.42-2.03-.14-.75-.79-1.72-1.06-2.07-2.13.11-.19.27-.3.29-.66-.81.34-.92-.35-1.63-.81-1.42.85.34,2.79,1.75,3.75.59.4,1.09.88,1.74,1.13.9.35,1.92.81,2.45.92l1.79.37c.7.14,1.37.1,2.1.12l2.03.07c1.53,1.21,2.55,2.39,3.08,4.36-.52.19-.63.58-.9.98l-.66,1.02c-.33.51-.99.59-1.44.22-.15-.12-.31-.23-.46-.21.08-.01-1.29.64-1.56,1.2-.28.6.05,1.09.18,1.61.15.6-.5,1.07-.87,1.39-.57.49-1.03.98-1.59,1.42-.95.73-1.16,1.87-.58,2.9-.29.52-1.05-.16-1.81.61-.42.42-.91.66-1.38.99-.55.39-1,.83-1.62,1.14-.24.12-.64.32-.73.57l-.42,1.15c-.53.81-.55,1.99.32,2.59.94.65,2.04-1.37,2.98-.87.44.23.77.75,1.13,1.09l-.25.76c.36.04,1.09-.02,1.24-.37.37-.83-1.38-1.77-.24-2.87.01-.2-.42-.4-.6-.39-.53.03-.85.79-1.55.44.78-1.28,2.09-2.14,2.81-3.44.3-.02.62.05.87-.06.59-.28.01-1.95.73-2.21.48-.17.78-.19.98-.6.48-.99-.58-1.43.28-2.51.31-.39.58-.66,1.22-.49-.33-1.02-.18-1.95.35-2.84l1.28.62c.52.39.98.51,1.61.67.76.19,1.12,1.71,1.05,2.83-.03.56,0,1.07.1,1.6-.64.41-.96.95-1.05,1.65l-.33,2.54c-.12.95-.72,1.75-1.6,2.17-.22-.28-.21-.56-.13-.86-.34-.05-.68-.08-.96.07-.24.13-.26.49-.2.7.05.17.24.45.46.46.21-.1.37-.38.69-.33-.91,1.53-1.08,3.88-1.81,4.72-.4.47-1.43.23-1.91.05-.58-.22-.91-.52-1.55-.61.63,2.52-1.59,3.87-2.44,6.59-.1.31.12.55.33.61.27.08.41-.03.6-.2l1.52-1.35c1.13-1.01,2.34-2.45,3.25-3.75.97-.06,2.09-1.16,2.6-2.1l.73-1.34.73-1.09c.13-.19.44-.34.59-.13.71.96.06,2.03.62,2.92l-.34.56c-.36.9-1,1.43-1.81,1.89-1.48,1.77,1.31,2.98,1.48,3.54.04.15-.03.38-.16.51l-1.3,1.31c-.26.26-.37.56-.36.99-.77-.4-1.07-1.38-2.23-1.07l.29,1.35c-1.15.93-.25,2.73-1.27,2.63-.15-.01-.37-.24-.48-.19-.38.16-.61.91-1.35.92-1.4.03-2.08-2.41-4.43-1.76-.03.89-.66,1.59-1.52,1.44l-3.1-.53c-.43-.07-1,.48-.83.83.17.37.35.71-.14.98-.18-.37-.3-.65-.62-.9-.12.14-.36.35-.51.29l-1.8-.75c-.1.53.26.87.55,1.22.17.2.13.62-.13.66-1.05.19-2.01-.44-2.46-1.38-1.01.31-1.94-.21-2.17-1.24l-.35-.53c-.28-.43-.56-.76-1.12-.94l.64-1.49c.26-.6.49-1.15.53-1.8.21-3.03,4.46-1.01,3.8-3.84-.62-.04-1.06.31-1.54.6-.81.49-1.79.2-2.26-.61l-1.43-2.46c-.33-.57-.67-1.19-1.35-1.42-.32-.11-.51.22-.53.46-.01.24.12.4.36.51,1.81.8.73,2.82,1.33,4.08.18.38.72.52,1.06.73.5.31-.82,1.19-1.34,2.19.39.81.22,1.58.11,2.38-.12.87-.02,1.74-.29,2.6-.07.23.08.48.21.6.34.28,2.51.22,2.28,1.02-.38,1.29-.56,3.62.51,3.88.02-.35-.09-.79.08-1.08.43-.71,2.05-.23,2.43.11.59.52,1.29.53,1.96.72,1.11.31,1.59,1.63,1.35,2.64-.14.59-.46,1.07-1.13.95-.75-.14-1.43.18-2.17.24-.48.04-2-1.36-2.95-2.19-.45,1.5.8,3.1.85,4.62,0,.18.1.37-.01.51-.33.42-1.69.4-2.12.25-.83-.3-.17-1.81-.78-2.38-.23-.22-.52-.27-.94-.35-.31-.06-.53-.56-.82-.69-.69-.3-1.69-1.42-1.4-2.1-1.87.3-1.26-1.22-2.73-1.93-.14-.07-.17-.57-.02-.63.48-.18.77.72,1.25.76.36.03,1.16-.94.82-1.21-1.38-1.11-.5-2.21-1.15-2.72-.18-.14-.52-.33-.86-.28.28,1.23-.09,2.36-.93,3.19-.62-.81-1.47-1.07-2-1.69.34-.42.57-1.14.25-1.59-.48-.69-1.28-1-2.01-1.38-.7-.37-1.22-1.36-.78-2.02.28-.42.82.06,1.09.1.38.06.73-.36.92-.55-.53-.5-1.05.21-1.47-.72-.17-.37-.66-.75-.52-1.25.05-.17.41-.39.22-.6-.16-.17-.49-.23-.71-.08-.12.08-.11.29-.05.59-.58.03-1.02-.32-1.24-.78l-.76-1.61-.68-1c.44-.56,1.1-.57,1.79-.51.14-.23.19-.84-.05-.96-.4-.19-.83.1-1.14.28l-.68-.33c-.26-.7-.29-1.36-.28-2.12,0-.14-.2-.33-.15-.42.21-.34.75-.39,1.13-.83l-1.54-1.46c.07-1.61.05-3.09-.23-4.63-.24-1.33-.17-2.64.57-3.85-.61-1.92-.51-3.9-.02-5.86l-.44-.91.45-1.69c.11-.4-.04-.95-.42-1.13-.21-.1-.47.1-.55.24-.08.13-.14.46-.09.63.11.38-.12.61-.24.91-.43,1.09-.39,2.29-.47,3.45l-.12,1.84-.41,2.45-.03,6.14.12,1.58c.16,2.16.59,4.23,1.09,6.31.18.74.29,1.33.71,2,.3.48.79,1.23.7,1.8-.07.47-.23.64.06,1.09l1.24,1.99.55,1.15.53,1.18,2.16,5.42c.53.05.94.15,1.39.35,1.77,2.48,3.7,4.79,5.96,6.84l1.11,1.01,1.38,1.24,1.18.92,2.09,1.62,1.47.05c.7.64,1.36,1.41,2.25,1.79,1.09.48,1.39,1.2,1.8,1.36l2.18.84,1.59.49c.95.3,1.83.47,2.6,1.25l.15-.68.76.39c.14.07.27.16.26.29l-.04.38c2-.63,4.03-.32,5.85.73.36.21,1.12.24,1.36.77.29.66-.21,1.54-.6,2.2.37.09,1.04-.06,1.24-.33.37-.97-.27-2.23.29-2.55.12-.07.34-.11.52-.04,1.4.51,2.82.15,3.97,1.25.31-.65.88-.94,1.56-1.12l2.27-.08,2.74-.54c.95.98,2.5.85,3.42-.11.34-.35.66-.45,1.08-.62.63-.25,1.15-.4,1.85,0,.25-.3.46-.81.85-.96,1.64-.61,3.67.31,4.76-.89.18-.2.39-.6.74-.54,1.54.27,3.14-1.55,3.88-2.06l.97-.68c1.15-.31,2.21-.73,3.08-1.54l1.2-.78c.21-.08.64.12.91-.12l.76-.68c.34-.53.73-1.35,1.38-1.58.65-.23.94-.51,1.39-1.03l2.22-2.61,2.19-2.78.68-.75c1.17-1.29,1.87-2.75,2.27-4.45.53-2.29,2.84-5.35,2.97-7.71l.06-1.08c.01-.2-.16-.54-.01-.65l.49-.36.17-1.4c.29-.29.57-.37.62-.71.05-.39-.12-.71-.28-.97.16-.49.49-1,.49-1.57l-.03-3.91c0-.49-.16-.83.03-1.35.27-.75.48-1.81.12-2.56-.33-.7-.45-1.22-.52-2.02l-.12-1.17c-.44-4.44-1.47-8.71-2.87-12.96-.83-.45-1.1-1.3-1.06-2.17-1.6-1.06-1.64-3.52-3.19-5.17.05-.56.22-1.39-.43-1.9-.48-.38-.73-.89-1.07-1.41-.35-.55-1.41-.33-1.7.23ZM512.08,933.23l-.28-.2c-1.19.06-1.5,1.55-2.26,1.09.5-1.52-.26-1.73-.81-2.77.92.16,1.95,1.42,2.41.92.32-.35.15-.96.27-1.31.16-.46.63-.55,1.01-.53l1.63.08c-1.19.61-2.36,1.22-1.87,2.32l.05.21c.01.06-.11.22-.16.19ZM512.43,935.81l.99-.04c.36-.02.74.13.79.54-.65.16-1.33.07-1.78-.5ZM515.13,928.67c-.51-.13-.49-.61-.5-1.07,0-.39-.25-.73-.04-1.15l1,.39-.46,1.83ZM553.28,886.81c.32-.34.43-.52.48-.95l1.14-1.22c.88,1.7,1.2,2.16,2.74,3.09.39.24.46.8.72,1.1.4.46.64.91.99,1.38.87,1.18,1.79,2.34,1.89,3.85.05.71-.35,1.83-.99,2.13-.61.29-1.4-.25-1.89-.51-.64-.44-1.31-.39-1.88.08-.83-.04-1.5.37-2.06.96-.35.61-1.2.92-1.88.44-.92-.65.23-2.22-.29-3.53.59-.1.96-.44,1.42-.71.57-.33,1.16-.6,1.67-1.07-.49-1.02-1.39-1.69-2.4-2.1-.24.76-.4,1.34-.84,1.95-.44-.28-1.13-.9-1.02-1.53.07-.45,1.56-2.72,2.19-3.38ZM546.35,910.22c.25-.73.45-1.55.97-2.16l.74-.87c.89.56,1.45,1.47,1.51,2.47.05.85-.47,1.49-.88,2.11-.45.69-1.04,1.1-1.93.79.42-1.35-.79-1.22-.41-2.34ZM549.06,903.68c-.11-.77.17-1.36.34-2.05.08-.31-.11-.72.22-1.02,1.02.22,2.34.3,2.71-.19.17-.24.14-.64.03-1.06l2.45-.06,1.04-.27c-.16.71-.66,1.03-1.22,1.28l-1.44.65c-.35.16-.51.22-.92.1h-.84c-.95,1.12-.58,2.96-2.38,2.6ZM542.45,939.73c-.5.28-1.28.65-1.84.63-1.34-.39-2.52-.39-3.81.13h-1.7s-.48.41-.48.41c-1.22.42-2.71-.75-3.38.69l-2.19-.02c-1.2,0-2.31-.28-3.47-.54-.57-.13-.94-.21-1.44-.61-.74-.59-2.29.95-2.69-.14.02-.17.44-.38.62-.38h1.97c.39-.01.73-.29.85-.55.37-.81-.72-1.46-.19-2,.18-.18.57-.3.81.03.73,1-.45,1.94-.09,2.74.14.31.86.59,1.17.39,1.01-.64,1.98-.81,3.14-.73.28.02.69-.24,1.04,0,.15.1.53.05.72.11.46.13.65-.17.89-.44.3-.35.72-.57.71-1.17-.19-.22-.57-.3-.75-.69.66-.05,1.22.37,1.74.58.57.23.53.61.84.95.73.81,2.24.26,2.71-.64l-1.36-.83c.97-.49,1.31-.74,1.82-.14.41.48,1.68-.31,2.59.69,1.16,1.26,1.44.87,1.62,1.03.09.08.26.38.14.49ZM543.63,926.88c-.34.28.08.76.13,1.01.09.42-.09.8-.14,1.26-1.02-.24-1.6-1.83-2.21-1.27-.14.13-.38.94.42,1.46.71.46-.81,1.21-.78,2.2-.91.16-1.74-.01-2.62-.18-1.1-.21-2.23-.2-3.38-.11-.33.03-.6.21-.86-.22-.06-.11-.24-.23-.38-.2-.38.08-.21.69-.79.62-.43-.05-.38-.54-.66-.62-.3-.09-.5.67-1.54.82l-2.15.32c-.31-.4-.46-.73-.66-1.17-.59.38-.92.65-.71,1.13-1.48.33-2.7,2.02-3.71.77l-1.4.9-.75-.31c-1.5.36-3.04.8-2.84-.39l.43-2.61c.18-1.1.05-2.11-.16-3.19.07-.42.43-1.02.74-1.3l1.32-1.18,1.55-1.11c.51.25,1.05.18,1.47-.18.85.16,1.59-.09,2.36-.36.43-.15.78-.18,1.12-.49l1.43-1.3c.43-.38.76-.7,1.14-1.12.38-.41.86-.78,1.29-1.18.47-.44.88-.84,1.35-1.28l1.13-1.08c.42-.4.88-.66,1.16-1.2.08-.16.32-.28.44-.29.49-.03,1.4,1.47,2.38,1.22.75-.19,1.42-.99,1.9-1.53.4-.44.39-.94.31-1.55,1.37.24,2.47-.79,3.03-.47l1.06,1.16c.37.41.75.92.35,1.41-.39.48-.75.99-1.25,1.37l-1.13.43c-1.55.58-3.3,1.25-4.72.39-.18.76-.02,1.41.05,2.17.06.58-.69,1.65-.19,1.64.69-.01,1.25-.56,1.72-1.02.36.98,1.76,1.74,2.63,1.46.49,1.79,2.33.51,2.52,1.72-.19.5-.97,1.16-.68,1.79.21.45,1.04.48,1.5.57-.26.54-.83.78-1.24,1.13ZM543.54,899.43c-1.5,1.47-2.29,3.28-.98,4.94.39.25,1-.08,1.34-.25.63-.3,1.58,1.6.26,3.3,1.19,1.21-.56,1.43-.7,3.04-.64.34-1.45.78-2.15.95-.6.15-1.1.25-1.68.46l-2.41.89c.1.39.07,1-.29,1.12-.46.16-.96.03-1.49.04l-.74-2.18c-.24-.7-.29-1.42-1.06-1.78l-.16-1.35-.11-1.47-.06-9.41-.13-2.36c-.03-.58-.27-1.18-.07-1.75.69-.28,1.3-.63,2.05-.73,1.38,1.1,1.83,2.95,1.19,4.63.52.33,1.15.64,1.53,1.19l.05,1.48c.02.46.34.61.79.58.58-.04.99-.48,1.17-.87.54-1.19-.86-2.46-.91-3.48-.03-.59.69-.96,1.29-1.13-.75-1.28-2.24-2.41-2.15-3.81.3-1.57,1.05-3.03,1.59-4.51.76-2.08,2.09-3.63,3.69-5.1.42-.55.61-1.2,1.29-1.63l1.12-.7,1.82-1.17,1.93-2.12c0,.37.15.71.38.97l.93,1.03c.28.31.55.56.55.98.02,1.15-2.31,1.29-2.27,2.61.01.37.22.63.61.94-1.25.6-1.43,1.63-2.67,1.1-.36.66-.68,1.32-1.32,1.67-.79.44-1.47.94-2.36,1.21-.8.24-1.66.82-2.02,1.61-.28.61-.02,1.37.14,1.96l.76.15c.34.46.71.83,1.25.99.78.24,1.43.72,2.1,1.18.53.02.94-.1,1.48.1-.28.63.07,1.26.22,1.67-1.15,1.1-.57,2.35-1.02,3.35-.2.44-.7.14-.99-.06-.68.4-1.24,1.16-1.81,1.72ZM548.54,918.91c-.51.46-.1,1.32-.4,1.56-.14.12-.38.31-.7.17.11-.41-.03-1.12-.5-1.29l-1.85-.12c-.32-.02,0-.61.19-.75l1.52-1.12c.2-.15.37-.38.38-.64l.05-1.51,2.14-1.03c.34-.16.59.34.72.59l.41.77c-.27.75-.65,1.44-.67,2.23,0,.17.2.44.15.59-.11.36-1.07.23-1.44.56ZM551.4,937.11c-.53.06-.91-.33-1.15-.82.34-.3,1.15-.04,1.28.3.04.12.03.49-.12.51ZM552.45,913.97c-.27.05-.64-.39-.78-.63.42-.52.91-.87,1.19-.61.21.21.02.81-.4,1.24ZM553.55,911.88c-.22-.26-.32-.56-.31-.89.23.08.5.08.72.32.13.14-.22.53-.41.57ZM555.14,916.28c0,.14-.25.27-.29.16-.2-.53-.06-1.09.19-1.56.03.41-.02.73.12,1.13l-.02.26ZM554.13,907.72c-.35-.19-.82-.23-.99-.75.79-.9,1.72-1.77,2.82-1.28.35.16.64.83.61,1.19-.04.63-1.64,1.27-2.44.84ZM556.75,911.68c-.26-.21-.47-.32-.35-.7,1.32.29,2.03,1,1.59,1.2-.58.26-.91-.23-1.24-.5Z"/>
          <path d="M590.93,893.81l-.12-1.96-.16-1.42-.12-1.29c-.31-.91-.7-1.69-.9-2.64-.3-1.44-.56-2.87-1.12-4.23l-.64-1.06c-.39-.64-1.29.84-1.86.14-.25-.3-.13-.87-.12-1.25.64-.06,1.19.13,1.64-.37.18-.2.41-.75.23-1.04-.55-.9-.98-1.76-1.3-2.77-.35-1.11-.71-2.19-1.52-3.07-.18-.2-.59-.3-.7-.59-.66-1.83-1.53-3.47-2.67-5.07-1.59-2.21-3.34-4.19-5.37-6.04-.48-.44-1.15-.73-1.7-1.14l-1.44-1.06-1.84-1.44-.82-.62-2.25-1.8-1.22-1.01-1.65-1.23-1.77-1.24-1.93-1.21-2.19-1.22-1.31-.52-1.91-.85-.94-.88c-1.39-.72-2.89-.95-4.43-1.22l-1.68-.29c-.74-.13-1.28-.74-1.95-1.04l-1.59-.11-.92-.52-2.59-.86c-.17.21-.54.81-.28,1.09.33.35,1.03.16,1.48.19.57,1.56,2.53.08,3.1,1.52.1.26-.19.74-.44.83-.54-.17-.88-.62-1.31-.91-.64-.41-1.39-.22-2.11-.15-.36.04-.58.09-.54.48.01.17.19.4.46.41l1.44.08c.62.62,1.3,1.25,2.17,1.36,1.33.18,1.73,1.01,2.84.84.98.83,2.22.66,3.05-.27.44-.49,1.29-.82,1.79-.35.53.5-.5,1.31-.41,1.77.05.25.27.28.45.42l.55.41c.64-.45,1.4-.28,2.03.15l1.08.76c.7.49,1.53.51,2.2-.09.8,1.38,2.86,1,3.17,2.32.09.38-.21.75-.37,1.08l.53.44c1.01,1.15,2.31.59,2.55,1.2.12.32-.41.65-.23,1.1.14.36,1.08.3,1.66,1.03l.89-1.23,2.5,1.41c.54.3.62,1.08.66,1.67.38.22.95.19,1.18.54l.99,1.49c.31.47.63.81,1.3.8l.77,1.69c.29.64.89.78,1.26,1.25l1.34,1.66,1.41,1.59c.38.43.59.92.77,1.44.24.04.43.06.65.16l.88,2.27c.39,1,.76,1.89,1.06,2.89.13.44.66.86.68,1.4.03.72.5,1.18,1.06,1.55.19.12-.06.48-.05.64.07,2.06,1.97,3.34,2.16,5.23.12,1.19-1.04,1.7-.66,2.65.5,1.28-.2,1.69-.03,2.36l1.58,1.16c.52.38,1.02.66,1.13,1.4-.23-.03-.5-.03-.64.05-.12.06-.25.27-.26.48l-.05,1.66c-.21.12-.49.17-.64.37l1.3.74c.68.39.05,3.27-.43,4.64-.11.3-.85.52-.55,1.07.25.45.33,1.01.1,1.53.18.24.36.42.47.75l-2.48.56c-.37.09-.54.74-.59,1.01.26.34.63.03.87.1.58.16,1.12.76,1.3,1.3.22.67-.08,1.35-.4,1.9l-.71,1.27c-.39.69-.88,1.45-.78,2.31.09.79.2,1.53-.09,2.32l-1.21,3.36c-.2.56-1.45,1.22-2.08.75-.21.86.09,1.56.89,2l-.82,1.37c-.46.51-.93.84-1.47,1.21-.62.43.29,1.43.3,1.63,0,.08-.18.24-.27.27-2.19-.34-2.89-2.5-5.18-1.97,0,.4-.11.96.02,1.33.72,1.09,1.91,1.54,3.13,1.89-.56.42-1.19.82-1.07,1.39.34.2.85.46.97.83.16.48.06,1-.37,1.32l-1.27.93c-1.04-.73-1.03.53-2.14.61.34.71.1,1.46-.26,2.06-.36.6-.38,1.01-.15,1.67.11.32-.84.88-1.03.52l-.77-1.5c-.17-.33-.46-.59-.85-.46l-.11.93c-.48,1.04-2.01,2.06-1.35,2.48,1.98,1.27-1.07,2.55-1.92,4.23-.04.09.03.29-.17.32-.6.09.31-1.26-.16-1.93l-.75-1.04c-.37-.52-.57-.91-.53-1.62-.57.49-.78,1.11-.9,1.73l-.44,2.4c-.06.31.21.49.31.78.12.33-.34,1.11-.74,1.11-.6,0-.98-.62-1.39-.94-.68.5-1.22,1.05-1.98,1.34-.29-.64.13-1.18-.31-1.66-.11-.12-.55-.29-.62-.05l-.92,3.19c-.47-.38-.56-.9-.86-1.43l-1.06,2.22c-1,.47-2.12.84-3.1.41-.43,1.24-1.65-.41-2.11.16-.42.52-.07,1.55.66,1.58.02-.34-.08-.68.11-1.01.54.39,1.03.3,1.47-.05l.33-.11c.1-.04.29.17.21.21-.97.53-1.19,1.67-1.96,1.89l-.87-.38c-.71.09-.61.95-.81,1.28-.85.99-3.66,1.18-4.1.75-.6-.6.26-1.12-.1-1.55-.25-.3-.78-.3-1.08-.19.36.33.45.68.36,1-.19.68-1.27.78-1.94.3-.97,1.54-2.72.18-3.51.73-.36.25-.62.49-1.01.72-.44.26-.75.94-1.37.98-.22.02-.31-.54-.23-.74l-2.47-.07c-.46-.01-.61-.61-.74-.95-.12.35-.07.64-.26.84-.12.12-.36.24-.61.25l-1,.04c-.58.02-.94.42-.97,1.05-.42-.28-.94-.34-1.25-.71-.21-.25-.29-.66-.49-.77-.3-.16-.77-.22-1,0l-.96.93c-.21-.14-.32-.3-.32-.45,0-.29.36-.48.34-.64-.03-.26-.63-.38-.63-1.11-1.46-.21-2.1.24-2.68,1.58-1.37-.59-1.62-2.09-3.04-1.19l-.9-.45-.08-.59c-.53-.07-1-.15-1.49-.34-1.9-.75-3.95-.15-4.57-1.55-.14-.31-.32-.4-.63-.35-.26.04-.15.44-.27.6-.25.34-1.19.3-1.47.01-.34-.36,0-.87.43-1.18-.42-.07-.86-.22-1.18-.02l-.26.17c-.06.04-.22-.13-.16-.21.12-.14.28-.32.21-.48-.06-.13-.18-.27-.4-.21.12.3-.04.63-.26.7-.61.21-1.33-.52-1.76-1.24.23-1.03,1.75-1.24,1.46-2.19-1.63-.64-1.84.93-3,.63-.37-.1-1.11-.49-.95-1.01l.6-2.05c-.22-.04-.49-.09-.71-.3-.55.21-.08.62-.4.9-.37.31-1.18-.2-1.91-.71.18-.44.29-.89.11-1.35-.1-.26-.42-.35-.62-.18l-1.04.83.47.51c.29.32.63.3.9.31.62.96-.29,2.45.75,3.73-1.24.15-2.18-.44-2.96-1.26-.22-.23-.58-.37-.85-.61l-.6-.52c.28-.26.85-.61.82-1.01-.03-.46-1.02-.54-1.16-.19l-.42,1.02-2.19-1.25-1.64-1.55c-.36-.34-.92-.15-1.22-.81-.17-.38-.6-.78-.91-1.04-.2.26-.07.55-.15.8-.05.19-.24.13-.3.02l-1.23-.98c-.8-.46-1.21-1.07-1.57-1.87-.29-.66-.63-1.24-.46-2.03.17-.82-1-1.27-.33-1.57.56-.25,1.21-.03,1.53-.36.24-.24.11-.66-.11-.87-.19-.18-.37-.22-.71-.27l-1.34-.22c-.19-.03-.27-.17-.27-.29,0-.07,0-.23.11-.28l.97-.48c.19-.09.19-.37.15-.52-.14-.5-.66-.14-1.84-.54-.24-.08-.6.28-.7.46-.23.4-.48.52-.79.84-.25.26-.74.84-1.16.49-.36-.3-.12-1.15-.31-1.51-.24-.44-.43-.66-.15-1.19.04-.07-.06-.28-.14-.31-.56-.16-1,.35-1.81-.47-.82-.85.06-1.27-.07-2.28-.65-.46-1.28-.87-1.87-1.52.3-.89.21-1.74.13-2.63-.23-2.5-1.16-4.76-2.84-6.6-.4-.44.14-1.28.18-1.71-1.5-2.06-.73-4.19-1.82-6.29.92-2.49-1.88-4.91.01-7.21-.2-.74-.46-1.47-.37-2.2l.23-1.87c.35-1.52.57-2.99.49-4.55,1.68-.82,3.16-2.46,4.32-3.86l1.79-2.16c.76-.92,1.82-1.77,1.03-1.85-.67-.07-3.14,2.42-4.12,3.51l-1.42,1.57c-.21.23-.64.33-.7.79-.97-.62-.7-2.85-.27-3.2.34-.28.68-.45.57-1.02-.11-.57.08-1.01.34-1.48.2-.35-.24-.88-.33-1.17.12-.13.29-.3.29-.41,0-.1-.19-.24-.27-.35l1.5-3.83c.81-2.06,1.94-3.84,3.55-5.48-.32-.13-.61.05-.96.26-.45-1.49.96-2.27,1.65-3.12l1.12-1.38c.41.33.8.43,1.28.58l.48-.9c.38-.45.68-.98,1.1-1.38.36-.33.73-.67,1.11-.98.61-.51,1.28-.86,1.83-1.46.11-.12.44-.12.47-.25.04-.16.06-.44.02-.64-.07-.34-.49-.47-.8-.45-.72.04-.86,1.29-1.94,1.71-.19.07-.68-.34-.58-.54.8-1.48,2.37-2.95,2.7-3.72.4-.96,1.53-1.63,2.38-2.26l1.41-1.04,1.59-1.04c.69-.45,1.39-.84,2.11-1.28l1.86-1.15c.66-.41,1.3-.74,1.94-1.21.34-.24.82-.36,1.12-.7.45-.51,3.21-1.5,4.54-2.01l1.62-1.15c.42.41.89.44,1.41.25l1.64-.61c.39-.14.17-1.04-.19-1.23-.6-.32-1.23.6-2.03.21-.64,1.67-2.18-.02-3.19.62l-1.93,1.21c-1.27.79-2.94,1.85-4.33,2.17l-1.38.99-1.85,1.07c-.78.45-1.56.79-2.29,1.37l-1.62,1.28-2.82,2.8-.93,1.04-3.24,3.97-3.42,4.06c.02,1.04-.61,1.89-1.48,2.43-.33.44-.98.76-1.17,1.29-.32.88-.53,1.73-.99,2.56l-1.69,3.03-1.69,3.03c-1.67,2.99-1.38,5.53-1.78,6.48-.32.75-.46,1.53-.36,2.36-.55,1.88-.54,3.75-.03,5.58l-.82,5.55c.2.49-.08.99-.08,1.45l.05,6.28c.27,2.77.89,5.4,1.53,8.09.7,2.92,1.66,5.65,2.87,8.37.48.92.8,1.84,1.41,2.68.05,1,.39,1.87,1.06,2.59l.92,1.18c.53.68.83,1.33.96,2.19.05.38.59.63.77.91l1.81,2.82c1.11,1.73,1.88,1.61,2.39,2.57.98,1.84,3.1,3.79,4.82,5.12l2.13,1.65c.31.24.49.53.92.68l.92.86c.62.26.92.83,1.47,1.17.67.42,1.4.68,2.04,1.23l1.02.51c.66.5,1.41.55,2.14.8l1.78,1.19,2.53,1.15c1.8.42,3.49,1.04,5.34,1.21,1.99.18,3.83.74,5.76,1.17.94.21,1.78.62,2.63,1.06.49.26,1.05.06,1.55.16,1.15.22,2.12.7,3.22,1.14l15.52.02c.81-.17,1.53-.15,2.34-.15,1.02-.45,2.14-.96,3.27-.89,1.1.06,1.94-.12,2.93-.49,2.33-.87,4.32-.66,6.17-1.71l1.29-.39,3.05-1.42,1.99-1.02,1.72-1.02,1.87-1.14,1.7-1.16,1.34-1.02c.39-.3.73-.55,1.1-.87l1.64-1.37,1.37-1.24,1.35-1.28,1.1-1.13.78-.81c8.29-9.14,14.25-20.87,14.92-33.35l.05-10.26-.14-1.73Z"/>
          <path d="M504.7,885c-.2.1-.28.21-.39.35.29.36.36.76.24,1.31.96-.13,1.63.43,1.79,1.33l.37,2.01c-.67.67-1,1.47-.93,2.38l-.63.48c-.68,1.02.39,2.5-1.46,3.26-.18.15-.21.77-.03.9.8.22,1.45-.23,1.91.5l.13-.99c.5-.37.83-.93,1.28-1.32.36-.31.58-.59.91-.96l.66-.75.68-1.58,1.04,1.02.85,1.5c1.58.17,3.09-.29,4.23-1.36.55-.52,1.03-.98,1.04-1.91l1.45.77c.21.11.84.15.94-.12.18-.5.07-1.03.05-1.53-.53.18-1.19.09-1.46-.39l-.65-1.14c-.44-.77-1.14-.38-1.62-.54-1.07-.36-1.92-1.06-2.97-1.5l-2.63-1.12h-.99c-1.43.85-2.66.57-3.8-.63ZM510.31,888.86c.3-.36.55-.45,1.03-.25.55.23,1.23.4,1.73.75.48.34.82.85,1.32,1.16.05.03.04.33,0,.37,0,0-1.48-.32-2.65,1.3-.19-.37-.36-.61-.62-.89l-.82-.87c-.23-.25-.34-.45-.38-.74-.06-.36.16-.55.39-.82Z"/>
          <path d="M563.08,866.57c-.41-.42-.79-.83-1.27-1.21l-2.64-2.06-1.64-1.11-2.18-1.23-2.62-1.13c-.63-.13-.88-.22-1.39-.68-.39-.35-1.33-.57-1.87-.58-1.35-.02-2.32-.13-2.61-1.61-.49.29-1,.33-1.41.46-.75.24-1.14.04-1.76-.28-1.34-.69-2.91-.91-4.42-.93-.06.33.04.6.18.8.31.44,2.51-.04,5.04,1.16.44.21.92.28,1.36.47l2.44,1.07,3.51,1.21,2.63,1.21,2.15,1.22,1.7,1.07,1.61,1.12c.35.24.73.37,1.01.71-.09.65.33,1.23.84,1.64l1.35,1.06.72-.08c.59.42.34,1.52.88,1.96.28.23,1.63.26,1.83-.06.11-.18.02-.33-.11-.49l-2.06-2.4-1.29-1.32Z"/>
          <path d="M503.04,902.39c.56.59.68,1.28,1,2.12.59-.75,1.3-1.11,2.13-1.37,1.18-.37,2.34-.66,3.58-.72.38-.02.34-.48.33-.73-.08-1.87.25-4.06-1.75-4.49l-.57,2.19c-.09.32-.54.78-.89.79l-2.27.09c-1.3.28-2.49.38-3.82.4-.28,0-.58.41-1,.14l-1.36-.89c-.21.64-.14,1.38.41,1.72,1.33.82,3.04-.51,4.23.75Z"/>
          <path d="M492.44,881.7c.63-4.24,3.21-6.64,5.4-9.62l1.55-2.12c.26-.35.42-.67.72-.99.52-.56,1.08-.91,1.69-1.34l1.45-1.03,1.39-1.23c.45-.4.7-1,1.02-1.48-1.24-.35-2.47.59-3.39,1.49-.4.38-1.19.58-1.4,1.13-.1.27-.08.54-.44.69-.83.33-1.3,1.01-1.83,1.69l-.69.89c-2.55,3.26-5.78,7.61-6.49,11.63-.06.36.94.57,1.04.3Z"/>
          <path d="M534.53,873.65c.73-.6,1.51-1.04,2.49-1.19.13-.39-.35-.48-.62-.51-.79-.08-1.18.14-1.74.52-.52.36-1,.7-1.49,1.12-.41.35-.92.65-1.37.98-.98.72-2.11,1.09-3.31,1.44.05.84.22,1.77.78,2.37l1.15,1.21c.1.11.28.14.37.08.24-.14-.3-1.16.6-1.52.2.33.35.59.64.75.38-.49.87-.56,1.32-.47.43.09.78.41.79,1.03.76-.24.78-.81.8-1.49.04-1.27-.6-2.33-1.82-2.87.3-.7.88-1.02,1.41-1.46Z"/>
          <path d="M522.86,856.19c-.83.1-1.59.09-2.41.38-1.01.36-1.55-.09-2.62,1.29-.19.24,0,.57.18.68.34.2,1.55-.96,3.41-1.13l4.04-.36c.91-.02,1.74-.19,2.5-.6.92-.26,1.83-.31,2.79-.22l2.62.25c1.6.15,3.15.27,4.7-.26-.28-.68-1.15-.47-2.09-.91l-.67.22-3.75.03c-.84-.58-1.87.03-3.15.1-1.72-.36-3.55.27-5.53.52Z"/>
          <path d="M535.7,845.53l2.42.31c.61.08,1.13.28,1.66.6l1.2-.52c.23-.1.26-.39.23-.6-.02-.17-.18-.26-.34-.38-.92-.69-.46-2.01-1.32-2.55-.3-.19-.63-.06-.92-.04-.56.05-.66.23-.87.64-.62,1.2-2.54.78-3.92,1.49.36.76,1.1.94,1.88,1.04Z"/>
          <path d="M504.03,906.91l1.19.89c.48.36.76.67.7,1.38.57-.27.98-.19,1.51-.19,2.79-.05,2.25-.08,3.43-1.5.26-.31.11-.95-.31-.95h-2.35c-1.6.21-2.97.14-4.09-1.13-.3.14-.45.49-.47.78-.01.23.14.55.37.72Z"/>
          <path d="M509.22,861.18l-.58-.04c-.7.37-1.14,1.03-1.64,1.62-.27.32-.77.05-1.13,0,.14.53.84,1.03,1.39.84.47-.16.98-.34,1.27-.6.61-.55,1.28-.66,1.95-.97.58-.27.98-.91,1.63-1.14,1-.35,1.87-.9,2.92-1.12.52-.11,1.06-.31,1.5-.59.19-.24.15-.8-.04-1.08l-2.43.59c-.27.07-.71.22-.93.37-.64.43-1.26.64-1.92.97-.68.35-1.2.93-1.98,1.14Z"/>
          <path d="M485.09,887.22c.6-1.13.58-2.73,0-2.79-.14-.01-.31.12-.42.25-1.02,1.21-.35,2.97-1.76,3.45-.46,1.91-2.59,2.65-2.17,4.89.19.05.57.08.74-.02l.78-1.45c.62-1.15,1.27-2.22,2.19-3.17.32-.33.57-.7.65-1.17Z"/>
          <path d="M514.99,909.78c.07-.74.12-1.41.45-2.11l-1.35-2.17c-.37-.59-.76-1.19-1.36-1.52-.37,2.37,1.61,4.3.03,6.54l.87.41c.67.11,1.31-.49,1.37-1.14Z"/>
          <path d="M584.12,907.77c.3.13,1.1-.17,1.08-.58-.05-1.04-1.33-1.53-1.3-2.38-.22.01-.27.12-.36.24-.72-.66-.58.21-1.63.53-.52.16-.75.62-.56,1.08.18-.09.28-.1.38-.11.32-.03.38.8-.4,1.42l.91,1.02c.64-.49,1.15-1.51.73-2.15.36-.22.75-.32,1.24.02-.08.34-.23.59-.1.91Z"/>
          <path d="M487.33,880c.52-.26.66-.78,1.01-1.07,1.29-1.09,2.95-2.54,3.42-4.03.11-.34.07-.85,0-1.2-.05-.26-.55-.35-.73-.22-.02.5.2,1.05-.05,1.43l-.51.78c-.27.63-1.02.63-1.6.27-.09.32.03.55.08.79-.27.34-.66.39-1.02.57-.57.29-.89,1.95-.59,2.67Z"/>
          <path d="M529.69,843.15c1.15.11,2.27.1,3.43.03l1.93-.11c.21-.01.17-.67.1-.81l-2.31-.03-.55-.25-3.24.02c-.49,0-.85.59-.95.97.53.31,1.05.13,1.59.18Z"/>
          <path d="M539.59,867.07l-.96,1.14c-.53.62-1.15.99-1.99.7-.03.39-.1.74.05,1.04.17.33.67.5,1.02.51.35-.79.82-1.12,1.48-1.34.94-.31,1.78-.84,2.66-1.45-.34-.86-1.64-1.33-2.26-.6Z"/>
          <path d="M490.35,887.09c0,.3-.08.67.02.97.08.22.67.2.93.07.53-.27.4-1.44,1.3-1.52,1.35-.12.75-1.87,1.77-2.31-.18-.36-.46-.53-.75-.54-.62-.02-.97,1.12-1.96,1.23.22.41.15.7-.11.94l-1.2,1.16Z"/>
          <path d="M498.43,919.66l.03-1.15c.44-.57.73-1.22.61-1.94-.12-.7-.5-1.78-1.33-1.77-.91.55-.17,1.6-.11,2.53.04.53-.55.82-.81,1.13,0,.72.92,1.55,1.61,1.2Z"/>
          <path d="M561.6,928.39c.48.49,1.68-.27,2.22-1.45l-2.58-1.28c-.44,1.17-.51,1.84.36,2.73Z"/>
          <path d="M504.62,925.44c.28-.63-.02-1.18-.02-1.71,0-.51-.17-1.04-.54-1.44-.21-.23-1-.17-1.17.1-.61.99.83,1.88.83,3.12.25.12.79.17.89-.06Z"/>
          <path d="M516.07,845.54c.47-.07.96-.09,1.06-.64.08-.43-.3-.83-.79-.86-.47-.02-.83.13-1.24.21-.94.18-1.32.85-1.17,1.23.24.64,1.49.16,2.15.06Z"/>
          <path d="M544.34,946.13c.02-.2-.21-.25-.33-.39l-.97-1.13c-.64.35-.71,1.23-.33,1.77.32.45.1.72-.04,1.17-.11.36.54.64.84.64.3,0,.77-.29.69-.63-.29-.14-.52-.3-.51-.51.02-.34.63-.55.66-.92Z"/>
          <path d="M505.3,880.49c-.12.03-.34.16-.38.34-.24,1.02-.77,1.61-.55,2.73.05.25.42.46.61.38.06-1.37,1.6-2.05.86-3.18-.12-.19-.37-.31-.54-.26Z"/>
          <path d="M533.37,844.66c0-.11-.1-.33-.29-.33h-3.26c-.21.38-.21.8,0,1.21,1.56-.67,3.58.17,3.55-.88Z"/>
          <path d="M513.78,944.22c-.48.14-.86.95-.65,1.4,1.3-.32,2.48-.41,2.79.65.49-.49.36-1.49-.33-1.67-.56-.15-1.29-.36-1.81-.37Z"/>
          <path d="M499.21,882.7c-1.13-.47-2.21,1.13-3.72.88.03.36.21.6.39.67.89.34,1.7-.88,2.52-.83.33.02.95.53,1.25.01.07-.24-.24-.65-.45-.73Z"/>
          <path d="M520.18,844.34c.35.04.5-.54,1.89-.54.4,0,.57-.22.66-.48.07-.22,0-.64-.22-.68-.92.5-1.87,0-2.39.46-.2.18-.25,1.21.06,1.24Z"/>
          <path d="M518.09,914.5c-.13-.07-.39-.06-.54.04-.83.55-.1,1.89-.62,3.02,1.39.26,1.38-2.94,1.16-3.06Z"/>
          <path d="M530.42,862.31c-.51-.48-1.42-.11-2,.09-.44.15-.77.27-.72.86,1.36.06,2.79.13,2.72-.95Z"/>
          <path d="M564.72,901.53c-.24.44-.2,1.08-.07,1.59l.27,1.04c.25-.12.4-.26.52-.52-1.05-.92.3-1.46.91-2.6-.6-.36-1.28-.14-1.63.5Z"/>
          <path d="M577.64,921c-.22-.06-.22-.46-.28-.59-.28-.11-.4.26-.41.45,0,.25,1.06,1.38,1.73,1.56.29.03.95-.4.89-.7-.09-.53-.73-.41-.98-.47l-.96-.25Z"/>
          <path d="M493.81,859.05l-.8-.4c-.63.41-1.15,1-1.08,1.84.94.22,1.79-.52,1.88-1.45Z"/>
          <path d="M491.05,925.5l-.34,1.35c.22.37.64.79,1.09.81.42.01.39-.4.39-.67-.02-.78-.34-1.33-1.14-1.48Z"/>
          <path d="M560.99,874.59c-.53.44-1.01.27-1.62-.18.04.53.04,1.24.27,1.61.4.62,1.7-.58,1.73-.87.02-.18-.16-.57-.38-.55Z"/>
          <path d="M569.38,931.67l-1.38,1c.84.21,1.47.49,1.96,1.12.18-.67.09-.99.07-1.49.03-.28-.4-.81-.65-.63Z"/>
          <path d="M568.18,908.22c.1-.3.12-.99-.03-1.29-.2-.42-1.06-.39-1.31-.08-.26.34.02.68.14.98.19.46.84.75,1.19.38Z"/>
          <path d="M565.29,924.04l-.67.63c-.18.34-.08.84.23,1.06.24.17.52.41.93.39v-1.26c0-.34-.19-.64-.49-.82Z"/>
          <path d="M563.77,937.44c-.23-.05-.48-.03-.6.21l-.49.91,2.09.59-.51-1.23c-.11-.26-.3-.44-.49-.48Z"/>
          <path d="M527.69,896.93c-.2-.34-.36-.8-.71-1.07-.17-.13-.72-.14-.85.02-.52.63.77,1.53.99,1.48.19-.04.35-.16.57-.44Z"/>
          <path d="M525.08,846.93c.32-.38.28-1.15-.25-1.29-.48-.12-1.05.15-1.39.4-.05,1.15.85.28,1.64.89Z"/>
          <path d="M566.19,859.5l-.34,1.5c.34.23.63.3,1.07.34l-.04-1.84c0-.2-.63-.23-.68,0Z"/>
          <path d="M515.98,848.15c-.13-.02-.31-.06-.47-.03-.53.11-.75.87-.53,1.36.2.11.51.17.72.38.41-.31.51-.75.28-1.32.06-.15.09-.37,0-.39Z"/>
          <path d="M522.52,863.91c.02.24.93.53,1.27.23.23-.2.21-1.01,0-1.17-.46-.35-1.3.41-1.27.93Z"/>
          <path d="M495.3,882.11l-.25-1.85-.85-.03c-.12.81.1,1.78,1.11,1.88Z"/>
          <path d="M525.48,843.1v-.88c-.5.21-1.01-.17-1.54.24-.13.1-.25.51-.09.62.47.33,1.07.13,1.62.02Z"/>
          <path d="M541.65,950.35c.03.09.4.08.42-.03.17-1.01-.29-1.37-.21-2.01-.35.02-.63.2-.73.39-.14.25-.08.55.05.79l.47.87Z"/>
          <path d="M505.89,876.93v1.53c.03.12.45.15.55.07.04-.04.63-1.27.41-1.58-.16-.23-.75-.19-.96-.02Z"/>
          <path d="M479.72,898.86l-.25,1.45c-.05.3.65.8.98.53.29-.24.09-.92-.16-1.21-.22-.25-.14-.59-.57-.77Z"/>
          <path d="M534.8,862.16l-1.58-.03c.01.38.25.75.49.9.26.16.67.16.96.02.27-.13.37-.86.13-.89Z"/>
          <path d="M517.14,864.67c.13.4.96.59,1.22.34.12-.11.18-.31.21-.52.06-.36-.07-.6-.34-.69-.27-.08-.41.09-.65.24-.28.17-.56.22-.44.63Z"/>
          <path d="M497.71,939.78c-.12.24.12.46.25.5.24.08,1.14,0,1.31-.26.17-.28.16-.69-.05-.71-.62-.07-1.25-.06-1.51.47Z"/>
          <path d="M525.43,900.65c-.1.05-.13.36-.05.5.39.68,1.14,1.02,1.97.9-.58-.7-1.54-1.59-1.91-1.4Z"/>
          <path d="M501.9,892.29c0-.14-.17-.48-.38-.46-.25.01-.28.48-.38.65-.22.4-.56.73-.52,1.26.04.23.57.1.77-.08.24-.22.06-.47.11-.77.03-.19.4-.4.39-.59Z"/>
          <path d="M518.46,844.79c.38-.26.47-.49.38-.92-.05-.23-.3-.56-.66-.46-.55.16-.57,1.19-.15,1.51.16.13.28-.03.43-.13Z"/>
          <path d="M509.24,869.45c.32-.29.23-.66.17-.86-.07-.22-.62-.53-.75-.27l-.6,1.2c.4,0,.96.13,1.18-.07Z"/>
          <path d="M503.73,888.26l-1.18,2.12c-.07.13-.16.22-.12.36.14.49,1.67-1.11,1.3-2.48Z"/>
          <path d="M569.13,863.24c.11-.47-.04-.89-.58-.92-.48.21-.65.87-.43,1.29.58.18.94-.04,1.01-.38Z"/>
          <path d="M564.31,923.89c.65-.4.92-.98.6-1.57-.35.05-.57.19-.86.33-.1.47-.14,1.03.26,1.23Z"/>
          <path d="M509.99,880.68c.1-.12.3-1.08-.33-1.32-.2-.08-.4.04-.55.25-.16.22.03.89.29,1.08.17.12.46.15.59,0Z"/>
          <path d="M513.88,916.93c-.4.05-.59.43-.54.77.03.22.25.66.58.54.27-.1.6-.68.5-.92-.1-.26-.41-.41-.54-.39Z"/>
          <path d="M489.36,886.56c.23-.27.31-.53.39-.85-.41-.26-.92-.22-1.11.2-.15.33-.16.55,0,.73.21.22.51.17.72-.08Z"/>
          <path d="M560.89,937.02c-.05.1-.05.29.12.37.35.15.75.14,1.14,0,.12-.35.14-.57.09-.9l-1.06.24c-.17.04-.24.19-.29.3Z"/>
          <path d="M533.56,868.91c-.21.36-.05.8.29,1.03.28-.28.59-.46.75-.79.1-.22-.24-.52-.45-.54-.2-.02-.44.05-.59.3Z"/>
          <path d="M537.34,949.82c.09.59,1.05-.57,1.93.04-.13-.59-.82-.72-1.35-.76-.24.01-.62.48-.58.71Z"/>
          <path d="M526.47,948.8c-.18.2-.25.45-.16.79.35.05.66.06,1.03,0v-1.02c-.39-.1-.67.01-.87.23Z"/>
          <path d="M498.9,896.85c.34.43.94-.12,1.07-.55.08-.25.1-.36,0-.45-.24-.21-1.46.51-1.07,1.01Z"/>
          <path d="M571.98,898.34l.27-.94c-.51.08-1.08.39-1.15.98-.02.22.24.31.41.29.16-.02.39-.05.47-.33Z"/>
          <path d="M519.97,886.14c-.14.04-.43.23-.32.42.23.41.96.72,1.23.28-.1-.46-.56-.8-.91-.7Z"/>
          <path d="M527.7,845.85c-.02-.21-.23-.35-.44-.4l-1.02-.28,1.01,1.25c.25-.17.46-.38.45-.56Z"/>
          <path d="M571.49,869.72c-.3-.11-.96.26-.91.58.04.21.23.33.48.38.18.04.46,0,.57-.13.06-.08.04-.2,0-.38.05-.19-.02-.41-.14-.46Z"/>
          <path d="M560.52,877.88c0,.15-.11.49.15.53.21.03.5.03.61-.04.12-.07.21-1.16-.3-1.02-.26.07-.46.29-.47.53Z"/>
          <path d="M580.19,919.65c.42-.14.76-.61.5-.9-.15-.16-.74-.12-.89.04-.29.29.09.96.38.86Z"/>
          <path d="M497.73,899.02c.1.39.76.44.97.17.21-.29,0-.86-.31-.87-.25,0-.72.47-.66.7Z"/>
          <path d="M521.24,863.27c-.25.03-.36.27-.34.57.01.24.05.41.2.54.12.1.32.08.44.02.19-.1.21-.35.19-.63-.03-.39-.23-.55-.49-.51Z"/>
          <path d="M540.53,869.76c-.53.14-.81.86-.44,1.27l.78-.77c.13-.13.07-.34.01-.4-.05-.06-.19-.14-.36-.1Z"/>
          <path d="M562.58,889.59c.48-.18.4-1.1-.09-1.2-.28-.04-.41.44-.41.66,0,.23.11.69.5.54Z"/>
          <path d="M579.43,886.93c-.27.11-.33.33-.36.56-.03.2.07.53.37.45.27-.07.55-.44.69-.65-.2-.41-.48-.44-.69-.36Z"/>
          <path d="M480.71,896.63c-.21-.07-.39-.11-.68,0,.12.38.36.97.82,1.1.39.11.12-1.01-.14-1.1Z"/>
          <path d="M565.75,918.59c.26.38,1-.35,1.53-1.18l-1.38.68c-.17.09-.22.4-.15.5Z"/>
          <path d="M488.63,882.17c-.1-.22-.39-.36-.62-.17-.23.19-.33.51-.38.81.26.05.46.06.71-.02.34-.1.38-.43.29-.63Z"/>
          <path d="M520.69,948.78c.18.14.58-.07.67-.24.15-.26-.06-.99-.13-1.03-.23-.12-.49.56-.55,1.26Z"/>
          <path d="M483.05,895.01c-.23.12-.14.54,0,.73.1.14.47.29.6.12.1-.18.08-.63-.02-.81-.13-.09-.46-.1-.58-.04Z"/>
          <path d="M497.38,912.25c.13-.02.4-.23.42-.42-.07-.24-.51-.53-.78-.44-.16.05-.28.21-.29.3-.01.07.42.59.65.56Z"/>
          <path d="M486.79,883.59c-.19.26-.17.56-.03.64.17.1.58.13.69.01.13-.13.11-.52,0-.64-.1-.12-.54-.18-.67,0Z"/>
          <path d="M516.29,866.98c.08-.11.12-.42-.04-.5-.31-.15-.66-.07-.86.08-.17.14-.1.43.02.49.14.08.79.05.88-.07Z"/>
          <path d="M577.91,919.95c0,.18.27.32.34.25.34-.33.6-.42.66-.54.05-.09.03-.31-.1-.36-.42-.14-.92.2-.9.65Z"/>
          <path d="M486.17,881.09c-.2.14-.16.57.13.64.39.1.71-.52.42-1.01l-.55.36Z"/>
          <path d="M522.28,845.69c-.16.21.05.93.31.96.3.03.47-.45.35-.62-.12-.18-.48-.56-.66-.34Z"/>
          <path d="M558.1,941.9c0,.2.61.35.68.14.13-.39-.16-.69-.38-.81-.16.2-.32.4-.31.67Z"/>
          <path d="M494.99,936.89c.37-.26.4-.72.24-1.05l-.65.55c-.19.16.21.64.41.5Z"/>
          <path d="M564.67,916.08c.36-.14.6-.7.32-1.01-.18-.18-.45-.03-.44.06v.31c.03.24-.04.46.12.65Z"/>
          <path d="M541.79,945.33c-.45-.09-.7-.07-1.05.01.06.31.18.43.31.59.31-.15.55-.23.74-.61Z"/>
          <path d="M523.9,888.16c-.04-.18-.5-.41-.63-.34-.27.14-.19.62.06.67.26.05.68.09.58-.33Z"/>
          <rect x="520.66" y="887.8" width=".65" height=".7"/>
          <path d="M556.64,940.87c-.09.11-.33.33-.13.46.31.2.77-.1.71-.48-.04-.25-.44-.15-.58.02Z"/>
          <path d="M492.57,929.44c-.07.27.19.73.51.71-.01-.27.07-.58-.06-.87-.07-.15-.41-.02-.46.16Z"/>
          <path d="M486.89,924.41c.18-.18.28-.26.12-.43-.14-.15-.31-.25-.48-.14-.25.15-.28.35-.06.55.16.15.22.22.43.01Z"/>
          <path d="M516.88,909.26l-.33.76.68.02c.11-.35-.05-.63-.35-.78Z"/>
          <path d="M500.5,935.29c.16.22.7.28.82.11.15-.21-.24-.52-.39-.57-.19.15-.34.29-.43.46Z"/>
          <path d="M582.48,914.53c-.24.16-.23.37-.07.49.14.11.42.22.51.1.1-.13.11-.44.04-.56-.08-.14-.34-.13-.48-.04Z"/>
          <path d="M526.6,862.5c-.13.03-.17.09-.19.31,0,.11-.11.39.05.45.09.03.29.03.44-.02.09-.03.2-.19,0-.41-.08-.08-.11-.37-.29-.33Z"/>
          <path d="M578.89,909.03c.07-.19.13-.46-.13-.62l-.53.93c.48.16.6-.16.66-.31Z"/>
          <path d="M570.32,910.37c-.12-.11-.41-.22-.65-.09l.6.89c.28-.17.25-.62.04-.8Z"/>
          <path d="M570.91,930.39c.4-.04.55-.41.41-.65l-.73.04.32.61Z"/>
          <path d="M525.11,862.98c-.15-.09-.41,0-.37.2.03.14.27.41.4.46.15.04.38-.23.31-.35-.09-.15-.25-.26-.34-.32Z"/>
          <rect x="539.64" y="950.15" width=".57" height=".67" transform="translate(-518.28 676.37) rotate(-45.88)"/>
          <path d="M537.36,905.39c-.18-.29-.85-.54-.95-.19-.41,1.36-.93,2.58-1.14,3.85.29.09.79.23,1.04,0l1.04-.96c.51-.47.98-1.03.82-1.69-.11-.46-.59-.66-.81-1.02Z"/>
        </g>
        <g id="L9Vr2n.tif">
          <g>
            <path d="M232.44,859.52v79.43s-229.25,0-229.25,0l-.02-79.41h229.27ZM141.56,895.11c-.62-3.29-1.97-6.29-4.16-8.77-3.35-3.78-8.18-4.97-13.1-4.28-2.29.32-4.28,1.36-5.95,2.93l-2.08,2.37v-17.41s-9.49,0-9.49,0v49.04s9.33,0,9.33,0l.03-4.4,1.34,1.59c2.75,3.57,7.82,4.26,12.13,3.57,3.34-.53,6.17-2.32,8.2-5.01,4.08-5.43,5-13.08,3.76-19.63ZM33.21,908.3c-.79,1.8-2.05,3.06-3.76,3.71-2.03.65-4.18.57-6.15-.21-3.44-1.47-4.64-4.79-4.71-8.36h24.86c.12-6.54-.32-11.87-4.73-16.86-4.01-4.44-10.65-5.6-16.37-4.55s-10.45,5.28-12.22,10.93c-1.94,6.2-1.76,16.29,2.73,21.3,3.46,3.85,8.43,5.9,13.59,5.9,5.87,0,10.74-1.86,14.22-6.61,1.17-1.6,2.09-3.32,2.29-5.29l-9.74.03ZM78.77,896.83c.09-1.46.3-2.67.88-3.87,1.27-2.6,4-3.39,6.79-2.88,2.61.48,3.79,2.73,3.84,5.39v23.53s9.76,0,9.76,0l.06-23.91-.26-3.88c-.62-4.57-4.04-8.2-8.6-9.06-3.11-.58-6.3-.19-9.11,1.28-1.98,1.04-3.41,2.7-4.57,4.62-1.45-3.24-3.28-5.11-6.75-5.86-4.18-.73-8.72-.23-11.58,3.05-.79.84-1.34,1.77-2.04,2.7l-.03-5.18h-9.24s0,36.25,0,36.25h9.66s0-22.61,0-22.61c.1-2.6.68-4.9,3.17-5.84,1.44-.54,3.01-.63,4.54-.36,3.35.58,3.89,3.8,3.88,6.98v21.83s9.58,0,9.58,0v-22.17ZM147.01,916.43c1.37,1.53,3.08,2.61,5.09,3.15,3.03.82,6.25.72,9.18-.44,2.42-.95,4.39-2.53,6.21-4.41.15,1.52.29,2.93.89,4.27h10.33s0-1.44,0-1.44c-1.08-.41-1.79-1.25-1.84-2.37l-.17-3.56-.04-19.17c0-1.59-.33-3.04-.94-4.45-.8-1.84-2.2-3.13-4-3.99-3.33-1.6-6.91-2.24-10.63-2.19-2.72.04-5.33.33-7.84,1.34-4.91,1.92-7.14,6.17-7.42,11.32h9.18c.44-2.67,1.51-4.34,4.19-4.85,1.93-.27,3.9-.21,5.73.38,1.35.43,2.07,1.43,2.23,2.77.33,2.67-1.96,3.61-4.54,3.96l-5.76.77c-2.15.29-4.19.79-6.15,1.68-2.94,1.34-5.04,3.79-5.73,6.95-.76,3.47-.38,7.62,2.02,10.3ZM192.82,909.05c-1.82-3.28-1.82-8.6-1.18-12.32.53-3.03,2.09-5.87,5.15-6.62,1.36-.34,2.75-.32,4.1.03,2.62.71,3.78,2.98,4.21,5.59h9.73c-.37-3.76-1.4-7.33-4.06-9.98-4.25-3.75-11.08-4.56-16.51-3.51-6.63,1.28-10.96,6.43-12.31,12.93-.82,3.95-.89,7.97-.11,11.93.63,3.17,1.93,6.07,4.05,8.49,3.84,4.39,10.71,5.29,16.25,4.33,2.67-.47,5.11-1.54,7.12-3.34,3.12-2.79,5.12-6.63,5.47-10.77h-9.72c-.16,1.42-.49,2.76-1.23,3.97-.58,1.08-1.51,1.82-2.7,2.15-3.18.9-6.6.14-8.27-2.87ZM229.6,909.06h-10.1v9.94h10.1v-9.94Z"/>
            <g>
              <g>
                <path d="M155.17,911.74c-.81-.87-.95-2-.97-3.1-.08-3.23,2.35-4.53,5.32-5.11l4.26-.83c1.21-.23,2.22-.66,3.37-1.33l-.1,5.01c-.2,1.61-.65,3.26-1.85,4.4-2.54,2.41-7.6,3.56-10.02.96Z"/>
                <path d="M123.92,912.12c-2.67-.08-4.89-1.27-6.19-3.55-.91-1.58-1.46-3.29-1.64-5.15-.22-2.24-.14-4.44.31-6.64.79-3.79,3.06-6.36,7.03-6.58,4.08-.23,6.84,1.8,7.93,5.7.82,2.93.9,6,.37,9-.32,1.79-1.02,3.42-2.12,4.8-1.4,1.77-3.41,2.5-5.69,2.43Z"/>
              </g>
              <path d="M33.53,897.16l-14.73.02c.56-4.11,2.55-7.48,7.01-7.64,2.69-.1,5.2,1.03,6.58,3.38.7,1.26,1.06,2.6,1.14,4.24Z"/>
            </g>
          </g>
        </g>
        <g id="ys6DYY.tif">
          <g>
            <path d="M1016.21,923.73c-10.76-.01-14.28-4.63-15.94-3.91-.53.23-1.47.95-1.47,1.8l-.04,15.31c0,1.21-.91,2.03-2.1,2.03h-10.32c-.95,0-1.82-.71-1.82-1.71l-.02-17.26c0-.94-.12-1.51-.96-1.62-2.28-.29-.47,3.99-3.96,3.99h-9.61c-2.44-.02-2.13-2.61-3.67-3.19-2.08-.78-8,5.91-23.77,4.09-9.45-1.09-16.3-6.24-15.63-15.69.38-5.45,3.72-9.68,9.14-11.06,3.35-.85,6.75-1.41,10.3-1.44l18.4-.14c.94,0,1.71-.25,2.12-.78.53-.7.63-1.73.27-2.72-1.89-5.12-11.76-4.58-18.44-3.94-2.52.24-4.11,2.4-5.53,3.49-4.69.29-11.89.42-13-.91-.43-.52-.56-1.37-.26-2.18,3.55-9.68,15.55-10.59,25.57-10.54,5.14.03,10.09.03,14.99,1.57,9.02,2.83,9.04,6.87,11.03,6.85,1.02-.01,1.89-.87,1.7-2.24-.3-2.29,1.21-4.5,3.69-4.49l10.2.04c1.35,0,1.62,1.75,2.07,2.39,1.05,1.49,2.36.32,3.37-.25,6.77-3.78,14.65-4.05,22.01-1.84,6.4,1.92,8,4.75,8.9,4.31.77-.38-.79-2.08-.02-3.67.23-.47.94-1.2,1.83-1.19l12.47.12,10.1,26.2c.33.85,1.21,1.06,1.84,1.01.81-.07,1.6-.42,1.99-1.4l10.22-25.73,11.79-.24c.87-.02,1.7.4,2.09.9.52.67.55,1.59.1,2.59l-18.19,39.89-15.17.07c-3.62.02-4.73-10.26-10.71-9.37-1.35.2-2.57,1.11-3.36,2.59-3.77,7.01-13.94,8.27-22.2,8.27ZM1025.3,900.9c0-7.31-5.95-13.24-13.29-13.24s-13.29,5.93-13.29,13.24,5.95,13.24,13.29,13.24,13.29-5.93,13.29-13.24ZM966.71,902.91c-1.21-1.37-14.88-.92-20.61.54-2.54.65-4.15,2.77-4.19,5.02s1.47,4.15,3.89,4.79c14.09,3.73,23.85-7.02,20.91-10.35Z"/>
            <path d="M926.37,880.38c-.51-.87-1.5-2.7-2.85-2.31-1.19.34-1.65,2.58-2.69,3.27s-2.26.01-2.73-.78c-1.19-1.99,2.29-3.75,1.8-5.33-.46-1.5-3.84-1.14-4.55-2.26-.5-.8-.24-3.07.72-2.96l5.23.61c1.5.17-.58-5.83,2.52-5.83,1.44,0,2.18.71,1.92,2.47-.14.91-.22,2.7.65,3.27,1.48.97,4.5-1.58,5.91-.52.52.39.69,1.3.6,2.04-.22,1.97-4.7,1.32-4.99,3.48-.2,1.45,3.96,3.7,1.62,5.59-.92.74-2.25.83-3.16-.73Z"/>
          </g>
        </g>
      </g>
    </g>
  </g>
</svg>