<?xml version="1.0" encoding="UTF-8"?>
<svg id="Layer_2" data-name="Layer 2" xmlns="http://www.w3.org/2000/svg" viewBox="0 0 1287.27 532.69">
  <defs>
    <style>
      .cls-1 {
        fill: #fff;
      }

      .cls-2 {
        fill: #f5c64b;
      }

      .cls-3 {
        stroke: #000;
        stroke-miterlimit: 10;
        stroke-width: 4px;
      }

      .cls-4 {
        fill: #3070c9;
      }
    </style>
  </defs>
  <g id="TYPE">
    <g>
      <polygon class="cls-4" points="940.23 312.72 940.23 114.61 347.03 114.61 347.03 312.72 0 312.72 0 532.69 1287.27 532.69 1287.27 312.72 940.23 312.72"/>
      <g>
        <path class="cls-3" d="M417.59,150.97h32.91v92.24c0,41.57-19.92,56.08-51.97,56.08-7.58,0-17.54-1.3-24.03-3.46l3.68-26.63c4.55,1.52,10.39,2.6,16.89,2.6,13.86,0,22.52-6.28,22.52-29.01v-91.81Z"/>
        <path class="cls-3" d="M516.32,150.97v84.01c0,25.12,9.53,37.89,26.42,37.89s26.85-12.12,26.85-37.89v-84.01h32.91v81.85c0,45.04-22.73,66.47-60.84,66.47s-58.46-20.35-58.46-66.91v-81.41h33.13Z"/>
        <path class="cls-3" d="M663.99,259.45l-10.39,37.46h-34.21l44.6-145.94h43.3l45.25,145.94h-35.51l-11.26-37.46h-41.79ZM701.01,234.77l-9.09-30.96c-2.6-8.66-5.2-19.49-7.36-28.15h-.43c-2.17,8.66-4.33,19.7-6.71,28.15l-8.66,30.96h32.26Z"/>
        <path class="cls-3" d="M777.44,296.91v-145.94h38.54l30.31,53.48c8.66,15.37,17.32,33.56,23.82,50.02h.65c-2.17-19.27-2.81-38.97-2.81-60.84v-42.65h30.31v145.94h-34.64l-31.18-56.3c-8.66-15.59-18.19-34.43-25.33-51.53l-.65.22c.87,19.27,1.3,39.84,1.3,63.66v43.95h-30.31Z"/>
        <path class="cls-3" d="M60.66,330.47c10.18-1.73,24.47-3.03,44.6-3.03s34.86,3.9,44.6,11.69c9.31,7.36,15.59,19.49,15.59,33.78s-4.76,26.42-13.42,34.64c-11.26,10.61-27.93,15.37-47.42,15.37-4.33,0-8.23-.22-11.26-.65v52.18h-32.69v-143.99ZM93.35,396.73c2.81.65,6.28.87,11.04.87,17.54,0,28.36-8.88,28.36-23.82,0-13.42-9.31-21.44-25.77-21.44-6.71,0-11.26.65-13.64,1.3v43.09Z"/>
        <path class="cls-3" d="M221.31,328.52v145.94h-33.13v-145.94h33.13Z"/>
        <path class="cls-3" d="M342.13,412.75h-53.7v34.64h59.98v27.07h-93.1v-145.94h90.07v27.07h-56.95v30.31h53.7v26.85Z"/>
        <path class="cls-3" d="M376.34,330.47c10.61-1.73,26.42-3.03,43.95-3.03,21.65,0,36.81,3.25,47.2,11.48,8.66,6.93,13.42,17.11,13.42,30.53,0,18.62-13.21,31.4-25.77,35.94v.65c10.18,4.11,15.81,13.86,19.49,27.28,4.55,16.46,9.09,35.51,11.91,41.14h-33.78c-2.38-4.11-5.85-16.02-10.18-33.99-3.9-18.19-10.18-23.17-23.6-23.38h-9.96v57.38h-32.69v-143.99ZM409.04,393.26h12.99c16.46,0,26.2-8.23,26.2-21,0-13.42-9.09-20.14-24.25-20.35-8.01,0-12.56.65-14.94,1.08v40.27Z"/>
        <path class="cls-3" d="M546.09,437l-10.39,37.46h-34.21l44.6-145.94h43.3l45.25,145.94h-35.51l-11.26-37.46h-41.79ZM583.11,412.32l-9.09-30.96c-2.6-8.66-5.2-19.49-7.36-28.15h-.43c-2.17,8.66-4.33,19.7-6.71,28.15l-8.66,30.96h32.26Z"/>
        <path class="cls-3" d="M651.53,456.7l69.5-100.03v-.87h-63.01v-27.28h105.88v19.05l-67.99,98.73v.87h69.07v27.28h-113.46v-17.75Z"/>
        <path class="cls-3" d="M781.88,456.7l69.5-100.03v-.87h-63.01v-27.28h105.88v19.05l-67.99,98.73v.87h69.07v27.28h-113.46v-17.75Z"/>
        <path class="cls-3" d="M1050.37,399.97c0,47.85-29.01,76.87-71.67,76.87s-68.64-32.69-68.64-74.27c0-43.74,27.93-76.43,71.02-76.43s69.29,33.56,69.29,73.83ZM944.92,401.92c0,28.58,13.42,48.72,35.51,48.72s35.08-21.22,35.08-49.58c0-26.2-12.56-48.72-35.29-48.72s-35.29,21.22-35.29,49.58Z"/>
        <path class="cls-3" d="M1077.43,328.52h33.13v118.22h58.03v27.71h-91.16v-145.94Z"/>
        <path class="cls-3" d="M1226.61,328.52v145.94h-33.13v-145.94h33.13Z"/>
      </g>
      <g>
        <path class="cls-2" d="M19.36,445.52c-.8-1.08-2.51-1.61-5.13-1.61s-4.43.88-5.43,2.63c-.34.6-.51,1.34-.51,2.21,0,1.61.72,3.09,2.17,4.42.95.89,2.27,1.81,3.95,2.74,1.68.94,3.1,1.77,4.25,2.51,4.35,2.77,6.52,5.79,6.52,9.08,0,2.92-1.07,5.17-3.21,6.75-2.14,1.58-4.92,2.37-8.32,2.37s-6.13-.67-8.18-2.02c-2.05-1.34-3.08-2.89-3.08-4.63s.7-2.92,2.1-3.54c.43-.2.9-.3,1.41-.3.97,0,1.76.32,2.39.97s.93,1.46.93,2.44-.45,1.82-1.34,2.51c1.2,1.2,3.18,1.8,5.96,1.8s4.67-.94,5.7-2.81c.37-.65.55-1.4.55-2.26,0-1.49-.77-2.87-2.3-4.15-.8-.66-2.15-1.52-4.04-2.57s-3.39-1.93-4.48-2.64c-4.01-2.58-6.02-5.62-6.02-9.13,0-2.73,1.03-4.95,3.1-6.64,2.07-1.69,4.62-2.54,7.67-2.54s5.55.65,7.51,1.96c1.96,1.31,2.94,2.9,2.94,4.77,0,1.01-.31,1.86-.93,2.55-.62.68-1.41,1.03-2.36,1.03-1.46,0-2.47-.64-3.04-1.91-.17-.38-.25-.79-.25-1.22,0-1.18.49-2.11,1.47-2.79Z"/>
        <path class="cls-2" d="M46.14,473.27c6.1,0,9.15-3.79,9.15-11.36v-15.26c0-1-.17-1.62-.51-1.87-.61-.43-1.74-.65-3.36-.65v-2.54h11.71v2.54c-1.46,0-2.41.14-2.86.43s-.73.59-.85.91-.18.71-.18,1.18l.02,15c0,7.54-2.67,12.25-8.02,14.1-1.71.58-3.35.88-4.93.88s-2.91-.11-3.98-.33c-1.07-.22-2.09-.58-3.08-1.07-2.15-1.08-3.87-2.7-5.14-4.89-1.28-2.18-1.91-5-1.91-8.46v-15.23c0-.98-.17-1.6-.51-1.87-.57-.43-1.61-.65-3.13-.65v-2.54h12.91v2.54c-1.55,0-2.56.14-3.03.43s-.77.59-.9.91c-.13.32-.2.71-.2,1.18v15.72c0,3.7.84,6.45,2.51,8.23,1.67,1.78,3.77,2.67,6.29,2.67Z"/>
        <path class="cls-2" d="M65.98,473.64c1.61,0,2.62-.14,3.02-.43.4-.28.64-.59.71-.91s.12-.71.12-1.18v-24.48c0-1-.17-1.62-.51-1.87-.61-.43-1.74-.65-3.37-.65v-2.54h12.61c6.3,0,10.39,1.75,12.28,5.25.75,1.38,1.13,3.05,1.13,5.01s-.39,3.65-1.17,5.08c-2.14,3.84-6.39,5.76-12.77,5.76-.29,0-.58,0-.88-.02h-2.14v7.28c0,.78.04,1.41.13,1.89.08.48.39.89.91,1.24.52.35,2.13.53,4.84.53v2.54h-14.91v-2.54ZM77.58,460.38c2.86,0,5.05-.71,6.57-2.13,1.52-1.42,2.28-3.57,2.28-6.44,0-3.5-1.46-5.85-4.38-7.03-1.04-.43-2.31-.65-3.8-.65h-3.23v16.25h2.56Z"/>
        <path class="cls-2" d="M95.21,473.64c1.49,0,2.45-.14,2.88-.42.43-.28.71-.57.83-.89s.18-.7.18-1.16v-24.52c0-.95-.28-1.61-.85-1.97-.57-.36-1.58-.54-3.02-.54v-2.54h25.08l.9,8.37-3.34.02-.62-2.6c-.31-1.24-.62-2.03-.95-2.35-.57-.57-1.53-.85-2.88-.85h-9.13v13.41h4.47c1.74,0,2.8-.12,3.19-.35s.66-.56.81-.99c.15-.43.22-1.05.22-1.87h3v8.92h-3c0-1.43-.28-2.32-.84-2.66-.56-.35-1.69-.52-3.38-.52h-4.47v13.51h9.79c1.78,0,2.97-.6,3.55-1.8.18-.37.37-.75.55-1.15l1.04-2.83h3.34l-.9,8.32h-26.46v-2.54Z"/>
        <path class="cls-2" d="M154.03,473.31c1.2,0,1.8-1.38,1.8-4.15h2.21c.17.55.25,1.04.25,1.45s0,.86-.02,1.35c-.02.48-.2,1.12-.55,1.9-.84,1.84-2.43,2.77-4.75,2.77s-3.95-.58-4.9-1.75c-.94-1.17-1.62-2.35-2.02-3.56-.4-1.21-.72-2.26-.97-3.17-.71-2.47-1.28-4.09-1.71-4.84-.78-1.44-1.85-2.17-3.2-2.17h-5.07v8.83c0,.78.04,1.41.12,1.89.08.48.35.89.82,1.24.47.35,1.9.53,4.3.53v2.54h-14.27v-2.54c1.61,0,2.62-.14,3.02-.43s.64-.59.71-.91c.08-.32.12-.71.12-1.18v-24.48c0-1-.17-1.62-.51-1.87-.62-.43-1.74-.65-3.37-.65v-2.54h14.15c7.56,0,11.76,2.34,12.61,7.01.14.77.21,1.67.21,2.7,0,2.21-.7,4.1-2.09,5.66s-3.28,2.69-5.68,3.38c2.07.63,3.62,2.29,4.63,4.98.34.88.71,2.01,1.11,3.39.4,1.38.72,2.34.97,2.86.54,1.17,1.23,1.75,2.07,1.75ZM140.24,458.84c2.63,0,4.49-.63,5.58-1.9s1.64-3.1,1.64-5.49-.64-4.21-1.91-5.45-3.51-1.87-6.71-1.87h-3.73v14.7h5.14Z"/>
        <path class="cls-2" d="M160.27,473.64c1.44,0,2.39-.14,2.83-.43.45-.28.73-.59.85-.91s.18-.71.18-1.18v-24.48c0-1-.17-1.62-.51-1.87-.62-.43-1.74-.65-3.37-.65v-2.54h10.88l10.21,26.67,9.8-26.67h10.76v2.54c-1.46,0-2.41.14-2.86.43-.45.28-.73.59-.85.91s-.18.71-.18,1.18v24.48c0,.98.18,1.61.53,1.87.62.43,1.74.65,3.37.65v2.54h-12.79v-2.54c1.44,0,2.38-.14,2.8-.43s.69-.59.8-.91c.11-.32.16-.71.16-1.18v-24.59l-10.69,29.64h-2.56l-11.8-29.66v24.61c0,1,.17,1.62.51,1.87.61.43,1.74.65,3.37.65v2.54h-11.43v-2.54Z"/>
        <path class="cls-2" d="M205.42,473.64c1.49,0,2.45-.14,2.88-.42.43-.28.71-.57.83-.89s.18-.7.18-1.16v-24.52c0-.95-.28-1.61-.85-1.97-.57-.36-1.58-.54-3.02-.54v-2.54h25.08l.9,8.37-3.34.02-.62-2.6c-.31-1.24-.62-2.03-.95-2.35-.57-.57-1.53-.85-2.88-.85h-9.13v13.41h4.47c1.74,0,2.8-.12,3.19-.35s.66-.56.81-.99c.15-.43.22-1.05.22-1.87h3v8.92h-3c0-1.43-.28-2.32-.84-2.66-.56-.35-1.69-.52-3.38-.52h-4.47v13.51h9.79c1.78,0,2.97-.6,3.55-1.8.18-.37.37-.75.55-1.15l1.04-2.83h3.34l-.9,8.32h-26.46v-2.54Z"/>
        <path class="cls-2" d="M264.24,473.31c1.2,0,1.8-1.38,1.8-4.15h2.21c.17.55.25,1.04.25,1.45s0,.86-.02,1.35c-.02.48-.2,1.12-.55,1.9-.84,1.84-2.43,2.77-4.75,2.77s-3.95-.58-4.9-1.75c-.94-1.17-1.62-2.35-2.02-3.56-.4-1.21-.72-2.26-.97-3.17-.71-2.47-1.28-4.09-1.71-4.84-.78-1.44-1.85-2.17-3.2-2.17h-5.07v8.83c0,.78.04,1.41.12,1.89.08.48.35.89.82,1.24.47.35,1.9.53,4.3.53v2.54h-14.27v-2.54c1.61,0,2.62-.14,3.02-.43s.64-.59.71-.91c.08-.32.12-.71.12-1.18v-24.48c0-1-.17-1.62-.51-1.87-.62-.43-1.74-.65-3.37-.65v-2.54h14.15c7.56,0,11.76,2.34,12.61,7.01.14.77.21,1.67.21,2.7,0,2.21-.7,4.1-2.09,5.66s-3.28,2.69-5.68,3.38c2.07.63,3.62,2.29,4.63,4.98.34.88.71,2.01,1.11,3.39.4,1.38.72,2.34.97,2.86.54,1.17,1.23,1.75,2.07,1.75ZM250.46,458.84c2.63,0,4.49-.63,5.58-1.9s1.64-3.1,1.64-5.49-.64-4.21-1.91-5.45-3.51-1.87-6.71-1.87h-3.73v14.7h5.14Z"/>
        <path class="cls-2" d="M286.99,473.64c4.84,0,7.9-2.23,9.17-6.68h3.32c0,1.2-.32,2.38-.97,3.54s-1.55,2.19-2.72,3.1c-2.58,2.03-5.9,3.04-9.96,3.04s-7.53-1.35-10.42-4.06c-3.35-3.12-5.02-7.68-5.02-13.69,0-4.79,1.29-8.83,3.87-12.12,1.83-2.35,4.26-3.99,7.31-4.91,1.57-.48,3.29-.71,5.16-.71,3.7,0,6.75.85,9.13,2.55,2.38,1.7,3.57,3.83,3.57,6.4,0,1.92-.75,3.21-2.26,3.87-.45.2-.93.3-1.45.3-1.61,0-2.7-.68-3.25-2.05-.17-.43-.25-.94-.25-1.53s.17-1.18.51-1.75.78-1.02,1.34-1.33c-1.25-2.38-3.47-3.57-6.68-3.57s-5.82,1.22-7.84,3.65c-2.01,2.44-3.02,6.09-3.02,10.97s1.02,8.6,3.07,11.15c2.04,2.56,4.51,3.84,7.4,3.84Z"/>
        <path class="cls-2" d="M302.7,473.64c1.28,0,2.24-.2,2.89-.59.65-.39,1.16-1.03,1.51-1.92l12.45-29.52h3.94l11.38,29.52c.42.98.88,1.65,1.38,1.99.51.35,1.5.52,2.97.52v2.54h-14.22v-2.54c2.03,0,3.23-.14,3.61-.42.38-.28.55-.58.53-.9-.02-.32-.13-.72-.31-1.2l-2.07-5.79h-13.39l-2.37,5.79c-.35.92-.25,1.57.32,1.95.57.38,1.9.56,3.99.56v2.54h-12.61v-2.54ZM325.87,462.8l-5.35-14.93-6.11,14.93h11.46Z"/>
        <path class="cls-2" d="M341.05,473.64c1.63,0,2.64-.14,3.04-.43.4-.28.64-.59.71-.91s.12-.71.12-1.18v-24.48c0-1-.17-1.62-.51-1.87-.61-.43-1.74-.65-3.37-.65v-2.54h12.38c9.93,0,15.89,3.26,17.91,9.77.61,2.03.92,4.21.92,6.53s-.23,4.37-.69,6.13c-.46,1.76-1.11,3.31-1.94,4.67-1.58,2.57-3.75,4.45-6.51,5.66s-5.83,1.81-9.23,1.81h-12.84v-2.54ZM354.4,473.61c7.9,0,11.85-5.15,11.85-15.44,0-4.39-1.09-7.87-3.27-10.43-2.18-2.56-5.43-3.84-9.75-3.84h-3.11v29.71h4.29Z"/>
        <path class="cls-2" d="M375.86,458.89c0-2.92.45-5.51,1.34-7.78.89-2.27,2.09-4.14,3.6-5.61,2.96-2.9,6.75-4.36,11.36-4.36s8.4,1.43,11.36,4.29c3.29,3.15,4.93,7.6,4.93,13.34s-1.51,10.16-4.53,13.24c-3.02,3.08-6.94,4.62-11.77,4.62s-8.73-1.56-11.75-4.68c-3.03-3.12-4.54-7.47-4.54-13.07ZM392.22,473.64c2.69,0,4.95-1,6.78-3,2.3-2.52,3.46-6.35,3.46-11.5s-.98-8.93-2.95-11.36c-1.97-2.43-4.44-3.64-7.42-3.64s-5.41,1.21-7.34,3.63c-1.93,2.42-2.89,6.05-2.89,10.89,0,6.96,1.9,11.55,5.72,13.76,1.4.81,2.95,1.22,4.66,1.22Z"/>
        <path class="cls-1" d="M427.64,473.64c1.63,0,2.64-.14,3.04-.43s.64-.59.71-.91c.08-.32.12-.71.12-1.18v-24.48c0-1-.17-1.62-.51-1.87-.62-.43-1.74-.65-3.37-.65v-2.54h12.38c9.93,0,15.9,3.26,17.91,9.77.61,2.03.92,4.21.92,6.53s-.23,4.37-.69,6.13-1.11,3.31-1.94,4.67c-1.58,2.57-3.75,4.45-6.51,5.66-2.76,1.21-5.83,1.81-9.23,1.81h-12.84v-2.54ZM440.99,473.61c7.9,0,11.85-5.15,11.85-15.44,0-4.39-1.09-7.87-3.27-10.43-2.18-2.56-5.43-3.84-9.75-3.84h-3.11v29.71h4.29Z"/>
        <path class="cls-1" d="M462.28,473.64c1.49,0,2.45-.14,2.88-.42.43-.28.71-.57.83-.89s.18-.7.18-1.16v-24.52c0-.95-.28-1.61-.85-1.97-.57-.36-1.58-.54-3.02-.54v-2.54h25.08l.9,8.37-3.34.02-.62-2.6c-.31-1.24-.62-2.03-.95-2.35-.57-.57-1.53-.85-2.88-.85h-9.13v13.41h4.47c1.74,0,2.8-.12,3.19-.35s.66-.56.81-.99c.15-.43.22-1.05.22-1.87h3v8.92h-3c0-1.43-.28-2.32-.84-2.66-.56-.35-1.69-.52-3.38-.52h-4.47v13.51h9.79c1.78,0,2.97-.6,3.55-1.8.18-.37.37-.75.55-1.15l1.04-2.83h3.34l-.9,8.32h-26.46v-2.54Z"/>
        <path class="cls-1" d="M508.86,473.64c1.63,0,2.64-.14,3.04-.43s.64-.59.71-.91c.08-.32.12-.71.12-1.18v-24.48c0-1-.17-1.62-.51-1.87-.62-.43-1.74-.65-3.37-.65v-2.54h12.38c9.93,0,15.9,3.26,17.91,9.77.61,2.03.92,4.21.92,6.53s-.23,4.37-.69,6.13-1.11,3.31-1.94,4.67c-1.58,2.57-3.75,4.45-6.51,5.66-2.76,1.21-5.83,1.81-9.23,1.81h-12.84v-2.54ZM522.21,473.61c7.9,0,11.85-5.15,11.85-15.44,0-4.39-1.09-7.87-3.27-10.43-2.18-2.56-5.43-3.84-9.75-3.84h-3.11v29.71h4.29Z"/>
        <path class="cls-1" d="M543.73,473.64c1.46,0,2.41-.14,2.86-.43.45-.28.73-.59.85-.91.12-.32.18-.71.18-1.18l-.02-24.48c0-1-.18-1.62-.53-1.87-.6-.43-1.71-.65-3.34-.65v-2.54h12.95v2.54c-1.46,0-2.41.14-2.86.43-.45.28-.73.59-.85.91-.12.32-.18.71-.18,1.18l.02,24.48c0,1,.18,1.62.53,1.87.6.43,1.71.65,3.34.65v2.54h-12.95v-2.54Z"/>
        <path class="cls-1" d="M577.87,445.52c-.8-1.08-2.51-1.61-5.13-1.61s-4.43.88-5.43,2.63c-.34.6-.51,1.34-.51,2.21,0,1.61.72,3.09,2.17,4.42.95.89,2.27,1.81,3.95,2.74,1.68.94,3.1,1.77,4.25,2.51,4.35,2.77,6.52,5.79,6.52,9.08,0,2.92-1.07,5.17-3.21,6.75-2.14,1.58-4.92,2.37-8.32,2.37s-6.13-.67-8.18-2.02c-2.05-1.34-3.08-2.89-3.08-4.63s.7-2.92,2.1-3.54c.43-.2.9-.3,1.41-.3.97,0,1.76.32,2.39.97s.93,1.46.93,2.44-.45,1.82-1.34,2.51c1.2,1.2,3.18,1.8,5.96,1.8s4.67-.94,5.7-2.81c.37-.65.55-1.4.55-2.26,0-1.49-.77-2.87-2.3-4.15-.8-.66-2.15-1.52-4.04-2.57s-3.39-1.93-4.48-2.64c-4.01-2.58-6.02-5.62-6.02-9.13,0-2.73,1.03-4.95,3.1-6.64,2.07-1.69,4.62-2.54,7.67-2.54s5.55.65,7.51,1.96c1.96,1.31,2.94,2.9,2.94,4.77,0,1.01-.31,1.86-.93,2.55-.62.68-1.41,1.03-2.36,1.03-1.46,0-2.47-.64-3.04-1.91-.17-.38-.25-.79-.25-1.22,0-1.18.49-2.11,1.47-2.79Z"/>
        <path class="cls-1" d="M587.5,473.64c1.49,0,2.45-.14,2.88-.42.43-.28.71-.57.83-.89.12-.31.18-.7.18-1.16v-24.52c0-.95-.28-1.61-.85-1.97s-1.58-.54-3.02-.54v-2.54h25.08l.9,8.37-3.34.02-.62-2.6c-.31-1.24-.62-2.03-.95-2.35-.57-.57-1.53-.85-2.88-.85h-9.13v13.41h4.47c1.74,0,2.8-.12,3.19-.35.39-.23.66-.56.81-.99.15-.43.22-1.05.22-1.87h3v8.92h-3c0-1.43-.28-2.32-.84-2.66-.56-.35-1.69-.52-3.38-.52h-4.47v13.51h9.79c1.78,0,2.96-.6,3.55-1.8.18-.37.37-.75.55-1.15l1.04-2.83h3.34l-.9,8.32h-26.46v-2.54Z"/>
        <path class="cls-1" d="M618.94,473.59c1.51,0,2.48-.15,2.93-.44.45-.29.73-.6.86-.93.13-.33.2-.73.2-1.19v-24.29c0-1-.18-1.63-.55-1.89-.62-.45-1.76-.67-3.43-.67v-2.58h7.95l19.77,25.1v-19.96c0-1.01-.18-1.64-.53-1.89-.61-.45-1.75-.67-3.41-.67v-2.58h11.62v2.58c-1.51,0-2.48.15-2.93.44-.45.29-.73.6-.86.93-.13.33-.2.73-.2,1.19v29.43h-2.83l-20.9-26.53v21.39c0,1,.18,1.63.55,1.89.62.45,1.77.67,3.46.67v2.58h-11.69v-2.58ZM642.54,437.75c-.75.4-1.55.6-2.4.6s-1.54-.1-2.1-.29c-.55-.19-1.05-.43-1.5-.73-.45-.29-.85-.61-1.22-.94s-.82-.75-1.36-1.23c-.54-.48-1.01-.73-1.41-.73-1.26,0-2.01.68-2.26,2.03l-.3,2.14h-2.47c.2-3.96,1.41-6.54,3.64-7.72.75-.4,1.56-.6,2.41-.6s1.55.1,2.1.29c.54.19,1.04.43,1.5.73s.86.61,1.23.94c.37.34.83.75,1.37,1.23.54.48,1.02.73,1.42.73,1.17,0,1.89-.68,2.17-2.03l.35-2.14h2.49c-.29,4.01-1.51,6.58-3.66,7.72Z"/>
        <path class="cls-1" d="M658.12,458.89c0-2.92.45-5.51,1.34-7.78.89-2.27,2.09-4.14,3.59-5.61,2.97-2.9,6.75-4.36,11.36-4.36s8.4,1.43,11.36,4.29c3.29,3.15,4.93,7.6,4.93,13.34s-1.51,10.16-4.53,13.24c-3.02,3.08-6.94,4.62-11.77,4.62s-8.73-1.56-11.75-4.68c-3.03-3.12-4.54-7.47-4.54-13.07ZM674.48,473.64c2.69,0,4.95-1,6.78-3,2.3-2.52,3.46-6.35,3.46-11.5s-.98-8.93-2.95-11.36c-1.97-2.43-4.44-3.64-7.42-3.64s-5.41,1.21-7.34,3.63c-1.93,2.42-2.89,6.05-2.89,10.89,0,6.96,1.91,11.55,5.72,13.76,1.4.81,2.95,1.22,4.66,1.22Z"/>
        <path class="cls-1" d="M696.54,472.25c0-.95.4-1.79,1.21-2.51s1.61-1.08,2.41-1.08c1.43,0,2.53.43,3.31,1.3.78.87,1.16,2,1.16,3.4,0,2.86-.88,5.42-2.65,7.67-1.77,2.26-4.01,3.61-6.73,4.06l-1.11-1.59c1.34-.45,2.45-1.02,3.34-1.73,1.63-1.31,2.44-2.64,2.44-4.01,0-.85-.35-1.51-1.04-1.98-.34-.25-.65-.47-.94-.68-.29-.21-.54-.43-.74-.68-.45-.49-.67-1.21-.67-2.17Z"/>
        <path class="cls-1" d="M725.65,473.64c1.63,0,2.64-.14,3.04-.43.4-.28.64-.59.71-.91s.12-.71.12-1.18v-24.48c0-.95-.28-1.61-.85-1.97s-1.58-.54-3.02-.54v-2.54h24.62l.9,8.37-3.34.02-.62-2.6c-.31-1.24-.62-2.03-.95-2.35-.57-.57-1.53-.85-2.88-.85h-8.67v13.41h4.24c1.74,0,2.8-.12,3.19-.35.39-.23.66-.56.81-.99.15-.43.22-1.05.22-1.87h3v8.92h-3c0-1.43-.28-2.32-.84-2.66s-1.69-.52-3.38-.52h-4.24v9.84c0,.78.06,1.41.17,1.89.12.48.5.89,1.15,1.24.65.35,2.62.53,5.91.53v2.54h-16.29v-2.54Z"/>
        <path class="cls-1" d="M755.1,458.89c0-2.92.45-5.51,1.34-7.78.89-2.27,2.09-4.14,3.59-5.61,2.97-2.9,6.75-4.36,11.36-4.36s8.4,1.43,11.36,4.29c3.29,3.15,4.93,7.6,4.93,13.34s-1.51,10.16-4.53,13.24c-3.02,3.08-6.94,4.62-11.77,4.62s-8.73-1.56-11.75-4.68c-3.03-3.12-4.54-7.47-4.54-13.07ZM771.46,473.64c2.69,0,4.95-1,6.78-3,2.3-2.52,3.46-6.35,3.46-11.5s-.98-8.93-2.95-11.36c-1.97-2.43-4.44-3.64-7.42-3.64s-5.41,1.21-7.34,3.63c-1.93,2.42-2.89,6.05-2.89,10.89,0,6.96,1.91,11.55,5.72,13.76,1.4.81,2.95,1.22,4.66,1.22Z"/>
        <path class="cls-1" d="M797.95,473.64c1.74,0,2.89-.14,3.46-.43s.94-.59,1.11-.91.25-.71.25-1.18v-26.85h-4.72c-2.54,0-3.99,1.34-4.36,4.03l-.67,4.68-3.34-.02,1.01-11.36h29.34l1.01,11.36-3.34.02-.67-4.68c-.17-1.24-.5-2.13-.99-2.65-.89-.92-2.01-1.38-3.37-1.38h-4.72v26.85c0,.97.32,1.63.96,1.98.64.35,1.92.53,3.86.53v2.54h-14.82v-2.54Z"/>
        <path class="cls-1" d="M823.02,458.89c0-2.92.45-5.51,1.34-7.78.89-2.27,2.09-4.14,3.59-5.61,2.97-2.9,6.75-4.36,11.36-4.36s8.4,1.43,11.36,4.29c3.29,3.15,4.93,7.6,4.93,13.34s-1.51,10.16-4.53,13.24c-3.02,3.08-6.94,4.62-11.77,4.62s-8.73-1.56-11.75-4.68c-3.03-3.12-4.54-7.47-4.54-13.07ZM839.39,473.64c2.69,0,4.95-1,6.78-3,2.3-2.52,3.46-6.35,3.46-11.5s-.98-8.93-2.95-11.36c-1.97-2.43-4.44-3.64-7.42-3.64s-5.41,1.21-7.34,3.63c-1.93,2.42-2.89,6.05-2.89,10.89,0,6.96,1.91,11.55,5.72,13.76,1.4.81,2.95,1.22,4.66,1.22Z"/>
        <path class="cls-1" d="M861.65,469.2c-.77-1.31-1.37-2.83-1.8-4.54-.43-1.71-.65-3.46-.65-5.25s.14-3.41.43-4.85c.28-1.44.72-2.83,1.3-4.15,1.24-2.81,3.14-5.06,5.69-6.74s5.68-2.52,9.4-2.52,6.81.92,9.29,2.77c2.47,1.84,3.71,4.1,3.71,6.75,0,1.81-.72,3.03-2.17,3.66-.45.2-.92.3-1.43.3-.98,0-1.78-.31-2.4-.92-.62-.61-.92-1.33-.92-2.14,0-1.63.65-2.75,1.96-3.36-.62-1.29-1.66-2.31-3.13-3.05-1.47-.75-2.99-1.12-4.54-1.12-3.27,0-5.94,1.22-8.01,3.66-2.07,2.44-3.1,6.1-3.1,10.98s1.08,8.59,3.23,11.14c2.15,2.55,4.76,3.83,7.84,3.83,2.5,0,4.44-.63,5.82-1.89,1.38-1.26,2.06-2.65,2.06-4.16s-.35-2.47-1.04-2.86c-.69-.39-2.27-.59-4.75-.59v-3.07h10.56v15.1h-3.09l-.85-2.77c-1.32,1.38-3.37,2.35-6.13,2.9-1.01.22-2.17.32-3.46.32s-2.6-.14-3.93-.43-2.6-.73-3.81-1.33-2.34-1.37-3.38-2.3-1.94-2.06-2.71-3.38Z"/>
        <path class="cls-1" d="M922.68,473.31c1.2,0,1.8-1.38,1.8-4.15h2.21c.17.55.25,1.04.25,1.45s0,.86-.02,1.35c-.02.48-.2,1.12-.55,1.9-.84,1.84-2.43,2.77-4.75,2.77s-3.95-.58-4.9-1.75c-.95-1.17-1.62-2.35-2.02-3.56-.4-1.21-.72-2.26-.97-3.17-.71-2.47-1.28-4.09-1.71-4.84-.78-1.44-1.85-2.17-3.2-2.17h-5.07v8.83c0,.78.04,1.41.12,1.89.08.48.35.89.82,1.24.47.35,1.9.53,4.3.53v2.54h-14.27v-2.54c1.61,0,2.62-.14,3.02-.43.4-.28.64-.59.71-.91s.12-.71.12-1.18v-24.48c0-1-.17-1.62-.51-1.87-.62-.43-1.74-.65-3.37-.65v-2.54h14.15c7.56,0,11.76,2.34,12.61,7.01.14.77.21,1.67.21,2.7,0,2.21-.7,4.1-2.09,5.66s-3.28,2.69-5.68,3.38c2.08.63,3.62,2.29,4.63,4.98.34.88.71,2.01,1.11,3.39s.72,2.34.97,2.86c.54,1.17,1.23,1.75,2.07,1.75ZM908.9,458.84c2.63,0,4.49-.63,5.58-1.9,1.09-1.27,1.64-3.1,1.64-5.49s-.64-4.21-1.91-5.45-3.51-1.87-6.71-1.87h-3.73v14.7h5.14Z"/>
        <path class="cls-1" d="M926.78,473.64c1.28,0,2.24-.2,2.89-.59.65-.39,1.16-1.03,1.51-1.92l12.45-29.52h3.94l11.39,29.52c.42.98.88,1.65,1.38,1.99s1.5.52,2.97.52v2.54h-14.22v-2.54c2.03,0,3.23-.14,3.61-.42.38-.28.55-.58.53-.9-.02-.32-.13-.72-.31-1.2l-2.07-5.79h-13.39l-2.37,5.79c-.35.92-.25,1.57.32,1.95.57.38,1.9.56,3.99.56v2.54h-12.61v-2.54ZM949.94,462.8l-5.35-14.93-6.11,14.93h11.46Z"/>
        <path class="cls-1" d="M965.13,473.64c1.63,0,2.64-.14,3.04-.43.4-.28.64-.59.71-.91s.12-.71.12-1.18v-24.48c0-.95-.28-1.61-.85-1.97s-1.58-.54-3.02-.54v-2.54h24.62l.9,8.37-3.34.02-.62-2.6c-.31-1.24-.62-2.03-.95-2.35-.57-.57-1.53-.85-2.88-.85h-8.67v13.41h4.24c1.74,0,2.8-.12,3.19-.35.39-.23.66-.56.81-.99.15-.43.22-1.05.22-1.87h3v8.92h-3c0-1.43-.28-2.32-.84-2.66s-1.69-.52-3.38-.52h-4.24v9.84c0,.78.06,1.41.17,1.89.12.48.5.89,1.15,1.24.65.35,2.62.53,5.91.53v2.54h-16.29v-2.54Z"/>
        <path class="cls-1" d="M995.07,473.64c1.46,0,2.41-.14,2.86-.43.45-.28.73-.59.85-.91s.18-.71.18-1.18l-.02-24.48c0-1-.18-1.62-.53-1.87-.6-.43-1.71-.65-3.34-.65v-2.54h12.95v2.54c-1.46,0-2.41.14-2.86.43-.45.28-.73.59-.85.91s-.18.71-.18,1.18l.02,24.48c0,1,.18,1.62.53,1.87.6.43,1.71.65,3.34.65v2.54h-12.95v-2.54ZM1002.54,438.03c-.86.63-1.54.94-2.03.94-.92,0-1.38-.4-1.38-1.2,0-.35.14-.71.42-1.06l2.83-3.9c.81-1.14,1.44-1.92,1.89-2.34.45-.42,1.16-.63,2.13-.63s1.62.46,1.95,1.38c.09.28.14.59.14.94,0,.95-.45,1.76-1.34,2.42l-4.61,3.43Z"/>
        <path class="cls-1" d="M1010.05,473.64c1.28,0,2.24-.2,2.89-.59.65-.39,1.16-1.03,1.51-1.92l12.45-29.52h3.94l11.39,29.52c.42.98.88,1.65,1.38,1.99s1.5.52,2.97.52v2.54h-14.22v-2.54c2.03,0,3.23-.14,3.61-.42.38-.28.55-.58.53-.9-.02-.32-.13-.72-.31-1.2l-2.07-5.79h-13.39l-2.37,5.79c-.35.92-.25,1.57.32,1.95.57.38,1.9.56,3.99.56v2.54h-12.61v-2.54ZM1033.21,462.8l-5.35-14.93-6.11,14.93h11.46Z"/>
        <path class="cls-1" d="M1071.38,473.64c1.74,0,2.88-.14,3.45-.43s.92-.59,1.08-.91c.16-.32.24-.71.24-1.18l-.02-6.55-9.63-17.93c-.52-.94-1.05-1.54-1.59-1.82-.91-.46-2.06-.69-3.46-.69v-2.54h13.34v2.54c-1.48,0-2.34.18-2.59.55-.25.37-.14,1.02.33,1.96l6.84,14.06,7.19-14.06c.49-.94.59-1.54.3-1.8-.52-.48-1.79-.71-3.8-.71v-2.54h11.92v2.54c-1.14,0-2.07.19-2.8.58-.73.38-1.34,1.03-1.83,1.94l-9.26,17.03v7.44c0,.97.31,1.63.92,1.98.61.35,1.89.53,3.83.53v2.54h-14.45v-2.54Z"/>
        <path class="cls-1" d="M1111.37,473.64c1.61,0,2.62-.14,3.02-.43.4-.28.64-.59.71-.91s.12-.71.12-1.18v-24.48c0-1-.17-1.62-.51-1.87-.62-.43-1.74-.65-3.37-.65v-2.54h12.61c6.3,0,10.39,1.75,12.28,5.25.75,1.38,1.13,3.05,1.13,5.01s-.39,3.65-1.17,5.08c-2.14,3.84-6.39,5.76-12.77,5.76-.29,0-.58,0-.88-.02h-2.14v7.28c0,.78.04,1.41.13,1.89.08.48.39.89.91,1.24.52.35,2.14.53,4.84.53v2.54h-14.91v-2.54ZM1122.96,460.38c2.86,0,5.05-.71,6.57-2.13,1.52-1.42,2.28-3.57,2.28-6.44,0-3.5-1.46-5.85-4.38-7.03-1.04-.43-2.31-.65-3.8-.65h-3.23v16.25h2.56Z"/>
        <path class="cls-1" d="M1140.75,458.89c0-2.92.45-5.51,1.34-7.78.89-2.27,2.09-4.14,3.59-5.61,2.97-2.9,6.75-4.36,11.36-4.36s8.4,1.43,11.36,4.29c3.29,3.15,4.93,7.6,4.93,13.34s-1.51,10.16-4.53,13.24c-3.02,3.08-6.94,4.62-11.77,4.62s-8.73-1.56-11.75-4.68c-3.03-3.12-4.54-7.47-4.54-13.07ZM1157.12,473.64c2.69,0,4.95-1,6.78-3,2.3-2.52,3.46-6.35,3.46-11.5s-.98-8.93-2.95-11.36c-1.97-2.43-4.44-3.64-7.42-3.64s-5.41,1.21-7.34,3.63c-1.93,2.42-2.89,6.05-2.89,10.89,0,6.96,1.91,11.55,5.72,13.76,1.4.81,2.95,1.22,4.66,1.22Z"/>
        <path class="cls-1" d="M1176.78,473.64c1.49,0,2.45-.14,2.88-.42.43-.28.71-.57.83-.89s.18-.7.18-1.16v-24.52c0-.95-.28-1.61-.85-1.97s-1.58-.54-3.02-.54v-2.54h25.08l.9,8.37-3.34.02-.62-2.6c-.31-1.24-.62-2.03-.95-2.35-.57-.57-1.53-.85-2.88-.85h-9.13v13.41h4.47c1.74,0,2.8-.12,3.19-.35.39-.23.66-.56.81-.99.15-.43.22-1.05.22-1.87h3v8.92h-3c0-1.43-.28-2.32-.84-2.66s-1.69-.52-3.38-.52h-4.47v13.51h9.79c1.78,0,2.97-.6,3.55-1.8.18-.37.37-.75.55-1.15l1.04-2.83h3.34l-.9,8.32h-26.46v-2.54Z"/>
        <path class="cls-1" d="M1225.31,445.52c-.8-1.08-2.51-1.61-5.13-1.61s-4.43.88-5.43,2.63c-.34.6-.51,1.34-.51,2.21,0,1.61.72,3.09,2.17,4.42.95.89,2.27,1.81,3.95,2.74,1.68.94,3.1,1.77,4.25,2.51,4.35,2.77,6.52,5.79,6.52,9.08,0,2.92-1.07,5.17-3.21,6.75-2.14,1.58-4.92,2.37-8.32,2.37s-6.13-.67-8.18-2.02c-2.05-1.34-3.08-2.89-3.08-4.63s.7-2.92,2.1-3.54c.43-.2.9-.3,1.41-.3.97,0,1.76.32,2.38.97.62.65.93,1.46.93,2.44s-.45,1.82-1.34,2.51c1.2,1.2,3.18,1.8,5.96,1.8s4.67-.94,5.7-2.81c.37-.65.55-1.4.55-2.26,0-1.49-.77-2.87-2.3-4.15-.8-.66-2.15-1.52-4.04-2.57-1.9-1.05-3.39-1.93-4.48-2.64-4.01-2.58-6.01-5.62-6.01-9.13,0-2.73,1.03-4.95,3.1-6.64,2.07-1.69,4.62-2.54,7.67-2.54s5.55.65,7.51,1.96c1.96,1.31,2.94,2.9,2.94,4.77,0,1.01-.31,1.86-.93,2.55s-1.41,1.03-2.36,1.03c-1.46,0-2.47-.64-3.04-1.91-.17-.38-.25-.79-.25-1.22,0-1.18.49-2.11,1.47-2.79Z"/>
        <path class="cls-1" d="M1235.59,473.64c1.46,0,2.41-.14,2.86-.43.45-.28.73-.59.85-.91s.18-.71.18-1.18l-.02-24.48c0-1-.18-1.62-.53-1.87-.6-.43-1.71-.65-3.34-.65v-2.54h12.95v2.54c-1.46,0-2.41.14-2.86.43-.45.28-.73.59-.85.91s-.18.71-.18,1.18l.02,24.48c0,1,.18,1.62.53,1.87.6.43,1.71.65,3.34.65v2.54h-12.95v-2.54ZM1243.06,438.03c-.86.63-1.54.94-2.03.94-.92,0-1.38-.4-1.38-1.2,0-.35.14-.71.42-1.06l2.83-3.9c.81-1.14,1.44-1.92,1.89-2.34.45-.42,1.16-.63,2.13-.63s1.62.46,1.95,1.38c.09.28.14.59.14.94,0,.95-.45,1.76-1.34,2.42l-4.61,3.43Z"/>
        <path class="cls-1" d="M1250.57,473.64c1.28,0,2.24-.2,2.89-.59.65-.39,1.16-1.03,1.51-1.92l12.45-29.52h3.94l11.39,29.52c.42.98.88,1.65,1.38,1.99s1.5.52,2.97.52v2.54h-14.22v-2.54c2.03,0,3.23-.14,3.61-.42.38-.28.55-.58.53-.9-.02-.32-.13-.72-.31-1.2l-2.07-5.79h-13.39l-2.37,5.79c-.35.92-.25,1.57.32,1.95.57.38,1.9.56,3.99.56v2.54h-12.61v-2.54ZM1273.74,462.8l-5.35-14.93-6.11,14.93h11.46Z"/>
        <path class="cls-1" d="M403.43,520.84c4.84,0,7.9-2.23,9.17-6.68h3.32c0,1.2-.32,2.38-.97,3.54s-1.55,2.19-2.72,3.1c-2.58,2.03-5.9,3.04-9.96,3.04s-7.53-1.35-10.42-4.06c-3.35-3.12-5.02-7.68-5.02-13.69,0-4.79,1.29-8.83,3.87-12.12,1.83-2.35,4.26-3.99,7.31-4.91,1.57-.48,3.29-.71,5.16-.71,3.7,0,6.75.85,9.13,2.55,2.38,1.7,3.57,3.83,3.57,6.4,0,1.92-.75,3.21-2.26,3.87-.45.2-.93.3-1.45.3-1.61,0-2.7-.68-3.25-2.05-.17-.43-.25-.94-.25-1.53s.17-1.18.51-1.75.78-1.02,1.34-1.33c-1.25-2.38-3.47-3.57-6.68-3.57s-5.82,1.22-7.84,3.65c-2.01,2.44-3.02,6.09-3.02,10.97s1.02,8.6,3.07,11.15c2.04,2.56,4.51,3.84,7.4,3.84Z"/>
        <path class="cls-1" d="M421.2,506.09c0-2.92.45-5.51,1.34-7.78.89-2.27,2.09-4.14,3.6-5.61,2.96-2.9,6.75-4.36,11.36-4.36s8.4,1.43,11.36,4.29c3.29,3.15,4.93,7.6,4.93,13.34s-1.51,10.16-4.53,13.24c-3.02,3.08-6.94,4.62-11.77,4.62s-8.73-1.56-11.75-4.68c-3.03-3.12-4.54-7.47-4.54-13.07ZM437.57,520.84c2.69,0,4.95-1,6.78-3,2.3-2.52,3.46-6.35,3.46-11.5s-.98-8.93-2.95-11.36c-1.97-2.43-4.44-3.64-7.42-3.64s-5.41,1.21-7.34,3.63c-1.93,2.42-2.89,6.05-2.89,10.89,0,6.96,1.9,11.55,5.72,13.76,1.4.81,2.95,1.22,4.66,1.22Z"/>
        <path class="cls-1" d="M485.23,520.51c1.2,0,1.8-1.38,1.8-4.15h2.21c.17.55.25,1.04.25,1.45s0,.86-.02,1.35-.2,1.12-.55,1.9c-.85,1.84-2.43,2.77-4.75,2.77s-3.95-.58-4.9-1.75c-.95-1.17-1.62-2.35-2.02-3.56-.4-1.21-.72-2.26-.97-3.17-.71-2.47-1.28-4.09-1.71-4.84-.78-1.44-1.85-2.17-3.2-2.17h-5.07v8.83c0,.78.04,1.41.12,1.89.08.48.35.89.82,1.24.47.35,1.9.53,4.3.53v2.54h-14.27v-2.54c1.61,0,2.62-.14,3.02-.43.4-.28.64-.59.71-.91s.12-.71.12-1.18v-24.48c0-1-.17-1.62-.51-1.87-.61-.43-1.74-.65-3.37-.65v-2.54h14.15c7.56,0,11.76,2.34,12.61,7.01.14.77.21,1.67.21,2.7,0,2.21-.7,4.1-2.09,5.66s-3.28,2.69-5.68,3.38c2.07.63,3.62,2.29,4.63,4.98.34.88.71,2.01,1.11,3.39s.72,2.34.97,2.86c.54,1.17,1.23,1.75,2.08,1.75ZM471.45,506.04c2.63,0,4.49-.63,5.58-1.9,1.09-1.27,1.64-3.1,1.64-5.49s-.64-4.21-1.91-5.45c-1.28-1.24-3.51-1.87-6.71-1.87h-3.73v14.7h5.14Z"/>
        <path class="cls-1" d="M489.33,520.84c1.27,0,2.24-.2,2.89-.59.65-.39,1.16-1.03,1.51-1.92l12.45-29.52h3.94l11.39,29.52c.42.98.88,1.65,1.38,1.99s1.5.52,2.97.52v2.54h-14.22v-2.54c2.03,0,3.23-.14,3.61-.42.38-.28.55-.58.53-.9-.02-.32-.13-.72-.31-1.2l-2.07-5.79h-13.39l-2.37,5.79c-.35.92-.25,1.57.32,1.95.57.38,1.9.56,3.99.56v2.54h-12.61v-2.54ZM512.49,510.01l-5.35-14.93-6.11,14.93h11.45Z"/>
        <path class="cls-1" d="M528.28,520.61l19.57-28.99h-10.9c-1.61,0-2.77.51-3.48,1.52-.71,1.01-1.06,2.73-1.06,5.14l-3.46-.02.46-9.45h24.52v2.77l-19.57,28.99h11.55c3.49,0,5.23-2.47,5.23-7.42h3.53l-1.15,10.23h-25.24v-2.77Z"/>
        <path class="cls-1" d="M558.15,506.09c0-2.92.45-5.51,1.34-7.78.89-2.27,2.09-4.14,3.6-5.61,2.96-2.9,6.75-4.36,11.36-4.36s8.4,1.43,11.36,4.29c3.29,3.15,4.93,7.6,4.93,13.34s-1.51,10.16-4.53,13.24c-3.02,3.08-6.94,4.62-11.77,4.62s-8.73-1.56-11.75-4.68c-3.03-3.12-4.54-7.47-4.54-13.07ZM574.51,520.84c2.69,0,4.95-1,6.78-3,2.3-2.52,3.46-6.35,3.46-11.5s-.98-8.93-2.95-11.36c-1.97-2.43-4.44-3.64-7.42-3.64s-5.41,1.21-7.34,3.63c-1.93,2.42-2.89,6.05-2.89,10.89,0,6.96,1.91,11.55,5.72,13.76,1.4.81,2.95,1.22,4.66,1.22ZM575.46,485.23c-.86.63-1.54.94-2.03.94-.92,0-1.38-.4-1.38-1.2,0-.35.14-.71.42-1.06l2.83-3.9c.81-1.14,1.44-1.92,1.89-2.34.45-.42,1.16-.63,2.13-.63s1.62.46,1.95,1.38c.09.28.14.59.14.94,0,.95-.45,1.76-1.34,2.42l-4.61,3.43Z"/>
        <path class="cls-1" d="M594.17,520.79c1.51,0,2.48-.15,2.93-.44.45-.29.73-.6.86-.93.13-.33.2-.73.2-1.19v-24.29c0-1-.18-1.63-.55-1.89-.62-.45-1.76-.67-3.43-.67v-2.58h7.95l19.77,25.1v-19.96c0-1.01-.18-1.64-.53-1.89-.61-.45-1.75-.67-3.41-.67v-2.58h11.62v2.58c-1.51,0-2.48.15-2.93.44-.45.29-.73.6-.86.93-.13.33-.2.73-.2,1.19v29.43h-2.83l-20.9-26.53v21.39c0,1,.18,1.63.55,1.89.61.45,1.77.67,3.46.67v2.58h-11.69v-2.58Z"/>
        <path class="cls-1" d="M648.04,520.84c1.49,0,2.45-.14,2.88-.42.43-.28.71-.57.83-.89s.18-.7.18-1.16v-24.52c0-.95-.28-1.61-.85-1.97s-1.58-.54-3.02-.54v-2.54h25.08l.9,8.37-3.34.02-.62-2.6c-.31-1.24-.62-2.03-.95-2.35-.57-.57-1.53-.85-2.88-.85h-9.13v13.41h4.47c1.74,0,2.8-.12,3.19-.35.39-.23.66-.56.81-.99.15-.43.22-1.05.22-1.87h3v8.92h-3c0-1.43-.28-2.32-.84-2.66s-1.69-.52-3.38-.52h-4.47v13.51h9.79c1.78,0,2.97-.6,3.55-1.8.18-.37.37-.75.55-1.15l1.04-2.83h3.34l-.9,8.32h-26.46v-2.54Z"/>
        <path class="cls-1" d="M678.76,520.79c1.51,0,2.48-.15,2.93-.44.45-.29.73-.6.86-.93.13-.33.2-.73.2-1.19v-24.29c0-1-.18-1.63-.55-1.89-.62-.45-1.76-.67-3.43-.67v-2.58h7.95l19.78,25.1v-19.96c0-1.01-.18-1.64-.53-1.89-.62-.45-1.75-.67-3.41-.67v-2.58h11.62v2.58c-1.51,0-2.48.15-2.93.44-.45.29-.73.6-.86.93-.13.33-.2.73-.2,1.19v29.43h-2.83l-20.9-26.53v21.39c0,1,.18,1.63.55,1.89.61.45,1.77.67,3.46.67v2.58h-11.69v-2.58Z"/>
        <path class="cls-1" d="M734.3,493.85c-.41-.98-.88-1.65-1.38-1.99-.51-.35-1.5-.52-2.97-.52v-2.54h14.47v2.54c-2.04,0-3.25.14-3.62.43-.37.28-.54.58-.52.9.02.31.13.71.31,1.19l8.64,22.75,8.71-22.75c.35-.92.25-1.57-.32-1.95s-1.9-.56-3.99-.56v-2.54h12.61v2.54c-1.28,0-2.24.19-2.88.58-.65.38-1.15,1.03-1.52,1.94l-11.98,29.52h-3.02l-12.54-29.52Z"/>
        <path class="cls-1" d="M766.84,520.84c1.49,0,2.45-.14,2.88-.42.43-.28.71-.57.83-.89s.18-.7.18-1.16v-24.52c0-.95-.28-1.61-.85-1.97s-1.58-.54-3.02-.54v-2.54h25.08l.9,8.37-3.34.02-.62-2.6c-.31-1.24-.62-2.03-.95-2.35-.57-.57-1.53-.85-2.88-.85h-9.13v13.41h4.47c1.74,0,2.8-.12,3.19-.35.39-.23.66-.56.81-.99.15-.43.22-1.05.22-1.87h3v8.92h-3c0-1.43-.28-2.32-.84-2.66s-1.69-.52-3.38-.52h-4.47v13.51h9.79c1.78,0,2.97-.6,3.55-1.8.18-.37.37-.75.55-1.15l1.04-2.83h3.34l-.9,8.32h-26.46v-2.54Z"/>
        <path class="cls-1" d="M797.57,520.79c1.51,0,2.48-.15,2.93-.44.45-.29.73-.6.86-.93.13-.33.2-.73.2-1.19v-24.29c0-1-.18-1.63-.55-1.89-.62-.45-1.76-.67-3.43-.67v-2.58h7.95l19.78,25.1v-19.96c0-1.01-.18-1.64-.53-1.89-.62-.45-1.75-.67-3.41-.67v-2.58h11.62v2.58c-1.51,0-2.48.15-2.93.44-.45.29-.73.6-.86.93-.13.33-.2.73-.2,1.19v29.43h-2.83l-20.9-26.53v21.39c0,1,.18,1.63.55,1.89.61.45,1.77.67,3.46.67v2.58h-11.69v-2.58Z"/>
        <path class="cls-1" d="M842.51,520.84c1.74,0,2.89-.14,3.46-.43s.94-.59,1.11-.91.25-.71.25-1.18v-26.85h-4.72c-2.54,0-3.99,1.34-4.36,4.03l-.67,4.68-3.34-.02,1.01-11.36h29.34l1.01,11.36-3.34.02-.67-4.68c-.17-1.24-.5-2.13-.99-2.65-.89-.92-2.01-1.38-3.37-1.38h-4.72v26.85c0,.97.32,1.63.96,1.98.64.35,1.92.53,3.86.53v2.54h-14.82v-2.54Z"/>
        <path class="cls-1" d="M865.53,520.84c1.28,0,2.24-.2,2.89-.59.65-.39,1.16-1.03,1.51-1.92l12.45-29.52h3.94l11.39,29.52c.42.98.88,1.65,1.38,1.99s1.5.52,2.97.52v2.54h-14.22v-2.54c2.03,0,3.23-.14,3.61-.42.38-.28.55-.58.53-.9-.02-.32-.13-.72-.31-1.2l-2.07-5.79h-13.39l-2.37,5.79c-.35.92-.25,1.57.32,1.95.57.38,1.9.56,3.99.56v2.54h-12.61v-2.54ZM888.7,510.01l-5.35-14.93-6.11,14.93h11.46Z"/>
      </g>
      <g>
        <path class="cls-2" d="M1038.09,75.67l-55.79,25.65c-3.78,1.74-7.91-3.2-9.47-5.64-1.64-2.57-3.77-8.95-.66-11.45l49.84-35.25c2.62-1.85,6.46-1.18,9.06.17,13.16,6.84,12.97,23.78,7.02,26.51Z"/>
        <path class="cls-2" d="M950.22,71.85c-2.98,6.37-17.74,7.2-19.26-.09-4.21-20.16-3.67-40.62-6.42-60.94-.41-3.01,2.49-6.17,4.68-7.58,6.87-4.41,15.71-4.28,22.41.22,2.34,1.57,4.52,4.46,4.24,7.47l-5.65,60.92Z"/>
        <path class="cls-2" d="M951.8,224.49c-6.86,4.72-15.74,4.68-22.55.37-2.26-1.43-5.05-4.56-4.68-7.54,2.54-20.46,2.45-40.63,6.27-61.07,1.26-6.73,17.51-6.78,18.84-.04,3.97,20.07,3.53,39.99,6.28,60.17.42,3.09-1.5,6.29-4.15,8.11Z"/>
        <path class="cls-2" d="M899.12,101.68l-56.01-25.63c-2.96-1.36-4.47-4.87-4.61-8.02-.36-7.77,3.85-15.09,10.72-18.79,2.46-1.32,6.67-2.3,9.19-.39,16.35,12.35,33.93,22.39,49.7,35.69,5.57,4.7-1.73,16.8-8.99,17.13Z"/>
        <path class="cls-2" d="M859.13,178.67c-2.97,2.1-6.53,1.8-9.39.39-7.09-3.5-11.62-11.03-11.23-18.98.16-3.16,1.61-6.66,4.62-8.04l55.51-25.43c3.92-.89,7.61,3.36,9.07,5.72,1.67,2.72,3.88,9.26.56,11.61l-49.13,34.72Z"/>
        <path class="cls-2" d="M1041.93,159.59c.6,8.3-3.83,15.69-10.77,19.31-2.61,1.36-6.5,2.08-9.08.25l-49.88-35.31c-3.26-2.31-.95-8.88.64-11.42s5.66-7.34,9.42-5.62l55.14,25.2c2.68,1.23,4.3,4.31,4.53,7.58Z"/>
      </g>
    </g>
  </g>
</svg>