<?xml version="1.0" encoding="UTF-8"?>
<svg id="Layer_2" data-name="Layer 2" xmlns="http://www.w3.org/2000/svg" viewBox="0 0 916.6 164.13">
  <defs>
    <style>
      .cls-1 {
        fill: #3070c9;
      }
    </style>
  </defs>
  <g id="TYPE">
    <g>
      <rect class="cls-1" x="486.59" y="115.85" width="430.01" height="48.28"/>
      <g>
        <path d="M26.67,20.38l-.84-.27c-5.43-1.72-7.83-2.54-7.83-3.94,0-1.19,2.02-1.98,5.02-1.98,5.63,0,9.76,1.68,11.74,2.48l1.54.63,4.02-13.85-1.23-.52C34.3.91,29.41,0,23.24,0,9.92,0,.62,7.08.62,17.21c0,8.11,5.61,13.79,16.66,16.86,5.04,1.41,7.28,2.59,7.28,3.82,0,2.18-3.47,2.5-5.54,2.5-6.24,0-11.67-2.33-13.72-3.33l-1.66-.81-3.64,14.37,1.06.54c3.37,1.72,10.09,3.58,16.92,3.58,17.72,0,24.04-9.08,24.04-17.59s-4.88-13.42-15.35-16.77Z"/>
        <polygon points="45.84 15.31 59.92 15.31 59.92 53.85 76.93 53.85 76.93 15.31 91.31 15.31 91.31 .89 45.84 .89 45.84 15.31"/>
        <path d="M140.25,45.06c-.69-2.46-1.46-5.25-2.24-7.58-.97-2.85-2.4-6.18-5.1-8.33,3.54-2.07,7.48-6.31,7.48-12.31,0-5.23-2.01-9.45-5.82-12.19-4.09-2.91-9.84-4.21-18.66-4.21-6.6,0-13.12.41-17.87,1.13l-1.28.19v52.09h16.86v-18.61h1.02c3.78,0,5.34.52,6.78,6.07,1.48,5.59,2.89,9.76,3.99,11.75l.43.78h17.55l-1.08-2.17c-.47-.94-1.28-3.83-2.05-6.62ZM123.53,17.88c0,4.07-5.07,4.5-7.25,4.5h-2.65v-8.6c.82-.07,2.04-.12,3.84-.12,4.02,0,6.06,1.42,6.06,4.21Z"/>
        <polygon points="164.34 34.06 184.65 34.06 184.65 19.79 164.34 19.79 164.34 15.16 185.91 15.16 185.91 .89 147.33 .89 147.33 53.85 187.02 53.85 187.02 39.58 164.34 39.58 164.34 34.06"/>
        <polygon points="210.6 34.06 230.91 34.06 230.91 19.79 210.6 19.79 210.6 15.16 232.17 15.16 232.17 .89 193.59 .89 193.59 53.85 233.28 53.85 233.28 39.58 210.6 39.58 210.6 34.06"/>
        <polygon points="236.96 15.31 251.04 15.31 251.04 53.85 268.05 53.85 268.05 15.31 282.43 15.31 282.43 .89 236.96 .89 236.96 15.31"/>
        <path d="M342.23,4.73c-3.93-2.85-9.69-4.29-17.11-4.29s-13.6.37-18.54,1.13l-1.27.2v52.08h16.86v-16.55c.67.05,1.45.09,2.28.09,8.35,0,14.59-1.92,19.07-5.85,3.44-2.97,5.41-7.82,5.41-13.29s-2.51-10.58-6.7-13.52ZM332.07,18.33c0,5.07-5.94,5.47-7.77,5.47-.87,0-1.56-.02-2.13-.06v-9.8c.69-.06,1.7-.11,3.1-.11,3.1,0,6.8.78,6.8,4.5Z"/>
        <polygon points="387.59 19.05 371.76 19.05 371.76 .89 354.75 .89 354.75 53.85 371.76 53.85 371.76 34.06 387.59 34.06 387.59 53.85 404.6 53.85 404.6 .89 387.59 .89 387.59 19.05"/>
        <path d="M439.87,0c-16.99,0-28.85,11.44-28.85,27.82s11.5,26.93,27.96,26.93c17.52,0,29.3-11.12,29.3-27.67S456.87,0,439.87,0ZM439.65,13.82c6.42,0,10.73,5.47,10.73,13.62s-4.18,13.47-10.66,13.47-10.8-5.42-10.8-13.47,4.31-13.62,10.73-13.62Z"/>
        <polygon points="468.92 15.31 483 15.31 483 53.85 500.01 53.85 500.01 15.31 514.4 15.31 514.4 .89 468.92 .89 468.92 15.31"/>
        <path d="M543.96,0c-16.99,0-28.85,11.44-28.85,27.82s11.5,26.93,27.96,26.93c17.52,0,29.3-11.12,29.3-27.67s-11.42-27.07-28.41-27.07ZM543.74,13.82c6.42,0,10.73,5.47,10.73,13.62s-4.18,13.47-10.66,13.47-10.8-5.42-10.8-13.47,4.31-13.62,10.73-13.62Z"/>
        <path d="M605.4,34.65h7.71v5.38c-.82.11-2.09.22-3.69.22-8.86,0-14.81-5.33-14.81-13.25,0-2.9,1.07-12.36,14.81-12.36,6.74,0,10.41,1.12,13.37,2.33l1.57.64,3.73-13.82-1.13-.54c-2.94-1.4-8.97-2.89-17.1-2.89-20.05,0-33,10.95-33,27.89,0,7.17,2.75,13.69,7.73,18.36,5.47,5.22,13.44,7.75,24.39,7.75,7.27,0,15-1.69,19.81-3.26l1.03-.34v-29.87h-24.42v13.75Z"/>
        <path d="M680.99,45.06c-.69-2.46-1.46-5.25-2.24-7.58-.97-2.85-2.4-6.18-5.1-8.33,3.54-2.07,7.48-6.31,7.48-12.31,0-5.23-2.01-9.45-5.82-12.19-4.09-2.91-9.84-4.21-18.66-4.21-6.6,0-13.12.41-17.87,1.13l-1.28.19v52.09h16.86v-18.61h1.02c3.78,0,5.34.52,6.78,6.07,1.48,5.59,2.89,9.76,3.99,11.75l.43.78h17.55l-1.08-2.17c-.47-.94-1.28-3.83-2.05-6.62ZM664.26,17.88c0,4.07-5.07,4.5-7.25,4.5h-2.65v-8.6c.82-.07,2.04-.12,3.84-.12,4.02,0,6.06,1.42,6.06,4.21Z"/>
        <path d="M701.88.89l-16.74,52.96h17.96l3.19-12.16h12.26l3.71,12.16h18.76L723.18.89h-21.3ZM715.49,28.46h-6.4l1.85-6.84c.39-1.38.76-2.92,1.12-4.44.46,1.54.92,3.07,1.33,4.39l2.08,6.89Z"/>
        <path d="M783.03,4.73c-3.93-2.85-9.69-4.29-17.11-4.29s-13.6.37-18.54,1.13l-1.27.2v52.08h16.86v-16.55c.67.05,1.45.09,2.28.09,8.35,0,14.59-1.92,19.07-5.85,3.44-2.97,5.41-7.82,5.41-13.29s-2.51-10.58-6.7-13.52ZM772.87,18.33c0,5.07-5.94,5.47-7.77,5.47-.87,0-1.56-.02-2.13-.06v-9.8c.69-.06,1.7-.11,3.1-.11,3.1,0,6.8.78,6.8,4.5Z"/>
        <polygon points="828.39 19.05 812.56 19.05 812.56 .89 795.55 .89 795.55 53.85 812.56 53.85 812.56 34.06 828.39 34.06 828.39 53.85 845.4 53.85 845.4 .89 828.39 .89 828.39 19.05"/>
        <path d="M881.97.89l-5.06,12.12c-.69,1.68-1.32,3.14-1.91,4.54-.16.38-.32.76-.48,1.13-.41-.96-.82-1.91-1.27-2.96l-6.26-14.83h-20.02l18.48,31.04v21.92h17.01v-22.41l19.39-30.55h-19.89Z"/>
      </g>
      <g>
        <g>
          <path d="M424.46,136.78l-4,1.84c-.27.12-.57-.23-.68-.4-.12-.18-.27-.64-.05-.82l3.58-2.53c.19-.13.46-.08.65.01.94.49.93,1.71.5,1.9Z"/>
          <path d="M418.15,136.5c-.21.46-1.27.52-1.38,0-.3-1.45-.26-2.91-.46-4.37-.03-.22.18-.44.34-.54.49-.32,1.13-.31,1.61.02.17.11.32.32.3.54l-.41,4.37Z"/>
          <path d="M418.26,147.46c-.49.34-1.13.34-1.62.03-.16-.1-.36-.33-.34-.54.18-1.47.18-2.92.45-4.38.09-.48,1.26-.49,1.35,0,.28,1.44.25,2.87.45,4.32.03.22-.11.45-.3.58Z"/>
          <path d="M414.48,138.64l-4.02-1.84c-.21-.1-.32-.35-.33-.58-.03-.56.28-1.08.77-1.35.18-.09.48-.16.66-.03,1.17.89,2.43,1.61,3.57,2.56.4.34-.12,1.21-.65,1.23Z"/>
          <path d="M411.61,144.17c-.21.15-.47.13-.67.03-.51-.25-.83-.79-.81-1.36.01-.23.12-.48.33-.58l3.98-1.82c.28-.06.55.24.65.41.12.2.28.66.04.83l-3.53,2.49Z"/>
          <path d="M424.73,142.8c.04.6-.27,1.13-.77,1.39-.19.1-.47.15-.65.02l-3.58-2.53c-.23-.17-.07-.64.05-.82s.41-.53.68-.4l3.96,1.81c.19.09.31.31.33.54Z"/>
        </g>
        <g>
          <path d="M517.88,91.85l-4,1.84c-.27.12-.57-.23-.68-.4-.12-.18-.27-.64-.05-.82l3.58-2.53c.19-.13.46-.08.65.01.94.49.93,1.71.5,1.9Z"/>
          <path d="M511.58,91.57c-.21.46-1.27.52-1.38,0-.3-1.45-.26-2.91-.46-4.37-.03-.22.18-.44.34-.54.49-.32,1.13-.31,1.61.02.17.11.32.32.3.54l-.41,4.37Z"/>
          <path d="M511.69,102.53c-.49.34-1.13.34-1.62.03-.16-.1-.36-.33-.34-.54.18-1.47.18-2.92.45-4.38.09-.48,1.26-.49,1.35,0,.28,1.44.25,2.87.45,4.32.03.22-.11.45-.3.58Z"/>
          <path d="M507.91,93.71l-4.02-1.84c-.21-.1-.32-.35-.33-.58-.03-.56.28-1.08.77-1.35.18-.09.48-.16.66-.03,1.17.89,2.43,1.61,3.57,2.56.4.34-.12,1.21-.65,1.23Z"/>
          <path d="M505.04,99.24c-.21.15-.47.13-.67.03-.51-.25-.83-.79-.81-1.36.01-.23.12-.48.33-.58l3.98-1.82c.28-.06.55.24.65.41.12.2.28.66.04.83l-3.53,2.49Z"/>
          <path d="M518.16,97.87c.04.6-.27,1.13-.77,1.39-.19.1-.47.15-.65.02l-3.58-2.53c-.23-.17-.07-.64.05-.82s.41-.53.68-.4l3.96,1.81c.19.09.31.31.33.54Z"/>
        </g>
        <g>
          <path d="M500.92,136.78l-4,1.84c-.27.12-.57-.23-.68-.4-.12-.18-.27-.64-.05-.82l3.58-2.53c.19-.13.46-.08.65.01.94.49.93,1.71.5,1.9Z"/>
          <path d="M494.61,136.5c-.21.46-1.27.52-1.38,0-.3-1.45-.26-2.91-.46-4.37-.03-.22.18-.44.34-.54.49-.32,1.13-.31,1.61.02.17.11.32.32.3.54l-.41,4.37Z"/>
          <path d="M494.72,147.46c-.49.34-1.13.34-1.62.03-.16-.1-.36-.33-.34-.54.18-1.47.18-2.92.45-4.38.09-.48,1.26-.49,1.35,0,.28,1.44.25,2.87.45,4.32.03.22-.11.45-.3.58Z"/>
          <path d="M490.94,138.64l-4.02-1.84c-.21-.1-.32-.35-.33-.58-.03-.56.28-1.08.77-1.35.18-.09.48-.16.66-.03,1.17.89,2.43,1.61,3.57,2.56.4.34-.12,1.21-.65,1.23Z"/>
          <path d="M488.07,144.17c-.21.15-.47.13-.67.03-.51-.25-.83-.79-.81-1.36.01-.23.12-.48.33-.58l3.98-1.82c.28-.06.55.24.65.41.12.2.28.66.04.83l-3.53,2.49Z"/>
          <path d="M501.19,142.8c.04.6-.27,1.13-.77,1.39-.19.1-.47.15-.65.02l-3.58-2.53c-.23-.17-.07-.64.05-.82s.41-.53.68-.4l3.96,1.81c.19.09.31.31.33.54Z"/>
        </g>
        <g>
          <path d="M630.98,136.78l-4,1.84c-.27.12-.57-.23-.68-.4-.12-.18-.27-.64-.05-.82l3.58-2.53c.19-.13.46-.08.65.01.94.49.93,1.71.5,1.9Z"/>
          <path d="M624.67,136.5c-.21.46-1.27.52-1.38,0-.3-1.45-.26-2.91-.46-4.37-.03-.22.18-.44.34-.54.49-.32,1.13-.31,1.61.02.17.11.32.32.3.54l-.41,4.37Z"/>
          <path d="M624.78,147.46c-.49.34-1.13.34-1.62.03-.16-.1-.36-.33-.34-.54.18-1.47.18-2.92.45-4.38.09-.48,1.26-.49,1.35,0,.28,1.44.25,2.87.45,4.32.03.22-.11.45-.3.58Z"/>
          <path d="M621,138.64l-4.02-1.84c-.21-.1-.32-.35-.33-.58-.03-.56.28-1.08.77-1.35.18-.09.48-.16.66-.03,1.17.89,2.43,1.61,3.57,2.56.4.34-.12,1.21-.65,1.23Z"/>
          <path d="M618.13,144.17c-.21.15-.47.13-.67.03-.51-.25-.83-.79-.81-1.36.01-.23.12-.48.33-.58l3.98-1.82c.28-.06.55.24.65.41.12.2.28.66.04.83l-3.53,2.49Z"/>
          <path d="M631.25,142.8c.04.6-.27,1.13-.77,1.39-.19.1-.47.15-.65.02l-3.58-2.53c-.23-.17-.07-.64.05-.82s.41-.53.68-.4l3.96,1.81c.19.09.31.31.33.54Z"/>
        </g>
        <g>
          <path d="M775.04,136.78l-4,1.84c-.27.12-.57-.23-.68-.4-.12-.18-.27-.64-.05-.82l3.58-2.53c.19-.13.46-.08.65.01.94.49.93,1.71.5,1.9Z"/>
          <path d="M768.74,136.5c-.21.46-1.27.52-1.38,0-.3-1.45-.26-2.91-.46-4.37-.03-.22.18-.44.34-.54.49-.32,1.13-.31,1.61.02.17.11.32.32.3.54l-.41,4.37Z"/>
          <path d="M768.85,147.46c-.49.34-1.13.34-1.62.03-.16-.1-.36-.33-.34-.54.18-1.47.18-2.92.45-4.38.09-.48,1.26-.49,1.35,0,.28,1.44.25,2.87.45,4.32.03.22-.11.45-.3.58Z"/>
          <path d="M765.07,138.64l-4.02-1.84c-.21-.1-.32-.35-.33-.58-.03-.56.28-1.08.77-1.35.18-.09.48-.16.66-.03,1.17.89,2.43,1.61,3.57,2.56.4.34-.12,1.21-.65,1.23Z"/>
          <path d="M762.2,144.17c-.21.15-.47.13-.67.03-.51-.25-.83-.79-.81-1.36.01-.23.12-.48.33-.58l3.98-1.82c.28-.06.55.24.65.41.12.2.28.66.04.83l-3.53,2.49Z"/>
          <path d="M775.32,142.8c.04.6-.27,1.13-.77,1.39-.19.1-.47.15-.65.02l-3.58-2.53c-.23-.17-.07-.64.05-.82s.41-.53.68-.4l3.96,1.81c.19.09.31.31.33.54Z"/>
        </g>
        <g>
          <path d="M116.86,136.78l-4,1.84c-.27.12-.57-.23-.68-.4-.12-.18-.27-.64-.05-.82l3.58-2.53c.19-.13.46-.08.65.01.94.49.93,1.71.5,1.9Z"/>
          <path d="M110.56,136.5c-.21.46-1.27.52-1.38,0-.3-1.45-.26-2.91-.46-4.37-.03-.22.18-.44.34-.54.49-.32,1.13-.31,1.61.02.17.11.32.32.3.54l-.41,4.37Z"/>
          <path d="M110.67,147.46c-.49.34-1.13.34-1.62.03-.16-.1-.36-.33-.34-.54.18-1.47.18-2.92.45-4.38.09-.48,1.26-.49,1.35,0,.28,1.44.25,2.87.45,4.32.03.22-.11.45-.3.58Z"/>
          <path d="M106.89,138.64l-4.02-1.84c-.21-.1-.32-.35-.33-.58-.03-.56.28-1.08.77-1.35.18-.09.48-.16.66-.03,1.17.89,2.43,1.61,3.57,2.56.4.34-.12,1.21-.65,1.23Z"/>
          <path d="M104.02,144.17c-.21.15-.47.13-.67.03-.51-.25-.83-.79-.81-1.36.01-.23.12-.48.33-.58l3.98-1.82c.28-.06.55.24.65.41.12.2.28.66.04.83l-3.53,2.49Z"/>
          <path d="M117.14,142.8c.04.6-.27,1.13-.77,1.39-.19.1-.47.15-.65.02l-3.58-2.53c-.23-.17-.07-.64.05-.82s.41-.53.68-.4l3.96,1.81c.19.09.31.31.33.54Z"/>
        </g>
        <g>
          <path d="M365.45,91.85l-4,1.84c-.27.12-.57-.23-.68-.4-.12-.18-.27-.64-.05-.82l3.58-2.53c.19-.13.46-.08.65.01.94.49.93,1.71.5,1.9Z"/>
          <path d="M359.15,91.57c-.21.46-1.27.52-1.38,0-.3-1.45-.26-2.91-.46-4.37-.03-.22.18-.44.34-.54.49-.32,1.13-.31,1.61.02.17.11.32.32.3.54l-.41,4.37Z"/>
          <path d="M359.26,102.53c-.49.34-1.13.34-1.62.03-.16-.1-.36-.33-.34-.54.18-1.47.18-2.92.45-4.38.09-.48,1.26-.49,1.35,0,.28,1.44.25,2.87.45,4.32.03.22-.11.45-.3.58Z"/>
          <path d="M355.48,93.71l-4.02-1.84c-.21-.1-.32-.35-.33-.58-.03-.56.28-1.08.77-1.35.18-.09.48-.16.66-.03,1.17.89,2.43,1.61,3.57,2.56.4.34-.12,1.21-.65,1.23Z"/>
          <path d="M352.61,99.24c-.21.15-.47.13-.67.03-.51-.25-.83-.79-.81-1.36.01-.23.12-.48.33-.58l3.98-1.82c.28-.06.55.24.65.41.12.2.28.66.04.83l-3.53,2.49Z"/>
          <path d="M365.73,97.87c.04.6-.27,1.13-.77,1.39-.19.1-.47.15-.65.02l-3.58-2.53c-.23-.17-.07-.64.05-.82s.41-.53.68-.4l3.96,1.81c.19.09.31.31.33.54Z"/>
        </g>
        <g>
          <path d="M138.75,102.69c-.75-1.28-1.33-2.76-1.75-4.43-.42-1.67-.63-3.38-.63-5.12s.14-3.32.42-4.73.7-2.76,1.27-4.05c1.21-2.74,3.06-4.93,5.55-6.57,2.49-1.64,5.54-2.46,9.17-2.46s6.64.9,9.06,2.7c2.41,1.8,3.62,3.99,3.62,6.59,0,1.77-.7,2.96-2.11,3.57-.43.2-.9.29-1.39.29-.96,0-1.74-.3-2.34-.9s-.9-1.3-.9-2.09c0-1.59.64-2.68,1.91-3.28-.6-1.26-1.62-2.25-3.06-2.98-1.44-.73-2.91-1.09-4.43-1.09-3.19,0-5.79,1.19-7.81,3.57-2.02,2.38-3.02,5.95-3.02,10.71s1.05,8.38,3.15,10.87,4.64,3.73,7.64,3.73c2.44,0,4.33-.61,5.67-1.84s2.01-2.58,2.01-4.06-.34-2.41-1.01-2.79c-.67-.38-2.22-.57-4.63-.57v-2.99h10.29v14.72h-3.01l-.83-2.7c-1.29,1.35-3.28,2.29-5.98,2.83-.99.21-2.11.31-3.37.31s-2.54-.14-3.83-.42c-1.3-.28-2.54-.71-3.72-1.29-1.18-.58-2.28-1.33-3.29-2.25s-1.89-2.01-2.64-3.29Z"/>
          <path d="M198.26,106.7c1.17,0,1.75-1.35,1.75-4.05h2.16c.16.54.25,1.01.25,1.42s0,.84-.02,1.32c-.02.47-.2,1.09-.54,1.85-.82,1.8-2.37,2.7-4.63,2.7s-3.85-.57-4.78-1.71c-.92-1.14-1.58-2.3-1.97-3.47-.39-1.18-.7-2.21-.94-3.09-.69-2.41-1.24-3.99-1.66-4.72-.76-1.41-1.81-2.11-3.12-2.11h-4.94v8.61c0,.76.04,1.38.11,1.84.08.46.34.87.8,1.21s1.85.52,4.19.52v2.47h-13.91v-2.47c1.57,0,2.55-.14,2.94-.42s.62-.57.7-.89c.08-.32.11-.7.11-1.15v-23.87c0-.97-.17-1.58-.5-1.82-.6-.42-1.69-.63-3.28-.63v-2.47h13.8c7.37,0,11.47,2.28,12.29,6.83.13.75.2,1.63.2,2.63,0,2.16-.68,4-2.03,5.52-1.36,1.52-3.2,2.62-5.54,3.29,2.02.61,3.53,2.23,4.52,4.85.33.85.69,1.96,1.08,3.3s.7,2.28.94,2.79c.52,1.14,1.2,1.71,2.02,1.71ZM184.82,92.59c2.56,0,4.38-.62,5.44-1.85,1.06-1.24,1.6-3.02,1.6-5.35s-.62-4.1-1.87-5.32c-1.24-1.21-3.42-1.82-6.54-1.82h-3.64v14.34h5.01Z"/>
          <path d="M202.27,107.02c1.24,0,2.18-.19,2.82-.57.64-.38,1.13-1.01,1.47-1.88l12.14-28.79h3.84l11.1,28.79c.4.96.85,1.61,1.35,1.94.5.34,1.46.5,2.9.5v2.47h-13.87v-2.47c1.98,0,3.15-.13,3.52-.4s.54-.56.52-.88c-.02-.32-.12-.7-.3-1.17l-2.02-5.64h-13.06l-2.32,5.64c-.34.9-.24,1.53.31,1.9.55.37,1.85.55,3.89.55v2.47h-12.29v-2.47ZM224.85,96.45l-5.21-14.56-5.96,14.56h11.17Z"/>
          <path d="M255.98,107.02c4.72,0,7.7-2.17,8.95-6.52h3.24c0,1.17-.31,2.32-.94,3.45-.63,1.13-1.51,2.14-2.65,3.02-2.52,1.98-5.75,2.97-9.71,2.97s-7.34-1.32-10.16-3.96c-3.27-3.04-4.9-7.49-4.9-13.35,0-4.67,1.26-8.62,3.78-11.82,1.78-2.29,4.16-3.89,7.12-4.79,1.53-.46,3.21-.7,5.04-.7,3.61,0,6.58.83,8.9,2.48,2.32,1.66,3.48,3.73,3.48,6.24,0,1.87-.73,3.13-2.2,3.78-.43.19-.91.29-1.42.29-1.57,0-2.63-.67-3.17-2-.17-.42-.25-.92-.25-1.5s.17-1.15.5-1.71c.33-.56.76-.99,1.3-1.29-1.21-2.32-3.39-3.48-6.52-3.48s-5.68,1.19-7.64,3.56-2.94,5.94-2.94,10.7,1,8.38,2.99,10.88c1.99,2.5,4.4,3.74,7.21,3.74Z"/>
          <path d="M273.38,107.02c1.42,0,2.35-.14,2.79-.42s.71-.57.83-.89c.12-.32.18-.7.18-1.15l-.02-23.87c0-.97-.17-1.58-.52-1.82-.58-.42-1.67-.63-3.26-.63v-2.47h12.63v2.47c-1.42,0-2.35.14-2.79.42s-.71.57-.83.89-.18.7-.18,1.15l.02,23.87c0,.97.17,1.58.52,1.82.58.42,1.67.63,3.26.63v2.47h-12.63v-2.47Z"/>
          <path d="M287.54,107.02c1.24,0,2.18-.19,2.82-.57.64-.38,1.13-1.01,1.47-1.88l12.14-28.79h3.84l11.1,28.79c.4.96.85,1.61,1.35,1.94.5.34,1.46.5,2.9.5v2.47h-13.87v-2.47c1.98,0,3.15-.13,3.52-.4s.54-.56.52-.88c-.02-.32-.12-.7-.3-1.17l-2.02-5.64h-13.06l-2.32,5.64c-.34.9-.24,1.53.31,1.9.55.37,1.85.55,3.89.55v2.47h-12.29v-2.47ZM310.12,96.45l-5.21-14.56-5.96,14.56h11.17Z"/>
          <path d="M342.2,79.6c-.78-1.05-2.45-1.57-5-1.57s-4.32.85-5.29,2.56c-.33.58-.5,1.3-.5,2.16,0,1.57.7,3.01,2.11,4.32.93.87,2.21,1.76,3.85,2.67s3.02,1.73,4.15,2.45c4.24,2.7,6.36,5.65,6.36,8.85,0,2.85-1.04,5.04-3.13,6.59-2.09,1.54-4.79,2.31-8.11,2.31s-5.98-.66-7.98-1.97c-2-1.31-3-2.82-3-4.52s.68-2.85,2.04-3.45c.42-.19.88-.29,1.37-.29.94,0,1.72.31,2.33.94.61.63.91,1.42.91,2.38s-.43,1.78-1.3,2.45c1.17,1.17,3.11,1.75,5.81,1.75s4.56-.91,5.56-2.74c.36-.63.54-1.36.54-2.2,0-1.45-.75-2.8-2.25-4.04-.78-.64-2.09-1.48-3.94-2.51-1.85-1.03-3.31-1.88-4.37-2.57-3.91-2.52-5.87-5.48-5.87-8.9,0-2.67,1.01-4.82,3.02-6.47,2.01-1.65,4.51-2.47,7.48-2.47s5.42.64,7.33,1.91c1.91,1.27,2.87,2.82,2.87,4.65,0,.99-.3,1.82-.91,2.48-.61.67-1.38,1-2.3,1-1.42,0-2.41-.62-2.97-1.87-.17-.38-.25-.77-.25-1.19,0-1.15.48-2.06,1.44-2.72Z"/>
          <path d="M366.96,107.02c1.42,0,2.35-.14,2.79-.42s.71-.57.83-.89c.12-.32.18-.7.18-1.15l-.02-23.87c0-.97-.17-1.58-.5-1.82-.6-.42-1.69-.63-3.28-.63v-2.47h12.63v2.47c-1.42,0-2.35.14-2.79.42-.44.28-.71.57-.83.89s-.18.7-.18,1.15v10.05h16.74v-10.05c0-.97-.17-1.58-.49-1.82-.6-.42-1.69-.63-3.28-.63v-2.47h12.63v2.47c-1.42,0-2.35.14-2.79.42s-.71.57-.83.89-.18.7-.18,1.15l.02,23.87c0,.97.17,1.58.5,1.82.6.42,1.69.63,3.28.63v2.47h-12.63v-2.47c1.42,0,2.35-.14,2.79-.42s.71-.57.83-.89c.12-.32.18-.7.18-1.15l-.02-10.9h-16.74l.02,10.9c0,.97.17,1.58.49,1.82.6.42,1.69.63,3.28.63v2.47h-12.63v-2.47Z"/>
          <path d="M402.75,107.02c1.24,0,2.18-.19,2.82-.57.64-.38,1.13-1.01,1.47-1.88l12.14-28.79h3.84l11.1,28.79c.4.96.85,1.61,1.35,1.94.5.34,1.46.5,2.9.5v2.47h-13.87v-2.47c1.98,0,3.15-.13,3.52-.4s.54-.56.52-.88c-.02-.32-.12-.7-.3-1.17l-2.02-5.64h-13.06l-2.32,5.64c-.34.9-.24,1.53.31,1.9.55.37,1.85.55,3.89.55v2.47h-12.29v-2.47ZM425.33,96.45l-5.21-14.56-5.96,14.56h11.17Z"/>
          <path d="M440.03,106.97c1.47,0,2.42-.14,2.85-.43.43-.28.71-.59.84-.91.13-.32.19-.71.19-1.16v-23.69c0-.97-.18-1.59-.54-1.84-.6-.43-1.72-.65-3.35-.65v-2.52h7.75l19.28,24.48v-19.46c0-.99-.17-1.6-.52-1.84-.6-.43-1.71-.65-3.33-.65v-2.52h11.33v2.52c-1.47,0-2.42.14-2.85.43-.43.28-.72.59-.84.91-.13.32-.19.71-.19,1.16v28.7h-2.76l-20.38-25.87v20.86c0,.97.18,1.59.54,1.84.6.43,1.72.65,3.37.65v2.52h-11.4v-2.52Z"/>
          <path d="M494.49,79.6c-.78-1.05-2.45-1.57-5-1.57s-4.32.85-5.29,2.56c-.33.58-.5,1.3-.5,2.16,0,1.57.7,3.01,2.11,4.32.93.87,2.21,1.76,3.85,2.67s3.02,1.73,4.15,2.45c4.24,2.7,6.36,5.65,6.36,8.85,0,2.85-1.04,5.04-3.13,6.59-2.09,1.54-4.79,2.31-8.11,2.31s-5.98-.66-7.98-1.97c-2-1.31-3-2.82-3-4.52s.68-2.85,2.04-3.45c.42-.19.88-.29,1.37-.29.94,0,1.72.31,2.33.94.61.63.91,1.42.91,2.38s-.43,1.78-1.3,2.45c1.17,1.17,3.11,1.75,5.81,1.75s4.56-.91,5.56-2.74c.36-.63.54-1.36.54-2.2,0-1.45-.75-2.8-2.25-4.04-.78-.64-2.09-1.48-3.94-2.51-1.85-1.03-3.31-1.88-4.37-2.57-3.91-2.52-5.87-5.48-5.87-8.9,0-2.67,1.01-4.82,3.02-6.47,2.01-1.65,4.51-2.47,7.48-2.47s5.42.64,7.33,1.91c1.91,1.27,2.87,2.82,2.87,4.65,0,.99-.3,1.82-.91,2.48-.61.67-1.38,1-2.3,1-1.42,0-2.41-.62-2.97-1.87-.17-.38-.25-.77-.25-1.19,0-1.15.48-2.06,1.44-2.72Z"/>
          <path d="M519.28,107.02c1.57,0,2.55-.14,2.94-.42s.62-.57.7-.89c.08-.32.11-.7.11-1.15v-23.87c0-.97-.17-1.58-.5-1.82-.6-.42-1.69-.63-3.28-.63v-2.47h12.29c6.14,0,10.14,1.71,11.98,5.12.73,1.35,1.1,2.98,1.1,4.89s-.38,3.56-1.15,4.96c-2.08,3.75-6.23,5.62-12.45,5.62-.29,0-.57,0-.85-.02h-2.09v7.1c0,.76.04,1.38.12,1.84.08.46.38.87.89,1.21.51.34,2.08.52,4.72.52v2.47h-14.54v-2.47ZM530.59,94.09c2.79,0,4.92-.69,6.41-2.08s2.22-3.48,2.22-6.28c0-3.42-1.42-5.7-4.27-6.85-1.02-.42-2.25-.63-3.71-.63h-3.15v15.85h2.5Z"/>
          <path d="M547.78,107.02c1.45,0,2.39-.13,2.81-.4.42-.27.69-.56.81-.87.12-.31.18-.69.18-1.13v-23.91c0-.93-.28-1.57-.83-1.92-.55-.35-1.54-.53-2.94-.53v-2.47h24.45l.88,8.16-3.26.02-.61-2.54c-.3-1.21-.61-1.98-.92-2.29-.55-.55-1.49-.83-2.81-.83h-8.9v13.08h4.36c1.69,0,2.73-.11,3.11-.34.38-.22.64-.55.79-.97.14-.42.21-1.03.21-1.82h2.92v8.7h-2.92c0-1.39-.27-2.26-.82-2.6-.55-.34-1.64-.5-3.29-.5h-4.36v13.17h9.55c1.74,0,2.89-.58,3.46-1.75.18-.36.36-.73.54-1.12l1.01-2.76h3.26l-.88,8.11h-25.8v-2.47Z"/>
          <path d="M584.48,107.02c1.69,0,2.82-.14,3.37-.42.55-.28.91-.57,1.08-.89.17-.32.25-.7.25-1.15v-26.18h-4.61c-2.47,0-3.89,1.31-4.25,3.93l-.65,4.56-3.26-.02.99-11.08h28.61l.99,11.08-3.26.02-.65-4.56c-.17-1.21-.49-2.08-.97-2.58-.87-.9-1.96-1.35-3.28-1.35h-4.61v26.18c0,.94.31,1.59.93,1.93s1.88.52,3.76.52v2.47h-14.45v-2.47Z"/>
          <path d="M608.78,107.02c1.45,0,2.39-.13,2.81-.4.42-.27.69-.56.81-.87.12-.31.18-.69.18-1.13v-23.91c0-.93-.28-1.57-.83-1.92-.55-.35-1.54-.53-2.94-.53v-2.47h24.45l.88,8.16-3.26.02-.61-2.54c-.3-1.21-.61-1.98-.92-2.29-.55-.55-1.49-.83-2.81-.83h-8.9v13.08h4.36c1.69,0,2.73-.11,3.11-.34.38-.22.64-.55.79-.97.14-.42.21-1.03.21-1.82h2.92v8.7h-2.92c0-1.39-.27-2.26-.82-2.6-.55-.34-1.64-.5-3.29-.5h-4.36v13.17h9.55c1.74,0,2.89-.58,3.46-1.75.18-.36.36-.73.54-1.12l1.01-2.76h3.26l-.88,8.11h-25.8v-2.47Z"/>
          <path d="M666.14,106.7c1.17,0,1.75-1.35,1.75-4.05h2.16c.16.54.25,1.01.25,1.42s0,.84-.02,1.32c-.02.47-.2,1.09-.54,1.85-.82,1.8-2.37,2.7-4.63,2.7s-3.85-.57-4.78-1.71c-.92-1.14-1.58-2.3-1.97-3.47-.39-1.18-.7-2.21-.94-3.09-.69-2.41-1.24-3.99-1.66-4.72-.76-1.41-1.81-2.11-3.12-2.11h-4.94v8.61c0,.76.04,1.38.11,1.84.08.46.34.87.8,1.21s1.85.52,4.19.52v2.47h-13.91v-2.47c1.57,0,2.55-.14,2.94-.42s.62-.57.7-.89c.08-.32.11-.7.11-1.15v-23.87c0-.97-.17-1.58-.5-1.82-.6-.42-1.69-.63-3.28-.63v-2.47h13.8c7.37,0,11.47,2.28,12.29,6.83.13.75.2,1.63.2,2.63,0,2.16-.68,4-2.03,5.52-1.36,1.52-3.2,2.62-5.54,3.29,2.02.61,3.53,2.23,4.52,4.85.33.85.69,1.96,1.08,3.3s.7,2.28.94,2.79c.52,1.14,1.2,1.71,2.02,1.71ZM652.7,92.59c2.56,0,4.38-.62,5.44-1.85,1.06-1.24,1.6-3.02,1.6-5.35s-.62-4.1-1.87-5.32c-1.24-1.21-3.42-1.82-6.54-1.82h-3.64v14.34h5.01Z"/>
          <path d="M689.26,79.6c-.78-1.05-2.45-1.57-5-1.57s-4.32.85-5.29,2.56c-.33.58-.5,1.3-.5,2.16,0,1.57.7,3.01,2.11,4.32.93.87,2.21,1.76,3.85,2.67s3.02,1.73,4.15,2.45c4.24,2.7,6.36,5.65,6.36,8.85,0,2.85-1.04,5.04-3.13,6.59-2.09,1.54-4.79,2.31-8.11,2.31s-5.98-.66-7.98-1.97c-2-1.31-3-2.82-3-4.52s.68-2.85,2.04-3.45c.42-.19.88-.29,1.37-.29.94,0,1.72.31,2.33.94.61.63.91,1.42.91,2.38s-.43,1.78-1.3,2.45c1.17,1.17,3.11,1.75,5.81,1.75s4.56-.91,5.56-2.74c.36-.63.54-1.36.54-2.2,0-1.45-.75-2.8-2.25-4.04-.78-.64-2.09-1.48-3.94-2.51-1.85-1.03-3.31-1.88-4.37-2.57-3.91-2.52-5.87-5.48-5.87-8.9,0-2.67,1.01-4.82,3.02-6.47,2.01-1.65,4.51-2.47,7.48-2.47s5.42.64,7.33,1.91c1.91,1.27,2.87,2.82,2.87,4.65,0,.99-.3,1.82-.91,2.48-.61.67-1.38,1-2.3,1-1.42,0-2.41-.62-2.97-1.87-.17-.38-.25-.77-.25-1.19,0-1.15.48-2.06,1.44-2.72Z"/>
          <path d="M698.66,107.02c1.45,0,2.39-.13,2.81-.4.42-.27.69-.56.81-.87.12-.31.18-.69.18-1.13v-23.91c0-.93-.28-1.57-.83-1.92-.55-.35-1.54-.53-2.94-.53v-2.47h24.45l.88,8.16-3.26.02-.61-2.54c-.3-1.21-.61-1.98-.92-2.29-.55-.55-1.49-.83-2.81-.83h-8.9v13.08h4.36c1.69,0,2.73-.11,3.11-.34.38-.22.64-.55.79-.97.14-.42.21-1.03.21-1.82h2.92v8.7h-2.92c0-1.39-.27-2.26-.82-2.6-.55-.34-1.64-.5-3.29-.5h-4.36v13.17h9.55c1.74,0,2.89-.58,3.46-1.75.18-.36.36-.73.54-1.12l1.01-2.76h3.26l-.88,8.11h-25.8v-2.47Z"/>
          <path d="M728.62,106.97c1.47,0,2.42-.14,2.85-.43.43-.28.71-.59.84-.91.13-.32.19-.71.19-1.16v-23.69c0-.97-.18-1.59-.54-1.84-.6-.43-1.72-.65-3.35-.65v-2.52h7.75l19.28,24.48v-19.46c0-.99-.17-1.6-.52-1.84-.6-.43-1.71-.65-3.33-.65v-2.52h11.33v2.52c-1.47,0-2.42.14-2.85.43-.43.28-.72.59-.84.91-.13.32-.19.71-.19,1.16v28.7h-2.76l-20.38-25.87v20.86c0,.97.18,1.59.54,1.84.6.43,1.72.65,3.37.65v2.52h-11.4v-2.52Z"/>
          <path d="M5.95,153.05c1.57,0,2.55-.14,2.94-.42s.62-.57.7-.89c.08-.32.11-.7.11-1.15v-23.87c0-.97-.17-1.58-.5-1.82-.6-.42-1.69-.63-3.28-.63v-2.47h12.29c6.14,0,10.14,1.71,11.98,5.12.73,1.35,1.1,2.98,1.1,4.89s-.38,3.56-1.15,4.96c-2.08,3.75-6.23,5.62-12.45,5.62-.29,0-.57,0-.85-.02h-2.09v7.1c0,.76.04,1.38.12,1.84.08.46.38.87.89,1.21.51.34,2.08.52,4.72.52v2.47H5.95v-2.47ZM17.26,140.12c2.79,0,4.92-.69,6.41-2.08s2.22-3.48,2.22-6.28c0-3.42-1.42-5.7-4.27-6.85-1.02-.42-2.25-.63-3.71-.63h-3.15v15.85h2.5Z"/>
          <path d="M34.61,138.66c0-2.85.43-5.38,1.3-7.59.87-2.21,2.04-4.03,3.51-5.47,2.89-2.83,6.59-4.25,11.08-4.25s8.19,1.39,11.08,4.18c3.21,3.07,4.81,7.41,4.81,13.01s-1.47,9.91-4.42,12.91-6.77,4.51-11.47,4.51-8.51-1.52-11.46-4.56c-2.95-3.04-4.43-7.29-4.43-12.74ZM50.57,153.05c2.62,0,4.82-.97,6.61-2.92,2.25-2.46,3.37-6.2,3.37-11.21s-.96-8.71-2.88-11.08-4.33-3.55-7.24-3.55-5.28,1.18-7.16,3.54c-1.88,2.36-2.82,5.9-2.82,10.62,0,6.79,1.86,11.26,5.57,13.42,1.36.79,2.88,1.19,4.54,1.19Z"/>
          <path d="M97.05,152.73c1.17,0,1.75-1.35,1.75-4.05h2.16c.16.54.25,1.01.25,1.42s0,.84-.02,1.32c-.02.47-.2,1.09-.54,1.85-.82,1.8-2.37,2.7-4.63,2.7s-3.85-.57-4.78-1.71c-.92-1.14-1.58-2.3-1.97-3.47-.39-1.18-.7-2.21-.94-3.09-.69-2.41-1.24-3.99-1.66-4.72-.76-1.41-1.81-2.11-3.12-2.11h-4.94v8.61c0,.76.04,1.38.11,1.84.08.46.34.87.8,1.21s1.85.52,4.19.52v2.47h-13.91v-2.47c1.57,0,2.55-.14,2.94-.42s.62-.57.7-.89c.08-.32.11-.7.11-1.15v-23.87c0-.97-.17-1.58-.5-1.82-.6-.42-1.69-.63-3.28-.63v-2.47h13.8c7.37,0,11.47,2.28,12.29,6.83.13.75.2,1.63.2,2.63,0,2.16-.68,4-2.03,5.52-1.36,1.52-3.2,2.62-5.54,3.29,2.02.61,3.53,2.23,4.52,4.85.33.85.69,1.96,1.08,3.3s.7,2.28.94,2.79c.52,1.14,1.2,1.71,2.02,1.71ZM83.61,138.62c2.56,0,4.38-.62,5.44-1.85,1.06-1.24,1.6-3.02,1.6-5.35s-.62-4.1-1.87-5.32c-1.24-1.21-3.42-1.82-6.54-1.82h-3.64v14.34h5.01Z"/>
          <path d="M118.29,153.05c1.57,0,2.55-.14,2.94-.42s.62-.57.7-.89c.08-.32.11-.7.11-1.15v-23.87c0-.97-.17-1.58-.5-1.82-.6-.42-1.69-.63-3.28-.63v-2.47h12.29c6.14,0,10.14,1.71,11.98,5.12.73,1.35,1.1,2.98,1.1,4.89s-.38,3.56-1.15,4.96c-2.08,3.75-6.23,5.62-12.45,5.62-.29,0-.57,0-.85-.02h-2.09v7.1c0,.76.04,1.38.12,1.84.08.46.38.87.89,1.21.51.34,2.08.52,4.72.52v2.47h-14.54v-2.47ZM129.59,140.12c2.79,0,4.92-.69,6.41-2.08s2.22-3.48,2.22-6.28c0-3.42-1.42-5.7-4.27-6.85-1.02-.42-2.25-.63-3.71-.63h-3.15v15.85h2.5Z"/>
          <path d="M174.09,152.73c1.17,0,1.75-1.35,1.75-4.05h2.16c.16.54.25,1.01.25,1.42s0,.84-.02,1.32c-.02.47-.2,1.09-.54,1.85-.82,1.8-2.37,2.7-4.63,2.7s-3.85-.57-4.78-1.71c-.92-1.14-1.58-2.3-1.97-3.47-.39-1.18-.7-2.21-.94-3.09-.69-2.41-1.24-3.99-1.66-4.72-.76-1.41-1.81-2.11-3.12-2.11h-4.94v8.61c0,.76.04,1.38.11,1.84.08.46.34.87.8,1.21s1.85.52,4.19.52v2.47h-13.91v-2.47c1.57,0,2.55-.14,2.94-.42s.62-.57.7-.89c.08-.32.11-.7.11-1.15v-23.87c0-.97-.17-1.58-.5-1.82-.6-.42-1.69-.63-3.28-.63v-2.47h13.8c7.37,0,11.47,2.28,12.29,6.83.13.75.2,1.63.2,2.63,0,2.16-.68,4-2.03,5.52-1.36,1.52-3.2,2.62-5.54,3.29,2.02.61,3.53,2.23,4.52,4.85.33.85.69,1.96,1.08,3.3s.7,2.28.94,2.79c.52,1.14,1.2,1.71,2.02,1.71ZM160.65,138.62c2.56,0,4.38-.62,5.44-1.85,1.06-1.24,1.6-3.02,1.6-5.35s-.62-4.1-1.87-5.32c-1.24-1.21-3.42-1.82-6.54-1.82h-3.64v14.34h5.01Z"/>
          <path d="M179.94,153.05c1.45,0,2.39-.13,2.81-.4.42-.27.69-.56.81-.87.12-.31.18-.69.18-1.13v-23.91c0-.93-.28-1.57-.83-1.92-.55-.35-1.54-.53-2.94-.53v-2.47h24.45l.88,8.16-3.26.02-.61-2.54c-.3-1.21-.61-1.98-.92-2.29-.55-.55-1.49-.83-2.81-.83h-8.9v13.08h4.36c1.69,0,2.73-.11,3.11-.34.38-.22.64-.55.79-.97.14-.42.21-1.03.21-1.82h2.92v8.7h-2.92c0-1.39-.27-2.26-.82-2.6-.55-.34-1.64-.5-3.29-.5h-4.36v13.17h9.55c1.74,0,2.89-.58,3.46-1.75.18-.36.36-.73.54-1.12l1.01-2.76h3.26l-.88,8.11h-25.8v-2.47Z"/>
          <path d="M227.27,125.63c-.78-1.05-2.45-1.57-5-1.57s-4.32.85-5.29,2.56c-.33.58-.5,1.3-.5,2.16,0,1.57.7,3.01,2.11,4.32.93.87,2.21,1.76,3.85,2.67s3.02,1.73,4.15,2.45c4.24,2.7,6.36,5.65,6.36,8.85,0,2.85-1.04,5.04-3.13,6.59-2.09,1.54-4.79,2.31-8.11,2.31s-5.98-.66-7.98-1.97c-2-1.31-3-2.82-3-4.52s.68-2.85,2.04-3.45c.42-.19.88-.29,1.37-.29.94,0,1.72.31,2.33.94.61.63.91,1.42.91,2.38s-.43,1.78-1.3,2.45c1.17,1.17,3.11,1.75,5.81,1.75s4.56-.91,5.56-2.74c.36-.63.54-1.36.54-2.2,0-1.45-.75-2.8-2.25-4.04-.78-.64-2.09-1.48-3.94-2.51-1.85-1.03-3.31-1.88-4.37-2.57-3.91-2.52-5.87-5.48-5.87-8.9,0-2.67,1.01-4.82,3.02-6.47,2.01-1.65,4.51-2.47,7.48-2.47s5.42.64,7.33,1.91c1.91,1.27,2.87,2.82,2.87,4.65,0,.99-.3,1.82-.91,2.48-.61.67-1.38,1-2.3,1-1.42,0-2.41-.62-2.97-1.87-.17-.38-.25-.77-.25-1.19,0-1.15.48-2.06,1.44-2.72Z"/>
          <path d="M243.32,153.05c1.69,0,2.82-.14,3.37-.42.55-.28.91-.57,1.08-.89.17-.32.25-.7.25-1.15v-26.18h-4.61c-2.47,0-3.89,1.31-4.25,3.93l-.65,4.56-3.26-.02.99-11.08h28.61l.99,11.08-3.26.02-.65-4.56c-.17-1.21-.49-2.08-.97-2.58-.87-.9-1.96-1.35-3.28-1.35h-4.61v26.18c0,.94.31,1.59.93,1.93s1.88.52,3.76.52v2.47h-14.45v-2.47Z"/>
          <path d="M265.77,153.05c1.24,0,2.18-.19,2.82-.57.64-.38,1.13-1.01,1.47-1.88l12.14-28.79h3.84l11.1,28.79c.4.96.85,1.61,1.35,1.94.5.34,1.46.5,2.9.5v2.47h-13.87v-2.47c1.98,0,3.15-.13,3.52-.4s.54-.56.52-.88c-.02-.32-.12-.7-.3-1.17l-2.02-5.64h-13.06l-2.32,5.64c-.34.9-.24,1.53.31,1.9.55.37,1.85.55,3.89.55v2.47h-12.29v-2.47ZM288.36,142.48l-5.21-14.56-5.96,14.56h11.17Z"/>
          <path d="M330.45,152.73c1.17,0,1.75-1.35,1.75-4.05h2.16c.16.54.25,1.01.25,1.42s0,.84-.02,1.32c-.02.47-.2,1.09-.54,1.85-.82,1.8-2.37,2.7-4.63,2.7s-3.85-.57-4.78-1.71c-.92-1.14-1.58-2.3-1.97-3.47-.39-1.18-.7-2.21-.94-3.09-.69-2.41-1.24-3.99-1.66-4.72-.76-1.41-1.81-2.11-3.12-2.11h-4.94v8.61c0,.76.04,1.38.11,1.84.08.46.34.87.8,1.21s1.85.52,4.19.52v2.47h-13.91v-2.47c1.57,0,2.55-.14,2.94-.42s.62-.57.7-.89c.08-.32.11-.7.11-1.15v-23.87c0-.97-.17-1.58-.5-1.82-.6-.42-1.69-.63-3.28-.63v-2.47h13.8c7.37,0,11.47,2.28,12.29,6.83.13.75.2,1.63.2,2.63,0,2.16-.68,4-2.03,5.52-1.36,1.52-3.2,2.62-5.54,3.29,2.02.61,3.53,2.23,4.52,4.85.33.85.69,1.96,1.08,3.3s.7,2.28.94,2.79c.52,1.14,1.2,1.71,2.02,1.71ZM317.01,138.62c2.56,0,4.38-.62,5.44-1.85,1.06-1.24,1.6-3.02,1.6-5.35s-.62-4.1-1.87-5.32c-1.24-1.21-3.42-1.82-6.54-1.82h-3.64v14.34h5.01Z"/>
          <path d="M336.54,153.05c1.41,0,2.33-.14,2.76-.42s.71-.57.83-.89c.12-.32.18-.7.18-1.15v-23.87c0-.97-.17-1.58-.5-1.82-.6-.42-1.69-.63-3.28-.63v-2.47h10.61l9.96,26,9.55-26h10.5v2.47c-1.42,0-2.35.14-2.79.42s-.71.57-.83.89c-.12.31-.18.7-.18,1.15v23.87c0,.96.17,1.57.52,1.82.6.42,1.69.63,3.28.63v2.47h-12.47v-2.47c1.41,0,2.32-.14,2.73-.42s.67-.57.78-.89c.1-.32.16-.7.16-1.15v-23.98l-10.43,28.9h-2.49l-11.51-28.93v24c0,.97.17,1.58.49,1.82.6.42,1.69.63,3.28.63v2.47h-11.15v-2.47Z"/>
          <path d="M380.57,153.05c1.45,0,2.39-.13,2.81-.4.42-.27.69-.56.81-.87.12-.31.18-.69.18-1.13v-23.91c0-.93-.28-1.57-.83-1.92-.55-.35-1.54-.53-2.94-.53v-2.47h24.45l.88,8.16-3.26.02-.61-2.54c-.3-1.21-.61-1.98-.92-2.29-.55-.55-1.49-.83-2.81-.83h-8.9v13.08h4.36c1.69,0,2.73-.11,3.11-.34.38-.22.64-.55.79-.97.14-.42.21-1.03.21-1.82h2.92v8.7h-2.92c0-1.39-.27-2.26-.82-2.6-.55-.34-1.64-.5-3.29-.5h-4.36v13.17h9.55c1.74,0,2.89-.58,3.46-1.75.18-.36.36-.73.54-1.12l1.01-2.76h3.26l-.88,8.11h-25.8v-2.47Z"/>
          <path d="M426,153.05c1.42,0,2.35-.14,2.79-.42s.71-.57.83-.89c.12-.32.18-.7.18-1.15l-.02-23.87c0-.97-.17-1.58-.5-1.82-.6-.42-1.69-.63-3.28-.63v-2.47h12.65v2.47c-1.42,0-2.35.14-2.79.42-.44.28-.71.57-.83.89s-.18.7-.18,1.15v26.18h7.75c2.4,0,4.05-1.31,4.94-3.93l.9-2.54,3.1.02-1.55,9.06h-24v-2.47Z"/>
          <path d="M452.81,153.05c1.24,0,2.18-.19,2.82-.57.64-.38,1.13-1.01,1.47-1.88l12.14-28.79h3.84l11.1,28.79c.4.96.85,1.61,1.35,1.94.5.34,1.46.5,2.9.5v2.47h-13.87v-2.47c1.98,0,3.15-.13,3.52-.4s.54-.56.52-.88c-.02-.32-.12-.7-.3-1.17l-2.02-5.64h-13.06l-2.32,5.64c-.34.9-.24,1.53.31,1.9.55.37,1.85.55,3.89.55v2.47h-12.29v-2.47ZM475.4,142.48l-5.21-14.56-5.96,14.56h11.17Z"/>
          <path d="M521.88,153.05c4.72,0,7.7-2.17,8.95-6.52h3.24c0,1.17-.31,2.32-.94,3.45-.63,1.13-1.51,2.14-2.65,3.02-2.52,1.98-5.75,2.97-9.71,2.97s-7.34-1.32-10.16-3.96c-3.27-3.04-4.9-7.49-4.9-13.35,0-4.67,1.26-8.62,3.78-11.82,1.78-2.29,4.16-3.89,7.12-4.79,1.53-.46,3.21-.7,5.04-.7,3.61,0,6.58.83,8.9,2.48,2.32,1.66,3.48,3.73,3.48,6.24,0,1.87-.73,3.13-2.2,3.78-.43.19-.91.29-1.42.29-1.57,0-2.63-.67-3.17-2-.17-.42-.25-.92-.25-1.5s.17-1.15.5-1.71c.33-.56.76-.99,1.3-1.29-1.21-2.32-3.39-3.48-6.52-3.48s-5.68,1.19-7.64,3.56-2.94,5.94-2.94,10.7,1,8.38,2.99,10.88c1.99,2.5,4.4,3.74,7.21,3.74Z"/>
          <path d="M537.21,153.05c1.24,0,2.18-.19,2.82-.57.64-.38,1.13-1.01,1.47-1.88l12.14-28.79h3.84l11.1,28.79c.4.96.85,1.61,1.35,1.94.5.34,1.46.5,2.9.5v2.47h-13.87v-2.47c1.98,0,3.15-.13,3.52-.4s.54-.56.52-.88c-.02-.32-.12-.7-.3-1.17l-2.02-5.64h-13.06l-2.32,5.64c-.34.9-.24,1.53.31,1.9.55.37,1.85.55,3.89.55v2.47h-12.29v-2.47ZM559.79,142.48l-5.21-14.56-5.96,14.56h11.17Z"/>
          <path d="M574.83,153.05c1.41,0,2.33-.14,2.76-.42s.71-.57.83-.89c.12-.32.18-.7.18-1.15v-23.87c0-.97-.17-1.58-.5-1.82-.6-.42-1.69-.63-3.28-.63v-2.47h10.61l9.96,26,9.55-26h10.5v2.47c-1.42,0-2.35.14-2.79.42s-.71.57-.83.89c-.12.31-.18.7-.18,1.15v23.87c0,.96.17,1.57.52,1.82.6.42,1.69.63,3.28.63v2.47h-12.47v-2.47c1.41,0,2.32-.14,2.73-.42s.67-.57.78-.89c.1-.32.16-.7.16-1.15v-23.98l-10.43,28.9h-2.49l-11.51-28.93v24c0,.97.17,1.58.49,1.82.6.42,1.69.63,3.28.63v2.47h-11.15v-2.47Z"/>
          <path d="M651.49,125.63c-.78-1.05-2.45-1.57-5-1.57s-4.32.85-5.29,2.56c-.33.58-.5,1.3-.5,2.16,0,1.57.7,3.01,2.11,4.32.93.87,2.21,1.76,3.85,2.67s3.02,1.73,4.15,2.45c4.24,2.7,6.36,5.65,6.36,8.85,0,2.85-1.04,5.04-3.13,6.59-2.09,1.54-4.79,2.31-8.11,2.31s-5.98-.66-7.98-1.97c-2-1.31-3-2.82-3-4.52s.68-2.85,2.04-3.45c.42-.19.88-.29,1.37-.29.94,0,1.72.31,2.33.94.61.63.91,1.42.91,2.38s-.43,1.78-1.3,2.45c1.17,1.17,3.11,1.75,5.81,1.75s4.56-.91,5.56-2.74c.36-.63.54-1.36.54-2.2,0-1.45-.75-2.8-2.25-4.04-.78-.64-2.09-1.48-3.94-2.51-1.85-1.03-3.31-1.88-4.37-2.57-3.91-2.52-5.87-5.48-5.87-8.9,0-2.67,1.01-4.82,3.02-6.47,2.01-1.65,4.51-2.47,7.48-2.47s5.42.64,7.33,1.91c1.91,1.27,2.87,2.82,2.87,4.65,0,.99-.3,1.82-.91,2.48-.61.67-1.38,1-2.3,1-1.42,0-2.41-.62-2.97-1.87-.17-.38-.25-.77-.25-1.19,0-1.15.48-2.06,1.44-2.72Z"/>
          <path d="M661.04,138.66c0-2.85.43-5.38,1.3-7.59.87-2.21,2.04-4.03,3.51-5.47,2.89-2.83,6.59-4.25,11.08-4.25s8.19,1.39,11.08,4.18c3.21,3.07,4.81,7.41,4.81,13.01s-1.47,9.91-4.42,12.91-6.77,4.51-11.47,4.51-8.51-1.52-11.46-4.56c-2.95-3.04-4.43-7.29-4.43-12.74ZM677,153.05c2.62,0,4.82-.97,6.61-2.92,2.25-2.46,3.37-6.2,3.37-11.21s-.96-8.71-2.88-11.08-4.33-3.55-7.24-3.55-5.28,1.18-7.16,3.54c-1.88,2.36-2.82,5.9-2.82,10.62,0,6.79,1.86,11.26,5.57,13.42,1.36.79,2.88,1.19,4.54,1.19Z"/>
          <path d="M696.08,153c1.47,0,2.42-.14,2.85-.43.43-.28.71-.59.84-.91.13-.32.19-.71.19-1.16v-23.69c0-.97-.18-1.59-.54-1.84-.6-.43-1.72-.65-3.35-.65v-2.52h7.75l19.28,24.48v-19.46c0-.99-.17-1.6-.52-1.84-.6-.43-1.71-.65-3.33-.65v-2.52h11.33v2.52c-1.47,0-2.42.14-2.85.43-.43.28-.72.59-.84.91-.13.32-.19.71-.19,1.16v28.7h-2.76l-20.38-25.87v20.86c0,.97.18,1.59.54,1.84.6.43,1.72.65,3.37.65v2.52h-11.4v-2.52Z"/>
          <path d="M740.34,153.05c1.69,0,2.81-.14,3.36-.42s.9-.57,1.06-.89c.16-.32.24-.7.24-1.15l-.02-6.38-9.39-17.49c-.51-.91-1.03-1.51-1.55-1.78-.88-.45-2.01-.67-3.37-.67v-2.47h13.01v2.47c-1.44,0-2.28.18-2.53.54-.25.36-.14,1,.33,1.91l6.68,13.71,7.01-13.71c.48-.91.58-1.5.29-1.75-.51-.46-1.75-.7-3.71-.7v-2.47h11.62v2.47c-1.11,0-2.02.19-2.73.56-.71.37-1.31,1-1.79,1.89l-9.04,16.61v7.26c0,.94.3,1.59.9,1.93.6.34,1.84.52,3.73.52v2.47h-14.09v-2.47Z"/>
          <path d="M779.89,152.82l19.08-28.27h-10.63c-1.57,0-2.71.49-3.39,1.48-.69.99-1.03,2.66-1.03,5.01l-3.37-.02.45-9.21h23.91v2.7l-19.08,28.27h11.26c3.4,0,5.1-2.41,5.1-7.24h3.44l-1.12,9.98h-24.61v-2.7Z"/>
          <path d="M810.42,126.73c-.4-.96-.85-1.61-1.35-1.94-.49-.34-1.46-.51-2.9-.51v-2.47h14.12v2.47c-1.99,0-3.17.14-3.53.42-.36.28-.53.57-.51.88.02.31.12.69.3,1.16l8.43,22.18,8.5-22.18c.34-.9.24-1.53-.31-1.9s-1.85-.55-3.89-.55v-2.47h12.29v2.47c-1.24,0-2.18.19-2.81.56-.63.37-1.12,1-1.48,1.89l-11.69,28.79h-2.94l-12.23-28.79Z"/>
          <path d="M843.25,141.79h16.97v3.66h-16.97v-3.66Z"/>
          <path d="M865.39,153.05c1.74,0,2.86-.14,3.36-.42s.82-.57.97-.87.21-.67.21-1.12v-19.4c0-1.08-.09-1.78-.28-2.11-.19-.33-.7-.5-1.54-.5h-2.94v-2.47c1.81,0,3.35-.47,4.61-1.42,1.26-.94,1.89-1.91,1.89-2.9l3.24-.04-.02,28.84c0,.94.2,1.54.61,1.78.67.42,1.98.63,3.91.63v2.47h-14v-2.47Z"/>
          <path d="M882.88,153.05c1.59,0,2.58-.14,2.97-.42s.62-.57.7-.89c.08-.32.11-.7.11-1.15v-23.87c0-.93-.28-1.57-.83-1.92-.55-.35-1.54-.53-2.94-.53v-2.47h24l.88,8.16-3.26.02-.61-2.54c-.3-1.21-.61-1.98-.92-2.29-.55-.55-1.49-.83-2.81-.83h-8.45v13.08h4.14c1.69,0,2.73-.11,3.11-.34s.64-.55.79-.97c.14-.42.21-1.03.21-1.82h2.92v8.7h-2.92c0-1.39-.27-2.26-.82-2.6-.55-.34-1.64-.5-3.29-.5h-4.14v9.6c0,.76.06,1.38.17,1.84.11.46.49.87,1.12,1.21s2.56.52,5.77.52v2.47h-15.89v-2.47Z"/>
        </g>
      </g>
    </g>
  </g>
</svg>