<?xml version="1.0" encoding="UTF-8"?>
<svg id="Layer_2" data-name="Layer 2" xmlns="http://www.w3.org/2000/svg" viewBox="0 0 1444.05 133.53">
  <defs>
    <style>
      .cls-1 {
        fill: #3070c9;
      }

      .cls-2 {
        stroke: #000;
        stroke-miterlimit: 10;
        stroke-width: 3px;
      }
    </style>
  </defs>
  <g id="TYPE">
    <g>
      <rect class="cls-1" x="974.63" y="89.5" width="469.42" height="44.03"/>
      <g>
        <path class="cls-2" d="M119.01,51.31c4.5,2.2,11.7,4.7,19.4,4.7,6.3,0,9.5-2,9.5-5.4,0-2.9-3.1-4.8-11.3-7.1-11.5-3.2-21-9.1-21-20.8S126.61,1.5,144.12,1.5c9.2,0,15.4,1.6,20.6,3.8l-4.3,14.8c-3.2-1.3-8.9-3.5-16.6-3.5-5.6,0-8.8,1.8-8.8,4.7,0,3.6,4.3,4.8,13.1,7.6,13.1,4.2,19.3,10.5,19.3,20.7,0,11.3-8.9,21.71-30.41,21.71-8.9,0-17.6-2.4-21.91-4.6l3.9-15.4Z"/>
        <path class="cls-2" d="M195.62,18.1h-19V2.7h57.31v15.4h-19.4v52.01h-18.9V18.1Z"/>
        <path class="cls-2" d="M245.33,3.6c5.3-.8,13.6-1.5,23.8-1.5,11.3,0,18.8,1.6,24.01,5.3,4.3,3.1,7,8,7,14.8,0,9-7.3,14.7-12,16.2v.4c4.5,1.9,7,6.3,8.9,11.9,2.3,6.9,4.6,16.8,5.9,19.4h-19.2c-1.1-2-2.9-6.7-5.2-15.4-2.1-8.1-4.8-9.7-11.1-9.7h-3.4v25.11h-18.7V3.6ZM264.04,31.71h5.6c7.4,0,11.8-3,11.8-8.1s-3.8-7.7-10.2-7.7c-4.2,0-6.2.2-7.2.4v15.4Z"/>
        <path class="cls-2" d="M359.85,43.41h-27.41v11.5h30.61v15.2h-49.51V2.7h48.01v15.2h-29.11v10.3h27.41v15.2Z"/>
        <path class="cls-2" d="M422.26,43.41h-27.41v11.5h30.61v15.2h-49.51V2.7h48.01v15.2h-29.11v10.3h27.41v15.2Z"/>
        <path class="cls-2" d="M453.47,18.1h-19V2.7h57.31v15.4h-19.4v52.01h-18.9V18.1Z"/>
        <path class="cls-2" d="M526.68,3.6c5.2-.8,12.8-1.5,24.71-1.5,10.1,0,17.2,2,21.91,5.4,4.7,3.3,8.2,9.3,8.2,16.6,0,6.5-2.2,12.6-6.6,16.4-5.8,5.1-14,7.4-24.41,7.4-2.1,0-3.9-.2-5.1-.3v22.5h-18.7V3.6ZM545.38,33.31c1.1.2,2.5.3,4.9.3,7.3,0,12.5-3.3,12.5-9.4,0-4.9-3.7-8.1-11.2-8.1-3.2,0-5.2.2-6.2.4v16.8Z"/>
        <path class="cls-2" d="M612.29,2.7v24.51h25.41V2.7h18.9v67.42h-18.9v-26.71h-25.41v26.71h-18.9V2.7h18.9Z"/>
        <path class="cls-2" d="M742.52,36.01c0,20.4-14.3,35.31-37.51,35.31s-35.71-14.9-35.71-34.31c0-20.61,14.8-35.51,36.91-35.51s36.31,14.7,36.31,34.51ZM689.41,36.51c0,11.6,6.4,20.2,16.6,20.2s16.4-8.6,16.4-20.2-6.4-20.4-16.5-20.4-16.5,8.8-16.5,20.4Z"/>
        <path class="cls-2" d="M766.42,18.1h-19V2.7h57.31v15.4h-19.4v52.01h-18.9V18.1Z"/>
        <path class="cls-2" d="M882.95,36.01c0,20.4-14.3,35.31-37.51,35.31s-35.71-14.9-35.71-34.31c0-20.61,14.8-35.51,36.91-35.51s36.31,14.7,36.31,34.51ZM829.83,36.51c0,11.6,6.4,20.2,16.6,20.2s16.4-8.6,16.4-20.2-6.4-20.4-16.5-20.4-16.5,8.8-16.5,20.4Z"/>
        <path class="cls-2" d="M960.46,66.51c-5.8,1.9-16.1,4.3-26.11,4.3-14.8,0-24.91-3.6-31.51-9.9-6.4-6-9.8-14.2-9.8-23.3,0-23.3,18.5-35.61,42.51-35.61,10.3,0,18.2,1.8,22.21,3.7l-4,14.8c-4.4-1.8-9.6-3.3-18.8-3.3-11.8,0-22,5.8-22,18.7,0,12,9,19.9,22,19.9,3.1,0,6-.3,7-.7v-10.9h-10.4v-14.5h28.91v36.81Z"/>
        <path class="cls-2" d="M974.86,3.6c5.3-.8,13.6-1.5,23.8-1.5,11.3,0,18.8,1.6,24.01,5.3,4.3,3.1,7,8,7,14.8,0,9-7.3,14.7-12,16.2v.4c4.5,1.9,7,6.3,8.9,11.9,2.3,6.9,4.6,16.8,5.9,19.4h-19.2c-1.1-2-2.9-6.7-5.2-15.4-2.1-8.1-4.8-9.7-11.1-9.7h-3.4v25.11h-18.7V3.6ZM993.56,31.71h5.6c7.4,0,11.8-3,11.8-8.1s-3.8-7.7-10.2-7.7c-4.2,0-6.2.2-7.2.4v15.4Z"/>
        <path class="cls-2" d="M1064.07,53.71l-4.3,16.4h-19.9l21.3-67.42h25.81l22.71,67.42h-21l-5-16.4h-19.6ZM1080.78,39.91l-3.6-11.9c-1.2-3.8-2.6-8.7-3.8-12.6h-.2c-1.1,3.9-2.1,8.8-3.2,12.7l-3.2,11.8h14Z"/>
        <path class="cls-2" d="M1121.38,3.6c5.2-.8,12.8-1.5,24.71-1.5,10.1,0,17.2,2,21.91,5.4,4.7,3.3,8.2,9.3,8.2,16.6,0,6.5-2.2,12.6-6.6,16.4-5.8,5.1-14,7.4-24.41,7.4-2.1,0-3.9-.2-5.1-.3v22.5h-18.7V3.6ZM1140.09,33.31c1.1.2,2.5.3,4.9.3,7.3,0,12.5-3.3,12.5-9.4,0-4.9-3.7-8.1-11.2-8.1-3.2,0-5.2.2-6.2.4v16.8Z"/>
        <path class="cls-2" d="M1207,2.7v24.51h25.41V2.7h18.9v67.42h-18.9v-26.71h-25.41v26.71h-18.9V2.7h18.9Z"/>
        <path class="cls-2" d="M1282.41,70.11v-28.11l-23.4-39.31h22.1l6.3,15c2.1,4.9,3.4,7.8,5.1,12h.2c1.6-3.9,3.1-7.3,5-11.9l6.3-15.1h21.8l-24.5,38.61v28.81h-18.9Z"/>
      </g>
      <g>
        <g>
          <path d="M597.69,108.35l-3.72,1.71c-.25.12-.53-.21-.63-.38-.11-.17-.25-.6-.04-.76l3.33-2.35c.17-.12.43-.08.6.01.88.46.87,1.59.47,1.77Z"/>
          <path d="M591.83,108.1c-.2.43-1.18.48-1.29,0-.28-1.35-.24-2.71-.43-4.07-.03-.2.17-.41.31-.51.46-.29,1.05-.29,1.5.01.16.1.3.3.28.5l-.38,4.06Z"/>
          <path d="M591.93,118.28c-.46.31-1.05.31-1.5.03-.15-.1-.34-.3-.31-.5.17-1.37.16-2.71.42-4.07.08-.45,1.17-.45,1.26,0,.26,1.34.24,2.67.42,4.01.03.21-.1.42-.28.54Z"/>
          <path d="M588.42,110.09l-3.74-1.71c-.2-.09-.3-.32-.31-.53-.02-.52.26-1.01.72-1.25.16-.09.44-.15.61-.03,1.09.82,2.26,1.49,3.32,2.38.37.31-.12,1.12-.6,1.14Z"/>
          <path d="M585.75,115.22c-.2.14-.44.12-.63.03-.47-.23-.78-.74-.75-1.27.01-.21.11-.44.31-.54l3.7-1.7c.26-.06.51.22.6.38.11.18.26.62.04.77l-3.28,2.32Z"/>
          <path d="M597.95,113.95c.04.55-.26,1.05-.72,1.29-.17.09-.43.14-.61.02l-3.33-2.36c-.22-.15-.06-.59.04-.76s.38-.49.63-.37l3.68,1.68c.18.08.29.29.3.51Z"/>
        </g>
        <g>
          <path d="M702.25,108.35l-3.72,1.71c-.25.12-.53-.21-.63-.38-.11-.17-.25-.6-.04-.76l3.33-2.35c.17-.12.43-.08.6.01.88.46.87,1.59.47,1.77Z"/>
          <path d="M696.39,108.1c-.2.43-1.18.48-1.29,0-.28-1.35-.24-2.71-.43-4.07-.03-.2.17-.41.31-.51.46-.29,1.05-.29,1.5.01.16.1.3.3.28.5l-.38,4.06Z"/>
          <path d="M696.49,118.28c-.46.31-1.05.31-1.5.03-.15-.1-.34-.3-.31-.5.17-1.37.16-2.71.42-4.07.08-.45,1.17-.45,1.26,0,.26,1.34.24,2.67.42,4.01.03.21-.1.42-.28.54Z"/>
          <path d="M692.98,110.09l-3.74-1.71c-.2-.09-.3-.32-.31-.53-.02-.52.26-1.01.72-1.25.16-.09.44-.15.61-.03,1.09.82,2.26,1.49,3.32,2.38.37.31-.12,1.12-.6,1.14Z"/>
          <path d="M690.31,115.22c-.2.14-.44.12-.63.03-.47-.23-.78-.74-.75-1.27.01-.21.11-.44.31-.54l3.7-1.7c.26-.06.51.22.6.38.11.18.26.62.04.77l-3.28,2.32Z"/>
          <path d="M702.51,113.95c.04.55-.26,1.05-.72,1.29-.17.09-.43.14-.61.02l-3.33-2.36c-.22-.15-.06-.59.04-.76s.38-.49.63-.37l3.68,1.68c.18.08.29.29.3.51Z"/>
        </g>
        <g>
          <path d="M988.51,108.35l-3.72,1.71c-.25.12-.53-.21-.63-.38-.11-.17-.25-.6-.04-.76l3.33-2.35c.17-.12.43-.08.6.01.88.46.87,1.59.47,1.77Z"/>
          <path d="M982.65,108.1c-.2.43-1.18.48-1.29,0-.28-1.35-.24-2.71-.43-4.07-.03-.2.17-.41.31-.51.46-.29,1.05-.29,1.5.01.16.1.3.3.28.5l-.38,4.06Z"/>
          <path d="M982.76,118.28c-.46.31-1.05.31-1.5.03-.15-.1-.34-.3-.31-.5.17-1.37.16-2.71.42-4.07.08-.45,1.17-.45,1.26,0,.26,1.34.24,2.67.42,4.01.03.21-.1.42-.28.54Z"/>
          <path d="M979.24,110.09l-3.74-1.71c-.2-.09-.3-.32-.31-.53-.02-.52.26-1.01.72-1.25.16-.09.44-.15.61-.03,1.09.82,2.26,1.49,3.32,2.38.37.31-.12,1.12-.6,1.14Z"/>
          <path d="M976.57,115.22c-.2.14-.44.12-.63.03-.47-.23-.78-.74-.75-1.27.01-.21.11-.44.31-.54l3.7-1.7c.26-.06.51.22.6.38.11.18.26.62.04.77l-3.28,2.32Z"/>
          <path d="M988.77,113.95c.04.55-.26,1.05-.72,1.29-.17.09-.43.14-.61.02l-3.33-2.36c-.22-.15-.06-.59.04-.76s.38-.49.63-.37l3.68,1.68c.18.08.29.29.3.51Z"/>
        </g>
        <g>
          <path d="M1060.27,108.35l-3.72,1.71c-.25.12-.53-.21-.63-.38-.11-.17-.25-.6-.04-.76l3.33-2.35c.17-.12.43-.08.6.01.88.46.87,1.59.47,1.77Z"/>
          <path d="M1054.41,108.1c-.2.43-1.18.48-1.29,0-.28-1.35-.24-2.71-.43-4.07-.03-.2.17-.41.31-.51.46-.29,1.05-.29,1.5.01.16.1.3.3.28.5l-.38,4.06Z"/>
          <path d="M1054.52,118.28c-.46.31-1.05.31-1.5.03-.15-.1-.34-.3-.31-.5.17-1.37.16-2.71.42-4.07.08-.45,1.17-.45,1.26,0,.26,1.34.24,2.67.42,4.01.03.21-.1.42-.28.54Z"/>
          <path d="M1051,110.09l-3.74-1.71c-.2-.09-.3-.32-.31-.53-.02-.52.26-1.01.72-1.25.16-.09.44-.15.61-.03,1.09.82,2.26,1.49,3.32,2.38.37.31-.12,1.12-.6,1.14Z"/>
          <path d="M1048.33,115.22c-.2.14-.44.12-.63.03-.47-.23-.78-.74-.75-1.27.01-.21.11-.44.31-.54l3.7-1.7c.26-.06.51.22.6.38.11.18.26.62.04.77l-3.28,2.32Z"/>
          <path d="M1060.53,113.95c.04.55-.26,1.05-.72,1.29-.17.09-.43.14-.61.02l-3.33-2.36c-.22-.15-.06-.59.04-.76s.38-.49.63-.37l3.68,1.68c.18.08.29.29.3.51Z"/>
        </g>
        <g>
          <path d="M1180.42,108.35l-3.72,1.71c-.25.12-.53-.21-.63-.38-.11-.17-.25-.6-.04-.76l3.33-2.35c.17-.12.43-.08.6.01.88.46.87,1.59.47,1.77Z"/>
          <path d="M1174.56,108.1c-.2.43-1.18.48-1.29,0-.28-1.35-.24-2.71-.43-4.07-.03-.2.17-.41.31-.51.46-.29,1.05-.29,1.5.01.16.1.3.3.28.5l-.38,4.06Z"/>
          <path d="M1174.66,118.28c-.46.31-1.05.31-1.5.03-.15-.1-.34-.3-.31-.5.17-1.37.16-2.71.42-4.07.08-.45,1.17-.45,1.26,0,.26,1.34.24,2.67.42,4.01.03.21-.1.42-.28.54Z"/>
          <path d="M1171.15,110.09l-3.74-1.71c-.2-.09-.3-.32-.31-.53-.02-.52.26-1.01.72-1.25.16-.09.44-.15.61-.03,1.09.82,2.26,1.49,3.32,2.38.37.31-.12,1.12-.6,1.14Z"/>
          <path d="M1168.48,115.22c-.2.14-.44.12-.63.03-.47-.23-.78-.74-.75-1.27.01-.21.11-.44.31-.54l3.7-1.7c.26-.06.51.22.6.38.11.18.26.62.04.77l-3.28,2.32Z"/>
          <path d="M1180.68,113.95c.04.55-.26,1.05-.72,1.29-.17.09-.43.14-.61.02l-3.33-2.36c-.22-.15-.06-.59.04-.76s.38-.49.63-.37l3.68,1.68c.18.08.29.29.3.51Z"/>
        </g>
        <g>
          <path d="M1315.58,108.35l-3.72,1.71c-.25.12-.53-.21-.63-.38-.11-.17-.25-.6-.04-.76l3.33-2.35c.17-.12.43-.08.6.01.88.46.87,1.59.47,1.77Z"/>
          <path d="M1309.72,108.1c-.2.43-1.18.48-1.29,0-.28-1.35-.24-2.71-.43-4.07-.03-.2.17-.41.31-.51.46-.29,1.05-.29,1.5.01.16.1.3.3.28.5l-.38,4.06Z"/>
          <path d="M1309.82,118.28c-.46.31-1.05.31-1.5.03-.15-.1-.34-.3-.31-.5.17-1.37.16-2.71.42-4.07.08-.45,1.17-.45,1.26,0,.26,1.34.24,2.67.42,4.01.03.21-.1.42-.28.54Z"/>
          <path d="M1306.31,110.09l-3.74-1.71c-.2-.09-.3-.32-.31-.53-.02-.52.26-1.01.72-1.25.16-.09.44-.15.61-.03,1.09.82,2.26,1.49,3.32,2.38.37.31-.12,1.12-.6,1.14Z"/>
          <path d="M1303.64,115.22c-.2.14-.44.12-.63.03-.47-.23-.78-.74-.75-1.27.01-.21.11-.44.31-.54l3.7-1.7c.26-.06.51.22.6.38.11.18.26.62.04.77l-3.28,2.32Z"/>
          <path d="M1315.84,113.95c.04.55-.26,1.05-.72,1.29-.17.09-.43.14-.61.02l-3.33-2.36c-.22-.15-.06-.59.04-.76s.38-.49.63-.37l3.68,1.68c.18.08.29.29.3.51Z"/>
        </g>
        <g>
          <path d="M355.36,108.35l-3.72,1.71c-.25.12-.53-.21-.63-.38-.11-.17-.25-.6-.04-.76l3.33-2.35c.17-.12.43-.08.6.01.88.46.87,1.59.47,1.77Z"/>
          <path d="M349.5,108.1c-.2.43-1.18.48-1.29,0-.28-1.35-.24-2.71-.43-4.07-.03-.2.17-.41.31-.51.46-.29,1.05-.29,1.5.01.16.1.3.3.28.5l-.38,4.06Z"/>
          <path d="M349.61,118.28c-.46.31-1.05.31-1.5.03-.15-.1-.34-.3-.31-.5.17-1.37.16-2.71.42-4.07.08-.45,1.17-.45,1.26,0,.26,1.34.24,2.67.42,4.01.03.21-.1.42-.28.54Z"/>
          <path d="M346.09,110.09l-3.74-1.71c-.2-.09-.3-.32-.31-.53-.02-.52.26-1.01.72-1.25.16-.09.44-.15.61-.03,1.09.82,2.26,1.49,3.32,2.38.37.31-.12,1.12-.6,1.14Z"/>
          <path d="M343.42,115.22c-.2.14-.44.12-.63.03-.47-.23-.78-.74-.75-1.27.01-.21.11-.44.31-.54l3.7-1.7c.26-.06.51.22.6.38.11.18.26.62.04.77l-3.28,2.32Z"/>
          <path d="M355.62,113.95c.04.55-.26,1.05-.72,1.29-.17.09-.43.14-.61.02l-3.33-2.36c-.22-.15-.06-.59.04-.76s.38-.49.63-.37l3.68,1.68c.18.08.29.29.3.51Z"/>
        </g>
        <g>
          <path d="M213.12,108.35l-3.72,1.71c-.25.12-.53-.21-.63-.38-.11-.17-.25-.6-.04-.76l3.33-2.35c.17-.12.43-.08.6.01.88.46.87,1.59.47,1.77Z"/>
          <path d="M207.26,108.1c-.2.43-1.18.48-1.29,0-.28-1.35-.24-2.71-.43-4.07-.03-.2.17-.41.31-.51.46-.29,1.05-.29,1.5.01.16.1.3.3.28.5l-.38,4.06Z"/>
          <path d="M207.37,118.28c-.46.31-1.05.31-1.5.03-.15-.1-.34-.3-.31-.5.17-1.37.16-2.71.42-4.07.08-.45,1.17-.45,1.26,0,.26,1.34.24,2.67.42,4.01.03.21-.1.42-.28.54Z"/>
          <path d="M203.85,110.09l-3.74-1.71c-.2-.09-.3-.32-.31-.53-.02-.52.26-1.01.72-1.25.16-.09.44-.15.61-.03,1.09.82,2.26,1.49,3.32,2.38.37.31-.12,1.12-.6,1.14Z"/>
          <path d="M201.18,115.22c-.2.14-.44.12-.63.03-.47-.23-.78-.74-.75-1.27.01-.21.11-.44.31-.54l3.7-1.7c.26-.06.51.22.6.38.11.18.26.62.04.77l-3.28,2.32Z"/>
          <path d="M213.38,113.95c.04.55-.26,1.05-.72,1.29-.17.09-.43.14-.61.02l-3.33-2.36c-.22-.15-.06-.59.04-.76s.38-.49.63-.37l3.68,1.68c.18.08.29.29.3.51Z"/>
        </g>
        <g>
          <path d="M2.21,120.02c-.7-1.19-1.24-2.56-1.63-4.12-.39-1.55-.58-3.14-.58-4.76s.13-3.09.39-4.4c.26-1.31.65-2.56,1.18-3.76,1.13-2.55,2.85-4.59,5.16-6.11s5.15-2.29,8.53-2.29,6.18.84,8.42,2.51c2.24,1.67,3.36,3.71,3.36,6.12,0,1.64-.66,2.75-1.96,3.32-.4.18-.84.27-1.3.27-.89,0-1.62-.28-2.17-.84-.56-.56-.84-1.21-.84-1.94,0-1.48.59-2.49,1.78-3.05-.56-1.17-1.5-2.09-2.84-2.77-1.34-.67-2.71-1.01-4.12-1.01-2.97,0-5.39,1.11-7.26,3.32-1.87,2.21-2.81,5.53-2.81,9.96s.98,7.79,2.93,10.1c1.95,2.31,4.32,3.47,7.1,3.47,2.27,0,4.03-.57,5.28-1.71,1.25-1.14,1.87-2.4,1.87-3.77s-.31-2.24-.94-2.59-2.06-.53-4.3-.53v-2.78h9.57v13.69h-2.8l-.77-2.51c-1.2,1.25-3.05,2.13-5.56,2.63-.92.2-1.96.29-3.13.29s-2.36-.13-3.56-.39-2.36-.66-3.46-1.2c-1.1-.54-2.12-1.24-3.06-2.09s-1.76-1.87-2.46-3.06Z"/>
          <path d="M57.54,123.75c1.09,0,1.63-1.25,1.63-3.76h2.01c.15.5.23.94.23,1.32s0,.78-.02,1.22c-.01.44-.18,1.01-.5,1.72-.77,1.67-2.2,2.51-4.3,2.51s-3.58-.53-4.44-1.59-1.47-2.13-1.83-3.23-.66-2.05-.88-2.87c-.64-2.24-1.16-3.71-1.55-4.39-.71-1.31-1.68-1.96-2.9-1.96h-4.6v8c0,.71.03,1.28.1,1.71.07.43.32.81.74,1.13.42.32,1.72.48,3.9.48v2.3h-12.93v-2.3c1.46,0,2.38-.13,2.74-.39.36-.26.58-.53.65-.83.07-.29.1-.65.1-1.07v-22.19c0-.91-.15-1.47-.46-1.69-.56-.39-1.57-.58-3.05-.58v-2.3h12.83c6.85,0,10.66,2.12,11.43,6.35.12.7.19,1.51.19,2.44,0,2.01-.63,3.72-1.89,5.13-1.26,1.41-2.98,2.43-5.15,3.06,1.88.57,3.28,2.08,4.2,4.51.31.79.64,1.82,1,3.07.36,1.25.65,2.12.88,2.59.49,1.06,1.11,1.59,1.88,1.59ZM45.05,110.63c2.38,0,4.07-.57,5.06-1.72s1.48-2.81,1.48-4.97-.58-3.81-1.73-4.94c-1.16-1.13-3.18-1.69-6.08-1.69h-3.38v13.33h4.66Z"/>
          <path d="M61.26,124.04c1.16,0,2.03-.18,2.62-.53.59-.36,1.05-.94,1.37-1.75l11.28-26.77h3.57l10.32,26.77c.38.89.79,1.49,1.25,1.81.46.31,1.36.47,2.7.47v2.3h-12.89v-2.3c1.84,0,2.93-.12,3.27-.38.34-.25.5-.52.48-.81-.02-.29-.11-.66-.28-1.09l-1.88-5.24h-12.14l-2.15,5.24c-.32.84-.22,1.42.29,1.77.51.34,1.72.51,3.61.51v2.3h-11.43v-2.3ZM82.26,114.22l-4.85-13.54-5.54,13.54h10.38Z"/>
          <path d="M111.2,124.04c4.39,0,7.16-2.02,8.32-6.06h3.01c0,1.09-.29,2.16-.88,3.21s-1.41,1.99-2.47,2.81c-2.34,1.84-5.35,2.76-9.03,2.76s-6.83-1.23-9.44-3.68c-3.04-2.83-4.55-6.96-4.55-12.41,0-4.35,1.17-8.01,3.51-10.99,1.66-2.13,3.87-3.62,6.62-4.45,1.42-.43,2.98-.65,4.68-.65,3.36,0,6.12.77,8.27,2.31s3.24,3.47,3.24,5.8c0,1.74-.68,2.91-2.05,3.51-.4.18-.84.27-1.32.27-1.46,0-2.45-.62-2.95-1.86-.15-.39-.23-.85-.23-1.39s.15-1.07.46-1.59.71-.92,1.21-1.2c-1.13-2.16-3.15-3.24-6.06-3.24s-5.28,1.1-7.1,3.31c-1.83,2.21-2.74,5.52-2.74,9.95s.93,7.79,2.78,10.11,4.09,3.48,6.71,3.48Z"/>
          <path d="M127.37,124.04c1.32,0,2.19-.13,2.59-.39.4-.26.66-.53.77-.83.11-.29.17-.65.17-1.07l-.02-22.19c0-.91-.16-1.47-.48-1.69-.54-.39-1.55-.58-3.03-.58v-2.3h11.74v2.3c-1.32,0-2.19.13-2.59.39s-.66.53-.77.83c-.11.29-.17.65-.17,1.07l.02,22.19c0,.91.16,1.47.48,1.69.54.39,1.55.58,3.03.58v2.3h-11.74v-2.3Z"/>
          <path d="M140.54,124.04c1.16,0,2.03-.18,2.62-.53.59-.36,1.05-.94,1.37-1.75l11.28-26.77h3.57l10.32,26.77c.38.89.79,1.49,1.25,1.81.46.31,1.36.47,2.7.47v2.3h-12.89v-2.3c1.84,0,2.93-.12,3.27-.38.34-.25.5-.52.48-.81-.02-.29-.11-.66-.28-1.09l-1.88-5.24h-12.14l-2.15,5.24c-.32.84-.22,1.42.29,1.77.51.34,1.72.51,3.61.51v2.3h-11.43v-2.3ZM161.53,114.22l-4.85-13.54-5.54,13.54h10.38Z"/>
          <path d="M191.35,98.55c-.72-.98-2.27-1.46-4.65-1.46s-4.02.79-4.92,2.38c-.31.54-.46,1.21-.46,2.01,0,1.46.66,2.8,1.96,4.01.86.81,2.06,1.64,3.58,2.49s2.81,1.61,3.85,2.28c3.94,2.51,5.91,5.25,5.91,8.23,0,2.65-.97,4.69-2.91,6.12s-4.46,2.15-7.54,2.15-5.56-.61-7.42-1.83c-1.86-1.22-2.79-2.62-2.79-4.2s.63-2.65,1.9-3.21c.39-.18.82-.27,1.27-.27.88,0,1.6.29,2.16.88.56.58.85,1.32.85,2.21s-.4,1.65-1.21,2.28c1.09,1.09,2.89,1.63,5.4,1.63s4.24-.85,5.17-2.55c.33-.58.5-1.27.5-2.05,0-1.35-.7-2.6-2.09-3.76-.72-.6-1.95-1.38-3.67-2.33-1.72-.95-3.08-1.75-4.06-2.39-3.64-2.34-5.45-5.1-5.45-8.27,0-2.48.94-4.49,2.81-6.02,1.87-1.53,4.19-2.3,6.96-2.3s5.04.59,6.81,1.78c1.78,1.18,2.66,2.63,2.66,4.33,0,.92-.28,1.69-.85,2.31-.56.62-1.28.93-2.14.93-1.32,0-2.24-.58-2.76-1.73-.15-.35-.23-.72-.23-1.11,0-1.07.45-1.92,1.34-2.53Z"/>
          <path d="M214.37,124.04c1.32,0,2.19-.13,2.59-.39.4-.26.66-.53.77-.83.11-.29.17-.65.17-1.07l-.02-22.19c0-.91-.15-1.47-.46-1.69-.56-.39-1.57-.58-3.05-.58v-2.3h11.74v2.3c-1.32,0-2.19.13-2.59.39-.4.26-.66.53-.77.83-.11.29-.17.65-.17,1.07v9.34h15.57v-9.34c0-.91-.15-1.47-.46-1.69-.56-.39-1.57-.58-3.05-.58v-2.3h11.74v2.3c-1.32,0-2.19.13-2.59.39-.4.26-.66.53-.77.83-.11.29-.17.65-.17,1.07l.02,22.19c0,.91.15,1.47.46,1.69.56.39,1.57.58,3.05.58v2.3h-11.74v-2.3c1.32,0,2.19-.13,2.59-.39.4-.26.66-.53.77-.83.11-.29.17-.65.17-1.07l-.02-10.13h-15.57l.02,10.13c0,.91.15,1.47.46,1.69.56.39,1.57.58,3.05.58v2.3h-11.74v-2.3Z"/>
          <path d="M247.64,124.04c1.16,0,2.03-.18,2.62-.53.59-.36,1.05-.94,1.37-1.75l11.28-26.77h3.57l10.32,26.77c.38.89.79,1.49,1.25,1.81.46.31,1.36.47,2.7.47v2.3h-12.89v-2.3c1.84,0,2.93-.12,3.27-.38.34-.25.5-.52.48-.81-.02-.29-.11-.66-.28-1.09l-1.88-5.24h-12.14l-2.15,5.24c-.32.84-.22,1.42.29,1.77.51.34,1.72.51,3.61.51v2.3h-11.43v-2.3ZM268.64,114.22l-4.85-13.54-5.54,13.54h10.38Z"/>
          <path d="M282.3,124c1.36,0,2.25-.13,2.65-.4.4-.26.67-.55.78-.85.12-.3.18-.66.18-1.08v-22.02c0-.91-.17-1.48-.5-1.71-.56-.4-1.59-.61-3.11-.61v-2.34h7.21l17.93,22.75v-18.09c0-.92-.16-1.49-.48-1.71-.56-.4-1.59-.61-3.09-.61v-2.34h10.53v2.34c-1.37,0-2.25.13-2.65.4s-.67.55-.78.85c-.12.3-.18.66-.18,1.08v26.68h-2.57l-18.95-24.05v19.39c0,.91.17,1.48.5,1.71.56.4,1.6.61,3.13.61v2.34h-10.59v-2.34Z"/>
          <path d="M332.93,98.55c-.72-.98-2.27-1.46-4.65-1.46s-4.02.79-4.92,2.38c-.31.54-.46,1.21-.46,2.01,0,1.46.66,2.8,1.96,4.01.86.81,2.06,1.64,3.58,2.49s2.81,1.61,3.85,2.28c3.94,2.51,5.91,5.25,5.91,8.23,0,2.65-.97,4.69-2.91,6.12s-4.46,2.15-7.54,2.15-5.56-.61-7.42-1.83c-1.86-1.22-2.79-2.62-2.79-4.2s.63-2.65,1.9-3.21c.39-.18.82-.27,1.27-.27.88,0,1.6.29,2.16.88.56.58.85,1.32.85,2.21s-.4,1.65-1.21,2.28c1.09,1.09,2.89,1.63,5.4,1.63s4.24-.85,5.17-2.55c.33-.58.5-1.27.5-2.05,0-1.35-.7-2.6-2.09-3.76-.72-.6-1.95-1.38-3.67-2.33-1.72-.95-3.08-1.75-4.06-2.39-3.64-2.34-5.45-5.1-5.45-8.27,0-2.48.94-4.49,2.81-6.02,1.87-1.53,4.19-2.3,6.96-2.3s5.04.59,6.81,1.78c1.78,1.18,2.66,2.63,2.66,4.33,0,.92-.28,1.69-.85,2.31-.56.62-1.28.93-2.14.93-1.32,0-2.24-.58-2.76-1.73-.15-.35-.23-.72-.23-1.11,0-1.07.45-1.92,1.34-2.53Z"/>
          <path d="M355.97,124.04c1.46,0,2.38-.13,2.74-.39.36-.26.58-.53.65-.83.07-.29.1-.65.1-1.07v-22.19c0-.91-.15-1.47-.46-1.69-.56-.39-1.57-.58-3.05-.58v-2.3h11.43c5.71,0,9.42,1.59,11.14,4.76.68,1.25,1.02,2.77,1.02,4.54s-.36,3.31-1.07,4.61c-1.94,3.48-5.79,5.22-11.58,5.22-.26,0-.53,0-.79-.02h-1.94v6.6c0,.71.04,1.28.12,1.71.08.43.35.81.83,1.13s1.94.48,4.39.48v2.3h-13.52v-2.3ZM366.48,112.03c2.59,0,4.58-.64,5.96-1.93,1.38-1.29,2.07-3.24,2.07-5.84,0-3.18-1.32-5.3-3.97-6.37-.95-.39-2.1-.58-3.45-.58h-2.92v14.73h2.32Z"/>
          <path d="M382.47,124.04c1.35,0,2.22-.12,2.61-.38.39-.25.64-.52.75-.8.11-.29.17-.64.17-1.05v-22.23c0-.86-.26-1.46-.77-1.79s-1.43-.49-2.74-.49v-2.3h22.73l.81,7.58-3.03.02-.56-2.36c-.28-1.13-.56-1.84-.86-2.13-.52-.51-1.39-.77-2.61-.77h-8.27v12.16h4.05c1.57,0,2.54-.1,2.89-.31s.6-.51.73-.9c.13-.39.2-.95.2-1.69h2.72v8.09h-2.72c0-1.3-.25-2.1-.76-2.41s-1.53-.47-3.06-.47h-4.05v12.24h8.88c1.62,0,2.69-.54,3.22-1.63.17-.33.33-.68.5-1.04l.94-2.57h3.03l-.82,7.54h-23.99v-2.3Z"/>
          <path d="M416.59,124.04c1.57,0,2.62-.13,3.13-.39.51-.26.85-.53,1-.83.15-.29.23-.65.23-1.07v-24.34h-4.28c-2.3,0-3.62,1.22-3.95,3.66l-.61,4.24-3.03-.02.92-10.3h26.6l.92,10.3-3.03.02-.61-4.24c-.15-1.13-.45-1.93-.9-2.4-.81-.84-1.83-1.25-3.05-1.25h-4.28v24.34c0,.88.29,1.48.87,1.8s1.74.48,3.5.48v2.3h-13.44v-2.3Z"/>
          <path d="M439.17,124.04c1.35,0,2.22-.12,2.61-.38.39-.25.64-.52.75-.8.11-.29.17-.64.17-1.05v-22.23c0-.86-.26-1.46-.77-1.79s-1.43-.49-2.74-.49v-2.3h22.73l.81,7.58-3.03.02-.56-2.36c-.28-1.13-.56-1.84-.86-2.13-.52-.51-1.39-.77-2.61-.77h-8.27v12.16h4.05c1.57,0,2.54-.1,2.89-.31s.6-.51.73-.9c.13-.39.2-.95.2-1.69h2.72v8.09h-2.72c0-1.3-.25-2.1-.76-2.41s-1.53-.47-3.06-.47h-4.05v12.24h8.88c1.62,0,2.69-.54,3.22-1.63.17-.33.33-.68.5-1.04l.94-2.57h3.03l-.82,7.54h-23.99v-2.3Z"/>
          <path d="M492.5,123.75c1.09,0,1.63-1.25,1.63-3.76h2.01c.15.5.23.94.23,1.32s0,.78-.02,1.22c-.01.44-.18,1.01-.5,1.72-.77,1.67-2.2,2.51-4.3,2.51s-3.58-.53-4.44-1.59-1.47-2.13-1.83-3.23-.66-2.05-.88-2.87c-.64-2.24-1.16-3.71-1.55-4.39-.71-1.31-1.68-1.96-2.9-1.96h-4.6v8c0,.71.03,1.28.1,1.71.07.43.32.81.74,1.13.42.32,1.72.48,3.9.48v2.3h-12.93v-2.3c1.46,0,2.38-.13,2.74-.39.36-.26.58-.53.65-.83.07-.29.1-.65.1-1.07v-22.19c0-.91-.15-1.47-.46-1.69-.56-.39-1.57-.58-3.05-.58v-2.3h12.83c6.85,0,10.66,2.12,11.43,6.35.12.7.19,1.51.19,2.44,0,2.01-.63,3.72-1.89,5.13-1.26,1.41-2.98,2.43-5.15,3.06,1.88.57,3.28,2.08,4.2,4.51.31.79.64,1.82,1,3.07.36,1.25.65,2.12.88,2.59.49,1.06,1.11,1.59,1.88,1.59ZM480,110.63c2.38,0,4.07-.57,5.06-1.72s1.48-2.81,1.48-4.97-.58-3.81-1.73-4.94c-1.16-1.13-3.18-1.69-6.08-1.69h-3.38v13.33h4.66Z"/>
          <path d="M514,98.55c-.72-.98-2.27-1.46-4.65-1.46s-4.02.79-4.92,2.38c-.31.54-.46,1.21-.46,2.01,0,1.46.66,2.8,1.96,4.01.86.81,2.06,1.64,3.58,2.49s2.81,1.61,3.85,2.28c3.94,2.51,5.91,5.25,5.91,8.23,0,2.65-.97,4.69-2.91,6.12s-4.46,2.15-7.54,2.15-5.56-.61-7.42-1.83c-1.86-1.22-2.79-2.62-2.79-4.2s.63-2.65,1.9-3.21c.39-.18.82-.27,1.27-.27.88,0,1.6.29,2.16.88.56.58.85,1.32.85,2.21s-.4,1.65-1.21,2.28c1.09,1.09,2.89,1.63,5.4,1.63s4.24-.85,5.17-2.55c.33-.58.5-1.27.5-2.05,0-1.35-.7-2.6-2.09-3.76-.72-.6-1.95-1.38-3.67-2.33-1.72-.95-3.08-1.75-4.06-2.39-3.64-2.34-5.45-5.1-5.45-8.27,0-2.48.94-4.49,2.81-6.02,1.87-1.53,4.19-2.3,6.96-2.3s5.04.59,6.81,1.78c1.78,1.18,2.66,2.63,2.66,4.33,0,.92-.28,1.69-.85,2.31-.56.62-1.28.93-2.14.93-1.32,0-2.24-.58-2.76-1.73-.15-.35-.23-.72-.23-1.11,0-1.07.45-1.92,1.34-2.53Z"/>
          <path d="M522.73,124.04c1.35,0,2.22-.12,2.61-.38.39-.25.64-.52.75-.8.11-.29.17-.64.17-1.05v-22.23c0-.86-.26-1.46-.77-1.79s-1.43-.49-2.74-.49v-2.3h22.73l.81,7.58-3.03.02-.56-2.36c-.28-1.13-.56-1.84-.86-2.13-.52-.51-1.39-.77-2.61-.77h-8.27v12.16h4.05c1.57,0,2.54-.1,2.89-.31s.6-.51.73-.9c.13-.39.2-.95.2-1.69h2.72v8.09h-2.72c0-1.3-.25-2.1-.76-2.41s-1.53-.47-3.06-.47h-4.05v12.24h8.88c1.62,0,2.69-.54,3.22-1.63.17-.33.33-.68.5-1.04l.94-2.57h3.03l-.82,7.54h-23.99v-2.3Z"/>
          <path d="M550.58,124c1.36,0,2.25-.13,2.65-.4.4-.26.67-.55.78-.85.12-.3.18-.66.18-1.08v-22.02c0-.91-.17-1.48-.5-1.71-.56-.4-1.59-.61-3.11-.61v-2.34h7.21l17.93,22.75v-18.09c0-.92-.16-1.49-.48-1.71-.56-.4-1.59-.61-3.09-.61v-2.34h10.53v2.34c-1.37,0-2.25.13-2.65.4s-.67.55-.78.85c-.12.3-.18.66-.18,1.08v26.68h-2.57l-18.95-24.05v19.39c0,.91.17,1.48.5,1.71.56.4,1.6.61,3.13.61v2.34h-10.59v-2.34Z"/>
          <path d="M599.46,124.04c1.46,0,2.38-.13,2.74-.39.36-.26.58-.53.65-.83.07-.29.1-.65.1-1.07v-22.19c0-.91-.15-1.47-.46-1.69-.56-.39-1.57-.58-3.05-.58v-2.3h11.43c5.71,0,9.42,1.59,11.14,4.76.68,1.25,1.02,2.77,1.02,4.54s-.36,3.31-1.07,4.61c-1.94,3.48-5.79,5.22-11.58,5.22-.26,0-.53,0-.79-.02h-1.94v6.6c0,.71.04,1.28.12,1.71.08.43.35.81.83,1.13s1.94.48,4.39.48v2.3h-13.52v-2.3ZM609.96,112.03c2.59,0,4.58-.64,5.96-1.93,1.38-1.29,2.07-3.24,2.07-5.84,0-3.18-1.32-5.3-3.97-6.37-.95-.39-2.1-.58-3.45-.58h-2.92v14.73h2.32Z"/>
          <path d="M626.09,110.67c0-2.65.4-5,1.21-7.05.81-2.05,1.89-3.75,3.26-5.09,2.69-2.63,6.12-3.95,10.3-3.95s7.61,1.3,10.3,3.89c2.98,2.86,4.47,6.89,4.47,12.1s-1.37,9.21-4.11,12-6.29,4.19-10.67,4.19-7.91-1.41-10.66-4.24c-2.74-2.83-4.12-6.78-4.12-11.85ZM640.93,124.04c2.44,0,4.49-.91,6.14-2.72,2.09-2.28,3.13-5.76,3.13-10.43s-.89-8.1-2.67-10.3c-1.78-2.2-4.03-3.3-6.73-3.3s-4.91,1.1-6.65,3.29c-1.75,2.19-2.62,5.48-2.62,9.87,0,6.31,1.73,10.47,5.18,12.47,1.27.74,2.67,1.11,4.22,1.11Z"/>
          <path d="M684.14,123.75c1.09,0,1.63-1.25,1.63-3.76h2.01c.15.5.23.94.23,1.32s0,.78-.02,1.22c-.01.44-.18,1.01-.5,1.72-.77,1.67-2.2,2.51-4.3,2.51s-3.58-.53-4.44-1.59-1.47-2.13-1.83-3.23-.66-2.05-.88-2.87c-.64-2.24-1.16-3.71-1.55-4.39-.71-1.31-1.68-1.96-2.9-1.96h-4.6v8c0,.71.03,1.28.1,1.71.07.43.32.81.74,1.13.42.32,1.72.48,3.9.48v2.3h-12.93v-2.3c1.46,0,2.38-.13,2.74-.39.36-.26.58-.53.65-.83.07-.29.1-.65.1-1.07v-22.19c0-.91-.15-1.47-.46-1.69-.56-.39-1.57-.58-3.05-.58v-2.3h12.83c6.85,0,10.66,2.12,11.43,6.35.12.7.19,1.51.19,2.44,0,2.01-.63,3.72-1.89,5.13-1.26,1.41-2.98,2.43-5.15,3.06,1.88.57,3.28,2.08,4.2,4.51.31.79.64,1.82,1,3.07.36,1.25.65,2.12.88,2.59.49,1.06,1.11,1.59,1.88,1.59ZM671.64,110.63c2.38,0,4.07-.57,5.06-1.72s1.48-2.81,1.48-4.97-.58-3.81-1.73-4.94c-1.16-1.13-3.18-1.69-6.08-1.69h-3.38v13.33h4.66Z"/>
          <path d="M703.88,124.04c1.46,0,2.38-.13,2.74-.39.36-.26.58-.53.65-.83.07-.29.1-.65.1-1.07v-22.19c0-.91-.15-1.47-.46-1.69-.56-.39-1.57-.58-3.05-.58v-2.3h11.43c5.71,0,9.42,1.59,11.14,4.76.68,1.25,1.02,2.77,1.02,4.54s-.36,3.31-1.07,4.61c-1.94,3.48-5.79,5.22-11.58,5.22-.26,0-.53,0-.79-.02h-1.94v6.6c0,.71.04,1.28.12,1.71.08.43.35.81.83,1.13s1.94.48,4.39.48v2.3h-13.52v-2.3ZM714.39,112.03c2.59,0,4.58-.64,5.96-1.93,1.38-1.29,2.07-3.24,2.07-5.84,0-3.18-1.32-5.3-3.97-6.37-.95-.39-2.1-.58-3.45-.58h-2.92v14.73h2.32Z"/>
          <path d="M755.76,123.75c1.09,0,1.63-1.25,1.63-3.76h2.01c.15.5.23.94.23,1.32s0,.78-.02,1.22c-.01.44-.18,1.01-.5,1.72-.77,1.67-2.2,2.51-4.3,2.51s-3.58-.53-4.44-1.59-1.47-2.13-1.83-3.23-.66-2.05-.88-2.87c-.64-2.24-1.16-3.71-1.55-4.39-.71-1.31-1.68-1.96-2.9-1.96h-4.6v8c0,.71.03,1.28.1,1.71.07.43.32.81.74,1.13.42.32,1.72.48,3.9.48v2.3h-12.93v-2.3c1.46,0,2.38-.13,2.74-.39.36-.26.58-.53.65-.83.07-.29.1-.65.1-1.07v-22.19c0-.91-.15-1.47-.46-1.69-.56-.39-1.57-.58-3.05-.58v-2.3h12.83c6.85,0,10.66,2.12,11.43,6.35.12.7.19,1.51.19,2.44,0,2.01-.63,3.72-1.89,5.13-1.26,1.41-2.98,2.43-5.15,3.06,1.88.57,3.28,2.08,4.2,4.51.31.79.64,1.82,1,3.07.36,1.25.65,2.12.88,2.59.49,1.06,1.11,1.59,1.88,1.59ZM743.27,110.63c2.38,0,4.07-.57,5.06-1.72s1.48-2.81,1.48-4.97-.58-3.81-1.73-4.94c-1.16-1.13-3.18-1.69-6.08-1.69h-3.38v13.33h4.66Z"/>
          <path d="M761.2,124.04c1.35,0,2.22-.12,2.61-.38.39-.25.64-.52.75-.8.11-.29.17-.64.17-1.05v-22.23c0-.86-.26-1.46-.77-1.79s-1.43-.49-2.74-.49v-2.3h22.73l.81,7.58-3.03.02-.56-2.36c-.28-1.13-.56-1.84-.86-2.13-.52-.51-1.39-.77-2.61-.77h-8.27v12.16h4.05c1.57,0,2.54-.1,2.89-.31s.6-.51.73-.9c.13-.39.2-.95.2-1.69h2.72v8.09h-2.72c0-1.3-.25-2.1-.76-2.41s-1.53-.47-3.06-.47h-4.05v12.24h8.88c1.62,0,2.69-.54,3.22-1.63.17-.33.33-.68.5-1.04l.94-2.57h3.03l-.82,7.54h-23.99v-2.3Z"/>
          <path d="M805.2,98.55c-.72-.98-2.27-1.46-4.65-1.46s-4.02.79-4.92,2.38c-.31.54-.46,1.21-.46,2.01,0,1.46.66,2.8,1.96,4.01.86.81,2.06,1.64,3.58,2.49s2.81,1.61,3.85,2.28c3.94,2.51,5.91,5.25,5.91,8.23,0,2.65-.97,4.69-2.91,6.12s-4.46,2.15-7.54,2.15-5.56-.61-7.42-1.83c-1.86-1.22-2.79-2.62-2.79-4.2s.63-2.65,1.9-3.21c.39-.18.82-.27,1.27-.27.88,0,1.6.29,2.16.88.56.58.85,1.32.85,2.21s-.4,1.65-1.21,2.28c1.09,1.09,2.89,1.63,5.4,1.63s4.24-.85,5.17-2.55c.33-.58.5-1.27.5-2.05,0-1.35-.7-2.6-2.09-3.76-.72-.6-1.95-1.38-3.67-2.33-1.72-.95-3.08-1.75-4.06-2.39-3.64-2.34-5.45-5.1-5.45-8.27,0-2.48.94-4.49,2.81-6.02,1.87-1.53,4.19-2.3,6.96-2.3s5.04.59,6.81,1.78c1.78,1.18,2.66,2.63,2.66,4.33,0,.92-.28,1.69-.85,2.31-.56.62-1.28.93-2.14.93-1.32,0-2.24-.58-2.76-1.73-.15-.35-.23-.72-.23-1.11,0-1.07.45-1.92,1.34-2.53Z"/>
          <path d="M820.12,124.04c1.57,0,2.62-.13,3.13-.39.51-.26.85-.53,1-.83.15-.29.23-.65.23-1.07v-24.34h-4.28c-2.3,0-3.62,1.22-3.95,3.66l-.61,4.24-3.03-.02.92-10.3h26.6l.92,10.3-3.03.02-.61-4.24c-.15-1.13-.45-1.93-.9-2.4-.81-.84-1.83-1.25-3.05-1.25h-4.28v24.34c0,.88.29,1.48.87,1.8s1.74.48,3.5.48v2.3h-13.44v-2.3Z"/>
          <path d="M840.99,124.04c1.16,0,2.03-.18,2.62-.53.59-.36,1.05-.94,1.37-1.75l11.28-26.77h3.57l10.32,26.77c.38.89.79,1.49,1.25,1.81.46.31,1.36.47,2.7.47v2.3h-12.89v-2.3c1.84,0,2.93-.12,3.27-.38.34-.25.5-.52.48-.81-.02-.29-.11-.66-.28-1.09l-1.88-5.24h-12.14l-2.15,5.24c-.32.84-.22,1.42.29,1.77.51.34,1.72.51,3.61.51v2.3h-11.43v-2.3ZM861.99,114.22l-4.85-13.54-5.54,13.54h10.38Z"/>
          <path d="M901.13,123.75c1.09,0,1.63-1.25,1.63-3.76h2.01c.15.5.23.94.23,1.32s0,.78-.02,1.22c-.01.44-.18,1.01-.5,1.72-.77,1.67-2.2,2.51-4.3,2.51s-3.58-.53-4.44-1.59-1.47-2.13-1.83-3.23-.66-2.05-.88-2.87c-.64-2.24-1.16-3.71-1.55-4.39-.71-1.31-1.68-1.96-2.9-1.96h-4.6v8c0,.71.03,1.28.1,1.71.07.43.32.81.74,1.13.42.32,1.72.48,3.9.48v2.3h-12.93v-2.3c1.46,0,2.38-.13,2.74-.39.36-.26.58-.53.65-.83.07-.29.1-.65.1-1.07v-22.19c0-.91-.15-1.47-.46-1.69-.56-.39-1.57-.58-3.05-.58v-2.3h12.83c6.85,0,10.66,2.12,11.43,6.35.12.7.19,1.51.19,2.44,0,2.01-.63,3.72-1.89,5.13-1.26,1.41-2.98,2.43-5.15,3.06,1.88.57,3.28,2.08,4.2,4.51.31.79.64,1.82,1,3.07.36,1.25.65,2.12.88,2.59.49,1.06,1.11,1.59,1.88,1.59ZM888.63,110.63c2.38,0,4.07-.57,5.06-1.72s1.48-2.81,1.48-4.97-.58-3.81-1.73-4.94c-1.16-1.13-3.18-1.69-6.08-1.69h-3.38v13.33h4.66Z"/>
          <path d="M906.79,124.04c1.31,0,2.17-.13,2.57-.39.4-.26.66-.53.77-.83.11-.29.17-.65.17-1.07v-22.19c0-.91-.15-1.47-.46-1.69-.56-.39-1.57-.58-3.05-.58v-2.3h9.86l9.26,24.17,8.88-24.17h9.76v2.3c-1.32,0-2.19.13-2.59.39s-.66.53-.77.83c-.11.29-.17.65-.17,1.07v22.19c0,.89.16,1.46.48,1.69.56.39,1.57.58,3.05.58v2.3h-11.6v-2.3c1.31,0,2.16-.13,2.54-.39.38-.26.62-.53.72-.83.1-.29.15-.65.15-1.07v-22.29l-9.69,26.87h-2.32l-10.7-26.89v22.31c0,.91.15,1.47.46,1.69.56.39,1.57.58,3.05.58v2.3h-10.36v-2.3Z"/>
          <path d="M947.72,124.04c1.35,0,2.22-.12,2.61-.38.39-.25.64-.52.75-.8.11-.29.17-.64.17-1.05v-22.23c0-.86-.26-1.46-.77-1.79s-1.43-.49-2.74-.49v-2.3h22.73l.81,7.58-3.03.02-.56-2.36c-.28-1.13-.56-1.84-.86-2.13-.52-.51-1.39-.77-2.61-.77h-8.27v12.16h4.05c1.57,0,2.54-.1,2.89-.31s.6-.51.73-.9c.13-.39.2-.95.2-1.69h2.72v8.09h-2.72c0-1.3-.25-2.1-.76-2.41s-1.53-.47-3.06-.47h-4.05v12.24h8.88c1.62,0,2.69-.54,3.22-1.63.17-.33.33-.68.5-1.04l.94-2.57h3.03l-.82,7.54h-23.99v-2.3Z"/>
          <path d="M989.95,124.04c1.32,0,2.19-.13,2.59-.39.4-.26.66-.53.77-.83.11-.29.17-.65.17-1.07l-.02-22.19c0-.91-.15-1.47-.46-1.69-.56-.39-1.57-.58-3.05-.58v-2.3h11.76v2.3c-1.32,0-2.19.13-2.59.39s-.66.53-.77.83c-.11.29-.17.65-.17,1.07v24.34h7.21c2.23,0,3.76-1.22,4.6-3.66l.84-2.36,2.88.02-1.44,8.42h-22.32v-2.3Z"/>
          <path d="M1014.87,124.04c1.16,0,2.03-.18,2.62-.53.59-.36,1.05-.94,1.37-1.75l11.28-26.77h3.57l10.32,26.77c.38.89.79,1.49,1.25,1.81.46.31,1.36.47,2.7.47v2.3h-12.89v-2.3c1.84,0,2.93-.12,3.27-.38.34-.25.5-.52.48-.81-.02-.29-.11-.66-.28-1.09l-1.88-5.24h-12.14l-2.15,5.24c-.32.84-.22,1.42.29,1.77.51.34,1.72.51,3.61.51v2.3h-11.43v-2.3ZM1035.87,114.22l-4.85-13.54-5.54,13.54h10.38Z"/>
          <path d="M1079.08,124.04c4.39,0,7.16-2.02,8.32-6.06h3.01c0,1.09-.29,2.16-.88,3.21s-1.41,1.99-2.47,2.81c-2.34,1.84-5.35,2.76-9.03,2.76s-6.83-1.23-9.44-3.68c-3.04-2.83-4.55-6.96-4.55-12.41,0-4.35,1.17-8.01,3.51-10.99,1.66-2.13,3.87-3.62,6.62-4.45,1.42-.43,2.98-.65,4.68-.65,3.36,0,6.12.77,8.27,2.31s3.24,3.47,3.24,5.8c0,1.74-.68,2.91-2.05,3.51-.4.18-.84.27-1.32.27-1.46,0-2.45-.62-2.95-1.86-.15-.39-.23-.85-.23-1.39s.15-1.07.46-1.59.71-.92,1.21-1.2c-1.13-2.16-3.15-3.24-6.06-3.24s-5.28,1.1-7.1,3.31c-1.83,2.21-2.74,5.52-2.74,9.95s.93,7.79,2.78,10.11,4.09,3.48,6.71,3.48Z"/>
          <path d="M1093.33,124.04c1.16,0,2.03-.18,2.62-.53.59-.36,1.05-.94,1.37-1.75l11.28-26.77h3.57l10.32,26.77c.38.89.79,1.49,1.25,1.81.46.31,1.36.47,2.7.47v2.3h-12.89v-2.3c1.84,0,2.93-.12,3.27-.38.34-.25.5-.52.48-.81-.02-.29-.11-.66-.28-1.09l-1.88-5.24h-12.14l-2.15,5.24c-.32.84-.22,1.42.29,1.77.51.34,1.72.51,3.61.51v2.3h-11.43v-2.3ZM1114.33,114.22l-4.85-13.54-5.54,13.54h10.38Z"/>
          <path d="M1128.31,124.04c1.31,0,2.17-.13,2.57-.39.4-.26.66-.53.77-.83.11-.29.17-.65.17-1.07v-22.19c0-.91-.15-1.47-.46-1.69-.56-.39-1.57-.58-3.05-.58v-2.3h9.86l9.26,24.17,8.88-24.17h9.76v2.3c-1.32,0-2.19.13-2.59.39s-.66.53-.77.83c-.11.29-.17.65-.17,1.07v22.19c0,.89.16,1.46.48,1.69.56.39,1.57.58,3.05.58v2.3h-11.6v-2.3c1.31,0,2.16-.13,2.54-.39.38-.26.62-.53.72-.83.1-.29.15-.65.15-1.07v-22.29l-9.69,26.87h-2.32l-10.7-26.89v22.31c0,.91.15,1.47.46,1.69.56.39,1.57.58,3.05.58v2.3h-10.36v-2.3Z"/>
          <path d="M1199.58,98.55c-.72-.98-2.27-1.46-4.65-1.46s-4.02.79-4.92,2.38c-.31.54-.46,1.21-.46,2.01,0,1.46.66,2.8,1.96,4.01.86.81,2.06,1.64,3.58,2.49s2.81,1.61,3.85,2.28c3.94,2.51,5.91,5.25,5.91,8.23,0,2.65-.97,4.69-2.91,6.12s-4.46,2.15-7.54,2.15-5.56-.61-7.42-1.83c-1.86-1.22-2.79-2.62-2.79-4.2s.63-2.65,1.9-3.21c.39-.18.82-.27,1.27-.27.88,0,1.6.29,2.16.88.56.58.85,1.32.85,2.21s-.4,1.65-1.21,2.28c1.09,1.09,2.89,1.63,5.4,1.63s4.24-.85,5.17-2.55c.33-.58.5-1.27.5-2.05,0-1.35-.7-2.6-2.09-3.76-.72-.6-1.95-1.38-3.67-2.33-1.72-.95-3.08-1.75-4.06-2.39-3.64-2.34-5.45-5.1-5.45-8.27,0-2.48.94-4.49,2.81-6.02,1.87-1.53,4.19-2.3,6.96-2.3s5.04.59,6.81,1.78c1.78,1.18,2.66,2.63,2.66,4.33,0,.92-.28,1.69-.85,2.31-.56.62-1.28.93-2.14.93-1.32,0-2.24-.58-2.76-1.73-.15-.35-.23-.72-.23-1.11,0-1.07.45-1.92,1.34-2.53Z"/>
          <path d="M1208.46,110.67c0-2.65.4-5,1.21-7.05.81-2.05,1.89-3.75,3.26-5.09,2.69-2.63,6.12-3.95,10.3-3.95s7.61,1.3,10.3,3.89c2.98,2.86,4.47,6.89,4.47,12.1s-1.37,9.21-4.11,12-6.29,4.19-10.67,4.19-7.91-1.41-10.66-4.24c-2.74-2.83-4.12-6.78-4.12-11.85ZM1223.29,124.04c2.44,0,4.49-.91,6.14-2.72,2.09-2.28,3.13-5.76,3.13-10.43s-.89-8.1-2.67-10.3c-1.78-2.2-4.03-3.3-6.73-3.3s-4.91,1.1-6.65,3.29c-1.75,2.19-2.62,5.48-2.62,9.87,0,6.31,1.73,10.47,5.18,12.47,1.27.74,2.67,1.11,4.22,1.11Z"/>
          <path d="M1241.03,124c1.36,0,2.25-.13,2.65-.4.4-.26.67-.55.78-.85.12-.3.18-.66.18-1.08v-22.02c0-.91-.17-1.48-.5-1.71-.56-.4-1.59-.61-3.11-.61v-2.34h7.21l17.93,22.75v-18.09c0-.92-.16-1.49-.48-1.71-.56-.4-1.59-.61-3.09-.61v-2.34h10.53v2.34c-1.37,0-2.25.13-2.65.4s-.67.55-.78.85c-.12.3-.18.66-.18,1.08v26.68h-2.57l-18.95-24.05v19.39c0,.91.17,1.48.5,1.71.56.4,1.6.61,3.13.61v2.34h-10.59v-2.34Z"/>
          <path d="M1282.17,124.04c1.57,0,2.62-.13,3.12-.39.51-.26.84-.53.98-.83.15-.29.22-.65.22-1.07l-.02-5.93-8.73-16.26c-.47-.85-.95-1.4-1.44-1.65-.82-.42-1.87-.63-3.13-.63v-2.3h12.1v2.3c-1.34,0-2.12.17-2.35.5-.23.33-.13.93.3,1.78l6.21,12.75,6.52-12.75c.45-.85.54-1.39.27-1.63-.47-.43-1.62-.65-3.45-.65v-2.3h10.8v2.3c-1.03,0-1.88.17-2.54.52-.66.35-1.21.93-1.66,1.75l-8.4,15.44v6.75c0,.88.28,1.48.84,1.8.56.32,1.71.48,3.47.48v2.3h-13.1v-2.3Z"/>
          <path d="M1318.95,123.83l17.74-26.28h-9.88c-1.46,0-2.51.46-3.16,1.38-.64.92-.96,2.47-.96,4.66l-3.13-.02.42-8.57h22.23v2.51l-17.74,26.28h10.47c3.16,0,4.74-2.24,4.74-6.73h3.2l-1.04,9.28h-22.88v-2.51Z"/>
          <path d="M1347.32,99.58c-.38-.89-.79-1.49-1.25-1.81-.46-.31-1.36-.47-2.7-.47v-2.3h13.12v2.3c-1.85,0-2.95.13-3.28.39-.33.26-.49.53-.47.81.02.29.12.64.28,1.08l7.83,20.62,7.9-20.62c.32-.84.22-1.42-.29-1.77-.51-.34-1.72-.51-3.61-.51v-2.3h11.43v2.3c-1.16,0-2.03.17-2.61.52-.58.35-1.04.93-1.38,1.75l-10.87,26.77h-2.74l-11.37-26.77Z"/>
          <path d="M1377.85,113.57h15.78v3.41h-15.78v-3.41Z"/>
          <path d="M1398.43,124.04c1.62,0,2.66-.13,3.12-.39.47-.26.77-.53.9-.8s.2-.63.2-1.04v-18.03c0-1-.09-1.66-.26-1.96-.17-.31-.65-.46-1.43-.46h-2.74v-2.3c1.68,0,3.11-.44,4.28-1.32s1.75-1.78,1.75-2.7l3.01-.04-.02,26.81c0,.88.19,1.43.56,1.65.63.39,1.84.58,3.64.58v2.3h-13.02v-2.3Z"/>
          <path d="M1414.68,124.04c1.48,0,2.4-.13,2.76-.39.36-.26.58-.53.65-.83.07-.29.1-.65.1-1.07v-22.19c0-.86-.26-1.46-.77-1.79s-1.43-.49-2.74-.49v-2.3h22.32l.82,7.58-3.03.02-.56-2.36c-.28-1.13-.56-1.84-.86-2.13-.52-.51-1.39-.77-2.61-.77h-7.86v12.16h3.84c1.57,0,2.54-.1,2.89-.31s.6-.51.73-.9c.13-.39.2-.95.2-1.69h2.72v8.09h-2.72c0-1.3-.25-2.1-.76-2.41s-1.53-.47-3.06-.47h-3.84v8.92c0,.71.05,1.28.16,1.71s.45.81,1.04,1.13,2.38.48,5.36.48v2.3h-14.77v-2.3Z"/>
        </g>
      </g>
    </g>
  </g>
</svg>