<?xml version="1.0" encoding="UTF-8"?>
<svg id="Layer_2" data-name="Layer 2" xmlns="http://www.w3.org/2000/svg" viewBox="0 0 1223.15 96.08">
  <defs>
    <style>
      .cls-1 {
        fill: #3070c9;
      }
    </style>
  </defs>
  <g id="TYPE">
    <g>
      <g>
        <g>
          <path d="M673.27,40.78l-9.6,4.41c-.65.3-1.36-.55-1.63-.97-.28-.44-.65-1.54-.11-1.97l8.58-6.07c.45-.32,1.11-.2,1.56.03,2.26,1.18,2.23,4.09,1.21,4.56Z"/>
          <path d="M658.15,40.13c-.51,1.1-3.05,1.24-3.31-.02-.72-3.47-.63-6.99-1.1-10.49-.07-.52.43-1.06.81-1.3,1.18-.76,2.7-.74,3.86.04.4.27.78.77.73,1.29l-.97,10.48Z"/>
          <path d="M658.42,66.39c-1.18.81-2.71.8-3.88.06-.39-.25-.87-.78-.8-1.3.44-3.52.42-6.99,1.08-10.51.22-1.16,3.01-1.17,3.24,0,.68,3.45.61,6.88,1.08,10.35.07.53-.26,1.08-.71,1.39Z"/>
          <path d="M649.36,45.26l-9.64-4.41c-.51-.23-.77-.84-.79-1.38-.06-1.34.66-2.6,1.85-3.23.42-.23,1.15-.4,1.58-.07,2.81,2.13,5.84,3.85,8.55,6.14.96.81-.3,2.89-1.55,2.95Z"/>
          <path d="M642.47,58.51c-.51.36-1.12.31-1.62.07-1.22-.6-2-1.9-1.93-3.27.03-.54.28-1.15.8-1.38l9.55-4.38c.67-.15,1.31.58,1.56.98.29.47.67,1.59.1,2l-8.45,5.97Z"/>
          <path d="M673.93,55.22c.1,1.43-.66,2.7-1.85,3.32-.45.23-1.12.36-1.56.04l-8.58-6.08c-.56-.4-.16-1.53.11-1.96s.97-1.26,1.62-.97l9.49,4.34c.46.21.74.74.78,1.31Z"/>
        </g>
        <g>
          <path d="M54.99,87.99c13.07,0,21.32-6.01,24.76-18.04h8.96c0,3.23-.87,6.42-2.61,9.55-1.74,3.13-4.19,5.92-7.34,8.37-6.97,5.48-15.93,8.21-26.88,8.21s-20.32-3.65-28.12-10.95c-9.04-8.42-13.56-20.74-13.56-36.96,0-12.94,3.48-23.85,10.45-32.73,4.94-6.35,11.51-10.76,19.72-13.25,4.23-1.29,8.88-1.93,13.94-1.93,10,0,18.21,2.29,24.64,6.87,6.43,4.58,9.64,10.34,9.64,17.27,0,5.19-2.03,8.67-6.1,10.45-1.2.54-2.51.81-3.92.81-4.36,0-7.28-1.85-8.77-5.54-.46-1.16-.68-2.54-.68-4.14s.46-3.17,1.37-4.73c.91-1.56,2.12-2.75,3.61-3.58-3.36-6.43-9.37-9.64-18.04-9.64s-15.72,3.29-21.15,9.86c-5.43,6.57-8.15,16.45-8.15,29.61s2.76,23.21,8.27,30.11c5.52,6.91,12.17,10.36,19.97,10.36Z"/>
          <path d="M102.96,48.17c0-7.88,1.2-14.88,3.61-21,2.4-6.12,5.64-11.17,9.71-15.15C124.28,4.19,134.5.27,146.95.27s22.67,3.86,30.67,11.57c8.88,8.5,13.31,20.51,13.31,36.02s-4.08,27.43-12.23,35.74c-8.15,8.32-18.74,12.47-31.76,12.47s-23.56-4.21-31.73-12.63c-8.17-8.42-12.26-20.18-12.26-35.28ZM147.13,87.99c7.26,0,13.35-2.7,18.29-8.09,6.22-6.8,9.33-17.15,9.33-31.05s-2.65-24.12-7.96-30.67c-5.31-6.55-11.99-9.83-20.03-9.83s-14.61,3.27-19.82,9.8c-5.21,6.53-7.81,16.33-7.81,29.4,0,18.79,5.14,31.17,15.43,37.14,3.77,2.2,7.96,3.3,12.57,3.3Z"/>
          <path d="M200.27,87.99c3.94,0,6.51-.38,7.71-1.15,1.2-.77,1.97-1.59,2.3-2.46.33-.87.5-1.93.5-3.17l-.06-66.07c0-2.7-.46-4.38-1.37-5.04-1.66-1.16-4.69-1.74-9.08-1.74V1.51h35.03v6.84c-3.94,0-6.51.38-7.71,1.15-1.2.77-1.97,1.59-2.3,2.46-.33.87-.5,1.93-.5,3.17v72.48h21.46c6.64,0,11.2-3.63,13.69-10.89l2.49-7.03,8.59.06-4.29,25.07h-66.45v-6.84Z"/>
          <path d="M279.65,87.99c3.94,0,6.51-.38,7.71-1.15,1.2-.77,1.97-1.59,2.3-2.46.33-.87.5-1.93.5-3.17l-.06-66.07c0-2.7-.46-4.38-1.37-5.04-1.66-1.16-4.69-1.74-9.08-1.74V1.51h35.03v6.84c-3.94,0-6.51.38-7.71,1.15-1.2.77-1.97,1.59-2.3,2.46-.33.87-.5,1.93-.5,3.17v72.48h21.46c6.64,0,11.2-3.63,13.69-10.89l2.49-7.03,8.59.06-4.29,25.07h-66.45v-6.84Z"/>
          <path d="M353.88,87.99c3.44,0,6.04-.53,7.81-1.59,1.76-1.06,3.12-2.79,4.08-5.2L399.36,1.51h10.64l30.73,79.7c1.12,2.66,2.36,4.45,3.73,5.38s4.04,1.4,8.03,1.4v6.84h-38.39v-6.84c5.48,0,8.72-.37,9.74-1.12,1.02-.75,1.49-1.56,1.43-2.43-.06-.87-.34-1.95-.84-3.24l-5.6-15.62h-36.15l-6.41,15.62c-.95,2.49-.66,4.24.87,5.26,1.53,1.02,5.12,1.52,10.76,1.52v6.84h-34.03v-6.84ZM416.4,58.75l-14.43-40.32-16.49,40.32h30.92Z"/>
          <path d="M464.37,76.01c-2.07-3.55-3.69-7.63-4.85-12.26-1.16-4.62-1.74-9.35-1.74-14.19s.38-9.2,1.15-13.1c.77-3.9,1.94-7.63,3.52-11.2,3.36-7.59,8.48-13.66,15.37-18.2,6.88-4.54,15.35-6.81,25.38-6.81s18.39,2.49,25.07,7.47c6.68,4.98,10.02,11.05,10.02,18.23,0,4.89-1.95,8.19-5.85,9.89-1.2.54-2.49.81-3.86.81-2.65,0-4.81-.83-6.47-2.49-1.66-1.66-2.49-3.59-2.49-5.79,0-4.4,1.76-7.42,5.29-9.08-1.66-3.48-4.48-6.23-8.46-8.24-3.98-2.01-8.07-3.02-12.26-3.02-8.83,0-16.04,3.3-21.62,9.89-5.58,6.59-8.37,16.48-8.37,29.65s2.9,23.2,8.71,30.08c5.81,6.89,12.86,10.33,21.15,10.33,6.76,0,12-1.7,15.71-5.1,3.71-3.4,5.57-7.14,5.57-11.23s-.93-6.66-2.8-7.71c-1.87-1.06-6.14-1.59-12.82-1.59v-8.27h28.5v40.75h-8.34l-2.3-7.47c-3.57,3.73-9.08,6.35-16.55,7.84-2.74.58-5.85.87-9.33.87s-7.02-.38-10.61-1.15c-3.59-.77-7.02-1.96-10.3-3.58-3.28-1.62-6.31-3.69-9.11-6.22-2.8-2.53-5.24-5.57-7.31-9.11Z"/>
          <path d="M553.53,87.99c4.02,0,6.62-.37,7.78-1.12,1.16-.75,1.91-1.54,2.24-2.4.33-.85.5-1.9.5-3.14V15.14c0-2.57-.77-4.34-2.3-5.32-1.54-.97-4.25-1.46-8.15-1.46V1.51h67.69l2.43,22.58-9.02.06-1.68-7.03c-.83-3.36-1.68-5.48-2.55-6.35-1.54-1.53-4.13-2.3-7.78-2.3h-24.64v36.21h12.07c4.69,0,7.56-.31,8.62-.93,1.06-.62,1.78-1.51,2.18-2.68.39-1.16.59-2.84.59-5.04h8.09v24.08h-8.09c0-3.86-.76-6.25-2.27-7.19-1.51-.93-4.55-1.4-9.11-1.4h-12.07v36.46h26.44c4.81,0,8-1.62,9.58-4.85.5-1,1-2.03,1.49-3.11l2.8-7.65h9.02l-2.43,22.46h-71.42v-6.84Z"/>
          <path d="M679.27,87.99c4.4,0,7.13-.38,8.21-1.15,1.08-.77,1.72-1.59,1.93-2.46.21-.87.31-1.93.31-3.17V15.14c0-2.7-.46-4.38-1.37-5.04-1.66-1.16-4.69-1.74-9.08-1.74V1.51h33.41c26.79,0,42.91,8.79,48.34,26.38,1.66,5.47,2.49,11.35,2.49,17.64s-.62,11.8-1.87,16.55c-1.24,4.75-2.99,8.95-5.23,12.6-4.27,6.93-10.13,12.02-17.58,15.27-7.45,3.26-15.75,4.88-24.92,4.88h-34.65v-6.84ZM715.29,87.93c21.32,0,31.98-13.9,31.98-41.69,0-11.86-2.95-21.25-8.83-28.15-5.89-6.91-14.66-10.36-26.32-10.36h-8.4v80.2h11.57Z"/>
          <path d="M773.4,87.99c3.94,0,6.51-.38,7.71-1.15,1.2-.77,1.97-1.59,2.3-2.46.33-.87.5-1.93.5-3.17l-.06-66.07c0-2.7-.48-4.38-1.43-5.04-1.62-1.16-4.62-1.74-9.02-1.74V1.51h34.97v6.84c-3.94,0-6.51.38-7.71,1.15-1.2.77-1.97,1.59-2.3,2.46-.33.87-.5,1.93-.5,3.17l.06,66.07c0,2.7.48,4.38,1.43,5.04,1.62,1.16,4.62,1.74,9.02,1.74v6.84h-34.97v-6.84Z"/>
          <path d="M824.73,76.01c-2.08-3.55-3.69-7.63-4.85-12.26-1.16-4.62-1.74-9.35-1.74-14.19s.38-9.2,1.15-13.1c.77-3.9,1.94-7.63,3.52-11.2,3.36-7.59,8.48-13.66,15.37-18.2,6.88-4.54,15.35-6.81,25.38-6.81s18.39,2.49,25.07,7.47c6.68,4.98,10.02,11.05,10.02,18.23,0,4.89-1.95,8.19-5.85,9.89-1.2.54-2.49.81-3.86.81-2.66,0-4.81-.83-6.47-2.49-1.66-1.66-2.49-3.59-2.49-5.79,0-4.4,1.76-7.42,5.29-9.08-1.66-3.48-4.48-6.23-8.46-8.24-3.98-2.01-8.07-3.02-12.26-3.02-8.83,0-16.04,3.3-21.62,9.89-5.58,6.59-8.37,16.48-8.37,29.65s2.9,23.2,8.71,30.08c5.81,6.89,12.86,10.33,21.15,10.33,6.76,0,12-1.7,15.71-5.1,3.71-3.4,5.57-7.14,5.57-11.23s-.93-6.66-2.8-7.71c-1.87-1.06-6.14-1.59-12.82-1.59v-8.27h28.5v40.75h-8.34l-2.3-7.47c-3.57,3.73-9.08,6.35-16.55,7.84-2.74.58-5.85.87-9.33.87s-7.02-.38-10.61-1.15c-3.59-.77-7.02-1.96-10.3-3.58-3.28-1.62-6.32-3.69-9.12-6.22-2.8-2.53-5.24-5.57-7.31-9.11Z"/>
          <path d="M914.51,87.99c3.94,0,6.51-.38,7.71-1.15,1.2-.77,1.97-1.59,2.3-2.46.33-.87.5-1.93.5-3.17l-.06-66.07c0-2.7-.48-4.38-1.43-5.04-1.62-1.16-4.62-1.74-9.02-1.74V1.51h34.97v6.84c-3.94,0-6.51.38-7.71,1.15-1.2.77-1.97,1.59-2.3,2.46-.33.87-.5,1.93-.5,3.17l.06,66.07c0,2.7.48,4.38,1.43,5.04,1.62,1.16,4.62,1.74,9.02,1.74v6.84h-34.97v-6.84Z"/>
          <path d="M977.22,87.99c4.69,0,7.8-.38,9.33-1.15,1.53-.77,2.53-1.59,2.99-2.46.46-.87.68-1.93.68-3.17V8.73h-12.75c-6.84,0-10.76,3.63-11.76,10.89l-1.8,12.63-9.02-.06,2.74-30.67h79.2l2.74,30.67-9.02.06-1.8-12.63c-.46-3.36-1.35-5.74-2.68-7.15-2.41-2.49-5.43-3.73-9.08-3.73h-12.75v72.48c0,2.61.86,4.4,2.58,5.35,1.72.95,5.2,1.43,10.42,1.43v6.84h-40v-6.84Z"/>
          <path d="M1039.37,87.99c3.44,0,6.04-.53,7.81-1.59,1.76-1.06,3.12-2.79,4.08-5.2L1084.85,1.51h10.64l30.73,79.7c1.12,2.66,2.36,4.45,3.73,5.38s4.04,1.4,8.03,1.4v6.84h-38.39v-6.84c5.47,0,8.72-.37,9.74-1.12s1.49-1.56,1.43-2.43c-.06-.87-.34-1.95-.84-3.24l-5.6-15.62h-36.15l-6.41,15.62c-.96,2.49-.66,4.24.87,5.26,1.53,1.02,5.12,1.52,10.76,1.52v6.84h-34.03v-6.84ZM1101.9,58.75l-14.43-40.32-16.49,40.32h30.92Z"/>
          <path d="M1142.9,87.99c3.94,0,6.51-.38,7.71-1.15,1.2-.77,1.97-1.59,2.3-2.46s.5-1.93.5-3.17l-.06-66.07c0-2.7-.46-4.38-1.37-5.04-1.66-1.16-4.69-1.74-9.08-1.74V1.51h35.03v6.84c-3.94,0-6.51.38-7.71,1.15-1.2.77-1.97,1.59-2.3,2.46s-.5,1.93-.5,3.17v72.48h21.46c6.64,0,11.2-3.63,13.69-10.89l2.49-7.03,8.59.06-4.29,25.07h-66.45v-6.84Z"/>
        </g>
      </g>
    </g>
  </g>
</svg>