<?xml version="1.0" encoding="UTF-8"?>
<svg id="Layer_2" data-name="Layer 2" xmlns="http://www.w3.org/2000/svg" viewBox="0 0 1576.92 96.69">
  <defs>
    <style>
      .cls-1 {
        fill: #3070c9;
      }

      .cls-2 {
        stroke: #000;
        stroke-miterlimit: 10;
        stroke-width: 3px;
      }
    </style>
  </defs>
  <g id="TYPE">
    <g>
      <g>
        <g>
          <path class="cls-2" d="M26.76,5.21v33.26h32.23V5.21h19.52v86.54h-19.52v-36.21H26.76v36.21H7.11V5.21h19.65Z"/>
          <path class="cls-2" d="M118.44,5.21v86.54h-19.65V5.21h19.65Z"/>
          <path class="cls-2" d="M155.29,21.65h-23.24V5.21h66.51v16.44h-23.63v70.11h-19.65V21.65Z"/>
          <path class="cls-2" d="M287.68,47.59c0,28.38-17.21,45.58-42.5,45.58s-40.7-19.39-40.7-44.04c0-25.94,16.56-45.33,42.12-45.33s41.09,19.9,41.09,43.79ZM225.15,48.74c0,16.95,7.96,28.89,21.06,28.89s20.8-12.58,20.8-29.4c0-15.54-7.45-28.89-20.93-28.89s-20.93,12.58-20.93,29.4Z"/>
        </g>
        <g>
          <path d="M884.17,41.4l-9.6,4.41c-.65.3-1.36-.55-1.63-.97-.28-.44-.65-1.54-.11-1.97l8.58-6.07c.45-.32,1.11-.2,1.56.03,2.26,1.18,2.23,4.09,1.21,4.56Z"/>
          <path d="M869.04,40.74c-.51,1.1-3.05,1.24-3.31-.02-.72-3.47-.63-6.99-1.1-10.49-.07-.52.43-1.06.81-1.3,1.18-.76,2.7-.74,3.86.04.4.27.78.77.73,1.29l-.97,10.48Z"/>
          <path d="M869.32,67c-1.18.81-2.71.8-3.88.06-.39-.25-.87-.78-.8-1.3.44-3.52.42-6.99,1.08-10.51.22-1.16,3.01-1.17,3.24,0,.68,3.45.61,6.88,1.08,10.35.07.53-.26,1.08-.71,1.39Z"/>
          <path d="M860.25,45.87l-9.64-4.41c-.51-.23-.77-.84-.79-1.38-.06-1.34.66-2.6,1.85-3.23.42-.23,1.15-.4,1.58-.07,2.81,2.13,5.84,3.85,8.55,6.14.96.81-.3,2.89-1.55,2.95Z"/>
          <path d="M853.37,59.12c-.51.36-1.12.31-1.62.07-1.22-.6-2-1.9-1.93-3.27.03-.54.28-1.15.8-1.38l9.55-4.38c.67-.15,1.31.58,1.56.98.29.47.67,1.59.1,2l-8.45,5.97Z"/>
          <path d="M884.83,55.84c.1,1.43-.66,2.7-1.85,3.32-.45.23-1.12.36-1.56.04l-8.58-6.08c-.56-.4-.16-1.53.11-1.96s.97-1.26,1.62-.97l9.49,4.34c.46.21.74.74.78,1.31Z"/>
        </g>
        <g>
          <path d="M300.61,88.6c3.9,0,6.45-.38,7.65-1.15,1.2-.77,1.97-1.59,2.3-2.46.33-.87.5-1.93.5-3.17V15.75c0-2.7-.46-4.38-1.37-5.04-1.66-1.16-4.69-1.74-9.08-1.74V2.12h29.37l27.56,71.98L383.98,2.12h29.06v6.84c-3.94,0-6.51.38-7.71,1.15-1.2.77-1.97,1.59-2.3,2.46-.33.87-.5,1.93-.5,3.17v66.07c0,2.66.48,4.33,1.43,5.04,1.66,1.16,4.69,1.74,9.08,1.74v6.84h-34.53v-6.84c3.9,0,6.42-.38,7.56-1.15,1.14-.77,1.86-1.59,2.15-2.46.29-.87.44-1.93.44-3.17V15.44l-28.87,80.01h-6.91l-31.85-80.07v66.45c0,2.7.46,4.38,1.37,5.04,1.66,1.16,4.69,1.74,9.08,1.74v6.84h-30.86v-6.84Z"/>
          <path d="M422.93,48.78c0-7.88,1.2-14.88,3.61-21,2.4-6.12,5.64-11.17,9.71-15.15,8-7.84,18.23-11.76,30.67-11.76s22.67,3.86,30.67,11.57c8.88,8.5,13.31,20.51,13.31,36.02s-4.08,27.43-12.23,35.74c-8.15,8.32-18.74,12.47-31.76,12.47s-23.56-4.21-31.73-12.63c-8.17-8.42-12.26-20.18-12.26-35.28ZM467.1,88.6c7.26,0,13.35-2.7,18.29-8.09,6.22-6.8,9.33-17.15,9.33-31.05s-2.65-24.12-7.96-30.67c-5.31-6.55-11.99-9.83-20.03-9.83s-14.61,3.27-19.82,9.8c-5.21,6.53-7.81,16.33-7.81,29.4,0,18.79,5.14,31.17,15.43,37.14,3.77,2.2,7.96,3.3,12.57,3.3Z"/>
          <path d="M538.59,88.6c4.69,0,7.8-.38,9.33-1.15,1.53-.77,2.53-1.59,2.99-2.46.46-.87.68-1.93.68-3.17V9.34h-12.75c-6.84,0-10.76,3.63-11.76,10.89l-1.8,12.63-9.02-.06,2.74-30.67h79.2l2.74,30.67-9.02.06-1.8-12.63c-.46-3.36-1.35-5.74-2.68-7.15-2.41-2.49-5.43-3.73-9.08-3.73h-12.75v72.48c0,2.61.86,4.4,2.58,5.35,1.72.95,5.2,1.43,10.42,1.43v6.84h-40v-6.84Z"/>
          <path d="M606.46,88.6c3.94,0,6.51-.38,7.71-1.15,1.2-.77,1.97-1.59,2.3-2.46.33-.87.5-1.93.5-3.17l-.06-66.07c0-2.7-.48-4.38-1.43-5.04-1.62-1.16-4.63-1.74-9.02-1.74V2.12h34.97v6.84c-3.94,0-6.51.38-7.71,1.15-1.2.77-1.97,1.59-2.3,2.46-.33.87-.5,1.93-.5,3.17l.06,66.07c0,2.7.48,4.38,1.43,5.04,1.62,1.16,4.62,1.74,9.02,1.74v6.84h-34.97v-6.84Z"/>
          <path d="M651.2,48.78c0-7.88,1.2-14.88,3.61-21,2.4-6.12,5.64-11.17,9.71-15.15,8-7.84,18.23-11.76,30.67-11.76s22.67,3.86,30.67,11.57c8.88,8.5,13.31,20.51,13.31,36.02s-4.08,27.43-12.23,35.74c-8.15,8.32-18.74,12.47-31.76,12.47s-23.56-4.21-31.73-12.63c-8.17-8.42-12.26-20.18-12.26-35.28ZM695.37,88.6c7.26,0,13.35-2.7,18.29-8.09,6.22-6.8,9.33-17.15,9.33-31.05s-2.65-24.12-7.96-30.67c-5.31-6.55-11.99-9.83-20.03-9.83s-14.61,3.27-19.82,9.8c-5.21,6.53-7.81,16.33-7.81,29.4,0,18.79,5.14,31.17,15.43,37.14,3.77,2.2,7.96,3.3,12.57,3.3Z"/>
          <path d="M748.19,88.48c4.06,0,6.7-.39,7.9-1.18,1.2-.79,1.98-1.63,2.33-2.52.35-.89.53-1.96.53-3.2V16c0-2.7-.5-4.4-1.49-5.1-1.66-1.2-4.75-1.8-9.27-1.8V2.12h21.46l53.38,67.75V16c0-2.74-.48-4.44-1.43-5.1-1.66-1.2-4.73-1.8-9.21-1.8V2.12h31.36v6.97c-4.07,0-6.7.39-7.9,1.18-1.2.79-1.98,1.63-2.33,2.52-.35.89-.53,1.96-.53,3.2v79.45h-7.65l-56.43-71.61v57.74c0,2.7.5,4.4,1.49,5.1,1.66,1.2,4.77,1.8,9.33,1.8v6.97h-31.54v-6.97Z"/>
          <path d="M900.62,76.63c-2.08-3.55-3.69-7.63-4.85-12.26-1.16-4.62-1.74-9.35-1.74-14.19s.38-9.2,1.15-13.1c.77-3.9,1.94-7.63,3.52-11.2,3.36-7.59,8.48-13.66,15.37-18.2,6.88-4.54,15.35-6.81,25.38-6.81s18.39,2.49,25.07,7.47c6.68,4.98,10.02,11.05,10.02,18.23,0,4.89-1.95,8.19-5.85,9.89-1.2.54-2.49.81-3.86.81-2.66,0-4.81-.83-6.47-2.49-1.66-1.66-2.49-3.59-2.49-5.79,0-4.4,1.76-7.42,5.29-9.08-1.66-3.48-4.48-6.23-8.46-8.24-3.98-2.01-8.07-3.02-12.26-3.02-8.83,0-16.04,3.3-21.62,9.89-5.58,6.59-8.37,16.48-8.37,29.65s2.9,23.2,8.71,30.08c5.81,6.89,12.86,10.33,21.15,10.33,6.76,0,12-1.7,15.71-5.1,3.71-3.4,5.57-7.14,5.57-11.23s-.93-6.66-2.8-7.71c-1.87-1.06-6.14-1.59-12.82-1.59v-8.27h28.5v40.75h-8.34l-2.3-7.47c-3.57,3.73-9.08,6.35-16.55,7.84-2.74.58-5.85.87-9.33.87s-7.02-.38-10.61-1.15c-3.59-.77-7.02-1.96-10.3-3.58-3.28-1.62-6.32-3.69-9.12-6.22-2.8-2.53-5.24-5.57-7.31-9.11Z"/>
          <path d="M1065.37,87.73c3.24,0,4.85-3.73,4.85-11.2h5.97c.46,1.49.68,2.8.68,3.92s-.02,2.33-.06,3.64c-.04,1.31-.54,3.02-1.49,5.13-2.28,4.98-6.55,7.47-12.82,7.47s-10.67-1.58-13.22-4.73c-2.55-3.15-4.37-6.36-5.44-9.61-1.08-3.26-1.95-6.11-2.61-8.55-1.91-6.68-3.44-11.03-4.6-13.07-2.12-3.9-5-5.85-8.65-5.85h-13.69v23.83c0,2.12.1,3.82.31,5.1.21,1.29.94,2.41,2.21,3.36,1.26.95,5.13,1.43,11.6,1.43v6.84h-38.51v-6.84c4.35,0,7.07-.38,8.15-1.15,1.08-.77,1.72-1.59,1.93-2.46.21-.87.31-1.93.31-3.17V15.75c0-2.7-.46-4.38-1.37-5.04-1.66-1.16-4.69-1.74-9.08-1.74V2.12h38.2c20.41,0,31.75,6.31,34.03,18.91.37,2.07.56,4.5.56,7.28,0,5.97-1.88,11.06-5.63,15.27-3.75,4.21-8.87,7.25-15.34,9.11,5.6,1.7,9.77,6.18,12.51,13.44.91,2.36,1.91,5.41,2.99,9.15,1.08,3.73,1.95,6.31,2.61,7.71,1.45,3.15,3.32,4.73,5.6,4.73ZM1028.17,48.66c7.09,0,12.11-1.71,15.06-5.13,2.94-3.42,4.42-8.36,4.42-14.81s-1.72-11.35-5.16-14.71c-3.44-3.36-9.48-5.04-18.1-5.04h-10.08v39.69h13.87Z"/>
          <path d="M1076.45,88.6c3.44,0,6.04-.53,7.81-1.59,1.76-1.06,3.12-2.79,4.08-5.2l33.6-79.7h10.64l30.73,79.7c1.12,2.66,2.36,4.45,3.73,5.38s4.04,1.4,8.03,1.4v6.84h-38.39v-6.84c5.47,0,8.72-.37,9.74-1.12s1.49-1.56,1.43-2.43c-.06-.87-.34-1.95-.84-3.24l-5.6-15.62h-36.15l-6.41,15.62c-.96,2.49-.66,4.24.87,5.26,1.53,1.02,5.12,1.52,10.76,1.52v6.84h-34.03v-6.84ZM1138.97,59.36l-14.43-40.32-16.49,40.32h30.92Z"/>
          <path d="M1180.03,88.6c4.35,0,7.07-.38,8.15-1.15,1.08-.77,1.72-1.59,1.93-2.46.21-.87.31-1.93.31-3.17V15.75c0-2.7-.46-4.38-1.37-5.04-1.66-1.16-4.69-1.74-9.08-1.74V2.12h34.03c17.01,0,28.06,4.73,33.16,14.19,2.03,3.73,3.05,8.24,3.05,13.53s-1.06,9.86-3.17,13.72c-5.77,10.37-17.26,15.55-34.47,15.55-.79,0-1.58-.02-2.36-.06h-5.79v19.66c0,2.12.11,3.82.34,5.1.23,1.29,1.05,2.41,2.46,3.36,1.41.95,5.76,1.43,13.07,1.43v6.84h-40.25v-6.84ZM1211.33,52.83c7.71,0,13.62-1.92,17.73-5.75,4.11-3.84,6.16-9.63,6.16-17.39,0-9.46-3.94-15.78-11.82-18.98-2.82-1.16-6.24-1.74-10.27-1.74h-8.71v43.86h6.91Z"/>
          <path d="M1258.99,88.6c3.94,0,6.51-.38,7.71-1.15,1.2-.77,1.97-1.59,2.3-2.46s.5-1.93.5-3.17l-.06-66.07c0-2.7-.46-4.38-1.37-5.04-1.66-1.16-4.69-1.74-9.08-1.74V2.12h34.97v6.84c-3.94,0-6.51.38-7.71,1.15-1.2.77-1.97,1.59-2.3,2.46-.33.87-.5,1.93-.5,3.17v27.81h46.35V15.75c0-2.7-.46-4.38-1.37-5.04-1.66-1.16-4.69-1.74-9.08-1.74V2.12h34.97v6.84c-3.94,0-6.51.38-7.71,1.15-1.2.77-1.97,1.59-2.3,2.46-.33.87-.5,1.93-.5,3.17l.06,66.07c0,2.7.46,4.38,1.37,5.04,1.66,1.16,4.69,1.74,9.08,1.74v6.84h-34.97v-6.84c3.94,0,6.51-.38,7.71-1.15,1.2-.77,1.97-1.59,2.3-2.46s.5-1.93.5-3.17l-.06-30.17h-46.35l.06,30.17c0,2.7.46,4.38,1.37,5.04,1.66,1.16,4.69,1.74,9.08,1.74v6.84h-34.97v-6.84Z"/>
          <path d="M1363.76,88.6c3.94,0,6.51-.38,7.71-1.15,1.2-.77,1.97-1.59,2.3-2.46.33-.87.5-1.93.5-3.17l-.06-66.07c0-2.7-.48-4.38-1.43-5.04-1.62-1.16-4.62-1.74-9.02-1.74V2.12h34.97v6.84c-3.94,0-6.51.38-7.71,1.15-1.2.77-1.97,1.59-2.3,2.46-.33.87-.5,1.93-.5,3.17l.06,66.07c0,2.7.48,4.38,1.43,5.04,1.62,1.16,4.62,1.74,9.02,1.74v6.84h-34.97v-6.84Z"/>
          <path d="M1453.29,88.6c13.07,0,21.32-6.01,24.76-18.04h8.96c0,3.23-.87,6.42-2.61,9.55-1.74,3.13-4.19,5.92-7.34,8.37-6.97,5.48-15.93,8.21-26.88,8.21s-20.32-3.65-28.12-10.95c-9.04-8.42-13.56-20.74-13.56-36.96,0-12.94,3.48-23.85,10.45-32.73,4.94-6.35,11.51-10.76,19.72-13.25,4.23-1.29,8.88-1.93,13.94-1.93,10,0,18.21,2.29,24.64,6.87,6.43,4.58,9.64,10.34,9.64,17.27,0,5.19-2.03,8.67-6.1,10.45-1.2.54-2.51.81-3.92.81-4.36,0-7.28-1.85-8.77-5.54-.46-1.16-.68-2.54-.68-4.14s.46-3.17,1.37-4.73c.91-1.56,2.12-2.75,3.61-3.58-3.36-6.43-9.37-9.64-18.04-9.64s-15.72,3.29-21.15,9.86c-5.43,6.57-8.15,16.45-8.15,29.61s2.76,23.21,8.27,30.11c5.52,6.91,12.17,10.36,19.97,10.36Z"/>
          <path d="M1548.67,12.7c-2.16-2.9-6.77-4.35-13.84-4.35s-11.96,2.36-14.65,7.09c-.91,1.62-1.37,3.61-1.37,5.97,0,4.35,1.95,8.34,5.85,11.95,2.57,2.41,6.13,4.87,10.67,7.4,4.54,2.53,8.37,4.79,11.48,6.78,11.74,7.47,17.61,15.64,17.61,24.51,0,7.88-2.89,13.96-8.68,18.23-5.79,4.27-13.27,6.41-22.46,6.41s-16.55-1.81-22.09-5.44c-5.54-3.63-8.31-7.8-8.31-12.51s1.89-7.89,5.66-9.55c1.16-.54,2.43-.81,3.8-.81,2.61,0,4.76.87,6.44,2.61,1.68,1.74,2.52,3.94,2.52,6.6s-1.2,4.92-3.61,6.78c3.23,3.24,8.59,4.85,16.08,4.85s12.62-2.53,15.4-7.59c1-1.74,1.49-3.77,1.49-6.1,0-4.02-2.08-7.76-6.22-11.2-2.16-1.78-5.8-4.1-10.92-6.94-5.12-2.84-9.16-5.22-12.1-7.12-10.83-6.97-16.24-15.18-16.24-24.64,0-7.38,2.79-13.35,8.37-17.92,5.58-4.56,12.48-6.84,20.72-6.84s14.99,1.76,20.28,5.29c5.29,3.53,7.93,7.82,7.93,12.88,0,2.74-.84,5.03-2.52,6.88-1.68,1.85-3.81,2.77-6.38,2.77-3.94,0-6.68-1.72-8.21-5.16-.46-1.04-.68-2.14-.68-3.3,0-3.19,1.33-5.7,3.98-7.53Z"/>
        </g>
      </g>
    </g>
  </g>
</svg>