<?xml version="1.0" encoding="UTF-8"?>
<svg id="Layer_2" data-name="Layer 2" xmlns="http://www.w3.org/2000/svg" viewBox="0 0 736.16 97.42">
  <defs>
    <style>
      .cls-1 {
        fill: #3070c9;
      }

      .cls-2 {
        stroke: #000;
        stroke-miterlimit: 10;
        stroke-width: 3px;
      }
    </style>
  </defs>
  <g id="TYPE">
    <g>
      <g>
        <g>
          <path class="cls-2" d="M11.7,5.95h19.65v70.11h34.41v16.44H11.7V5.95Z"/>
          <path class="cls-2" d="M80.53,7.1c6.03-1.03,14.51-1.8,26.45-1.8s20.67,2.31,26.45,6.93c5.52,4.37,9.25,11.56,9.25,20.03s-2.83,15.67-7.96,20.54c-6.68,6.29-16.56,9.12-28.12,9.12-2.57,0-4.88-.13-6.68-.38v30.94h-19.39V7.1ZM99.92,46.39c1.67.39,3.72.51,6.55.51,10.4,0,16.82-5.26,16.82-14.12,0-7.96-5.52-12.71-15.28-12.71-3.98,0-6.68.39-8.09.77v25.55Z"/>
          <path class="cls-2" d="M221.9,90.05c-3.6,1.8-11.68,3.72-22.21,3.72-29.92,0-45.33-18.62-45.33-43.27,0-29.53,21.06-45.97,47.25-45.97,10.14,0,17.85,2.05,21.31,3.85l-3.98,15.54c-3.98-1.67-9.5-3.21-16.44-3.21-15.54,0-27.61,9.37-27.61,28.63,0,17.33,10.27,28.25,27.73,28.25,5.91,0,12.46-1.28,16.31-2.83l2.95,15.28Z"/>
        </g>
        <g>
          <path d="M235.01,89.34c4.4,0,7.13-.38,8.21-1.15,1.08-.77,1.72-1.59,1.93-2.46.21-.87.31-1.93.31-3.17V16.48c0-2.7-.46-4.38-1.37-5.04-1.66-1.16-4.69-1.74-9.08-1.74V2.86h33.41c26.79,0,42.91,8.79,48.34,26.38,1.66,5.47,2.49,11.35,2.49,17.64s-.62,11.8-1.87,16.55c-1.24,4.75-2.99,8.95-5.23,12.6-4.27,6.93-10.13,12.02-17.58,15.27-7.45,3.26-15.75,4.88-24.92,4.88h-34.65v-6.84ZM271.04,89.27c21.32,0,31.98-13.9,31.98-41.69,0-11.86-2.95-21.25-8.83-28.15-5.89-6.91-14.66-10.36-26.32-10.36h-8.4v80.2h11.57Z"/>
          <path d="M328.52,89.34c4.02,0,6.62-.37,7.78-1.12,1.16-.75,1.91-1.54,2.24-2.4.33-.85.5-1.9.5-3.14V16.48c0-2.57-.77-4.34-2.3-5.32-1.54-.97-4.25-1.46-8.15-1.46V2.86h67.69l2.43,22.58-9.02.06-1.68-7.03c-.83-3.36-1.68-5.48-2.55-6.35-1.53-1.53-4.13-2.3-7.78-2.3h-24.64v36.21h12.07c4.69,0,7.56-.31,8.62-.93s1.78-1.51,2.18-2.68c.39-1.16.59-2.84.59-5.04h8.09v24.08h-8.09c0-3.86-.76-6.25-2.27-7.19-1.51-.93-4.55-1.4-9.11-1.4h-12.07v36.46h26.44c4.81,0,8-1.62,9.58-4.85.5-1,1-2.03,1.49-3.11l2.8-7.65h9.02l-2.43,22.46h-71.42v-6.84Z"/>
          <path d="M459.55,13.43c-2.16-2.9-6.77-4.35-13.84-4.35s-11.96,2.36-14.65,7.09c-.91,1.62-1.37,3.61-1.37,5.97,0,4.35,1.95,8.34,5.85,11.95,2.57,2.41,6.13,4.87,10.67,7.4,4.54,2.53,8.37,4.79,11.48,6.78,11.74,7.47,17.61,15.64,17.61,24.51,0,7.88-2.89,13.96-8.68,18.23-5.79,4.27-13.27,6.41-22.46,6.41s-16.55-1.81-22.09-5.44c-5.54-3.63-8.31-7.8-8.31-12.51s1.89-7.89,5.66-9.55c1.16-.54,2.43-.81,3.8-.81,2.61,0,4.76.87,6.44,2.61,1.68,1.74,2.52,3.94,2.52,6.6s-1.2,4.92-3.61,6.78c3.23,3.24,8.59,4.85,16.08,4.85s12.62-2.53,15.4-7.59c1-1.74,1.49-3.77,1.49-6.1,0-4.02-2.08-7.76-6.22-11.2-2.16-1.78-5.8-4.1-10.92-6.94-5.12-2.84-9.16-5.22-12.1-7.12-10.83-6.97-16.24-15.18-16.24-24.64,0-7.38,2.79-13.35,8.37-17.92,5.58-4.56,12.48-6.84,20.72-6.84s14.99,1.76,20.28,5.29c5.29,3.53,7.93,7.82,7.93,12.88,0,2.74-.84,5.03-2.52,6.88-1.68,1.85-3.81,2.77-6.38,2.77-3.94,0-6.68-1.72-8.21-5.16-.46-1.04-.68-2.14-.68-3.3,0-3.19,1.33-5.7,3.98-7.53Z"/>
          <path d="M486.18,89.34c3.94,0,6.51-.38,7.71-1.15,1.2-.77,1.97-1.59,2.3-2.46.33-.87.5-1.93.5-3.17l-.06-66.07c0-2.7-.48-4.38-1.43-5.04-1.62-1.16-4.62-1.74-9.02-1.74V2.86h34.97v6.84c-3.94,0-6.51.38-7.71,1.15-1.2.77-1.97,1.59-2.3,2.46-.33.87-.5,1.93-.5,3.17l.06,66.07c0,2.7.48,4.38,1.43,5.04,1.62,1.16,4.62,1.74,9.02,1.74v6.84h-34.97v-6.84Z"/>
          <path d="M537.51,77.36c-2.08-3.55-3.69-7.63-4.85-12.26-1.16-4.62-1.74-9.35-1.74-14.19s.38-9.2,1.15-13.1c.77-3.9,1.94-7.63,3.52-11.2,3.36-7.59,8.48-13.66,15.37-18.2,6.88-4.54,15.35-6.81,25.38-6.81s18.39,2.49,25.07,7.47c6.68,4.98,10.02,11.05,10.02,18.23,0,4.89-1.95,8.19-5.85,9.89-1.2.54-2.49.81-3.86.81-2.66,0-4.81-.83-6.47-2.49-1.66-1.66-2.49-3.59-2.49-5.79,0-4.4,1.76-7.42,5.29-9.08-1.66-3.48-4.48-6.23-8.46-8.24-3.98-2.01-8.07-3.02-12.26-3.02-8.83,0-16.04,3.3-21.62,9.89-5.58,6.59-8.37,16.48-8.37,29.65s2.9,23.2,8.71,30.08c5.81,6.89,12.86,10.33,21.15,10.33,6.76,0,12-1.7,15.71-5.1,3.71-3.4,5.57-7.14,5.57-11.23s-.93-6.66-2.8-7.71c-1.87-1.06-6.14-1.59-12.82-1.59v-8.27h28.5v40.75h-8.34l-2.3-7.47c-3.57,3.73-9.08,6.35-16.55,7.84-2.74.58-5.85.87-9.33.87s-7.02-.38-10.61-1.15c-3.59-.77-7.02-1.96-10.3-3.58-3.28-1.62-6.32-3.69-9.12-6.22-2.8-2.53-5.24-5.57-7.31-9.11Z"/>
          <path d="M626.42,89.21c4.06,0,6.7-.39,7.9-1.18,1.2-.79,1.98-1.63,2.33-2.52.35-.89.53-1.96.53-3.2V16.73c0-2.7-.5-4.4-1.49-5.1-1.66-1.2-4.75-1.8-9.27-1.8V2.86h21.46l53.38,67.75V16.73c0-2.74-.48-4.44-1.43-5.1-1.66-1.2-4.73-1.8-9.21-1.8V2.86h31.36v6.97c-4.07,0-6.7.39-7.9,1.18-1.2.79-1.98,1.63-2.33,2.52-.35.89-.53,1.96-.53,3.2v79.45h-7.65l-56.43-71.61v57.74c0,2.7.5,4.4,1.49,5.1,1.66,1.2,4.77,1.8,9.33,1.8v6.97h-31.54v-6.97Z"/>
        </g>
      </g>
    </g>
  </g>
</svg>