<?xml version="1.0" encoding="UTF-8"?>
<svg id="Layer_2" data-name="Layer 2" xmlns="http://www.w3.org/2000/svg" viewBox="0 0 1421.56 113.39">
  <defs>
    <style>
      .cls-1 {
        fill: #3070c9;
      }

      .cls-2 {
        stroke: #000;
        stroke-miterlimit: 10;
        stroke-width: 3px;
      }
    </style>
  </defs>
  <g id="TYPE">
    <g>
      <g>
        <g>
          <path class="cls-2" d="M6.73,23.07c5.14-1.03,15.54-1.8,25.3-1.8,11.94,0,19.26,1.16,25.55,4.88,6.03,3.21,10.4,9.12,10.4,16.95s-4.49,14.89-14.25,18.49v.26c9.89,2.7,17.21,10.14,17.21,21.31,0,7.83-3.6,14-8.99,18.36-6.29,5.01-16.82,7.83-34.03,7.83-9.63,0-16.82-.64-21.19-1.28V23.07ZM26.11,56.2h6.42c10.27,0,15.79-4.24,15.79-10.66s-5.01-10.02-13.87-10.02c-4.24,0-6.68.26-8.35.51v20.16ZM26.11,94.59c1.93.26,4.24.26,7.58.26,8.86,0,16.69-3.34,16.69-12.46s-7.83-12.2-17.59-12.2h-6.68v24.4Z"/>
          <path class="cls-2" d="M87.49,21.92h19.65v70.11h34.41v16.44h-54.06V21.92Z"/>
          <path class="cls-2" d="M171.86,21.92v49.82c0,14.89,5.65,22.47,15.67,22.47s15.92-7.19,15.92-22.47V21.92h19.52v48.54c0,26.71-13.48,39.42-36.08,39.42s-34.67-12.07-34.67-39.68V21.92h19.65ZM209.09,1.5l-15.67,15.79h-15.67l10.79-15.79h20.54Z"/>
          <path class="cls-2" d="M272.27,23.07c6.03-1.03,14.51-1.8,26.45-1.8s20.67,2.31,26.45,6.93c5.52,4.37,9.25,11.56,9.25,20.03s-2.83,15.67-7.96,20.54c-6.68,6.29-16.56,9.12-28.12,9.12-2.57,0-4.88-.13-6.68-.38v30.94h-19.39V23.07ZM291.66,62.36c1.67.39,3.72.51,6.55.51,10.4,0,16.82-5.26,16.82-14.12,0-7.96-5.52-12.71-15.28-12.71-3.98,0-6.68.39-8.09.77v25.55Z"/>
          <path class="cls-2" d="M429.31,64.29c0,28.38-17.21,45.58-42.5,45.58s-40.7-19.39-40.7-44.04c0-25.94,16.56-45.33,42.12-45.33s41.09,19.9,41.09,43.79ZM366.78,65.44c0,16.95,7.96,28.89,21.06,28.89s20.8-12.58,20.8-29.4c0-15.54-7.45-28.89-20.93-28.89s-20.93,12.58-20.93,29.4Z"/>
          <path class="cls-2" d="M518.56,75.33c-.39-10.4-.77-22.98-.77-35.57h-.39c-2.7,11.04-6.29,23.37-9.63,33.51l-10.53,33.77h-15.28l-9.25-33.51c-2.82-10.14-5.78-22.47-7.83-33.77h-.26c-.51,11.68-.9,25.04-1.54,35.82l-1.54,32.87h-18.1l5.52-86.54h26.07l8.47,28.89c2.7,10.02,5.39,20.8,7.32,30.94h.39c2.44-10.02,5.39-21.44,8.22-31.07l9.25-28.76h25.55l4.75,86.54h-19.13l-1.28-33.13Z"/>
          <path class="cls-2" d="M608.7,71.86h-31.84v20.54h35.57v16.05h-55.21V21.92h53.42v16.05h-33.77v17.98h31.84v15.92Z"/>
          <path class="cls-2" d="M628.99,21.92h19.65v70.11h34.41v16.44h-54.06V21.92Z"/>
          <path class="cls-2" d="M772.16,64.29c0,28.38-17.21,45.58-42.5,45.58s-40.7-19.39-40.7-44.04c0-25.94,16.56-45.33,42.12-45.33s41.09,19.9,41.09,43.79ZM709.63,65.44c0,16.95,7.96,28.89,21.06,28.89s20.8-12.58,20.8-29.4c0-15.54-7.45-28.89-20.93-28.89s-20.93,12.58-20.93,29.4Z"/>
          <path class="cls-2" d="M788.86,88.3c5.26,2.7,13.35,5.39,21.7,5.39,8.99,0,13.74-3.72,13.74-9.37s-4.11-8.47-14.51-12.2c-14.38-5.01-23.75-12.97-23.75-25.55,0-14.77,12.33-26.07,32.74-26.07,9.76,0,16.95,2.05,22.09,4.37l-4.37,15.79c-3.47-1.67-9.63-4.11-18.1-4.11s-12.58,3.85-12.58,8.35c0,5.52,4.88,7.96,16.05,12.2,15.28,5.65,22.47,13.61,22.47,25.81,0,14.51-11.17,26.84-34.93,26.84-9.89,0-19.65-2.57-24.53-5.26l3.98-16.18Z"/>
        </g>
        <g>
          <path d="M861.75,32.45c-1.12-2.65-2.36-4.45-3.73-5.38-1.37-.93-4.04-1.4-8.03-1.4v-6.84h39.07v6.84c-5.52,0-8.77.38-9.77,1.15-1,.77-1.46,1.58-1.4,2.43.06.85.34,1.92.84,3.2l23.33,61.41,23.52-61.41c.95-2.49.66-4.24-.87-5.26-1.54-1.02-5.12-1.52-10.76-1.52v-6.84h34.03v6.84c-3.44,0-6.04.52-7.78,1.56-1.74,1.04-3.11,2.78-4.11,5.23l-32.35,79.7h-8.15l-33.85-79.7Z"/>
          <path d="M950.22,105.3c3.94,0,6.51-.38,7.71-1.15,1.2-.77,1.97-1.59,2.3-2.46.33-.87.5-1.93.5-3.17l-.06-66.07c0-2.7-.48-4.38-1.43-5.04-1.62-1.16-4.62-1.74-9.02-1.74v-6.84h34.97v6.84c-3.94,0-6.51.38-7.71,1.15-1.2.77-1.97,1.59-2.3,2.46-.33.87-.5,1.93-.5,3.17l.06,66.07c0,2.7.48,4.38,1.43,5.04,1.62,1.16,4.62,1.74,9.02,1.74v6.84h-34.97v-6.84Z"/>
          <path d="M1042.36,29.4c-2.16-2.9-6.77-4.35-13.84-4.35s-11.96,2.36-14.65,7.09c-.91,1.62-1.37,3.61-1.37,5.97,0,4.35,1.95,8.34,5.85,11.95,2.57,2.41,6.13,4.87,10.67,7.4,4.54,2.53,8.37,4.79,11.48,6.78,11.74,7.47,17.61,15.64,17.61,24.51,0,7.88-2.89,13.96-8.68,18.23-5.79,4.27-13.27,6.41-22.46,6.41s-16.55-1.81-22.09-5.44c-5.54-3.63-8.31-7.8-8.31-12.51s1.89-7.89,5.66-9.55c1.16-.54,2.43-.81,3.8-.81,2.61,0,4.76.87,6.44,2.61,1.68,1.74,2.52,3.94,2.52,6.6s-1.2,4.92-3.61,6.78c3.23,3.24,8.59,4.85,16.08,4.85s12.62-2.53,15.4-7.59c1-1.74,1.49-3.77,1.49-6.1,0-4.02-2.08-7.76-6.22-11.2-2.16-1.78-5.8-4.1-10.92-6.94-5.12-2.84-9.16-5.22-12.1-7.12-10.83-6.97-16.24-15.18-16.24-24.64,0-7.38,2.79-13.35,8.37-17.92,5.58-4.56,12.48-6.84,20.72-6.84s14.99,1.76,20.28,5.29c5.29,3.53,7.93,7.82,7.93,12.88,0,2.74-.84,5.03-2.52,6.88-1.68,1.85-3.81,2.77-6.38,2.77-3.94,0-6.68-1.72-8.21-5.16-.46-1.04-.68-2.14-.68-3.3,0-3.19,1.33-5.7,3.98-7.53Z"/>
          <path d="M1114.65,104.31c16.47,0,24.7-10.22,24.7-30.67v-41.19c0-2.7-.46-4.38-1.37-5.04-1.66-1.16-4.69-1.74-9.08-1.74v-6.84h31.61v6.84c-3.94,0-6.51.38-7.71,1.15-1.2.77-1.97,1.59-2.3,2.46-.33.87-.5,1.93-.5,3.17l.06,40.5c0,20.37-7.22,33.06-21.65,38.08-4.6,1.58-9.04,2.36-13.31,2.36s-7.85-.3-10.73-.9c-2.88-.6-5.65-1.57-8.31-2.89-5.81-2.9-10.43-7.3-13.87-13.19-3.44-5.89-5.16-13.5-5.16-22.83v-41.12c0-2.65-.46-4.33-1.37-5.04-1.53-1.16-4.35-1.74-8.46-1.74v-6.84h34.84v6.84c-4.19,0-6.92.38-8.18,1.15-1.27.77-2.07,1.59-2.43,2.46-.35.87-.53,1.93-.53,3.17v42.43c0,10,2.26,17.4,6.78,22.21,4.52,4.81,10.18,7.22,16.99,7.22Z"/>
          <path d="M1163,105.3c3.44,0,6.04-.53,7.81-1.59,1.76-1.06,3.12-2.79,4.08-5.2l33.6-79.7h10.64l30.73,79.7c1.12,2.66,2.36,4.45,3.73,5.38s4.04,1.4,8.03,1.4v6.84h-38.39v-6.84c5.47,0,8.72-.37,9.74-1.12s1.49-1.56,1.43-2.43c-.06-.87-.34-1.95-.84-3.24l-5.6-15.62h-36.15l-6.41,15.62c-.96,2.49-.66,4.24.87,5.26,1.53,1.02,5.12,1.52,10.76,1.52v6.84h-34.03v-6.84ZM1225.52,76.06l-14.43-40.32-16.49,40.32h30.92Z"/>
          <path d="M1266.52,105.3c3.94,0,6.51-.38,7.71-1.15,1.2-.77,1.97-1.59,2.3-2.46s.5-1.93.5-3.17l-.06-66.07c0-2.7-.46-4.38-1.37-5.04-1.66-1.16-4.69-1.74-9.08-1.74v-6.84h35.03v6.84c-3.94,0-6.51.38-7.71,1.15-1.2.77-1.97,1.59-2.3,2.46s-.5,1.93-.5,3.17v72.48h21.46c6.64,0,11.2-3.63,13.69-10.89l2.49-7.03,8.59.06-4.29,25.07h-66.45v-6.84Z"/>
          <path d="M1393.69,29.4c-2.16-2.9-6.77-4.35-13.84-4.35s-11.96,2.36-14.65,7.09c-.91,1.62-1.37,3.61-1.37,5.97,0,4.35,1.95,8.34,5.85,11.95,2.57,2.41,6.13,4.87,10.67,7.4,4.54,2.53,8.37,4.79,11.48,6.78,11.74,7.47,17.61,15.64,17.61,24.51,0,7.88-2.89,13.96-8.68,18.23-5.79,4.27-13.27,6.41-22.46,6.41s-16.55-1.81-22.09-5.44c-5.54-3.63-8.31-7.8-8.31-12.51s1.89-7.89,5.66-9.55c1.16-.54,2.43-.81,3.8-.81,2.61,0,4.76.87,6.44,2.61,1.68,1.74,2.52,3.94,2.52,6.6s-1.2,4.92-3.61,6.78c3.23,3.24,8.59,4.85,16.08,4.85s12.62-2.53,15.4-7.59c1-1.74,1.49-3.77,1.49-6.1,0-4.02-2.08-7.76-6.22-11.2-2.16-1.78-5.8-4.1-10.92-6.94-5.12-2.84-9.16-5.22-12.1-7.12-10.83-6.97-16.24-15.18-16.24-24.64,0-7.38,2.79-13.35,8.37-17.92,5.58-4.56,12.48-6.84,20.72-6.84s14.99,1.76,20.28,5.29c5.29,3.53,7.93,7.82,7.93,12.88,0,2.74-.84,5.03-2.52,6.88-1.68,1.85-3.81,2.77-6.38,2.77-3.94,0-6.68-1.72-8.21-5.16-.46-1.04-.68-2.14-.68-3.3,0-3.19,1.33-5.7,3.98-7.53Z"/>
        </g>
      </g>
    </g>
  </g>
</svg>