<?xml version="1.0" encoding="UTF-8"?>
<svg id="Layer_2" data-name="Layer 2" xmlns="http://www.w3.org/2000/svg" viewBox="0 0 1240.15 96.49">
  <defs>
    <style>
      .cls-1 {
        fill: #3070c9;
      }

      .cls-2 {
        stroke: #000;
        stroke-miterlimit: 10;
        stroke-width: 3px;
      }
    </style>
  </defs>
  <g id="TYPE">
    <g>
      <g>
        <g>
          <path class="cls-2" d="M14.42,5.49c6.29-1.03,15.67-1.8,26.07-1.8,12.84,0,21.83,1.93,27.99,6.81,5.14,4.11,7.96,10.14,7.96,18.1,0,11.04-7.83,18.62-15.28,21.31v.39c6.03,2.44,9.37,8.22,11.56,16.18,2.7,9.76,5.39,21.06,7.06,24.4h-20.03c-1.41-2.44-3.47-9.5-6.04-20.16-2.31-10.79-6.03-13.74-14-13.87h-5.91v34.03H14.42V5.49ZM33.81,42.73h7.7c9.76,0,15.54-4.88,15.54-12.46,0-7.96-5.39-11.94-14.38-12.07-4.75,0-7.45.39-8.86.64v23.88Z"/>
          <path class="cls-2" d="M172.49,46.71c0,28.38-17.21,45.58-42.5,45.58s-40.7-19.39-40.7-44.04c0-25.94,16.56-45.33,42.12-45.33s41.09,19.9,41.09,43.79ZM109.96,47.87c0,16.95,7.96,28.89,21.06,28.89s20.8-12.58,20.8-29.4c0-15.54-7.45-28.89-20.93-28.89s-20.93,12.58-20.93,29.4Z"/>
          <path class="cls-2" d="M189.18,70.72c5.26,2.7,13.35,5.39,21.7,5.39,8.99,0,13.74-3.72,13.74-9.37s-4.11-8.47-14.51-12.2c-14.38-5.01-23.75-12.97-23.75-25.55,0-14.77,12.33-26.07,32.74-26.07,9.76,0,16.95,2.05,22.08,4.37l-4.37,15.79c-3.47-1.67-9.63-4.11-18.1-4.11s-12.58,3.85-12.58,8.35c0,5.52,4.88,7.96,16.05,12.2,15.28,5.65,22.47,13.61,22.47,25.81,0,14.51-11.17,26.84-34.93,26.84-9.89,0-19.65-2.57-24.52-5.26l3.98-16.18Z"/>
          <path class="cls-2" d="M277.78,20.77h-23.24V4.34h66.51v16.44h-23.63v70.11h-19.65V20.77Z"/>
          <path class="cls-2" d="M410.17,46.71c0,28.38-17.21,45.58-42.5,45.58s-40.7-19.39-40.7-44.04c0-25.94,16.56-45.33,42.12-45.33s41.09,19.9,41.09,43.79ZM347.64,47.87c0,16.95,7.96,28.89,21.06,28.89s20.8-12.58,20.8-29.4c0-15.54-7.45-28.89-20.93-28.89s-20.93,12.58-20.93,29.4Z"/>
          <path class="cls-2" d="M489.78,88.44c-3.6,1.8-11.68,3.72-22.21,3.72-29.92,0-45.33-18.62-45.33-43.27,0-29.53,21.06-45.97,47.25-45.97,10.14,0,17.85,2.05,21.31,3.85l-3.98,15.54c-3.98-1.67-9.5-3.21-16.44-3.21-15.54,0-27.61,9.37-27.61,28.63,0,17.33,10.27,28.25,27.73,28.25,5.91,0,12.46-1.28,16.31-2.83l2.95,15.28Z"/>
          <path class="cls-2" d="M505.84,4.34h19.39v38.26h.39c1.93-3.34,3.98-6.42,5.91-9.5l19.65-28.76h24.01l-28.63,36.85,30.17,49.69h-22.86l-21.19-37.37-7.45,9.12v28.25h-19.39V4.34Z"/>
        </g>
        <g>
          <path d="M627.41,87.72c13.06,0,21.32-6.01,24.76-18.04h8.96c0,3.23-.87,6.42-2.61,9.55-1.74,3.13-4.19,5.92-7.34,8.37-6.97,5.48-15.93,8.21-26.88,8.21s-20.32-3.65-28.12-10.95c-9.04-8.42-13.56-20.74-13.56-36.96,0-12.94,3.48-23.85,10.45-32.73,4.94-6.35,11.51-10.76,19.72-13.25,4.23-1.29,8.88-1.93,13.94-1.93,10,0,18.21,2.29,24.64,6.87,6.43,4.58,9.64,10.34,9.64,17.27,0,5.19-2.03,8.67-6.1,10.45-1.21.54-2.51.81-3.92.81-4.36,0-7.28-1.85-8.77-5.54-.46-1.16-.68-2.54-.68-4.14s.46-3.17,1.37-4.73c.91-1.56,2.12-2.75,3.61-3.58-3.36-6.43-9.37-9.64-18.04-9.64s-15.72,3.29-21.15,9.86c-5.43,6.57-8.15,16.45-8.15,29.61s2.76,23.21,8.27,30.11c5.52,6.91,12.17,10.36,19.97,10.36Z"/>
          <path d="M669.84,87.72c3.44,0,6.04-.53,7.81-1.59,1.76-1.06,3.12-2.79,4.08-5.2L715.32,1.24h10.64l30.73,79.7c1.12,2.66,2.36,4.45,3.73,5.38s4.04,1.4,8.03,1.4v6.84h-38.39v-6.84c5.47,0,8.72-.37,9.74-1.12s1.49-1.56,1.43-2.43c-.06-.87-.34-1.95-.84-3.24l-5.6-15.62h-36.15l-6.41,15.62c-.96,2.49-.66,4.24.87,5.26,1.53,1.02,5.12,1.52,10.76,1.52v6.84h-34.03v-6.84ZM732.37,58.48l-14.43-40.32-16.49,40.32h30.92Z"/>
          <path d="M791.72,87.72c4.69,0,7.8-.38,9.33-1.15,1.53-.77,2.53-1.59,2.99-2.46.46-.87.68-1.93.68-3.17V8.46h-12.75c-6.84,0-10.76,3.63-11.76,10.89l-1.8,12.63-9.02-.06,2.74-30.67h79.2l2.74,30.67-9.02.06-1.8-12.63c-.46-3.36-1.35-5.74-2.68-7.15-2.41-2.49-5.43-3.73-9.08-3.73h-12.75v72.48c0,2.61.86,4.4,2.58,5.35,1.72.95,5.2,1.43,10.42,1.43v6.84h-40v-6.84Z"/>
          <path d="M853.87,87.72c3.44,0,6.04-.53,7.81-1.59,1.76-1.06,3.12-2.79,4.08-5.2L899.35,1.24h10.64l30.73,79.7c1.12,2.66,2.36,4.45,3.73,5.38s4.04,1.4,8.03,1.4v6.84h-38.39v-6.84c5.47,0,8.72-.37,9.74-1.12s1.49-1.56,1.43-2.43c-.06-.87-.34-1.95-.84-3.24l-5.6-15.62h-36.15l-6.41,15.62c-.96,2.49-.66,4.24.87,5.26,1.53,1.02,5.12,1.52,10.76,1.52v6.84h-34.03v-6.84ZM916.4,58.48l-14.43-40.32-16.49,40.32h30.92Z"/>
          <path d="M957.4,87.72c3.94,0,6.51-.38,7.71-1.15,1.2-.77,1.97-1.59,2.3-2.46s.5-1.93.5-3.17l-.06-66.07c0-2.7-.46-4.38-1.37-5.04-1.66-1.16-4.69-1.74-9.08-1.74V1.24h35.03v6.84c-3.94,0-6.51.38-7.71,1.15-1.2.77-1.97,1.59-2.3,2.46s-.5,1.93-.5,3.17v72.48h21.46c6.64,0,11.2-3.63,13.69-10.89l2.49-7.03,8.59.06-4.29,25.07h-66.45v-6.84Z"/>
          <path d="M1037.16,47.91c0-7.88,1.2-14.88,3.61-21,2.41-6.12,5.64-11.17,9.71-15.15,8-7.84,18.23-11.76,30.67-11.76s22.67,3.86,30.67,11.57c8.88,8.5,13.31,20.51,13.31,36.02s-4.08,27.43-12.23,35.74c-8.15,8.32-18.74,12.47-31.76,12.47s-23.56-4.21-31.73-12.63c-8.17-8.42-12.26-20.18-12.26-35.28ZM1081.34,87.72c7.26,0,13.36-2.7,18.29-8.09,6.22-6.8,9.33-17.15,9.33-31.05s-2.66-24.12-7.96-30.67c-5.31-6.55-11.99-9.83-20.03-9.83s-14.61,3.27-19.82,9.8c-5.21,6.53-7.81,16.33-7.81,29.4,0,18.79,5.14,31.17,15.43,37.14,3.77,2.2,7.96,3.3,12.57,3.3Z"/>
          <path d="M1141.44,75.75c-2.08-3.55-3.69-7.63-4.85-12.26-1.16-4.62-1.74-9.35-1.74-14.19s.38-9.2,1.15-13.1c.77-3.9,1.94-7.63,3.52-11.2,3.36-7.59,8.48-13.66,15.37-18.2,6.88-4.54,15.35-6.81,25.38-6.81s18.39,2.49,25.07,7.47c6.68,4.98,10.02,11.05,10.02,18.23,0,4.89-1.95,8.19-5.85,9.89-1.2.54-2.49.81-3.86.81-2.66,0-4.81-.83-6.47-2.49-1.66-1.66-2.49-3.59-2.49-5.79,0-4.4,1.76-7.42,5.29-9.08-1.66-3.48-4.48-6.23-8.46-8.24-3.98-2.01-8.07-3.02-12.26-3.02-8.83,0-16.04,3.3-21.62,9.89-5.58,6.59-8.37,16.48-8.37,29.65s2.9,23.2,8.71,30.08c5.81,6.89,12.86,10.33,21.15,10.33,6.76,0,12-1.7,15.71-5.1,3.71-3.4,5.57-7.14,5.57-11.23s-.93-6.66-2.8-7.71c-1.87-1.06-6.14-1.59-12.82-1.59v-8.27h28.5v40.75h-8.34l-2.3-7.47c-3.57,3.73-9.08,6.35-16.55,7.84-2.74.58-5.85.87-9.33.87s-7.02-.38-10.61-1.15c-3.59-.77-7.02-1.96-10.3-3.58-3.28-1.62-6.32-3.69-9.12-6.22-2.8-2.53-5.24-5.57-7.31-9.11Z"/>
        </g>
      </g>
    </g>
  </g>
</svg>