<?xml version="1.0" encoding="UTF-8"?>
<svg id="Layer_2" data-name="Layer 2" xmlns="http://www.w3.org/2000/svg" viewBox="0 0 1939.85 96.53">
  <defs>
    <style>
      .cls-1 {
        fill: #3070c9;
      }

      .cls-2 {
        stroke: #000;
        stroke-miterlimit: 10;
        stroke-width: 3px;
      }
    </style>
  </defs>
  <g id="TYPE">
    <g>
      <g>
        <g>
          <path d="M1322.92,44.31l-9.6,4.41c-.65.3-1.36-.55-1.63-.97-.28-.44-.65-1.54-.11-1.97l8.58-6.07c.45-.32,1.11-.2,1.56.03,2.26,1.18,2.23,4.09,1.21,4.56Z"/>
          <path d="M1307.8,43.66c-.51,1.1-3.05,1.24-3.31-.02-.72-3.47-.63-6.99-1.1-10.49-.07-.52.43-1.06.81-1.3,1.18-.76,2.7-.74,3.86.04.4.27.78.77.73,1.29l-.97,10.48Z"/>
          <path d="M1308.07,69.92c-1.18.81-2.71.8-3.88.06-.39-.25-.87-.78-.8-1.3.44-3.52.42-6.99,1.08-10.51.22-1.16,3.01-1.17,3.24,0,.68,3.45.61,6.88,1.08,10.35.07.53-.26,1.08-.71,1.39Z"/>
          <path d="M1299.01,48.79l-9.64-4.41c-.51-.23-.77-.84-.79-1.38-.06-1.34.66-2.6,1.85-3.23.42-.23,1.15-.4,1.58-.07,2.81,2.13,5.84,3.85,8.55,6.14.96.81-.3,2.89-1.55,2.95Z"/>
          <path d="M1292.13,62.04c-.51.36-1.12.31-1.62.07-1.22-.6-2-1.9-1.93-3.27.03-.54.28-1.15.8-1.38l9.55-4.38c.67-.15,1.31.58,1.56.98.29.47.67,1.59.1,2l-8.45,5.97Z"/>
          <path d="M1323.58,58.76c.1,1.43-.66,2.7-1.85,3.32-.45.23-1.12.36-1.56.04l-8.58-6.08c-.56-.4-.16-1.53.11-1.96s.97-1.26,1.62-.97l9.49,4.34c.46.21.74.74.78,1.31Z"/>
        </g>
        <g>
          <g>
            <path class="cls-2" d="M9.19,90.88v-11.81l10.79-9.76c18.23-16.31,27.09-25.68,27.35-35.44,0-6.81-4.11-12.2-13.74-12.2-7.19,0-13.48,3.59-17.85,6.93l-5.52-14c6.29-4.75,16.05-8.6,27.35-8.6,18.88,0,29.28,11.04,29.28,26.19,0,14-10.14,25.17-22.21,35.95l-7.7,6.42v.26h31.46v16.05H9.19Z"/>
            <path class="cls-2" d="M138.24,54.29h-31.84v20.54h35.57v16.05h-55.21V4.34h53.42v16.05h-33.77v17.98h31.84v15.92Z"/>
            <path class="cls-2" d="M222.09,88.44c-3.6,1.8-11.68,3.72-22.21,3.72-29.92,0-45.33-18.62-45.33-43.27,0-29.53,21.06-45.97,47.25-45.97,10.14,0,17.85,2.05,21.31,3.85l-3.98,15.54c-3.98-1.67-9.5-3.21-16.44-3.21-15.54,0-27.61,9.37-27.61,28.63,0,17.33,10.27,28.25,27.73,28.25,5.91,0,12.46-1.28,16.31-2.83l2.95,15.28Z"/>
          </g>
          <g>
            <path d="M229.77,87.72c3.44,0,6.04-.53,7.81-1.59,1.76-1.06,3.12-2.79,4.08-5.19L275.25,1.24h10.64l30.73,79.7c1.12,2.65,2.36,4.45,3.73,5.38,1.37.93,4.04,1.4,8.03,1.4v6.84h-38.39v-6.84c5.48,0,8.72-.37,9.74-1.12,1.02-.75,1.49-1.56,1.43-2.43-.06-.87-.34-1.95-.84-3.24l-5.6-15.62h-36.15l-6.41,15.62c-.95,2.49-.66,4.24.87,5.26,1.53,1.02,5.12,1.52,10.76,1.52v6.84h-34.03v-6.84ZM292.3,58.48l-14.43-40.32-16.49,40.32h30.92Z"/>
            <path d="M408.83,86.85c3.24,0,4.85-3.73,4.85-11.2h5.97c.46,1.49.68,2.8.68,3.92s-.02,2.33-.06,3.64c-.04,1.31-.54,3.02-1.49,5.13-2.28,4.98-6.55,7.47-12.82,7.47s-10.67-1.58-13.22-4.73c-2.55-3.15-4.37-6.36-5.44-9.61-1.08-3.26-1.95-6.11-2.61-8.55-1.91-6.68-3.44-11.03-4.6-13.07-2.12-3.9-5-5.85-8.65-5.85h-13.69v23.83c0,2.12.1,3.82.31,5.1.21,1.29.94,2.41,2.21,3.36,1.26.95,5.13,1.43,11.6,1.43v6.84h-38.51v-6.84c4.35,0,7.07-.38,8.15-1.15,1.08-.77,1.72-1.59,1.93-2.46.21-.87.31-1.93.31-3.17V14.87c0-2.7-.46-4.38-1.37-5.04-1.66-1.16-4.69-1.74-9.08-1.74V1.24h38.2c20.41,0,31.75,6.31,34.03,18.91.37,2.07.56,4.5.56,7.28,0,5.97-1.88,11.06-5.63,15.27-3.75,4.21-8.87,7.25-15.34,9.12,5.6,1.7,9.77,6.18,12.51,13.44.91,2.36,1.91,5.41,2.99,9.15,1.08,3.73,1.95,6.31,2.61,7.71,1.45,3.15,3.32,4.73,5.6,4.73ZM371.62,47.78c7.09,0,12.11-1.71,15.06-5.13,2.94-3.42,4.42-8.36,4.42-14.81s-1.72-11.35-5.16-14.71c-3.44-3.36-9.48-5.04-18.1-5.04h-10.08v39.69h13.87Z"/>
            <path d="M470.24,87.72c13.07,0,21.32-6.01,24.76-18.04h8.96c0,3.24-.87,6.42-2.61,9.55-1.74,3.13-4.19,5.92-7.34,8.37-6.97,5.47-15.93,8.21-26.88,8.21s-20.32-3.65-28.12-10.95c-9.04-8.42-13.56-20.74-13.56-36.96,0-12.94,3.48-23.85,10.45-32.73,4.94-6.35,11.51-10.76,19.72-13.25,4.23-1.29,8.88-1.93,13.94-1.93,10,0,18.21,2.29,24.64,6.87,6.43,4.58,9.64,10.34,9.64,17.27,0,5.19-2.03,8.67-6.1,10.45-1.2.54-2.51.81-3.92.81-4.36,0-7.28-1.84-8.77-5.54-.46-1.16-.68-2.54-.68-4.14s.46-3.17,1.37-4.73c.91-1.56,2.12-2.75,3.61-3.58-3.36-6.43-9.37-9.64-18.04-9.64s-15.72,3.29-21.15,9.86c-5.43,6.57-8.15,16.45-8.15,29.61s2.76,23.21,8.27,30.11c5.52,6.91,12.17,10.36,19.97,10.36Z"/>
            <path d="M517.83,87.72c3.94,0,6.51-.38,7.71-1.15,1.2-.77,1.97-1.59,2.3-2.46.33-.87.5-1.93.5-3.17l-.06-66.07c0-2.7-.46-4.38-1.37-5.04-1.66-1.16-4.69-1.74-9.08-1.74V1.24h34.97v6.84c-3.94,0-6.51.38-7.71,1.15-1.2.77-1.97,1.59-2.3,2.46-.33.87-.5,1.93-.5,3.17v27.81h46.35V14.87c0-2.7-.46-4.38-1.37-5.04-1.66-1.16-4.69-1.74-9.08-1.74V1.24h34.97v6.84c-3.94,0-6.51.38-7.71,1.15-1.2.77-1.97,1.59-2.3,2.46-.33.87-.5,1.93-.5,3.17l.06,66.07c0,2.7.46,4.38,1.37,5.04,1.66,1.16,4.69,1.74,9.08,1.74v6.84h-34.97v-6.84c3.94,0,6.51-.38,7.71-1.15,1.2-.77,1.97-1.59,2.3-2.46.33-.87.5-1.93.5-3.17l-.06-30.17h-46.35l.06,30.17c0,2.7.46,4.38,1.37,5.04,1.66,1.16,4.69,1.74,9.08,1.74v6.84h-34.97v-6.84Z"/>
            <path d="M622.6,87.72c3.94,0,6.51-.38,7.71-1.15,1.2-.77,1.97-1.59,2.3-2.46.33-.87.5-1.93.5-3.17l-.06-66.07c0-2.7-.48-4.38-1.43-5.04-1.62-1.16-4.63-1.74-9.02-1.74V1.24h34.97v6.84c-3.94,0-6.51.38-7.71,1.15-1.2.77-1.97,1.59-2.3,2.46-.33.87-.5,1.93-.5,3.17l.06,66.07c0,2.7.48,4.38,1.43,5.04,1.62,1.16,4.62,1.74,9.02,1.74v6.84h-34.97v-6.84Z"/>
            <path d="M685.32,87.72c4.69,0,7.8-.38,9.33-1.15,1.53-.77,2.53-1.59,2.99-2.46.46-.87.68-1.93.68-3.17V8.46h-12.75c-6.84,0-10.76,3.63-11.76,10.89l-1.8,12.63-9.02-.06,2.74-30.67h79.2l2.74,30.67-9.02.06-1.8-12.63c-.46-3.36-1.35-5.74-2.68-7.15-2.41-2.49-5.43-3.73-9.08-3.73h-12.75v72.48c0,2.61.86,4.4,2.58,5.35,1.72.95,5.2,1.43,10.42,1.43v6.84h-40v-6.84Z"/>
            <path d="M752.57,87.72c4.02,0,6.62-.37,7.78-1.12,1.16-.75,1.91-1.54,2.24-2.4.33-.85.5-1.9.5-3.14V14.87c0-2.57-.77-4.34-2.3-5.32-1.54-.97-4.25-1.46-8.15-1.46V1.24h67.69l2.43,22.58-9.02.06-1.68-7.03c-.83-3.36-1.68-5.48-2.55-6.35-1.54-1.53-4.13-2.3-7.78-2.3h-24.64v36.21h12.07c4.69,0,7.56-.31,8.62-.93,1.06-.62,1.78-1.51,2.18-2.68.39-1.16.59-2.84.59-5.04h8.09v24.08h-8.09c0-3.86-.76-6.25-2.27-7.19-1.51-.93-4.55-1.4-9.11-1.4h-12.07v36.46h26.44c4.81,0,8-1.62,9.58-4.85.5-1,1-2.03,1.49-3.11l2.8-7.65h9.02l-2.43,22.46h-71.42v-6.84Z"/>
            <path d="M880.99,87.72c13.07,0,21.32-6.01,24.76-18.04h8.96c0,3.24-.87,6.42-2.61,9.55-1.74,3.13-4.19,5.92-7.34,8.37-6.97,5.47-15.93,8.21-26.88,8.21s-20.32-3.65-28.12-10.95c-9.04-8.42-13.56-20.74-13.56-36.96,0-12.94,3.48-23.85,10.45-32.73,4.94-6.35,11.51-10.76,19.72-13.25,4.23-1.29,8.88-1.93,13.94-1.93,10,0,18.21,2.29,24.64,6.87,6.43,4.58,9.64,10.34,9.64,17.27,0,5.19-2.03,8.67-6.1,10.45-1.2.54-2.51.81-3.92.81-4.36,0-7.28-1.84-8.77-5.54-.46-1.16-.68-2.54-.68-4.14s.46-3.17,1.37-4.73c.91-1.56,2.12-2.75,3.61-3.58-3.36-6.43-9.37-9.64-18.04-9.64s-15.72,3.29-21.15,9.86c-5.43,6.57-8.15,16.45-8.15,29.61s2.76,23.21,8.27,30.11c5.52,6.91,12.17,10.36,19.97,10.36Z"/>
            <path d="M946.94,87.72c4.69,0,7.8-.38,9.33-1.15,1.53-.77,2.53-1.59,2.99-2.46.46-.87.68-1.93.68-3.17V8.46h-12.75c-6.84,0-10.76,3.63-11.76,10.89l-1.8,12.63-9.02-.06,2.74-30.67h79.2l2.74,30.67-9.02.06-1.8-12.63c-.46-3.36-1.35-5.74-2.68-7.15-2.41-2.49-5.43-3.73-9.08-3.73h-12.75v72.48c0,2.61.86,4.4,2.58,5.35,1.72.95,5.2,1.43,10.42,1.43v6.84h-40v-6.84Z"/>
            <path d="M1060.48,86.73c16.47,0,24.7-10.22,24.7-30.67V14.87c0-2.7-.46-4.38-1.37-5.04-1.66-1.16-4.69-1.74-9.08-1.74V1.24h31.61v6.84c-3.94,0-6.51.38-7.71,1.15-1.2.77-1.97,1.59-2.3,2.46-.33.87-.5,1.93-.5,3.17l.06,40.5c0,20.37-7.22,33.06-21.65,38.08-4.6,1.58-9.04,2.36-13.31,2.36s-7.85-.3-10.73-.9c-2.88-.6-5.65-1.56-8.31-2.89-5.81-2.9-10.43-7.3-13.87-13.19-3.44-5.89-5.16-13.5-5.16-22.83V14.87c0-2.65-.46-4.33-1.37-5.04-1.53-1.16-4.35-1.74-8.46-1.74V1.24h34.84v6.84c-4.19,0-6.92.38-8.18,1.15-1.27.77-2.07,1.59-2.43,2.46-.35.87-.53,1.93-.53,3.17v42.43c0,10,2.26,17.4,6.78,22.21,4.52,4.81,10.18,7.22,16.99,7.22Z"/>
            <path d="M1189.52,86.85c3.24,0,4.85-3.73,4.85-11.2h5.97c.46,1.49.68,2.8.68,3.92s-.02,2.33-.06,3.64c-.04,1.31-.54,3.02-1.49,5.13-2.28,4.98-6.55,7.47-12.82,7.47s-10.67-1.58-13.22-4.73c-2.55-3.15-4.37-6.36-5.44-9.61-1.08-3.26-1.95-6.11-2.61-8.55-1.91-6.68-3.44-11.03-4.6-13.07-2.12-3.9-5-5.85-8.65-5.85h-13.69v23.83c0,2.12.1,3.82.31,5.1.21,1.29.94,2.41,2.21,3.36,1.26.95,5.13,1.43,11.6,1.43v6.84h-38.51v-6.84c4.35,0,7.07-.38,8.15-1.15,1.08-.77,1.72-1.59,1.93-2.46.21-.87.31-1.93.31-3.17V14.87c0-2.7-.46-4.38-1.37-5.04-1.66-1.16-4.69-1.74-9.08-1.74V1.24h38.2c20.41,0,31.75,6.31,34.03,18.91.37,2.07.56,4.5.56,7.28,0,5.97-1.88,11.06-5.63,15.27-3.75,4.21-8.87,7.25-15.34,9.12,5.6,1.7,9.77,6.18,12.51,13.44.91,2.36,1.91,5.41,2.99,9.15,1.08,3.73,1.95,6.31,2.61,7.71,1.45,3.15,3.32,4.73,5.6,4.73ZM1152.31,47.78c7.09,0,12.11-1.71,15.06-5.13,2.94-3.42,4.42-8.36,4.42-14.81s-1.72-11.35-5.16-14.71c-3.44-3.36-9.48-5.04-18.1-5.04h-10.08v39.69h13.87Z"/>
            <path d="M1205.69,87.72c4.02,0,6.62-.37,7.78-1.12,1.16-.75,1.91-1.54,2.24-2.4.33-.85.5-1.9.5-3.14V14.87c0-2.57-.77-4.34-2.3-5.32-1.54-.97-4.25-1.46-8.15-1.46V1.24h67.69l2.43,22.58-9.02.06-1.68-7.03c-.83-3.36-1.68-5.48-2.55-6.35-1.53-1.53-4.13-2.3-7.78-2.3h-24.64v36.21h12.07c4.69,0,7.56-.31,8.62-.93s1.78-1.51,2.18-2.68c.39-1.16.59-2.84.59-5.04h8.09v24.08h-8.09c0-3.86-.76-6.25-2.27-7.19-1.51-.93-4.55-1.4-9.12-1.4h-12.07v36.46h26.44c4.81,0,8-1.62,9.58-4.85.5-1,1-2.03,1.49-3.11l2.8-7.65h9.02l-2.43,22.46h-71.42v-6.84Z"/>
            <path d="M1332.05,87.72c3.9,0,6.45-.38,7.65-1.15,1.2-.77,1.97-1.59,2.3-2.46.33-.87.5-1.93.5-3.17V14.87c0-2.7-.46-4.38-1.37-5.04-1.66-1.16-4.69-1.74-9.08-1.74V1.24h29.37l27.56,71.98,26.44-71.98h29.05v6.84c-3.94,0-6.51.38-7.71,1.15-1.2.77-1.97,1.59-2.3,2.46-.33.87-.5,1.93-.5,3.17v66.07c0,2.65.48,4.33,1.43,5.04,1.66,1.16,4.69,1.74,9.08,1.74v6.84h-34.53v-6.84c3.9,0,6.42-.38,7.56-1.15,1.14-.77,1.86-1.59,2.15-2.46.29-.87.44-1.93.44-3.17V14.56l-28.87,80.01h-6.91l-31.85-80.07v66.45c0,2.7.46,4.38,1.37,5.04,1.66,1.16,4.69,1.74,9.08,1.74v6.84h-30.86v-6.84Z"/>
            <path d="M1448.83,87.72c3.44,0,6.04-.53,7.81-1.59,1.76-1.06,3.12-2.79,4.08-5.19L1494.31,1.24h10.64l30.73,79.7c1.12,2.65,2.36,4.45,3.73,5.38,1.37.93,4.04,1.4,8.03,1.4v6.84h-38.39v-6.84c5.47,0,8.72-.37,9.74-1.12,1.02-.75,1.49-1.56,1.43-2.43-.06-.87-.34-1.95-.84-3.24l-5.6-15.62h-36.15l-6.41,15.62c-.96,2.49-.66,4.24.87,5.26,1.53,1.02,5.12,1.52,10.76,1.52v6.84h-34.03v-6.84ZM1511.36,58.48l-14.43-40.32-16.49,40.32h30.92Z"/>
            <path d="M1552.05,87.6c4.06,0,6.7-.39,7.9-1.18,1.2-.79,1.98-1.63,2.33-2.52.35-.89.53-1.96.53-3.2V15.12c0-2.7-.5-4.4-1.49-5.1-1.66-1.2-4.75-1.8-9.27-1.8V1.24h21.46l53.38,67.75V15.12c0-2.74-.48-4.44-1.43-5.1-1.66-1.2-4.73-1.8-9.21-1.8V1.24h31.36v6.97c-4.07,0-6.7.39-7.9,1.18-1.2.79-1.98,1.63-2.33,2.52-.35.89-.53,1.96-.53,3.2v79.45h-7.65l-56.43-71.61v57.74c0,2.7.5,4.4,1.49,5.1,1.66,1.2,4.77,1.8,9.33,1.8v6.97h-31.54v-6.97Z"/>
            <path d="M1701.24,86.73c16.47,0,24.7-10.22,24.7-30.67V14.87c0-2.7-.46-4.38-1.37-5.04-1.66-1.16-4.69-1.74-9.08-1.74V1.24h31.61v6.84c-3.94,0-6.51.38-7.71,1.15-1.2.77-1.97,1.59-2.3,2.46-.33.87-.5,1.93-.5,3.17l.06,40.5c0,20.37-7.22,33.06-21.65,38.08-4.6,1.58-9.04,2.36-13.31,2.36s-7.85-.3-10.73-.9c-2.88-.6-5.65-1.56-8.31-2.89-5.81-2.9-10.43-7.3-13.87-13.19-3.44-5.89-5.16-13.5-5.16-22.83V14.87c0-2.65-.46-4.33-1.37-5.04-1.53-1.16-4.35-1.74-8.46-1.74V1.24h34.84v6.84c-4.19,0-6.92.38-8.18,1.15-1.27.77-2.07,1.59-2.43,2.46-.35.87-.53,1.93-.53,3.17v42.43c0,10,2.26,17.4,6.78,22.21,4.52,4.81,10.18,7.22,16.99,7.22Z"/>
            <path d="M1749.59,87.72c3.44,0,6.04-.53,7.81-1.59,1.76-1.06,3.12-2.79,4.08-5.19L1795.07,1.24h10.64l30.73,79.7c1.12,2.65,2.36,4.45,3.73,5.38,1.37.93,4.04,1.4,8.03,1.4v6.84h-38.39v-6.84c5.47,0,8.72-.37,9.74-1.12,1.02-.75,1.49-1.56,1.43-2.43-.06-.87-.34-1.95-.84-3.24l-5.6-15.62h-36.15l-6.41,15.62c-.96,2.49-.66,4.24.87,5.26,1.53,1.02,5.12,1.52,10.76,1.52v6.84h-34.03v-6.84ZM1812.11,58.48l-14.43-40.32-16.49,40.32h30.92Z"/>
            <path d="M1853.12,87.72c3.94,0,6.51-.38,7.71-1.15,1.2-.77,1.97-1.59,2.3-2.46s.5-1.93.5-3.17l-.06-66.07c0-2.7-.46-4.38-1.37-5.04-1.66-1.16-4.69-1.74-9.08-1.74V1.24h35.03v6.84c-3.94,0-6.51.38-7.71,1.15-1.2.77-1.97,1.59-2.3,2.46s-.5,1.93-.5,3.17v72.48h21.46c6.64,0,11.2-3.63,13.69-10.89l2.49-7.03,8.59.06-4.29,25.07h-66.45v-6.84Z"/>
          </g>
        </g>
      </g>
    </g>
  </g>
</svg>