<?xml version="1.0" encoding="UTF-8"?>
<svg id="Layer_2" data-name="Layer 2" xmlns="http://www.w3.org/2000/svg" viewBox="0 0 772.02 95.33">
  <defs>
    <style>
      .cls-1 {
        fill: #3070c9;
      }

      .cls-2 {
        stroke: #000;
        stroke-miterlimit: 10;
        stroke-width: 3px;
      }
    </style>
  </defs>
  <g id="TYPE">
    <g>
      <g>
        <g>
          <path class="cls-2" d="M10.89,4.25c6.03-1.03,14.51-1.8,26.45-1.8s20.67,2.31,26.45,6.93c5.52,4.37,9.25,11.56,9.25,20.03s-2.82,15.67-7.96,20.54c-6.68,6.29-16.56,9.12-28.12,9.12-2.57,0-4.88-.13-6.68-.39v30.95H10.89V4.25ZM30.28,43.54c1.67.39,3.72.51,6.55.51,10.4,0,16.82-5.26,16.82-14.12,0-7.96-5.52-12.71-15.28-12.71-3.98,0-6.68.38-8.09.77v25.55Z"/>
          <path class="cls-2" d="M167.93,45.46c0,28.38-17.21,45.58-42.5,45.58s-40.7-19.39-40.7-44.04c0-25.94,16.56-45.33,42.12-45.33s41.09,19.9,41.09,43.79ZM105.39,46.62c0,16.95,7.96,28.89,21.06,28.89s20.8-12.58,20.8-29.4c0-15.54-7.45-28.89-20.93-28.89s-20.93,12.58-20.93,29.4Z"/>
          <path class="cls-2" d="M235.47,53.04h-31.84v20.54h35.57v16.05h-55.21V3.09h53.42v16.05h-33.77v17.98h31.84v15.92Z"/>
          <path class="cls-2" d="M273.09,19.53h-23.24V3.09h66.51v16.44h-23.63v70.11h-19.65V19.53Z"/>
          <path class="cls-2" d="M329.98,4.25c6.29-1.03,15.67-1.8,26.07-1.8,12.84,0,21.83,1.93,27.99,6.81,5.14,4.11,7.96,10.14,7.96,18.1,0,11.04-7.83,18.62-15.28,21.31v.39c6.03,2.44,9.37,8.22,11.56,16.18,2.7,9.76,5.39,21.06,7.06,24.4h-20.03c-1.41-2.44-3.47-9.5-6.04-20.16-2.31-10.79-6.03-13.74-14-13.87h-5.91v34.03h-19.39V4.25ZM349.37,41.48h7.7c9.76,0,15.54-4.88,15.54-12.46,0-7.96-5.39-11.94-14.38-12.07-4.75,0-7.45.38-8.86.64v23.88Z"/>
          <path class="cls-2" d="M426.93,89.64v-35.44l-27.35-51.1h22.34l8.86,20.8c2.7,6.29,4.49,10.91,6.68,16.56h.26c1.93-5.39,3.98-10.4,6.55-16.56l8.73-20.8h21.96l-28.51,50.46v36.08h-19.52Z"/>
        </g>
        <g>
          <path d="M479.43,86.48c3.94,0,6.51-.38,7.71-1.15,1.2-.77,1.97-1.59,2.3-2.46s.5-1.93.5-3.17l-.06-66.07c0-2.7-.46-4.38-1.37-5.04-1.66-1.16-4.69-1.74-9.08-1.74V0h35.03v6.84c-3.94,0-6.51.38-7.71,1.15s-1.97,1.59-2.3,2.46-.5,1.93-.5,3.17v72.48h21.46c6.64,0,11.2-3.63,13.69-10.89l2.49-7.03,8.59.06-4.29,25.07h-66.45v-6.84Z"/>
          <path d="M559.38,86.48c3.94,0,6.51-.38,7.71-1.15,1.2-.77,1.97-1.59,2.3-2.46.33-.87.5-1.93.5-3.17l-.06-66.07c0-2.7-.48-4.38-1.43-5.04-1.62-1.16-4.62-1.74-9.02-1.74V0h34.97v6.84c-3.94,0-6.51.38-7.71,1.15s-1.97,1.59-2.3,2.46c-.33.87-.5,1.93-.5,3.17l.06,66.07c0,2.7.48,4.38,1.43,5.04,1.62,1.16,4.62,1.74,9.02,1.74v6.84h-34.97v-6.84Z"/>
          <path d="M603.74,86.48c4.4,0,7.13-.38,8.21-1.15,1.08-.77,1.72-1.59,1.93-2.46.21-.87.31-1.93.31-3.17V13.62c0-2.57-.77-4.34-2.3-5.32-1.54-.97-4.25-1.46-8.15-1.46V0h66.45l2.43,22.58-9.02.06-1.68-7.03c-.83-3.36-1.68-5.47-2.55-6.35-1.54-1.53-4.13-2.3-7.78-2.3h-23.39v36.21h11.45c4.69,0,7.56-.31,8.62-.93s1.78-1.51,2.18-2.68c.39-1.16.59-2.84.59-5.04h8.09v24.08h-8.09c0-3.86-.76-6.25-2.27-7.19-1.51-.93-4.55-1.4-9.12-1.4h-11.45v26.57c0,2.12.16,3.82.47,5.1.31,1.29,1.35,2.41,3.11,3.36,1.76.95,7.08,1.43,15.96,1.43v6.84h-43.99v-6.84Z"/>
          <path d="M682.82,86.48c4.02,0,6.62-.37,7.78-1.12,1.16-.75,1.91-1.54,2.24-2.4.33-.85.5-1.9.5-3.14V13.62c0-2.57-.77-4.34-2.3-5.32-1.54-.97-4.25-1.46-8.15-1.46V0h67.69l2.43,22.58-9.02.06-1.68-7.03c-.83-3.36-1.68-5.47-2.55-6.35-1.53-1.53-4.13-2.3-7.78-2.3h-24.64v36.21h12.07c4.69,0,7.56-.31,8.62-.93s1.78-1.51,2.18-2.68c.39-1.16.59-2.84.59-5.04h8.09v24.08h-8.09c0-3.86-.76-6.25-2.27-7.19-1.51-.93-4.55-1.4-9.12-1.4h-12.07v36.46h26.44c4.81,0,8-1.62,9.58-4.85.5-1,1-2.03,1.49-3.11l2.8-7.65h9.02l-2.43,22.46h-71.42v-6.84Z"/>
        </g>
      </g>
    </g>
  </g>
</svg>