<?xml version="1.0" encoding="UTF-8"?>
<svg id="Layer_2" data-name="Layer 2" xmlns="http://www.w3.org/2000/svg" viewBox="0 0 1075.29 95.95">
  <defs>
    <style>
      .cls-1 {
        fill: #3070c9;
      }

      .cls-2 {
        stroke: #000;
        stroke-miterlimit: 10;
        stroke-width: 3px;
      }
    </style>
  </defs>
  <g id="TYPE">
    <g>
      <g>
        <g>
          <path class="cls-2" d="M37.07,24.75h-.26l-15.92,7.58-3.21-14.64,22.09-10.27h16.18v83.46h-18.88V24.75Z"/>
          <path class="cls-2" d="M111.55,24.75h-.26l-15.92,7.58-3.21-14.64,22.09-10.27h16.18v83.46h-18.88V24.75Z"/>
          <path class="cls-2" d="M161.11,90.88v-11.81l10.79-9.76c18.23-16.31,27.09-25.68,27.35-35.44,0-6.81-4.11-12.2-13.74-12.2-7.19,0-13.48,3.59-17.85,6.93l-5.52-14c6.29-4.75,16.05-8.6,27.35-8.6,18.88,0,29.28,11.04,29.28,26.19,0,14-10.14,25.17-22.21,35.95l-7.7,6.42v.26h31.46v16.05h-59.19Z"/>
        </g>
        <g>
          <path d="M233.52,87.72c3.94,0,6.51-.38,7.71-1.15,1.2-.77,1.97-1.59,2.3-2.46.33-.87.5-1.93.5-3.17l-.06-66.07c0-2.7-.48-4.38-1.43-5.04-1.62-1.16-4.63-1.74-9.02-1.74V1.24h34.97v6.84c-3.94,0-6.51.38-7.71,1.15-1.2.77-1.97,1.59-2.3,2.46-.33.87-.5,1.93-.5,3.17l.06,66.07c0,2.7.48,4.38,1.43,5.04,1.62,1.16,4.62,1.74,9.02,1.74v6.84h-34.97v-6.84Z"/>
          <path d="M277.57,87.6c4.06,0,6.7-.39,7.9-1.18,1.2-.79,1.98-1.63,2.33-2.52.35-.89.53-1.96.53-3.2V15.12c0-2.7-.5-4.4-1.49-5.1-1.66-1.2-4.75-1.8-9.27-1.8V1.24h21.46l53.38,67.75V15.12c0-2.74-.48-4.44-1.43-5.1-1.66-1.2-4.73-1.8-9.21-1.8V1.24h31.36v6.97c-4.07,0-6.7.4-7.9,1.18-1.2.79-1.98,1.63-2.33,2.52-.35.89-.53,1.96-.53,3.2v79.45h-7.65l-56.43-71.61v57.74c0,2.7.5,4.4,1.49,5.1,1.66,1.2,4.77,1.8,9.33,1.8v6.97h-31.54v-6.97Z"/>
          <path d="M398.89,87.72c4.69,0,7.8-.38,9.33-1.15,1.53-.77,2.53-1.59,2.99-2.46.46-.87.68-1.93.68-3.17V8.46h-12.75c-6.84,0-10.76,3.63-11.76,10.89l-1.8,12.63-9.02-.06,2.74-30.67h79.2l2.74,30.67-9.02.06-1.8-12.63c-.46-3.36-1.35-5.74-2.68-7.15-2.41-2.49-5.43-3.73-9.08-3.73h-12.75v72.48c0,2.61.86,4.4,2.58,5.35,1.72.95,5.2,1.43,10.42,1.43v6.84h-40v-6.84Z"/>
          <path d="M466.14,87.72c4.02,0,6.62-.37,7.78-1.12,1.16-.75,1.91-1.54,2.24-2.4.33-.85.5-1.9.5-3.14V14.87c0-2.57-.77-4.34-2.3-5.32-1.54-.97-4.25-1.46-8.15-1.46V1.24h67.69l2.43,22.58-9.02.06-1.68-7.03c-.83-3.36-1.68-5.47-2.55-6.35-1.54-1.53-4.13-2.3-7.78-2.3h-24.64v36.21h12.07c4.69,0,7.56-.31,8.62-.93,1.06-.62,1.78-1.51,2.18-2.68.39-1.16.59-2.84.59-5.04h8.09v24.08h-8.09c0-3.86-.76-6.25-2.27-7.19-1.51-.93-4.55-1.4-9.11-1.4h-12.07v36.46h26.44c4.81,0,8-1.62,9.58-4.85.5-1,1-2.03,1.49-3.11l2.8-7.65h9.02l-2.43,22.46h-71.42v-6.84Z"/>
          <path d="M624.92,86.85c3.24,0,4.85-3.73,4.85-11.2h5.97c.46,1.49.68,2.8.68,3.92s-.02,2.33-.06,3.64c-.04,1.31-.54,3.02-1.49,5.13-2.28,4.98-6.55,7.47-12.82,7.47s-10.67-1.58-13.22-4.73c-2.55-3.15-4.37-6.36-5.44-9.61-1.08-3.26-1.95-6.11-2.61-8.55-1.91-6.68-3.44-11.03-4.6-13.07-2.12-3.9-5-5.85-8.65-5.85h-13.69v23.83c0,2.12.1,3.82.31,5.1.21,1.29.94,2.41,2.21,3.36,1.26.95,5.13,1.43,11.6,1.43v6.84h-38.51v-6.84c4.35,0,7.07-.38,8.15-1.15,1.08-.77,1.72-1.59,1.93-2.46.21-.87.31-1.93.31-3.17V14.87c0-2.7-.46-4.38-1.37-5.04-1.66-1.16-4.69-1.74-9.08-1.74V1.24h38.2c20.41,0,31.75,6.31,34.03,18.91.37,2.07.56,4.5.56,7.28,0,5.97-1.88,11.06-5.63,15.27-3.75,4.21-8.87,7.25-15.34,9.12,5.6,1.7,9.77,6.18,12.51,13.44.91,2.36,1.91,5.41,2.99,9.15,1.08,3.73,1.95,6.31,2.61,7.71,1.45,3.15,3.32,4.73,5.6,4.73ZM587.71,47.78c7.09,0,12.11-1.71,15.06-5.13,2.94-3.42,4.42-8.36,4.42-14.81s-1.72-11.35-5.16-14.71c-3.44-3.36-9.48-5.04-18.1-5.04h-10.08v39.69h13.87Z"/>
          <path d="M645.64,14.87c-1.12-2.65-2.36-4.45-3.73-5.38-1.37-.93-4.04-1.4-8.03-1.4V1.24h39.07v6.84c-5.52,0-8.77.38-9.77,1.15-1,.77-1.46,1.58-1.4,2.43.06.85.34,1.92.84,3.2l23.33,61.41,23.52-61.41c.95-2.49.66-4.24-.87-5.26-1.54-1.02-5.12-1.52-10.76-1.52V1.24h34.03v6.84c-3.44,0-6.04.52-7.78,1.56-1.74,1.04-3.11,2.78-4.11,5.23l-32.35,79.7h-8.15l-33.85-79.7Z"/>
          <path d="M734.11,87.72c3.94,0,6.51-.38,7.71-1.15,1.2-.77,1.97-1.59,2.3-2.46.33-.87.5-1.93.5-3.17l-.06-66.07c0-2.7-.48-4.38-1.43-5.04-1.62-1.16-4.62-1.74-9.02-1.74V1.24h34.97v6.84c-3.94,0-6.51.38-7.71,1.15s-1.97,1.59-2.3,2.46c-.33.87-.5,1.93-.5,3.17l.06,66.07c0,2.7.48,4.38,1.43,5.04,1.62,1.16,4.62,1.74,9.02,1.74v6.84h-34.97v-6.84Z"/>
          <path d="M778.41,87.72c4.02,0,6.62-.37,7.78-1.12,1.16-.75,1.91-1.54,2.24-2.4.33-.85.5-1.9.5-3.14V14.87c0-2.57-.77-4.34-2.3-5.32-1.54-.97-4.25-1.46-8.15-1.46V1.24h67.69l2.43,22.58-9.02.06-1.68-7.03c-.83-3.36-1.68-5.47-2.55-6.35-1.53-1.53-4.13-2.3-7.78-2.3h-24.64v36.21h12.07c4.69,0,7.56-.31,8.62-.93s1.78-1.51,2.18-2.68c.39-1.16.59-2.84.59-5.04h8.09v24.08h-8.09c0-3.86-.76-6.25-2.27-7.19-1.51-.93-4.55-1.4-9.12-1.4h-12.07v36.46h26.44c4.81,0,8-1.62,9.58-4.85.5-1,1-2.03,1.49-3.11l2.8-7.65h9.02l-2.43,22.46h-71.42v-6.84Z"/>
          <path d="M864.76,14.87c-.96-2.61-2.08-4.4-3.39-5.35-1.31-.95-3.64-1.43-7-1.43V1.24h36.4v6.84c-5.47,0-8.69.37-9.64,1.12-.95.75-1.41,1.56-1.37,2.43.04.87.27,1.95.68,3.24l17.54,57.55L920.51,1.24h8.15l22.96,70.93,17.11-57.3c.21-.75.31-1.63.31-2.64s-.76-1.96-2.27-2.83c-1.51-.87-4.68-1.31-9.49-1.31V1.24h32.17v6.84c-3.11,0-5.5.51-7.16,1.52-1.66,1.02-2.88,2.77-3.67,5.26l-25.51,79.7h-8.09l-23.02-68.13-22.15,68.13h-7.28l-27.81-79.7Z"/>
          <path d="M1038.91,11.82c-2.16-2.9-6.77-4.36-13.84-4.36s-11.96,2.36-14.65,7.09c-.91,1.62-1.37,3.61-1.37,5.97,0,4.36,1.95,8.34,5.85,11.95,2.57,2.41,6.13,4.87,10.67,7.4,4.54,2.53,8.37,4.79,11.48,6.78,11.74,7.47,17.61,15.64,17.61,24.51,0,7.88-2.89,13.96-8.68,18.23-5.79,4.27-13.27,6.41-22.46,6.41s-16.55-1.81-22.09-5.44c-5.54-3.63-8.31-7.8-8.31-12.51s1.89-7.89,5.66-9.55c1.16-.54,2.43-.81,3.8-.81,2.61,0,4.76.87,6.44,2.61,1.68,1.74,2.52,3.94,2.52,6.59s-1.2,4.92-3.61,6.78c3.23,3.24,8.59,4.85,16.08,4.85s12.62-2.53,15.4-7.59c1-1.74,1.49-3.77,1.49-6.1,0-4.02-2.08-7.76-6.22-11.2-2.16-1.78-5.8-4.1-10.92-6.94-5.12-2.84-9.16-5.22-12.1-7.12-10.83-6.97-16.24-15.18-16.24-24.64,0-7.38,2.79-13.35,8.37-17.92,5.58-4.56,12.48-6.84,20.72-6.84s14.99,1.76,20.28,5.29c5.29,3.53,7.93,7.82,7.93,12.88,0,2.74-.84,5.03-2.52,6.88s-3.81,2.77-6.38,2.77c-3.94,0-6.68-1.72-8.21-5.16-.46-1.04-.68-2.14-.68-3.3,0-3.19,1.33-5.7,3.98-7.53Z"/>
        </g>
      </g>
    </g>
  </g>
</svg>