<?xml version="1.0" encoding="UTF-8"?>
<svg id="Layer_2" data-name="Layer 2" xmlns="http://www.w3.org/2000/svg" viewBox="0 0 1741.01 95.81">
  <defs>
    <style>
      .cls-1 {
        fill: #3070c9;
      }

      .cls-2 {
        stroke: #000;
        stroke-miterlimit: 10;
        stroke-width: 3px;
      }
    </style>
  </defs>
  <g id="TYPE">
    <g>
      <g>
        <g>
          <path class="cls-2" d="M8.15,4.34h19.65v70.11h34.41v16.44H8.15V4.34Z"/>
          <path class="cls-2" d="M92.51,4.34v49.82c0,14.9,5.65,22.47,15.67,22.47s15.92-7.19,15.92-22.47V4.34h19.52v48.54c0,26.71-13.48,39.42-36.08,39.42s-34.67-12.07-34.67-39.68V4.34h19.65Z"/>
          <path class="cls-2" d="M184.19,90.88L156.46,4.34h21.44l10.53,36.59c2.95,10.27,5.65,20.16,7.7,30.94h.39c2.18-10.4,4.88-20.67,7.83-30.56l11.04-36.98h20.8l-29.15,86.54h-22.86Z"/>
          <path class="cls-2" d="M341.36,88.44c-3.6,1.8-11.68,3.72-22.21,3.72-29.92,0-45.33-18.62-45.33-43.27,0-29.53,21.06-45.97,47.25-45.97,10.14,0,17.85,2.05,21.31,3.85l-3.98,15.54c-3.98-1.67-9.5-3.21-16.44-3.21-15.54,0-27.61,9.37-27.61,28.63,0,17.33,10.27,28.25,27.73,28.25,5.91,0,12.46-1.28,16.31-2.83l2.95,15.28Z"/>
          <path class="cls-2" d="M432.79,46.71c0,28.38-17.21,45.58-42.5,45.58s-40.7-19.39-40.7-44.04c0-25.94,16.56-45.33,42.12-45.33s41.09,19.9,41.09,43.79ZM370.26,47.87c0,16.95,7.96,28.89,21.06,28.89s20.8-12.58,20.8-29.4c0-15.54-7.45-28.89-20.93-28.89s-20.93,12.58-20.93,29.4Z"/>
          <path class="cls-2" d="M468.36,4.34v49.82c0,14.9,5.65,22.47,15.67,22.47s15.92-7.19,15.92-22.47V4.34h19.52v48.54c0,26.71-13.48,39.42-36.08,39.42s-34.67-12.07-34.67-39.68V4.34h19.65Z"/>
          <path class="cls-2" d="M556.32,20.77h-23.24V4.34h66.51v16.44h-23.63v70.11h-19.65V20.77Z"/>
          <path class="cls-2" d="M632.72,4.34v49.82c0,14.9,5.65,22.47,15.67,22.47s15.92-7.19,15.92-22.47V4.34h19.52v48.54c0,26.71-13.48,39.42-36.08,39.42s-34.67-12.07-34.67-39.68V4.34h19.65Z"/>
          <path class="cls-2" d="M703.99,5.49c6.29-1.03,15.67-1.8,26.07-1.8,12.84,0,21.83,1.93,27.99,6.81,5.14,4.11,7.96,10.14,7.96,18.1,0,11.04-7.83,18.62-15.28,21.31v.39c6.03,2.44,9.37,8.22,11.56,16.18,2.7,9.76,5.39,21.06,7.06,24.4h-20.03c-1.41-2.44-3.47-9.5-6.04-20.16-2.31-10.79-6.03-13.74-14-13.87h-5.91v34.03h-19.39V5.49ZM723.38,42.73h7.7c9.76,0,15.54-4.88,15.54-12.46,0-7.96-5.39-11.94-14.38-12.07-4.75,0-7.45.38-8.86.64v23.88Z"/>
          <path class="cls-2" d="M834.83,54.29h-31.84v20.54h35.57v16.05h-55.21V4.34h53.42v16.05h-33.77v17.98h31.84v15.92Z"/>
        </g>
        <g>
          <path d="M923.45,86.85c3.23,0,4.85-3.73,4.85-11.2h5.97c.46,1.49.68,2.8.68,3.92s-.02,2.33-.06,3.64-.54,3.02-1.49,5.13c-2.28,4.98-6.55,7.47-12.82,7.47s-10.67-1.58-13.22-4.73c-2.55-3.15-4.37-6.36-5.44-9.61-1.08-3.26-1.95-6.11-2.61-8.55-1.91-6.68-3.44-11.03-4.6-13.07-2.12-3.9-5-5.85-8.65-5.85h-13.69v23.83c0,2.12.1,3.82.31,5.1.21,1.29.94,2.41,2.21,3.36s5.13,1.43,11.6,1.43v6.84h-38.51v-6.84c4.35,0,7.07-.38,8.15-1.15,1.08-.77,1.72-1.59,1.93-2.46.21-.87.31-1.93.31-3.17V14.87c0-2.7-.46-4.38-1.37-5.04-1.66-1.16-4.69-1.74-9.08-1.74V1.24h38.2c20.41,0,31.75,6.31,34.03,18.91.37,2.07.56,4.5.56,7.28,0,5.97-1.88,11.06-5.63,15.27-3.75,4.21-8.87,7.25-15.34,9.12,5.6,1.7,9.77,6.18,12.51,13.44.91,2.36,1.91,5.41,2.99,9.15,1.08,3.73,1.95,6.31,2.61,7.71,1.45,3.15,3.32,4.73,5.6,4.73ZM886.24,47.78c7.09,0,12.11-1.71,15.06-5.13,2.94-3.42,4.42-8.36,4.42-14.81s-1.72-11.35-5.16-14.71c-3.44-3.36-9.48-5.04-18.1-5.04h-10.08v39.69h13.88Z"/>
          <path d="M939.62,87.72c4.02,0,6.62-.37,7.78-1.12,1.16-.75,1.91-1.54,2.24-2.4.33-.85.5-1.9.5-3.14V14.87c0-2.57-.77-4.34-2.3-5.32-1.54-.97-4.25-1.46-8.15-1.46V1.24h67.69l2.43,22.58-9.02.06-1.68-7.03c-.83-3.36-1.68-5.47-2.55-6.35-1.53-1.53-4.13-2.3-7.78-2.3h-24.64v36.21h12.07c4.69,0,7.56-.31,8.62-.93s1.78-1.51,2.18-2.68c.39-1.16.59-2.84.59-5.04h8.09v24.08h-8.09c0-3.86-.76-6.25-2.27-7.19-1.51-.93-4.55-1.4-9.12-1.4h-12.07v36.46h26.44c4.81,0,8-1.62,9.58-4.85.5-1,1-2.03,1.49-3.11l2.8-7.65h9.02l-2.43,22.46h-71.42v-6.84Z"/>
          <path d="M1078.05,45.42c13.77,3.61,20.66,11.26,20.66,22.96,0,4.85-.74,8.64-2.21,11.35-1.47,2.72-3.12,4.91-4.95,6.56-5.97,5.52-16.26,8.27-30.86,8.27h-37.76v-6.84c4.35,0,7.07-.38,8.15-1.15,1.08-.77,1.72-1.59,1.93-2.46.21-.87.31-1.93.31-3.17V14.87c0-2.7-.46-4.38-1.37-5.04-1.66-1.16-4.69-1.74-9.08-1.74V1.24h34.65c16.8,0,27.81,3.98,33.04,11.95,2.07,3.15,3.11,6.82,3.11,11.01,0,9.87-5.21,16.94-15.62,21.22ZM1055.78,43.43c11.61-.25,18.69-3.65,21.22-10.2.83-2.16,1.24-4.56,1.24-7.22,0-5.6-1.65-9.99-4.95-13.16-3.3-3.17-8.95-4.76-16.95-4.76h-9.02v35.34h8.46ZM1059.51,87.72c12.36,0,19.87-4.02,22.52-12.07.79-2.36,1.18-4.94,1.18-7.71,0-5.72-2.17-10.27-6.5-13.62-4.33-3.36-10.28-5.12-17.83-5.29h-11.57v38.7h12.19Z"/>
          <path d="M1183.2,86.85c3.24,0,4.85-3.73,4.85-11.2h5.97c.46,1.49.68,2.8.68,3.92s-.02,2.33-.06,3.64c-.04,1.31-.54,3.02-1.49,5.13-2.28,4.98-6.55,7.47-12.82,7.47s-10.67-1.58-13.22-4.73c-2.55-3.15-4.37-6.36-5.44-9.61-1.08-3.26-1.95-6.11-2.61-8.55-1.91-6.68-3.44-11.03-4.6-13.07-2.12-3.9-5-5.85-8.65-5.85h-13.69v23.83c0,2.12.1,3.82.31,5.1.21,1.29.94,2.41,2.21,3.36,1.26.95,5.13,1.43,11.6,1.43v6.84h-38.51v-6.84c4.35,0,7.07-.38,8.15-1.15,1.08-.77,1.72-1.59,1.93-2.46.21-.87.31-1.93.31-3.17V14.87c0-2.7-.46-4.38-1.37-5.04-1.66-1.16-4.69-1.74-9.08-1.74V1.24h38.2c20.41,0,31.75,6.31,34.03,18.91.37,2.07.56,4.5.56,7.28,0,5.97-1.88,11.06-5.63,15.27-3.75,4.21-8.87,7.25-15.34,9.12,5.6,1.7,9.77,6.18,12.51,13.44.91,2.36,1.91,5.41,2.99,9.15,1.08,3.73,1.95,6.31,2.61,7.71,1.45,3.15,3.32,4.73,5.6,4.73ZM1145.99,47.78c7.09,0,12.11-1.71,15.06-5.13,2.94-3.42,4.42-8.36,4.42-14.81s-1.72-11.35-5.16-14.71c-3.44-3.36-9.48-5.04-18.1-5.04h-10.08v39.69h13.87Z"/>
          <path d="M1194.27,87.72c3.44,0,6.04-.53,7.81-1.59,1.76-1.06,3.12-2.79,4.08-5.19L1239.75,1.24h10.64l30.73,79.7c1.12,2.65,2.36,4.45,3.73,5.38,1.37.93,4.04,1.4,8.03,1.4v6.84h-38.39v-6.84c5.47,0,8.72-.37,9.74-1.12,1.02-.75,1.49-1.56,1.43-2.43-.06-.87-.34-1.95-.84-3.24l-5.6-15.62h-36.15l-6.41,15.62c-.96,2.49-.66,4.24.87,5.26,1.53,1.02,5.12,1.52,10.76,1.52v6.84h-34.03v-6.84ZM1256.8,58.48l-14.43-40.32-16.49,40.32h30.92Z"/>
          <path d="M1297.49,87.6c4.06,0,6.7-.39,7.9-1.18,1.2-.79,1.98-1.63,2.33-2.52.35-.89.53-1.96.53-3.2V15.12c0-2.7-.5-4.4-1.49-5.1-1.66-1.2-4.75-1.8-9.27-1.8V1.24h21.46l53.38,67.75V15.12c0-2.74-.48-4.44-1.43-5.1-1.66-1.2-4.73-1.8-9.21-1.8V1.24h31.36v6.97c-4.07,0-6.7.4-7.9,1.18-1.2.79-1.98,1.63-2.33,2.52-.35.89-.53,1.96-.53,3.2v79.45h-7.65l-56.43-71.61v57.74c0,2.7.5,4.4,1.49,5.1,1.66,1.2,4.77,1.8,9.33,1.8v6.97h-31.54v-6.97Z"/>
          <path d="M1400.46,87.72c4.4,0,7.13-.38,8.21-1.15,1.08-.77,1.72-1.59,1.93-2.46.21-.87.31-1.93.31-3.17V14.87c0-2.7-.46-4.38-1.37-5.04-1.66-1.16-4.69-1.74-9.08-1.74V1.24h33.41c26.79,0,42.91,8.79,48.34,26.38,1.66,5.47,2.49,11.35,2.49,17.64s-.62,11.8-1.87,16.55c-1.24,4.75-2.99,8.95-5.23,12.6-4.27,6.93-10.13,12.02-17.58,15.27-7.45,3.26-15.75,4.88-24.92,4.88h-34.65v-6.84ZM1436.48,87.66c21.32,0,31.98-13.89,31.98-41.68,0-11.86-2.95-21.25-8.83-28.15-5.89-6.91-14.66-10.36-26.32-10.36h-8.4v80.2h11.57Z"/>
          <path d="M1494.59,87.72c3.94,0,6.51-.38,7.71-1.15,1.2-.77,1.97-1.59,2.3-2.46.33-.87.5-1.93.5-3.17l-.06-66.07c0-2.7-.48-4.38-1.43-5.04-1.62-1.16-4.62-1.74-9.02-1.74V1.24h34.97v6.84c-3.94,0-6.51.38-7.71,1.15s-1.97,1.59-2.3,2.46c-.33.87-.5,1.93-.5,3.17l.06,66.07c0,2.7.48,4.38,1.43,5.04,1.62,1.16,4.62,1.74,9.02,1.74v6.84h-34.97v-6.84Z"/>
          <path d="M1538.64,87.6c4.06,0,6.7-.39,7.9-1.18,1.2-.79,1.98-1.63,2.33-2.52.35-.89.53-1.96.53-3.2V15.12c0-2.7-.5-4.4-1.49-5.1-1.66-1.2-4.75-1.8-9.27-1.8V1.24h21.46l53.38,67.75V15.12c0-2.74-.48-4.44-1.43-5.1-1.66-1.2-4.73-1.8-9.21-1.8V1.24h31.36v6.97c-4.07,0-6.7.4-7.9,1.18-1.2.79-1.98,1.63-2.33,2.52-.35.89-.53,1.96-.53,3.2v79.45h-7.65l-56.43-71.61v57.74c0,2.7.5,4.4,1.49,5.1,1.66,1.2,4.77,1.8,9.33,1.8v6.97h-31.54v-6.97Z"/>
          <path d="M1648.58,75.75c-2.08-3.55-3.69-7.63-4.85-12.26-1.16-4.62-1.74-9.35-1.74-14.19s.38-9.2,1.15-13.1c.77-3.9,1.94-7.63,3.52-11.2,3.36-7.59,8.48-13.66,15.37-18.2,6.88-4.54,15.35-6.81,25.38-6.81s18.39,2.49,25.07,7.47c6.68,4.98,10.02,11.05,10.02,18.23,0,4.89-1.95,8.19-5.85,9.89-1.2.54-2.49.81-3.86.81-2.66,0-4.81-.83-6.47-2.49-1.66-1.66-2.49-3.59-2.49-5.79,0-4.4,1.76-7.42,5.29-9.08-1.66-3.48-4.48-6.23-8.46-8.24-3.98-2.01-8.07-3.02-12.26-3.02-8.83,0-16.04,3.3-21.62,9.89s-8.37,16.48-8.37,29.65,2.9,23.2,8.71,30.08c5.81,6.89,12.86,10.33,21.15,10.33,6.76,0,12-1.7,15.71-5.1,3.71-3.4,5.57-7.14,5.57-11.23s-.93-6.66-2.8-7.71c-1.87-1.06-6.14-1.59-12.82-1.59v-8.28h28.5v40.75h-8.34l-2.3-7.47c-3.57,3.73-9.08,6.35-16.55,7.84-2.74.58-5.85.87-9.33.87s-7.02-.38-10.61-1.15c-3.59-.77-7.02-1.96-10.3-3.58-3.28-1.62-6.32-3.69-9.12-6.22-2.8-2.53-5.24-5.57-7.31-9.11Z"/>
        </g>
      </g>
    </g>
  </g>
</svg>