<?xml version="1.0" encoding="UTF-8"?>
<svg id="Layer_2" data-name="Layer 2" xmlns="http://www.w3.org/2000/svg" viewBox="0 0 1921.46 96.89">
  <defs>
    <style>
      .cls-1 {
        fill: #3070c9;
      }

      .cls-2 {
        stroke: #000;
        stroke-miterlimit: 10;
        stroke-width: 3px;
      }
    </style>
  </defs>
  <g id="TYPE">
    <g>
      <g>
        <g>
          <g>
            <path class="cls-2" d="M11.1,6.57c6.03-1.03,14.51-1.8,26.45-1.8s20.67,2.31,26.45,6.93c5.52,4.37,9.25,11.56,9.25,20.03s-2.82,15.67-7.96,20.54c-6.68,6.29-16.56,9.12-28.12,9.12-2.57,0-4.88-.13-6.68-.39v30.95H11.1V6.57ZM30.49,45.86c1.67.39,3.72.51,6.55.51,10.4,0,16.82-5.26,16.82-14.12,0-7.96-5.52-12.71-15.28-12.71-3.98,0-6.68.38-8.09.77v25.55Z"/>
            <path class="cls-2" d="M108.57,5.42v33.26h32.23V5.42h19.52v86.54h-19.52v-36.21h-32.23v36.21h-19.65V5.42h19.65Z"/>
            <path class="cls-2" d="M259.83,47.79c0,28.38-17.21,45.58-42.5,45.58s-40.7-19.39-40.7-44.04c0-25.94,16.56-45.33,42.12-45.33s41.09,19.9,41.09,43.79ZM197.3,48.95c0,16.95,7.96,28.89,21.06,28.89s20.8-12.58,20.8-29.4c0-15.54-7.45-28.89-20.93-28.89s-20.93,12.58-20.93,29.4Z"/>
            <path class="cls-2" d="M288.98,21.85h-23.24V5.42h66.51v16.44h-23.63v70.11h-19.65V21.85Z"/>
            <path class="cls-2" d="M421.37,47.79c0,28.38-17.21,45.58-42.5,45.58s-40.7-19.39-40.7-44.04c0-25.94,16.56-45.33,42.12-45.33s41.09,19.9,41.09,43.79ZM358.83,48.95c0,16.95,7.96,28.89,21.06,28.89s20.8-12.58,20.8-29.4c0-15.54-7.45-28.89-20.93-28.89s-20.93,12.58-20.93,29.4Z"/>
            <path class="cls-2" d="M509.71,87.98c-6.03,2.05-17.46,4.88-28.89,4.88-15.79,0-27.22-3.98-35.18-11.68-7.96-7.45-12.33-18.75-12.2-31.46.13-28.76,21.06-45.2,49.44-45.2,11.17,0,19.77,2.18,24.01,4.24l-4.11,15.67c-4.75-2.05-10.66-3.72-20.16-3.72-16.31,0-28.63,9.25-28.63,27.99s11.17,28.38,27.22,28.38c4.49,0,8.09-.51,9.63-1.28v-18.1h-13.35v-15.28h32.23v45.58Z"/>
            <path class="cls-2" d="M528.2,6.57c6.29-1.03,15.67-1.8,26.07-1.8,12.84,0,21.83,1.93,27.99,6.81,5.14,4.11,7.96,10.14,7.96,18.1,0,11.04-7.83,18.62-15.28,21.31v.39c6.03,2.44,9.37,8.22,11.56,16.18,2.7,9.76,5.39,21.06,7.06,24.4h-20.03c-1.41-2.44-3.47-9.5-6.04-20.16-2.31-10.79-6.03-13.74-14-13.87h-5.91v34.03h-19.39V6.57ZM547.59,43.81h7.7c9.76,0,15.54-4.88,15.54-12.46,0-7.96-5.39-11.94-14.38-12.07-4.75,0-7.45.38-8.86.64v23.88Z"/>
            <path class="cls-2" d="M628.87,69.75l-6.16,22.21h-20.29l26.45-86.54h25.68l26.84,86.54h-21.06l-6.68-22.21h-24.78ZM650.83,55.11l-5.39-18.36c-1.54-5.14-3.08-11.56-4.37-16.69h-.26c-1.28,5.14-2.57,11.68-3.98,16.69l-5.14,18.36h19.13Z"/>
            <path class="cls-2" d="M696.16,6.57c6.03-1.03,14.51-1.8,26.45-1.8s20.67,2.31,26.45,6.93c5.52,4.37,9.25,11.56,9.25,20.03s-2.82,15.67-7.96,20.54c-6.68,6.29-16.56,9.12-28.12,9.12-2.57,0-4.88-.13-6.68-.39v30.95h-19.39V6.57ZM715.55,45.86c1.67.39,3.72.51,6.55.51,10.4,0,16.82-5.26,16.82-14.12,0-7.96-5.52-12.71-15.28-12.71-3.98,0-6.68.38-8.09.77v25.55Z"/>
            <path class="cls-2" d="M793.62,5.42v33.26h32.23V5.42h19.52v86.54h-19.52v-36.21h-32.23v36.21h-19.65V5.42h19.65Z"/>
            <path class="cls-2" d="M883.38,91.96v-35.44l-27.35-51.1h22.34l8.86,20.8c2.7,6.29,4.49,10.91,6.68,16.56h.26c1.93-5.39,3.98-10.4,6.55-16.56l8.73-20.8h21.96l-28.51,50.46v36.08h-19.52Z"/>
          </g>
          <g>
            <path d="M939.74,76.83c-2.07-3.55-3.69-7.63-4.85-12.26-1.16-4.62-1.74-9.35-1.74-14.19s.38-9.2,1.15-13.1c.77-3.9,1.94-7.63,3.52-11.2,3.36-7.59,8.48-13.66,15.37-18.2,6.88-4.54,15.35-6.81,25.38-6.81s18.39,2.49,25.07,7.47c6.68,4.98,10.02,11.05,10.02,18.23,0,4.89-1.95,8.19-5.85,9.89-1.2.54-2.49.81-3.86.81-2.66,0-4.81-.83-6.47-2.49-1.66-1.66-2.49-3.59-2.49-5.79,0-4.4,1.76-7.42,5.29-9.08-1.66-3.48-4.48-6.23-8.46-8.24-3.98-2.01-8.07-3.02-12.26-3.02-8.83,0-16.04,3.3-21.62,9.89-5.58,6.59-8.37,16.48-8.37,29.65s2.9,23.2,8.71,30.08c5.81,6.89,12.86,10.33,21.15,10.33,6.76,0,12-1.7,15.71-5.1,3.71-3.4,5.57-7.14,5.57-11.23s-.93-6.66-2.8-7.71c-1.87-1.06-6.14-1.59-12.82-1.59v-8.28h28.5v40.75h-8.34l-2.3-7.47c-3.57,3.73-9.08,6.35-16.55,7.84-2.74.58-5.85.87-9.33.87s-7.02-.38-10.61-1.15c-3.59-.77-7.02-1.96-10.3-3.58-3.28-1.62-6.31-3.69-9.11-6.22-2.8-2.53-5.24-5.57-7.31-9.11Z"/>
            <path d="M1023.79,88.81c3.44,0,6.04-.53,7.81-1.59,1.76-1.06,3.12-2.79,4.08-5.19l33.6-79.7h10.64l30.73,79.7c1.12,2.65,2.36,4.45,3.73,5.38,1.37.93,4.04,1.4,8.03,1.4v6.84h-38.39v-6.84c5.47,0,8.72-.37,9.74-1.12,1.02-.75,1.49-1.56,1.43-2.43-.06-.87-.34-1.95-.84-3.24l-5.6-15.62h-36.15l-6.41,15.62c-.96,2.49-.66,4.24.87,5.26,1.53,1.02,5.12,1.52,10.76,1.52v6.84h-34.03v-6.84ZM1086.32,59.56l-14.43-40.32-16.49,40.32h30.92Z"/>
            <path d="M1173.55,87.81c16.47,0,24.7-10.22,24.7-30.67V15.95c0-2.7-.46-4.38-1.37-5.04-1.66-1.16-4.69-1.74-9.08-1.74V2.32h31.61v6.84c-3.94,0-6.51.38-7.71,1.15-1.2.77-1.97,1.59-2.3,2.46-.33.87-.5,1.93-.5,3.17l.06,40.5c0,20.37-7.22,33.06-21.65,38.08-4.6,1.58-9.04,2.36-13.31,2.36s-7.85-.3-10.73-.9c-2.88-.6-5.65-1.56-8.31-2.89-5.81-2.9-10.43-7.3-13.87-13.19-3.44-5.89-5.16-13.5-5.16-22.83V15.95c0-2.65-.46-4.33-1.37-5.04-1.53-1.16-4.35-1.74-8.46-1.74V2.32h34.84v6.84c-4.19,0-6.92.38-8.18,1.15-1.27.77-2.07,1.59-2.43,2.46-.35.87-.53,1.93-.53,3.17v42.43c0,10,2.26,17.4,6.78,22.21,4.52,4.81,10.18,7.22,16.99,7.22Z"/>
            <path d="M1272.22,88.81c13.07,0,21.32-6.01,24.76-18.04h8.96c0,3.24-.87,6.42-2.61,9.55s-4.19,5.92-7.34,8.37c-6.97,5.47-15.93,8.21-26.88,8.21s-20.32-3.65-28.12-10.95c-9.04-8.42-13.56-20.74-13.56-36.96,0-12.94,3.48-23.85,10.45-32.73,4.94-6.35,11.51-10.76,19.72-13.25,4.23-1.29,8.88-1.93,13.94-1.93,10,0,18.21,2.29,24.64,6.88,6.43,4.58,9.64,10.34,9.64,17.26,0,5.19-2.03,8.67-6.1,10.45-1.2.54-2.51.81-3.92.81-4.36,0-7.28-1.84-8.77-5.54-.46-1.16-.68-2.54-.68-4.14s.46-3.17,1.37-4.73c.91-1.56,2.12-2.75,3.61-3.58-3.36-6.43-9.37-9.64-18.04-9.64s-15.72,3.29-21.15,9.86c-5.43,6.58-8.15,16.45-8.15,29.62s2.76,23.21,8.27,30.11c5.52,6.91,12.17,10.36,19.97,10.36Z"/>
            <path d="M1319.82,88.81c3.94,0,6.51-.38,7.71-1.15,1.2-.77,1.97-1.59,2.3-2.46s.5-1.93.5-3.17l-.06-66.07c0-2.7-.46-4.38-1.37-5.04-1.66-1.16-4.69-1.74-9.08-1.74V2.32h34.97v6.84c-3.94,0-6.51.38-7.71,1.15-1.2.77-1.97,1.59-2.3,2.46-.33.87-.5,1.93-.5,3.17v27.81h46.35V15.95c0-2.7-.46-4.38-1.37-5.04-1.66-1.16-4.69-1.74-9.08-1.74V2.32h34.97v6.84c-3.94,0-6.51.38-7.71,1.15-1.2.77-1.97,1.59-2.3,2.46-.33.87-.5,1.93-.5,3.17l.06,66.07c0,2.7.46,4.38,1.37,5.04,1.66,1.16,4.69,1.74,9.08,1.74v6.84h-34.97v-6.84c3.94,0,6.51-.38,7.71-1.15,1.2-.77,1.97-1.59,2.3-2.46s.5-1.93.5-3.17l-.06-30.17h-46.35l.06,30.17c0,2.7.46,4.38,1.37,5.04,1.66,1.16,4.69,1.74,9.08,1.74v6.84h-34.97v-6.84Z"/>
            <path d="M1424.59,88.81c3.94,0,6.51-.38,7.71-1.15,1.2-.77,1.97-1.59,2.3-2.46.33-.87.5-1.93.5-3.17l-.06-66.07c0-2.7-.48-4.38-1.43-5.04-1.62-1.16-4.62-1.74-9.02-1.74V2.32h34.97v6.84c-3.94,0-6.51.38-7.71,1.15s-1.97,1.59-2.3,2.46c-.33.87-.5,1.93-.5,3.17l.06,66.07c0,2.7.48,4.38,1.43,5.04,1.62,1.16,4.62,1.74,9.02,1.74v6.84h-34.97v-6.84Z"/>
            <path d="M1487.3,88.81c4.69,0,7.8-.38,9.33-1.15,1.53-.77,2.53-1.59,2.99-2.46.46-.87.68-1.93.68-3.17V9.54h-12.75c-6.84,0-10.76,3.63-11.76,10.89l-1.8,12.63-9.02-.06,2.74-30.67h79.2l2.74,30.67-9.02.06-1.8-12.63c-.46-3.36-1.35-5.74-2.68-7.15-2.41-2.49-5.43-3.73-9.08-3.73h-12.75v72.48c0,2.61.86,4.4,2.58,5.35,1.72.95,5.2,1.43,10.42,1.43v6.84h-40v-6.84Z"/>
            <path d="M1555,48.99c0-7.88,1.2-14.88,3.61-21,2.41-6.12,5.64-11.17,9.71-15.15,8-7.84,18.23-11.76,30.67-11.76s22.67,3.86,30.67,11.57c8.88,8.5,13.31,20.51,13.31,36.02s-4.08,27.43-12.23,35.74c-8.15,8.32-18.74,12.47-31.76,12.47s-23.56-4.21-31.73-12.63c-8.17-8.42-12.26-20.18-12.26-35.28ZM1599.17,88.81c7.26,0,13.36-2.7,18.29-8.09,6.22-6.8,9.33-17.15,9.33-31.05s-2.66-24.12-7.96-30.67c-5.31-6.55-11.99-9.83-20.03-9.83s-14.61,3.27-19.82,9.8c-5.21,6.53-7.81,16.33-7.81,29.4,0,18.79,5.14,31.17,15.43,37.14,3.77,2.2,7.96,3.3,12.57,3.3Z"/>
            <path d="M1701.76,76.83c-2.08-3.55-3.69-7.63-4.85-12.26-1.16-4.62-1.74-9.35-1.74-14.19s.38-9.2,1.15-13.1c.77-3.9,1.94-7.63,3.52-11.2,3.36-7.59,8.48-13.66,15.37-18.2,6.88-4.54,15.35-6.81,25.38-6.81s18.39,2.49,25.07,7.47c6.68,4.98,10.02,11.05,10.02,18.23,0,4.89-1.95,8.19-5.85,9.89-1.2.54-2.49.81-3.86.81-2.66,0-4.81-.83-6.47-2.49-1.66-1.66-2.49-3.59-2.49-5.79,0-4.4,1.76-7.42,5.29-9.08-1.66-3.48-4.48-6.23-8.46-8.24-3.98-2.01-8.07-3.02-12.26-3.02-8.83,0-16.04,3.3-21.62,9.89s-8.37,16.48-8.37,29.65,2.9,23.2,8.71,30.08c5.81,6.89,12.86,10.33,21.15,10.33,6.76,0,12-1.7,15.71-5.1,3.71-3.4,5.57-7.14,5.57-11.23s-.93-6.66-2.8-7.71c-1.87-1.06-6.14-1.59-12.82-1.59v-8.28h28.5v40.75h-8.34l-2.3-7.47c-3.57,3.73-9.08,6.35-16.55,7.84-2.74.58-5.85.87-9.33.87s-7.02-.38-10.61-1.15c-3.59-.77-7.02-1.96-10.3-3.58-3.28-1.62-6.32-3.69-9.12-6.22-2.8-2.53-5.24-5.57-7.31-9.11Z"/>
            <path d="M1791.54,88.81c3.94,0,6.51-.38,7.71-1.15,1.2-.77,1.97-1.59,2.3-2.46.33-.87.5-1.93.5-3.17l-.06-66.07c0-2.7-.48-4.38-1.43-5.04-1.62-1.16-4.62-1.74-9.02-1.74V2.32h34.97v6.84c-3.94,0-6.51.38-7.71,1.15s-1.97,1.59-2.3,2.46c-.33.87-.5,1.93-.5,3.17l.06,66.07c0,2.7.48,4.38,1.43,5.04,1.62,1.16,4.62,1.74,9.02,1.74v6.84h-34.97v-6.84Z"/>
            <path d="M1835.9,88.81c3.94,0,6.51-.38,7.71-1.15,1.2-.77,1.97-1.59,2.3-2.46s.5-1.93.5-3.17l-.06-66.07c0-2.7-.46-4.38-1.37-5.04-1.66-1.16-4.69-1.74-9.08-1.74V2.32h35.03v6.84c-3.94,0-6.51.38-7.71,1.15s-1.97,1.59-2.3,2.46-.5,1.93-.5,3.17v72.48h21.46c6.64,0,11.2-3.63,13.69-10.89l2.49-7.03,8.59.06-4.29,25.07h-66.45v-6.84Z"/>
          </g>
        </g>
        <g>
          <path d="M1686.23,42.02l-9.6,4.41c-.65.3-1.36-.55-1.63-.97-.28-.44-.65-1.54-.11-1.97l8.58-6.07c.45-.32,1.11-.2,1.56.03,2.26,1.18,2.23,4.09,1.21,4.56Z"/>
          <path d="M1671.11,41.36c-.51,1.1-3.05,1.24-3.31-.02-.72-3.47-.63-6.99-1.1-10.49-.07-.52.43-1.06.81-1.3,1.18-.76,2.7-.74,3.86.04.4.27.78.77.73,1.29l-.97,10.48Z"/>
          <path d="M1671.39,67.63c-1.18.81-2.71.8-3.88.06-.39-.25-.87-.78-.8-1.3.44-3.52.42-6.99,1.08-10.51.22-1.16,3.01-1.17,3.24,0,.68,3.45.61,6.88,1.08,10.35.07.53-.26,1.08-.71,1.39Z"/>
          <path d="M1662.32,46.5l-9.64-4.41c-.51-.23-.77-.84-.79-1.38-.06-1.34.66-2.6,1.85-3.23.42-.23,1.15-.4,1.58-.07,2.81,2.13,5.84,3.85,8.55,6.14.96.81-.3,2.89-1.55,2.95Z"/>
          <path d="M1655.44,59.74c-.51.36-1.12.31-1.62.07-1.22-.6-2-1.9-1.93-3.27.03-.54.28-1.15.8-1.38l9.55-4.38c.67-.15,1.31.58,1.56.98.29.47.67,1.59.1,2l-8.45,5.97Z"/>
          <path d="M1686.89,56.46c.1,1.43-.66,2.7-1.85,3.32-.45.23-1.12.36-1.56.04l-8.58-6.08c-.56-.4-.16-1.53.11-1.96s.97-1.26,1.62-.97l9.49,4.34c.46.21.74.74.78,1.31Z"/>
        </g>
      </g>
    </g>
  </g>
</svg>